%TF.GenerationSoftware,KiCad,Pcbnew,(5.1.8)-1*%
%TF.CreationDate,2021-05-04T01:41:37-06:00*%
%TF.ProjectId,NVRTC,4e565254-432e-46b6-9963-61645f706362,rev?*%
%TF.SameCoordinates,Original*%
%TF.FileFunction,Copper,L2,Bot*%
%TF.FilePolarity,Positive*%
%FSLAX46Y46*%
G04 Gerber Fmt 4.6, Leading zero omitted, Abs format (unit mm)*
G04 Created by KiCad (PCBNEW (5.1.8)-1) date 2021-05-04 01:41:37*
%MOMM*%
%LPD*%
G01*
G04 APERTURE LIST*
%TA.AperFunction,ViaPad*%
%ADD10C,0.800000*%
%TD*%
%TA.AperFunction,Conductor*%
%ADD11C,0.250000*%
%TD*%
%TA.AperFunction,Conductor*%
%ADD12C,0.254000*%
%TD*%
%TA.AperFunction,Conductor*%
%ADD13C,0.100000*%
%TD*%
G04 APERTURE END LIST*
%TO.P,H1,5*%
%TO.N,/A5*%
%TA.AperFunction,SMDPad,CuDef*%
G36*
G01*
X144030000Y-86060000D02*
X144030000Y-86660000D01*
G75*
G02*
X143730000Y-86960000I-300000J0D01*
G01*
X140630000Y-86960000D01*
G75*
G02*
X140330000Y-86660000I0J300000D01*
G01*
X140330000Y-86060000D01*
G75*
G02*
X140630000Y-85760000I300000J0D01*
G01*
X143730000Y-85760000D01*
G75*
G02*
X144030000Y-86060000I0J-300000D01*
G01*
G37*
%TD.AperFunction*%
%TO.P,H1,4*%
%TO.N,/A6*%
%TA.AperFunction,SMDPad,CuDef*%
G36*
G01*
X144030000Y-83520000D02*
X144030000Y-84120000D01*
G75*
G02*
X143730000Y-84420000I-300000J0D01*
G01*
X140630000Y-84420000D01*
G75*
G02*
X140330000Y-84120000I0J300000D01*
G01*
X140330000Y-83520000D01*
G75*
G02*
X140630000Y-83220000I300000J0D01*
G01*
X143730000Y-83220000D01*
G75*
G02*
X144030000Y-83520000I0J-300000D01*
G01*
G37*
%TD.AperFunction*%
%TO.P,H1,3*%
%TO.N,/A7*%
%TA.AperFunction,SMDPad,CuDef*%
G36*
G01*
X144030000Y-80980000D02*
X144030000Y-81580000D01*
G75*
G02*
X143730000Y-81880000I-300000J0D01*
G01*
X140630000Y-81880000D01*
G75*
G02*
X140330000Y-81580000I0J300000D01*
G01*
X140330000Y-80980000D01*
G75*
G02*
X140630000Y-80680000I300000J0D01*
G01*
X143730000Y-80680000D01*
G75*
G02*
X144030000Y-80980000I0J-300000D01*
G01*
G37*
%TD.AperFunction*%
%TO.P,H1,2*%
%TO.N,/A12*%
%TA.AperFunction,SMDPad,CuDef*%
G36*
G01*
X144030000Y-78440000D02*
X144030000Y-79040000D01*
G75*
G02*
X143730000Y-79340000I-300000J0D01*
G01*
X140630000Y-79340000D01*
G75*
G02*
X140330000Y-79040000I0J300000D01*
G01*
X140330000Y-78440000D01*
G75*
G02*
X140630000Y-78140000I300000J0D01*
G01*
X143730000Y-78140000D01*
G75*
G02*
X144030000Y-78440000I0J-300000D01*
G01*
G37*
%TD.AperFunction*%
%TO.P,H1,1*%
%TO.N,/RST*%
%TA.AperFunction,SMDPad,CuDef*%
G36*
G01*
X144030000Y-75900000D02*
X144030000Y-76500000D01*
G75*
G02*
X143730000Y-76800000I-300000J0D01*
G01*
X140630000Y-76800000D01*
G75*
G02*
X140330000Y-76500000I0J300000D01*
G01*
X140330000Y-75900000D01*
G75*
G02*
X140630000Y-75600000I300000J0D01*
G01*
X143730000Y-75600000D01*
G75*
G02*
X144030000Y-75900000I0J-300000D01*
G01*
G37*
%TD.AperFunction*%
%TO.P,H1,6*%
%TO.N,/A4*%
%TA.AperFunction,SMDPad,CuDef*%
G36*
G01*
X144030000Y-88600000D02*
X144030000Y-89200000D01*
G75*
G02*
X143730000Y-89500000I-300000J0D01*
G01*
X140630000Y-89500000D01*
G75*
G02*
X140330000Y-89200000I0J300000D01*
G01*
X140330000Y-88600000D01*
G75*
G02*
X140630000Y-88300000I300000J0D01*
G01*
X143730000Y-88300000D01*
G75*
G02*
X144030000Y-88600000I0J-300000D01*
G01*
G37*
%TD.AperFunction*%
%TO.P,H1,7*%
%TO.N,/A3*%
%TA.AperFunction,SMDPad,CuDef*%
G36*
G01*
X144030000Y-91140000D02*
X144030000Y-91740000D01*
G75*
G02*
X143730000Y-92040000I-300000J0D01*
G01*
X140630000Y-92040000D01*
G75*
G02*
X140330000Y-91740000I0J300000D01*
G01*
X140330000Y-91140000D01*
G75*
G02*
X140630000Y-90840000I300000J0D01*
G01*
X143730000Y-90840000D01*
G75*
G02*
X144030000Y-91140000I0J-300000D01*
G01*
G37*
%TD.AperFunction*%
%TO.P,H1,8*%
%TO.N,/A2*%
%TA.AperFunction,SMDPad,CuDef*%
G36*
G01*
X144030000Y-93680000D02*
X144030000Y-94280000D01*
G75*
G02*
X143730000Y-94580000I-300000J0D01*
G01*
X140630000Y-94580000D01*
G75*
G02*
X140330000Y-94280000I0J300000D01*
G01*
X140330000Y-93680000D01*
G75*
G02*
X140630000Y-93380000I300000J0D01*
G01*
X143730000Y-93380000D01*
G75*
G02*
X144030000Y-93680000I0J-300000D01*
G01*
G37*
%TD.AperFunction*%
%TO.P,H1,9*%
%TO.N,/A1*%
%TA.AperFunction,SMDPad,CuDef*%
G36*
G01*
X144030000Y-96220000D02*
X144030000Y-96820000D01*
G75*
G02*
X143730000Y-97120000I-300000J0D01*
G01*
X140630000Y-97120000D01*
G75*
G02*
X140330000Y-96820000I0J300000D01*
G01*
X140330000Y-96220000D01*
G75*
G02*
X140630000Y-95920000I300000J0D01*
G01*
X143730000Y-95920000D01*
G75*
G02*
X144030000Y-96220000I0J-300000D01*
G01*
G37*
%TD.AperFunction*%
%TO.P,H1,10*%
%TO.N,/A0*%
%TA.AperFunction,SMDPad,CuDef*%
G36*
G01*
X144030000Y-98760000D02*
X144030000Y-99360000D01*
G75*
G02*
X143730000Y-99660000I-300000J0D01*
G01*
X140630000Y-99660000D01*
G75*
G02*
X140330000Y-99360000I0J300000D01*
G01*
X140330000Y-98760000D01*
G75*
G02*
X140630000Y-98460000I300000J0D01*
G01*
X143730000Y-98460000D01*
G75*
G02*
X144030000Y-98760000I0J-300000D01*
G01*
G37*
%TD.AperFunction*%
%TO.P,H1,11*%
%TO.N,/D0*%
%TA.AperFunction,SMDPad,CuDef*%
G36*
G01*
X144030000Y-101300000D02*
X144030000Y-101900000D01*
G75*
G02*
X143730000Y-102200000I-300000J0D01*
G01*
X140630000Y-102200000D01*
G75*
G02*
X140330000Y-101900000I0J300000D01*
G01*
X140330000Y-101300000D01*
G75*
G02*
X140630000Y-101000000I300000J0D01*
G01*
X143730000Y-101000000D01*
G75*
G02*
X144030000Y-101300000I0J-300000D01*
G01*
G37*
%TD.AperFunction*%
%TO.P,H1,12*%
%TO.N,/D1*%
%TA.AperFunction,SMDPad,CuDef*%
G36*
G01*
X144030000Y-103840000D02*
X144030000Y-104440000D01*
G75*
G02*
X143730000Y-104740000I-300000J0D01*
G01*
X140630000Y-104740000D01*
G75*
G02*
X140330000Y-104440000I0J300000D01*
G01*
X140330000Y-103840000D01*
G75*
G02*
X140630000Y-103540000I300000J0D01*
G01*
X143730000Y-103540000D01*
G75*
G02*
X144030000Y-103840000I0J-300000D01*
G01*
G37*
%TD.AperFunction*%
%TO.P,H1,13*%
%TO.N,/D2*%
%TA.AperFunction,SMDPad,CuDef*%
G36*
G01*
X144030000Y-106380000D02*
X144030000Y-106980000D01*
G75*
G02*
X143730000Y-107280000I-300000J0D01*
G01*
X140630000Y-107280000D01*
G75*
G02*
X140330000Y-106980000I0J300000D01*
G01*
X140330000Y-106380000D01*
G75*
G02*
X140630000Y-106080000I300000J0D01*
G01*
X143730000Y-106080000D01*
G75*
G02*
X144030000Y-106380000I0J-300000D01*
G01*
G37*
%TD.AperFunction*%
%TO.P,H1,14*%
%TO.N,GND*%
%TA.AperFunction,SMDPad,CuDef*%
G36*
G01*
X144030000Y-108920000D02*
X144030000Y-109520000D01*
G75*
G02*
X143730000Y-109820000I-300000J0D01*
G01*
X140630000Y-109820000D01*
G75*
G02*
X140330000Y-109520000I0J300000D01*
G01*
X140330000Y-108920000D01*
G75*
G02*
X140630000Y-108620000I300000J0D01*
G01*
X143730000Y-108620000D01*
G75*
G02*
X144030000Y-108920000I0J-300000D01*
G01*
G37*
%TD.AperFunction*%
%TO.P,H1,15*%
%TO.N,/D3*%
%TA.AperFunction,SMDPad,CuDef*%
G36*
G01*
X161870000Y-108920000D02*
X161870000Y-109520000D01*
G75*
G02*
X161570000Y-109820000I-300000J0D01*
G01*
X158470000Y-109820000D01*
G75*
G02*
X158170000Y-109520000I0J300000D01*
G01*
X158170000Y-108920000D01*
G75*
G02*
X158470000Y-108620000I300000J0D01*
G01*
X161570000Y-108620000D01*
G75*
G02*
X161870000Y-108920000I0J-300000D01*
G01*
G37*
%TD.AperFunction*%
%TO.P,H1,16*%
%TO.N,/D4*%
%TA.AperFunction,SMDPad,CuDef*%
G36*
G01*
X161870000Y-106380000D02*
X161870000Y-106980000D01*
G75*
G02*
X161570000Y-107280000I-300000J0D01*
G01*
X158470000Y-107280000D01*
G75*
G02*
X158170000Y-106980000I0J300000D01*
G01*
X158170000Y-106380000D01*
G75*
G02*
X158470000Y-106080000I300000J0D01*
G01*
X161570000Y-106080000D01*
G75*
G02*
X161870000Y-106380000I0J-300000D01*
G01*
G37*
%TD.AperFunction*%
%TO.P,H1,17*%
%TO.N,/D5*%
%TA.AperFunction,SMDPad,CuDef*%
G36*
G01*
X161870000Y-103840000D02*
X161870000Y-104440000D01*
G75*
G02*
X161570000Y-104740000I-300000J0D01*
G01*
X158470000Y-104740000D01*
G75*
G02*
X158170000Y-104440000I0J300000D01*
G01*
X158170000Y-103840000D01*
G75*
G02*
X158470000Y-103540000I300000J0D01*
G01*
X161570000Y-103540000D01*
G75*
G02*
X161870000Y-103840000I0J-300000D01*
G01*
G37*
%TD.AperFunction*%
%TO.P,H1,18*%
%TO.N,/D6*%
%TA.AperFunction,SMDPad,CuDef*%
G36*
G01*
X161870000Y-101300000D02*
X161870000Y-101900000D01*
G75*
G02*
X161570000Y-102200000I-300000J0D01*
G01*
X158470000Y-102200000D01*
G75*
G02*
X158170000Y-101900000I0J300000D01*
G01*
X158170000Y-101300000D01*
G75*
G02*
X158470000Y-101000000I300000J0D01*
G01*
X161570000Y-101000000D01*
G75*
G02*
X161870000Y-101300000I0J-300000D01*
G01*
G37*
%TD.AperFunction*%
%TO.P,H1,19*%
%TO.N,/D7*%
%TA.AperFunction,SMDPad,CuDef*%
G36*
G01*
X161870000Y-98760000D02*
X161870000Y-99360000D01*
G75*
G02*
X161570000Y-99660000I-300000J0D01*
G01*
X158470000Y-99660000D01*
G75*
G02*
X158170000Y-99360000I0J300000D01*
G01*
X158170000Y-98760000D01*
G75*
G02*
X158470000Y-98460000I300000J0D01*
G01*
X161570000Y-98460000D01*
G75*
G02*
X161870000Y-98760000I0J-300000D01*
G01*
G37*
%TD.AperFunction*%
%TO.P,H1,20*%
%TO.N,/ChipEnable*%
%TA.AperFunction,SMDPad,CuDef*%
G36*
G01*
X161870000Y-96220000D02*
X161870000Y-96820000D01*
G75*
G02*
X161570000Y-97120000I-300000J0D01*
G01*
X158470000Y-97120000D01*
G75*
G02*
X158170000Y-96820000I0J300000D01*
G01*
X158170000Y-96220000D01*
G75*
G02*
X158470000Y-95920000I300000J0D01*
G01*
X161570000Y-95920000D01*
G75*
G02*
X161870000Y-96220000I0J-300000D01*
G01*
G37*
%TD.AperFunction*%
%TO.P,H1,21*%
%TO.N,/A10*%
%TA.AperFunction,SMDPad,CuDef*%
G36*
G01*
X161870000Y-93680000D02*
X161870000Y-94280000D01*
G75*
G02*
X161570000Y-94580000I-300000J0D01*
G01*
X158470000Y-94580000D01*
G75*
G02*
X158170000Y-94280000I0J300000D01*
G01*
X158170000Y-93680000D01*
G75*
G02*
X158470000Y-93380000I300000J0D01*
G01*
X161570000Y-93380000D01*
G75*
G02*
X161870000Y-93680000I0J-300000D01*
G01*
G37*
%TD.AperFunction*%
%TO.P,H1,22*%
%TO.N,/OutputEnable*%
%TA.AperFunction,SMDPad,CuDef*%
G36*
G01*
X161870000Y-91140000D02*
X161870000Y-91740000D01*
G75*
G02*
X161570000Y-92040000I-300000J0D01*
G01*
X158470000Y-92040000D01*
G75*
G02*
X158170000Y-91740000I0J300000D01*
G01*
X158170000Y-91140000D01*
G75*
G02*
X158470000Y-90840000I300000J0D01*
G01*
X161570000Y-90840000D01*
G75*
G02*
X161870000Y-91140000I0J-300000D01*
G01*
G37*
%TD.AperFunction*%
%TO.P,H1,23*%
%TO.N,/A11*%
%TA.AperFunction,SMDPad,CuDef*%
G36*
G01*
X161870000Y-88600000D02*
X161870000Y-89200000D01*
G75*
G02*
X161570000Y-89500000I-300000J0D01*
G01*
X158470000Y-89500000D01*
G75*
G02*
X158170000Y-89200000I0J300000D01*
G01*
X158170000Y-88600000D01*
G75*
G02*
X158470000Y-88300000I300000J0D01*
G01*
X161570000Y-88300000D01*
G75*
G02*
X161870000Y-88600000I0J-300000D01*
G01*
G37*
%TD.AperFunction*%
%TO.P,H1,24*%
%TO.N,/A9*%
%TA.AperFunction,SMDPad,CuDef*%
G36*
G01*
X161870000Y-86060000D02*
X161870000Y-86660000D01*
G75*
G02*
X161570000Y-86960000I-300000J0D01*
G01*
X158470000Y-86960000D01*
G75*
G02*
X158170000Y-86660000I0J300000D01*
G01*
X158170000Y-86060000D01*
G75*
G02*
X158470000Y-85760000I300000J0D01*
G01*
X161570000Y-85760000D01*
G75*
G02*
X161870000Y-86060000I0J-300000D01*
G01*
G37*
%TD.AperFunction*%
%TO.P,H1,25*%
%TO.N,/A8*%
%TA.AperFunction,SMDPad,CuDef*%
G36*
G01*
X161870000Y-83520000D02*
X161870000Y-84120000D01*
G75*
G02*
X161570000Y-84420000I-300000J0D01*
G01*
X158470000Y-84420000D01*
G75*
G02*
X158170000Y-84120000I0J300000D01*
G01*
X158170000Y-83520000D01*
G75*
G02*
X158470000Y-83220000I300000J0D01*
G01*
X161570000Y-83220000D01*
G75*
G02*
X161870000Y-83520000I0J-300000D01*
G01*
G37*
%TD.AperFunction*%
%TO.P,H1,26*%
%TO.N,/IRQ*%
%TA.AperFunction,SMDPad,CuDef*%
G36*
G01*
X161870000Y-80980000D02*
X161870000Y-81580000D01*
G75*
G02*
X161570000Y-81880000I-300000J0D01*
G01*
X158470000Y-81880000D01*
G75*
G02*
X158170000Y-81580000I0J300000D01*
G01*
X158170000Y-80980000D01*
G75*
G02*
X158470000Y-80680000I300000J0D01*
G01*
X161570000Y-80680000D01*
G75*
G02*
X161870000Y-80980000I0J-300000D01*
G01*
G37*
%TD.AperFunction*%
%TO.P,H1,27*%
%TO.N,/WriteEnable*%
%TA.AperFunction,SMDPad,CuDef*%
G36*
G01*
X161870000Y-78440000D02*
X161870000Y-79040000D01*
G75*
G02*
X161570000Y-79340000I-300000J0D01*
G01*
X158470000Y-79340000D01*
G75*
G02*
X158170000Y-79040000I0J300000D01*
G01*
X158170000Y-78440000D01*
G75*
G02*
X158470000Y-78140000I300000J0D01*
G01*
X161570000Y-78140000D01*
G75*
G02*
X161870000Y-78440000I0J-300000D01*
G01*
G37*
%TD.AperFunction*%
%TO.P,H1,28*%
%TO.N,+5V*%
%TA.AperFunction,SMDPad,CuDef*%
G36*
G01*
X161870000Y-75900000D02*
X161870000Y-76500000D01*
G75*
G02*
X161570000Y-76800000I-300000J0D01*
G01*
X158470000Y-76800000D01*
G75*
G02*
X158170000Y-76500000I0J300000D01*
G01*
X158170000Y-75900000D01*
G75*
G02*
X158470000Y-75600000I300000J0D01*
G01*
X161570000Y-75600000D01*
G75*
G02*
X161870000Y-75900000I0J-300000D01*
G01*
G37*
%TD.AperFunction*%
%TD*%
D10*
%TO.N,GND*%
X152400000Y-74930000D03*
X146050000Y-74930000D03*
X139700000Y-74930000D03*
X136525000Y-76200000D03*
X136525000Y-101600000D03*
X136525000Y-107950000D03*
X157480000Y-74930000D03*
X165735000Y-82550000D03*
X139700000Y-96520000D03*
X154305000Y-95885000D03*
X154305000Y-92075000D03*
X162560000Y-100330000D03*
X162560000Y-86995000D03*
X158115000Y-87630000D03*
X139700000Y-109220000D03*
X144780000Y-109220000D03*
X142240000Y-110490000D03*
X146050000Y-110490000D03*
X152400000Y-110490000D03*
X158750000Y-110490000D03*
X165100000Y-110490000D03*
X158115000Y-95250000D03*
X165735000Y-76200000D03*
X153035000Y-108585000D03*
X153035000Y-103505000D03*
%TO.N,+5V*%
X156845000Y-100330000D03*
X154305000Y-100330000D03*
X160020000Y-77470000D03*
%TO.N,/A5*%
X140970000Y-87630000D03*
%TO.N,/A6*%
X139700000Y-88900000D03*
%TO.N,/A7*%
X145415000Y-81280000D03*
%TO.N,/A12*%
X137160000Y-96520000D03*
%TO.N,/RST*%
X147320000Y-96520000D03*
X154305000Y-97790000D03*
X162560000Y-97790000D03*
%TO.N,/A4*%
X143510000Y-87630000D03*
%TO.N,/A3*%
X144145000Y-85090000D03*
%TO.N,/A2*%
X145415000Y-83820000D03*
%TO.N,/A1*%
X139700000Y-82550000D03*
%TO.N,/A0*%
X139700000Y-81280000D03*
%TO.N,/D0*%
X162560000Y-82550000D03*
%TO.N,/D1*%
X162560000Y-83820000D03*
%TO.N,/D2*%
X162560000Y-85090000D03*
%TO.N,/D3*%
X162560000Y-109220000D03*
%TO.N,/D4*%
X162560000Y-106680000D03*
%TO.N,/D5*%
X162560000Y-88900000D03*
%TO.N,/D6*%
X162560000Y-90170000D03*
%TO.N,/D7*%
X162560000Y-91440000D03*
%TO.N,/ChipEnable*%
X162560000Y-92710000D03*
%TO.N,/A10*%
X154305000Y-93980000D03*
%TO.N,/OutputEnable*%
X160020000Y-92710000D03*
%TO.N,/A11*%
X152400000Y-95250000D03*
%TO.N,/A9*%
X154305000Y-86360000D03*
%TO.N,/A8*%
X154305000Y-83820000D03*
%TO.N,/IRQ*%
X157480000Y-81280000D03*
%TO.N,/WriteEnable*%
X161925000Y-80010000D03*
%TD*%
D11*
%TO.N,+5V*%
X156845000Y-100330000D02*
X154305000Y-100330000D01*
X154305000Y-100330000D02*
X154305000Y-100330000D01*
X160020000Y-76200000D02*
X160020000Y-77470000D01*
X160020000Y-77470000D02*
X160020000Y-77470000D01*
%TO.N,/A5*%
X142180000Y-86420000D02*
X140970000Y-87630000D01*
X142180000Y-86360000D02*
X142180000Y-86420000D01*
%TO.N,/A6*%
X141605000Y-83820000D02*
X139700000Y-85725000D01*
X142180000Y-83820000D02*
X141605000Y-83820000D01*
X139700000Y-85725000D02*
X139700000Y-88900000D01*
%TO.N,/A7*%
X142180000Y-81280000D02*
X145415000Y-81280000D01*
%TO.N,/A12*%
X142180000Y-78740000D02*
X137795000Y-78740000D01*
X137795000Y-78740000D02*
X137160000Y-79375000D01*
X137160000Y-79375000D02*
X137160000Y-96520000D01*
%TO.N,/RST*%
X162560000Y-97790000D02*
X157480000Y-97790000D01*
X154305000Y-97790000D02*
X157480000Y-97790000D01*
X144030000Y-76200000D02*
X147320000Y-79490000D01*
X142180000Y-76200000D02*
X144030000Y-76200000D01*
X147320000Y-79490000D02*
X147320000Y-96520000D01*
%TO.N,/A4*%
X142240000Y-88900000D02*
X143510000Y-87630000D01*
X142180000Y-88900000D02*
X142240000Y-88900000D01*
%TO.N,/A3*%
X144780000Y-90805000D02*
X144780000Y-85725000D01*
X144145000Y-91440000D02*
X144780000Y-90805000D01*
X144780000Y-85725000D02*
X144145000Y-85090000D01*
X142180000Y-91440000D02*
X144145000Y-91440000D01*
%TO.N,/A2*%
X142180000Y-93980000D02*
X144780000Y-93980000D01*
X145415000Y-93345000D02*
X145415000Y-83820000D01*
X144780000Y-93980000D02*
X145415000Y-93345000D01*
%TO.N,/A1*%
X144780000Y-96520000D02*
X142180000Y-96520000D01*
X146685000Y-94615000D02*
X144780000Y-96520000D01*
X146685000Y-83820000D02*
X146685000Y-94615000D01*
X145415000Y-82550000D02*
X146685000Y-83820000D01*
X139700000Y-82550000D02*
X145415000Y-82550000D01*
%TO.N,/A0*%
X142180000Y-99060000D02*
X139065000Y-99060000D01*
X139065000Y-99060000D02*
X138430000Y-98425000D01*
X139700000Y-81280000D02*
X138430000Y-82550000D01*
X138430000Y-98425000D02*
X138430000Y-82550000D01*
%TO.N,/D0*%
X144030000Y-101600000D02*
X142180000Y-101600000D01*
X149860000Y-95770000D02*
X144030000Y-101600000D01*
X149860000Y-83185000D02*
X149860000Y-95770000D01*
X150600020Y-82444980D02*
X149860000Y-83185000D01*
X162454980Y-82444980D02*
X150600020Y-82444980D01*
X162560000Y-82550000D02*
X162454980Y-82444980D01*
%TO.N,/D1*%
X142180000Y-104140000D02*
X144030000Y-104140000D01*
X150495000Y-97790000D02*
X144145000Y-104140000D01*
X150495000Y-83186410D02*
X150495000Y-97790000D01*
X150786420Y-82894990D02*
X150495000Y-83186410D01*
X161828890Y-82894990D02*
X150786420Y-82894990D01*
X144145000Y-104140000D02*
X142180000Y-104140000D01*
X162560000Y-83626100D02*
X161828890Y-82894990D01*
X162560000Y-83820000D02*
X162560000Y-83626100D01*
%TO.N,/D2*%
X162560000Y-85090000D02*
X162560000Y-85090000D01*
X144341998Y-106680000D02*
X142180000Y-106680000D01*
X151130000Y-99891998D02*
X144341998Y-106680000D01*
X151130000Y-85725000D02*
X151130000Y-99891998D01*
X151765000Y-85090000D02*
X151130000Y-85725000D01*
X162560000Y-85090000D02*
X151765000Y-85090000D01*
%TO.N,/D3*%
X160020000Y-109220000D02*
X162560000Y-109220000D01*
%TO.N,/D4*%
X160020000Y-106680000D02*
X162560000Y-106680000D01*
%TO.N,/D5*%
X160020000Y-104140000D02*
X164465000Y-104140000D01*
X164465000Y-104140000D02*
X165735000Y-102870000D01*
X165735000Y-102870000D02*
X165735000Y-89535000D01*
X165100000Y-88900000D02*
X162560000Y-88900000D01*
X165735000Y-89535000D02*
X165100000Y-88900000D01*
%TO.N,/D6*%
X160020000Y-101600000D02*
X164465000Y-101600000D01*
X164465000Y-101600000D02*
X165100000Y-100965000D01*
X165100000Y-100965000D02*
X165100000Y-90805000D01*
X164465000Y-90170000D02*
X162560000Y-90170000D01*
X165100000Y-90805000D02*
X164465000Y-90170000D01*
%TO.N,/D7*%
X163830000Y-99060000D02*
X160020000Y-99060000D01*
X164465000Y-98425000D02*
X163830000Y-99060000D01*
X164465000Y-92075000D02*
X164465000Y-98425000D01*
X163830000Y-91440000D02*
X164465000Y-92075000D01*
X162560000Y-91440000D02*
X163830000Y-91440000D01*
%TO.N,/ChipEnable*%
X162560000Y-95830000D02*
X162560000Y-92710000D01*
X161870000Y-96520000D02*
X162560000Y-95830000D01*
X160020000Y-96520000D02*
X161870000Y-96520000D01*
%TO.N,/A10*%
X160020000Y-93980000D02*
X154305000Y-93980000D01*
%TO.N,/OutputEnable*%
X159188002Y-91440000D02*
X160020000Y-91440000D01*
X160020000Y-91440000D02*
X160020000Y-92710000D01*
%TO.N,/A11*%
X160020000Y-88900000D02*
X153035000Y-88900000D01*
X152400000Y-89535000D02*
X152400000Y-95250000D01*
X153035000Y-88900000D02*
X152400000Y-89535000D01*
%TO.N,/A9*%
X160020000Y-86360000D02*
X154305000Y-86360000D01*
%TO.N,/A8*%
X160020000Y-83820000D02*
X154305000Y-83820000D01*
%TO.N,/IRQ*%
X160020000Y-81280000D02*
X157480000Y-81280000D01*
%TO.N,/WriteEnable*%
X160020000Y-78740000D02*
X160020000Y-79375000D01*
X160020000Y-79375000D02*
X160655000Y-80010000D01*
X160655000Y-80010000D02*
X161925000Y-80010000D01*
%TD*%
D12*
%TO.N,GND*%
X165644864Y-74424170D02*
X165967317Y-74687157D01*
X166232553Y-75007773D01*
X166243000Y-75027094D01*
X166243000Y-89530452D01*
X166233678Y-89435807D01*
X166204745Y-89340425D01*
X166195302Y-89322758D01*
X166157759Y-89252521D01*
X166094527Y-89175473D01*
X166075220Y-89159628D01*
X165475376Y-88559785D01*
X165459527Y-88540473D01*
X165382479Y-88477241D01*
X165294575Y-88430255D01*
X165199193Y-88401322D01*
X165124854Y-88394000D01*
X165124846Y-88394000D01*
X165100000Y-88391553D01*
X165075154Y-88394000D01*
X163158501Y-88394000D01*
X163057859Y-88293358D01*
X162929942Y-88207887D01*
X162787809Y-88149013D01*
X162636922Y-88119000D01*
X162483078Y-88119000D01*
X162332191Y-88149013D01*
X162190058Y-88207887D01*
X162146505Y-88236988D01*
X162137763Y-88220633D01*
X162052843Y-88117157D01*
X161949367Y-88032237D01*
X161831313Y-87969135D01*
X161703216Y-87930278D01*
X161570000Y-87917157D01*
X158470000Y-87917157D01*
X158336784Y-87930278D01*
X158208687Y-87969135D01*
X158090633Y-88032237D01*
X157987157Y-88117157D01*
X157902237Y-88220633D01*
X157839135Y-88338687D01*
X157822356Y-88394000D01*
X153059854Y-88394000D01*
X153035000Y-88391552D01*
X153010146Y-88394000D01*
X152935807Y-88401322D01*
X152840425Y-88430255D01*
X152752521Y-88477241D01*
X152675473Y-88540473D01*
X152659629Y-88559779D01*
X152059785Y-89159624D01*
X152040473Y-89175473D01*
X151977241Y-89252521D01*
X151930255Y-89340426D01*
X151901322Y-89435808D01*
X151894000Y-89510147D01*
X151894000Y-89510154D01*
X151891553Y-89535000D01*
X151894000Y-89559846D01*
X151894001Y-94651498D01*
X151793358Y-94752141D01*
X151707887Y-94880058D01*
X151649013Y-95022191D01*
X151636000Y-95087612D01*
X151636000Y-85934591D01*
X151974592Y-85596000D01*
X154142612Y-85596000D01*
X154077191Y-85609013D01*
X153935058Y-85667887D01*
X153807141Y-85753358D01*
X153698358Y-85862141D01*
X153612887Y-85990058D01*
X153554013Y-86132191D01*
X153524000Y-86283078D01*
X153524000Y-86436922D01*
X153554013Y-86587809D01*
X153612887Y-86729942D01*
X153698358Y-86857859D01*
X153807141Y-86966642D01*
X153935058Y-87052113D01*
X154077191Y-87110987D01*
X154228078Y-87141000D01*
X154381922Y-87141000D01*
X154532809Y-87110987D01*
X154674942Y-87052113D01*
X154802859Y-86966642D01*
X154903501Y-86866000D01*
X157822356Y-86866000D01*
X157839135Y-86921313D01*
X157902237Y-87039367D01*
X157987157Y-87142843D01*
X158090633Y-87227763D01*
X158208687Y-87290865D01*
X158336784Y-87329722D01*
X158470000Y-87342843D01*
X161570000Y-87342843D01*
X161703216Y-87329722D01*
X161831313Y-87290865D01*
X161949367Y-87227763D01*
X162052843Y-87142843D01*
X162137763Y-87039367D01*
X162200865Y-86921313D01*
X162239722Y-86793216D01*
X162252843Y-86660000D01*
X162252843Y-86060000D01*
X162239722Y-85926784D01*
X162200865Y-85798687D01*
X162192560Y-85783149D01*
X162332191Y-85840987D01*
X162483078Y-85871000D01*
X162636922Y-85871000D01*
X162787809Y-85840987D01*
X162929942Y-85782113D01*
X163057859Y-85696642D01*
X163166642Y-85587859D01*
X163252113Y-85459942D01*
X163310987Y-85317809D01*
X163341000Y-85166922D01*
X163341000Y-85013078D01*
X163310987Y-84862191D01*
X163252113Y-84720058D01*
X163166642Y-84592141D01*
X163057859Y-84483358D01*
X163015418Y-84455000D01*
X163057859Y-84426642D01*
X163166642Y-84317859D01*
X163252113Y-84189942D01*
X163310987Y-84047809D01*
X163341000Y-83896922D01*
X163341000Y-83743078D01*
X163310987Y-83592191D01*
X163252113Y-83450058D01*
X163166642Y-83322141D01*
X163057859Y-83213358D01*
X163015418Y-83185000D01*
X163057859Y-83156642D01*
X163166642Y-83047859D01*
X163252113Y-82919942D01*
X163310987Y-82777809D01*
X163341000Y-82626922D01*
X163341000Y-82473078D01*
X163310987Y-82322191D01*
X163252113Y-82180058D01*
X163166642Y-82052141D01*
X163057859Y-81943358D01*
X162929942Y-81857887D01*
X162787809Y-81799013D01*
X162636922Y-81769000D01*
X162483078Y-81769000D01*
X162332191Y-81799013D01*
X162192560Y-81856851D01*
X162200865Y-81841313D01*
X162239722Y-81713216D01*
X162252843Y-81580000D01*
X162252843Y-80980000D01*
X162239722Y-80846784D01*
X162206900Y-80738582D01*
X162294942Y-80702113D01*
X162422859Y-80616642D01*
X162531642Y-80507859D01*
X162617113Y-80379942D01*
X162675987Y-80237809D01*
X162706000Y-80086922D01*
X162706000Y-79933078D01*
X162675987Y-79782191D01*
X162617113Y-79640058D01*
X162531642Y-79512141D01*
X162422859Y-79403358D01*
X162294942Y-79317887D01*
X162206900Y-79281418D01*
X162239722Y-79173216D01*
X162252843Y-79040000D01*
X162252843Y-78440000D01*
X162239722Y-78306784D01*
X162200865Y-78178687D01*
X162137763Y-78060633D01*
X162052843Y-77957157D01*
X161949367Y-77872237D01*
X161831313Y-77809135D01*
X161703216Y-77770278D01*
X161570000Y-77757157D01*
X160746404Y-77757157D01*
X160770987Y-77697809D01*
X160801000Y-77546922D01*
X160801000Y-77393078D01*
X160770987Y-77242191D01*
X160746404Y-77182843D01*
X161570000Y-77182843D01*
X161703216Y-77169722D01*
X161831313Y-77130865D01*
X161949367Y-77067763D01*
X162052843Y-76982843D01*
X162137763Y-76879367D01*
X162200865Y-76761313D01*
X162239722Y-76633216D01*
X162252843Y-76500000D01*
X162252843Y-75900000D01*
X162239722Y-75766784D01*
X162200865Y-75638687D01*
X162137763Y-75520633D01*
X162052843Y-75417157D01*
X161949367Y-75332237D01*
X161831313Y-75269135D01*
X161703216Y-75230278D01*
X161570000Y-75217157D01*
X158470000Y-75217157D01*
X158336784Y-75230278D01*
X158208687Y-75269135D01*
X158090633Y-75332237D01*
X157987157Y-75417157D01*
X157902237Y-75520633D01*
X157839135Y-75638687D01*
X157800278Y-75766784D01*
X157787157Y-75900000D01*
X157787157Y-76500000D01*
X157800278Y-76633216D01*
X157839135Y-76761313D01*
X157902237Y-76879367D01*
X157987157Y-76982843D01*
X158090633Y-77067763D01*
X158208687Y-77130865D01*
X158336784Y-77169722D01*
X158470000Y-77182843D01*
X159293596Y-77182843D01*
X159269013Y-77242191D01*
X159239000Y-77393078D01*
X159239000Y-77546922D01*
X159269013Y-77697809D01*
X159293596Y-77757157D01*
X158470000Y-77757157D01*
X158336784Y-77770278D01*
X158208687Y-77809135D01*
X158090633Y-77872237D01*
X157987157Y-77957157D01*
X157902237Y-78060633D01*
X157839135Y-78178687D01*
X157800278Y-78306784D01*
X157787157Y-78440000D01*
X157787157Y-79040000D01*
X157800278Y-79173216D01*
X157839135Y-79301313D01*
X157902237Y-79419367D01*
X157987157Y-79522843D01*
X158090633Y-79607763D01*
X158208687Y-79670865D01*
X158336784Y-79709722D01*
X158470000Y-79722843D01*
X159650885Y-79722843D01*
X159660474Y-79734527D01*
X159679779Y-79750370D01*
X160226565Y-80297157D01*
X158470000Y-80297157D01*
X158336784Y-80310278D01*
X158208687Y-80349135D01*
X158090633Y-80412237D01*
X157987157Y-80497157D01*
X157902237Y-80600633D01*
X157893495Y-80616988D01*
X157849942Y-80587887D01*
X157707809Y-80529013D01*
X157556922Y-80499000D01*
X157403078Y-80499000D01*
X157252191Y-80529013D01*
X157110058Y-80587887D01*
X156982141Y-80673358D01*
X156873358Y-80782141D01*
X156787887Y-80910058D01*
X156729013Y-81052191D01*
X156699000Y-81203078D01*
X156699000Y-81356922D01*
X156729013Y-81507809D01*
X156787887Y-81649942D01*
X156873358Y-81777859D01*
X156982141Y-81886642D01*
X157060471Y-81938980D01*
X150624865Y-81938980D01*
X150600019Y-81936533D01*
X150575173Y-81938980D01*
X150575166Y-81938980D01*
X150510714Y-81945328D01*
X150500826Y-81946302D01*
X150478627Y-81953036D01*
X150405445Y-81975235D01*
X150317541Y-82022221D01*
X150240493Y-82085453D01*
X150224648Y-82104760D01*
X149519785Y-82809624D01*
X149500473Y-82825473D01*
X149437241Y-82902521D01*
X149390255Y-82990426D01*
X149361322Y-83085808D01*
X149354000Y-83160147D01*
X149354000Y-83160154D01*
X149351553Y-83185000D01*
X149354000Y-83209846D01*
X149354001Y-95560407D01*
X147987238Y-96927170D01*
X148012113Y-96889942D01*
X148070987Y-96747809D01*
X148101000Y-96596922D01*
X148101000Y-96443078D01*
X148070987Y-96292191D01*
X148012113Y-96150058D01*
X147926642Y-96022141D01*
X147826000Y-95921499D01*
X147826000Y-79514854D01*
X147828448Y-79490000D01*
X147818678Y-79390807D01*
X147789745Y-79295425D01*
X147770282Y-79259013D01*
X147742759Y-79207521D01*
X147679527Y-79130473D01*
X147660220Y-79114628D01*
X144409265Y-75863674D01*
X144399722Y-75766784D01*
X144360865Y-75638687D01*
X144297763Y-75520633D01*
X144212843Y-75417157D01*
X144109367Y-75332237D01*
X143991313Y-75269135D01*
X143863216Y-75230278D01*
X143730000Y-75217157D01*
X140630000Y-75217157D01*
X140496784Y-75230278D01*
X140368687Y-75269135D01*
X140250633Y-75332237D01*
X140147157Y-75417157D01*
X140062237Y-75520633D01*
X139999135Y-75638687D01*
X139960278Y-75766784D01*
X139947157Y-75900000D01*
X139947157Y-76500000D01*
X139960278Y-76633216D01*
X139999135Y-76761313D01*
X140062237Y-76879367D01*
X140147157Y-76982843D01*
X140250633Y-77067763D01*
X140368687Y-77130865D01*
X140496784Y-77169722D01*
X140630000Y-77182843D01*
X143730000Y-77182843D01*
X143863216Y-77169722D01*
X143991313Y-77130865D01*
X144109367Y-77067763D01*
X144149355Y-77034946D01*
X146814000Y-79699592D01*
X146814000Y-83233408D01*
X145790376Y-82209785D01*
X145774527Y-82190473D01*
X145697479Y-82127241D01*
X145609575Y-82080255D01*
X145524642Y-82054492D01*
X145642809Y-82030987D01*
X145784942Y-81972113D01*
X145912859Y-81886642D01*
X146021642Y-81777859D01*
X146107113Y-81649942D01*
X146165987Y-81507809D01*
X146196000Y-81356922D01*
X146196000Y-81203078D01*
X146165987Y-81052191D01*
X146107113Y-80910058D01*
X146021642Y-80782141D01*
X145912859Y-80673358D01*
X145784942Y-80587887D01*
X145642809Y-80529013D01*
X145491922Y-80499000D01*
X145338078Y-80499000D01*
X145187191Y-80529013D01*
X145045058Y-80587887D01*
X144917141Y-80673358D01*
X144816499Y-80774000D01*
X144377644Y-80774000D01*
X144360865Y-80718687D01*
X144297763Y-80600633D01*
X144212843Y-80497157D01*
X144109367Y-80412237D01*
X143991313Y-80349135D01*
X143863216Y-80310278D01*
X143730000Y-80297157D01*
X140630000Y-80297157D01*
X140496784Y-80310278D01*
X140368687Y-80349135D01*
X140250633Y-80412237D01*
X140147157Y-80497157D01*
X140071722Y-80589076D01*
X140069942Y-80587887D01*
X139927809Y-80529013D01*
X139776922Y-80499000D01*
X139623078Y-80499000D01*
X139472191Y-80529013D01*
X139330058Y-80587887D01*
X139202141Y-80673358D01*
X139093358Y-80782141D01*
X139007887Y-80910058D01*
X138949013Y-81052191D01*
X138919000Y-81203078D01*
X138919000Y-81345408D01*
X138089780Y-82174629D01*
X138070474Y-82190473D01*
X138007242Y-82267521D01*
X137982127Y-82314508D01*
X137960255Y-82355426D01*
X137931322Y-82450808D01*
X137921553Y-82550000D01*
X137924001Y-82574856D01*
X137924000Y-96357613D01*
X137910987Y-96292191D01*
X137852113Y-96150058D01*
X137766642Y-96022141D01*
X137666000Y-95921499D01*
X137666000Y-79584591D01*
X138004592Y-79246000D01*
X139982356Y-79246000D01*
X139999135Y-79301313D01*
X140062237Y-79419367D01*
X140147157Y-79522843D01*
X140250633Y-79607763D01*
X140368687Y-79670865D01*
X140496784Y-79709722D01*
X140630000Y-79722843D01*
X143730000Y-79722843D01*
X143863216Y-79709722D01*
X143991313Y-79670865D01*
X144109367Y-79607763D01*
X144212843Y-79522843D01*
X144297763Y-79419367D01*
X144360865Y-79301313D01*
X144399722Y-79173216D01*
X144412843Y-79040000D01*
X144412843Y-78440000D01*
X144399722Y-78306784D01*
X144360865Y-78178687D01*
X144297763Y-78060633D01*
X144212843Y-77957157D01*
X144109367Y-77872237D01*
X143991313Y-77809135D01*
X143863216Y-77770278D01*
X143730000Y-77757157D01*
X140630000Y-77757157D01*
X140496784Y-77770278D01*
X140368687Y-77809135D01*
X140250633Y-77872237D01*
X140147157Y-77957157D01*
X140062237Y-78060633D01*
X139999135Y-78178687D01*
X139982356Y-78234000D01*
X137819854Y-78234000D01*
X137795000Y-78231552D01*
X137770146Y-78234000D01*
X137695807Y-78241322D01*
X137600425Y-78270255D01*
X137512521Y-78317241D01*
X137435473Y-78380473D01*
X137419628Y-78399780D01*
X136819785Y-78999624D01*
X136800473Y-79015473D01*
X136737241Y-79092521D01*
X136690255Y-79180426D01*
X136661322Y-79275808D01*
X136654000Y-79350147D01*
X136654000Y-79350154D01*
X136651553Y-79375000D01*
X136654000Y-79399846D01*
X136654001Y-95921498D01*
X136553358Y-96022141D01*
X136467887Y-96150058D01*
X136409013Y-96292191D01*
X136379000Y-96443078D01*
X136379000Y-96596922D01*
X136409013Y-96747809D01*
X136467887Y-96889942D01*
X136553358Y-97017859D01*
X136662141Y-97126642D01*
X136790058Y-97212113D01*
X136932191Y-97270987D01*
X137083078Y-97301000D01*
X137236922Y-97301000D01*
X137387809Y-97270987D01*
X137529942Y-97212113D01*
X137657859Y-97126642D01*
X137766642Y-97017859D01*
X137852113Y-96889942D01*
X137910987Y-96747809D01*
X137924000Y-96682387D01*
X137924000Y-98400154D01*
X137921553Y-98425000D01*
X137924000Y-98449846D01*
X137924000Y-98449853D01*
X137931322Y-98524192D01*
X137960255Y-98619574D01*
X138007241Y-98707479D01*
X138070473Y-98784527D01*
X138089785Y-98800376D01*
X138689628Y-99400220D01*
X138705473Y-99419527D01*
X138782521Y-99482759D01*
X138870425Y-99529745D01*
X138965807Y-99558678D01*
X139065000Y-99568448D01*
X139089854Y-99566000D01*
X139982356Y-99566000D01*
X139999135Y-99621313D01*
X140062237Y-99739367D01*
X140147157Y-99842843D01*
X140250633Y-99927763D01*
X140368687Y-99990865D01*
X140496784Y-100029722D01*
X140630000Y-100042843D01*
X143730000Y-100042843D01*
X143863216Y-100029722D01*
X143991313Y-99990865D01*
X144109367Y-99927763D01*
X144212843Y-99842843D01*
X144297763Y-99739367D01*
X144360865Y-99621313D01*
X144399722Y-99493216D01*
X144412843Y-99360000D01*
X144412843Y-98760000D01*
X144399722Y-98626784D01*
X144360865Y-98498687D01*
X144297763Y-98380633D01*
X144212843Y-98277157D01*
X144109367Y-98192237D01*
X143991313Y-98129135D01*
X143863216Y-98090278D01*
X143730000Y-98077157D01*
X140630000Y-98077157D01*
X140496784Y-98090278D01*
X140368687Y-98129135D01*
X140250633Y-98192237D01*
X140147157Y-98277157D01*
X140062237Y-98380633D01*
X139999135Y-98498687D01*
X139982356Y-98554000D01*
X139274592Y-98554000D01*
X138936000Y-98215409D01*
X138936000Y-89062388D01*
X138949013Y-89127809D01*
X139007887Y-89269942D01*
X139093358Y-89397859D01*
X139202141Y-89506642D01*
X139330058Y-89592113D01*
X139472191Y-89650987D01*
X139623078Y-89681000D01*
X139776922Y-89681000D01*
X139927809Y-89650987D01*
X140069942Y-89592113D01*
X140071722Y-89590924D01*
X140147157Y-89682843D01*
X140250633Y-89767763D01*
X140368687Y-89830865D01*
X140496784Y-89869722D01*
X140630000Y-89882843D01*
X143730000Y-89882843D01*
X143863216Y-89869722D01*
X143991313Y-89830865D01*
X144109367Y-89767763D01*
X144212843Y-89682843D01*
X144274000Y-89608322D01*
X144274000Y-90595408D01*
X144212518Y-90656890D01*
X144109367Y-90572237D01*
X143991313Y-90509135D01*
X143863216Y-90470278D01*
X143730000Y-90457157D01*
X140630000Y-90457157D01*
X140496784Y-90470278D01*
X140368687Y-90509135D01*
X140250633Y-90572237D01*
X140147157Y-90657157D01*
X140062237Y-90760633D01*
X139999135Y-90878687D01*
X139960278Y-91006784D01*
X139947157Y-91140000D01*
X139947157Y-91740000D01*
X139960278Y-91873216D01*
X139999135Y-92001313D01*
X140062237Y-92119367D01*
X140147157Y-92222843D01*
X140250633Y-92307763D01*
X140368687Y-92370865D01*
X140496784Y-92409722D01*
X140630000Y-92422843D01*
X143730000Y-92422843D01*
X143863216Y-92409722D01*
X143991313Y-92370865D01*
X144109367Y-92307763D01*
X144212843Y-92222843D01*
X144297763Y-92119367D01*
X144360865Y-92001313D01*
X144398136Y-91878443D01*
X144427479Y-91862759D01*
X144504527Y-91799527D01*
X144520376Y-91780215D01*
X144909000Y-91391591D01*
X144909000Y-93135408D01*
X144570409Y-93474000D01*
X144377644Y-93474000D01*
X144360865Y-93418687D01*
X144297763Y-93300633D01*
X144212843Y-93197157D01*
X144109367Y-93112237D01*
X143991313Y-93049135D01*
X143863216Y-93010278D01*
X143730000Y-92997157D01*
X140630000Y-92997157D01*
X140496784Y-93010278D01*
X140368687Y-93049135D01*
X140250633Y-93112237D01*
X140147157Y-93197157D01*
X140062237Y-93300633D01*
X139999135Y-93418687D01*
X139960278Y-93546784D01*
X139947157Y-93680000D01*
X139947157Y-94280000D01*
X139960278Y-94413216D01*
X139999135Y-94541313D01*
X140062237Y-94659367D01*
X140147157Y-94762843D01*
X140250633Y-94847763D01*
X140368687Y-94910865D01*
X140496784Y-94949722D01*
X140630000Y-94962843D01*
X143730000Y-94962843D01*
X143863216Y-94949722D01*
X143991313Y-94910865D01*
X144109367Y-94847763D01*
X144212843Y-94762843D01*
X144297763Y-94659367D01*
X144360865Y-94541313D01*
X144377644Y-94486000D01*
X144755154Y-94486000D01*
X144780000Y-94488447D01*
X144804846Y-94486000D01*
X144804854Y-94486000D01*
X144879193Y-94478678D01*
X144974575Y-94449745D01*
X145062479Y-94402759D01*
X145139527Y-94339527D01*
X145155376Y-94320215D01*
X145755220Y-93720372D01*
X145774527Y-93704527D01*
X145837759Y-93627479D01*
X145884745Y-93539575D01*
X145913678Y-93444193D01*
X145921000Y-93369854D01*
X145921000Y-93369853D01*
X145923448Y-93345000D01*
X145921000Y-93320146D01*
X145921000Y-84418501D01*
X146021642Y-84317859D01*
X146107113Y-84189942D01*
X146165987Y-84047809D01*
X146171168Y-84021760D01*
X146179000Y-84029592D01*
X146179001Y-94405407D01*
X144570409Y-96014000D01*
X144377644Y-96014000D01*
X144360865Y-95958687D01*
X144297763Y-95840633D01*
X144212843Y-95737157D01*
X144109367Y-95652237D01*
X143991313Y-95589135D01*
X143863216Y-95550278D01*
X143730000Y-95537157D01*
X140630000Y-95537157D01*
X140496784Y-95550278D01*
X140368687Y-95589135D01*
X140250633Y-95652237D01*
X140147157Y-95737157D01*
X140062237Y-95840633D01*
X139999135Y-95958687D01*
X139960278Y-96086784D01*
X139947157Y-96220000D01*
X139947157Y-96820000D01*
X139960278Y-96953216D01*
X139999135Y-97081313D01*
X140062237Y-97199367D01*
X140147157Y-97302843D01*
X140250633Y-97387763D01*
X140368687Y-97450865D01*
X140496784Y-97489722D01*
X140630000Y-97502843D01*
X143730000Y-97502843D01*
X143863216Y-97489722D01*
X143991313Y-97450865D01*
X144109367Y-97387763D01*
X144212843Y-97302843D01*
X144297763Y-97199367D01*
X144360865Y-97081313D01*
X144377644Y-97026000D01*
X144755154Y-97026000D01*
X144780000Y-97028447D01*
X144804846Y-97026000D01*
X144804854Y-97026000D01*
X144879193Y-97018678D01*
X144974575Y-96989745D01*
X145062479Y-96942759D01*
X145139527Y-96879527D01*
X145155376Y-96860215D01*
X146814001Y-95201591D01*
X146814001Y-95921498D01*
X146713358Y-96022141D01*
X146627887Y-96150058D01*
X146569013Y-96292191D01*
X146539000Y-96443078D01*
X146539000Y-96596922D01*
X146569013Y-96747809D01*
X146627887Y-96889942D01*
X146713358Y-97017859D01*
X146822141Y-97126642D01*
X146950058Y-97212113D01*
X147092191Y-97270987D01*
X147243078Y-97301000D01*
X147396922Y-97301000D01*
X147547809Y-97270987D01*
X147689942Y-97212113D01*
X147727170Y-97187238D01*
X144149355Y-100765054D01*
X144109367Y-100732237D01*
X143991313Y-100669135D01*
X143863216Y-100630278D01*
X143730000Y-100617157D01*
X140630000Y-100617157D01*
X140496784Y-100630278D01*
X140368687Y-100669135D01*
X140250633Y-100732237D01*
X140147157Y-100817157D01*
X140062237Y-100920633D01*
X139999135Y-101038687D01*
X139960278Y-101166784D01*
X139947157Y-101300000D01*
X139947157Y-101900000D01*
X139960278Y-102033216D01*
X139999135Y-102161313D01*
X140062237Y-102279367D01*
X140147157Y-102382843D01*
X140250633Y-102467763D01*
X140368687Y-102530865D01*
X140496784Y-102569722D01*
X140630000Y-102582843D01*
X143730000Y-102582843D01*
X143863216Y-102569722D01*
X143991313Y-102530865D01*
X144109367Y-102467763D01*
X144212843Y-102382843D01*
X144297763Y-102279367D01*
X144360865Y-102161313D01*
X144399722Y-102033216D01*
X144409265Y-101936326D01*
X149989001Y-96356591D01*
X149989001Y-97580407D01*
X144212518Y-103356891D01*
X144109367Y-103272237D01*
X143991313Y-103209135D01*
X143863216Y-103170278D01*
X143730000Y-103157157D01*
X140630000Y-103157157D01*
X140496784Y-103170278D01*
X140368687Y-103209135D01*
X140250633Y-103272237D01*
X140147157Y-103357157D01*
X140062237Y-103460633D01*
X139999135Y-103578687D01*
X139960278Y-103706784D01*
X139947157Y-103840000D01*
X139947157Y-104440000D01*
X139960278Y-104573216D01*
X139999135Y-104701313D01*
X140062237Y-104819367D01*
X140147157Y-104922843D01*
X140250633Y-105007763D01*
X140368687Y-105070865D01*
X140496784Y-105109722D01*
X140630000Y-105122843D01*
X143730000Y-105122843D01*
X143863216Y-105109722D01*
X143991313Y-105070865D01*
X144109367Y-105007763D01*
X144212843Y-104922843D01*
X144297763Y-104819367D01*
X144360865Y-104701313D01*
X144398136Y-104578443D01*
X144427479Y-104562759D01*
X144504527Y-104499527D01*
X144520376Y-104480215D01*
X150624001Y-98376591D01*
X150624001Y-99682405D01*
X144300553Y-106005853D01*
X144297763Y-106000633D01*
X144212843Y-105897157D01*
X144109367Y-105812237D01*
X143991313Y-105749135D01*
X143863216Y-105710278D01*
X143730000Y-105697157D01*
X140630000Y-105697157D01*
X140496784Y-105710278D01*
X140368687Y-105749135D01*
X140250633Y-105812237D01*
X140147157Y-105897157D01*
X140062237Y-106000633D01*
X139999135Y-106118687D01*
X139960278Y-106246784D01*
X139947157Y-106380000D01*
X139947157Y-106980000D01*
X139960278Y-107113216D01*
X139999135Y-107241313D01*
X140062237Y-107359367D01*
X140147157Y-107462843D01*
X140250633Y-107547763D01*
X140368687Y-107610865D01*
X140496784Y-107649722D01*
X140630000Y-107662843D01*
X143730000Y-107662843D01*
X143863216Y-107649722D01*
X143991313Y-107610865D01*
X144109367Y-107547763D01*
X144212843Y-107462843D01*
X144297763Y-107359367D01*
X144360865Y-107241313D01*
X144377976Y-107184904D01*
X144441191Y-107178678D01*
X144536573Y-107149745D01*
X144624477Y-107102759D01*
X144701525Y-107039527D01*
X144717374Y-107020215D01*
X145357589Y-106380000D01*
X157787157Y-106380000D01*
X157787157Y-106980000D01*
X157800278Y-107113216D01*
X157839135Y-107241313D01*
X157902237Y-107359367D01*
X157987157Y-107462843D01*
X158090633Y-107547763D01*
X158208687Y-107610865D01*
X158336784Y-107649722D01*
X158470000Y-107662843D01*
X161570000Y-107662843D01*
X161703216Y-107649722D01*
X161831313Y-107610865D01*
X161949367Y-107547763D01*
X162052843Y-107462843D01*
X162137763Y-107359367D01*
X162146505Y-107343012D01*
X162190058Y-107372113D01*
X162332191Y-107430987D01*
X162483078Y-107461000D01*
X162636922Y-107461000D01*
X162787809Y-107430987D01*
X162929942Y-107372113D01*
X163057859Y-107286642D01*
X163166642Y-107177859D01*
X163252113Y-107049942D01*
X163310987Y-106907809D01*
X163341000Y-106756922D01*
X163341000Y-106603078D01*
X163310987Y-106452191D01*
X163252113Y-106310058D01*
X163166642Y-106182141D01*
X163057859Y-106073358D01*
X162929942Y-105987887D01*
X162787809Y-105929013D01*
X162636922Y-105899000D01*
X162483078Y-105899000D01*
X162332191Y-105929013D01*
X162190058Y-105987887D01*
X162146505Y-106016988D01*
X162137763Y-106000633D01*
X162052843Y-105897157D01*
X161949367Y-105812237D01*
X161831313Y-105749135D01*
X161703216Y-105710278D01*
X161570000Y-105697157D01*
X158470000Y-105697157D01*
X158336784Y-105710278D01*
X158208687Y-105749135D01*
X158090633Y-105812237D01*
X157987157Y-105897157D01*
X157902237Y-106000633D01*
X157839135Y-106118687D01*
X157800278Y-106246784D01*
X157787157Y-106380000D01*
X145357589Y-106380000D01*
X151470220Y-100267370D01*
X151487634Y-100253078D01*
X153524000Y-100253078D01*
X153524000Y-100406922D01*
X153554013Y-100557809D01*
X153612887Y-100699942D01*
X153698358Y-100827859D01*
X153807141Y-100936642D01*
X153935058Y-101022113D01*
X154077191Y-101080987D01*
X154228078Y-101111000D01*
X154381922Y-101111000D01*
X154532809Y-101080987D01*
X154674942Y-101022113D01*
X154802859Y-100936642D01*
X154903501Y-100836000D01*
X156246499Y-100836000D01*
X156347141Y-100936642D01*
X156475058Y-101022113D01*
X156617191Y-101080987D01*
X156768078Y-101111000D01*
X156921922Y-101111000D01*
X157072809Y-101080987D01*
X157214942Y-101022113D01*
X157342859Y-100936642D01*
X157451642Y-100827859D01*
X157537113Y-100699942D01*
X157595987Y-100557809D01*
X157626000Y-100406922D01*
X157626000Y-100253078D01*
X157595987Y-100102191D01*
X157537113Y-99960058D01*
X157451642Y-99832141D01*
X157342859Y-99723358D01*
X157214942Y-99637887D01*
X157072809Y-99579013D01*
X156921922Y-99549000D01*
X156768078Y-99549000D01*
X156617191Y-99579013D01*
X156475058Y-99637887D01*
X156347141Y-99723358D01*
X156246499Y-99824000D01*
X154903501Y-99824000D01*
X154802859Y-99723358D01*
X154674942Y-99637887D01*
X154532809Y-99579013D01*
X154381922Y-99549000D01*
X154228078Y-99549000D01*
X154077191Y-99579013D01*
X153935058Y-99637887D01*
X153807141Y-99723358D01*
X153698358Y-99832141D01*
X153612887Y-99960058D01*
X153554013Y-100102191D01*
X153524000Y-100253078D01*
X151487634Y-100253078D01*
X151489527Y-100251525D01*
X151552759Y-100174477D01*
X151599745Y-100086573D01*
X151628678Y-99991191D01*
X151636000Y-99916852D01*
X151636000Y-99916845D01*
X151638447Y-99891999D01*
X151636000Y-99867153D01*
X151636000Y-95412388D01*
X151649013Y-95477809D01*
X151707887Y-95619942D01*
X151793358Y-95747859D01*
X151902141Y-95856642D01*
X152030058Y-95942113D01*
X152172191Y-96000987D01*
X152323078Y-96031000D01*
X152476922Y-96031000D01*
X152627809Y-96000987D01*
X152769942Y-95942113D01*
X152897859Y-95856642D01*
X153006642Y-95747859D01*
X153092113Y-95619942D01*
X153150987Y-95477809D01*
X153181000Y-95326922D01*
X153181000Y-95173078D01*
X153150987Y-95022191D01*
X153092113Y-94880058D01*
X153006642Y-94752141D01*
X152906000Y-94651499D01*
X152906000Y-89744591D01*
X153244592Y-89406000D01*
X157822356Y-89406000D01*
X157839135Y-89461313D01*
X157902237Y-89579367D01*
X157987157Y-89682843D01*
X158090633Y-89767763D01*
X158208687Y-89830865D01*
X158336784Y-89869722D01*
X158470000Y-89882843D01*
X161570000Y-89882843D01*
X161703216Y-89869722D01*
X161831313Y-89830865D01*
X161861898Y-89814517D01*
X161809013Y-89942191D01*
X161779000Y-90093078D01*
X161779000Y-90246922D01*
X161809013Y-90397809D01*
X161861898Y-90525483D01*
X161831313Y-90509135D01*
X161703216Y-90470278D01*
X161570000Y-90457157D01*
X158470000Y-90457157D01*
X158336784Y-90470278D01*
X158208687Y-90509135D01*
X158090633Y-90572237D01*
X157987157Y-90657157D01*
X157902237Y-90760633D01*
X157839135Y-90878687D01*
X157800278Y-91006784D01*
X157787157Y-91140000D01*
X157787157Y-91740000D01*
X157800278Y-91873216D01*
X157839135Y-92001313D01*
X157902237Y-92119367D01*
X157987157Y-92222843D01*
X158090633Y-92307763D01*
X158208687Y-92370865D01*
X158336784Y-92409722D01*
X158470000Y-92422843D01*
X159293596Y-92422843D01*
X159269013Y-92482191D01*
X159239000Y-92633078D01*
X159239000Y-92786922D01*
X159269013Y-92937809D01*
X159293596Y-92997157D01*
X158470000Y-92997157D01*
X158336784Y-93010278D01*
X158208687Y-93049135D01*
X158090633Y-93112237D01*
X157987157Y-93197157D01*
X157902237Y-93300633D01*
X157839135Y-93418687D01*
X157822356Y-93474000D01*
X154903501Y-93474000D01*
X154802859Y-93373358D01*
X154674942Y-93287887D01*
X154532809Y-93229013D01*
X154381922Y-93199000D01*
X154228078Y-93199000D01*
X154077191Y-93229013D01*
X153935058Y-93287887D01*
X153807141Y-93373358D01*
X153698358Y-93482141D01*
X153612887Y-93610058D01*
X153554013Y-93752191D01*
X153524000Y-93903078D01*
X153524000Y-94056922D01*
X153554013Y-94207809D01*
X153612887Y-94349942D01*
X153698358Y-94477859D01*
X153807141Y-94586642D01*
X153935058Y-94672113D01*
X154077191Y-94730987D01*
X154228078Y-94761000D01*
X154381922Y-94761000D01*
X154532809Y-94730987D01*
X154674942Y-94672113D01*
X154802859Y-94586642D01*
X154903501Y-94486000D01*
X157822356Y-94486000D01*
X157839135Y-94541313D01*
X157902237Y-94659367D01*
X157987157Y-94762843D01*
X158090633Y-94847763D01*
X158208687Y-94910865D01*
X158336784Y-94949722D01*
X158470000Y-94962843D01*
X161570000Y-94962843D01*
X161703216Y-94949722D01*
X161831313Y-94910865D01*
X161949367Y-94847763D01*
X162052843Y-94762843D01*
X162054000Y-94761433D01*
X162054000Y-95620408D01*
X161989355Y-95685054D01*
X161949367Y-95652237D01*
X161831313Y-95589135D01*
X161703216Y-95550278D01*
X161570000Y-95537157D01*
X158470000Y-95537157D01*
X158336784Y-95550278D01*
X158208687Y-95589135D01*
X158090633Y-95652237D01*
X157987157Y-95737157D01*
X157902237Y-95840633D01*
X157839135Y-95958687D01*
X157800278Y-96086784D01*
X157787157Y-96220000D01*
X157787157Y-96820000D01*
X157800278Y-96953216D01*
X157839135Y-97081313D01*
X157902237Y-97199367D01*
X157971693Y-97284000D01*
X154903501Y-97284000D01*
X154802859Y-97183358D01*
X154674942Y-97097887D01*
X154532809Y-97039013D01*
X154381922Y-97009000D01*
X154228078Y-97009000D01*
X154077191Y-97039013D01*
X153935058Y-97097887D01*
X153807141Y-97183358D01*
X153698358Y-97292141D01*
X153612887Y-97420058D01*
X153554013Y-97562191D01*
X153524000Y-97713078D01*
X153524000Y-97866922D01*
X153554013Y-98017809D01*
X153612887Y-98159942D01*
X153698358Y-98287859D01*
X153807141Y-98396642D01*
X153935058Y-98482113D01*
X154077191Y-98540987D01*
X154228078Y-98571000D01*
X154381922Y-98571000D01*
X154532809Y-98540987D01*
X154674942Y-98482113D01*
X154802859Y-98396642D01*
X154903501Y-98296000D01*
X157971693Y-98296000D01*
X157902237Y-98380633D01*
X157839135Y-98498687D01*
X157800278Y-98626784D01*
X157787157Y-98760000D01*
X157787157Y-99360000D01*
X157800278Y-99493216D01*
X157839135Y-99621313D01*
X157902237Y-99739367D01*
X157987157Y-99842843D01*
X158090633Y-99927763D01*
X158208687Y-99990865D01*
X158336784Y-100029722D01*
X158470000Y-100042843D01*
X161570000Y-100042843D01*
X161703216Y-100029722D01*
X161831313Y-99990865D01*
X161949367Y-99927763D01*
X162052843Y-99842843D01*
X162137763Y-99739367D01*
X162200865Y-99621313D01*
X162217644Y-99566000D01*
X163805154Y-99566000D01*
X163830000Y-99568447D01*
X163854846Y-99566000D01*
X163854854Y-99566000D01*
X163929193Y-99558678D01*
X164024575Y-99529745D01*
X164112479Y-99482759D01*
X164189527Y-99419527D01*
X164205376Y-99400215D01*
X164594000Y-99011591D01*
X164594000Y-100755408D01*
X164255409Y-101094000D01*
X162217644Y-101094000D01*
X162200865Y-101038687D01*
X162137763Y-100920633D01*
X162052843Y-100817157D01*
X161949367Y-100732237D01*
X161831313Y-100669135D01*
X161703216Y-100630278D01*
X161570000Y-100617157D01*
X158470000Y-100617157D01*
X158336784Y-100630278D01*
X158208687Y-100669135D01*
X158090633Y-100732237D01*
X157987157Y-100817157D01*
X157902237Y-100920633D01*
X157839135Y-101038687D01*
X157800278Y-101166784D01*
X157787157Y-101300000D01*
X157787157Y-101900000D01*
X157800278Y-102033216D01*
X157839135Y-102161313D01*
X157902237Y-102279367D01*
X157987157Y-102382843D01*
X158090633Y-102467763D01*
X158208687Y-102530865D01*
X158336784Y-102569722D01*
X158470000Y-102582843D01*
X161570000Y-102582843D01*
X161703216Y-102569722D01*
X161831313Y-102530865D01*
X161949367Y-102467763D01*
X162052843Y-102382843D01*
X162137763Y-102279367D01*
X162200865Y-102161313D01*
X162217644Y-102106000D01*
X164440154Y-102106000D01*
X164465000Y-102108447D01*
X164489846Y-102106000D01*
X164489854Y-102106000D01*
X164564193Y-102098678D01*
X164659575Y-102069745D01*
X164747479Y-102022759D01*
X164824527Y-101959527D01*
X164840376Y-101940215D01*
X165229000Y-101551592D01*
X165229000Y-102660408D01*
X164255409Y-103634000D01*
X162217644Y-103634000D01*
X162200865Y-103578687D01*
X162137763Y-103460633D01*
X162052843Y-103357157D01*
X161949367Y-103272237D01*
X161831313Y-103209135D01*
X161703216Y-103170278D01*
X161570000Y-103157157D01*
X158470000Y-103157157D01*
X158336784Y-103170278D01*
X158208687Y-103209135D01*
X158090633Y-103272237D01*
X157987157Y-103357157D01*
X157902237Y-103460633D01*
X157839135Y-103578687D01*
X157800278Y-103706784D01*
X157787157Y-103840000D01*
X157787157Y-104440000D01*
X157800278Y-104573216D01*
X157839135Y-104701313D01*
X157902237Y-104819367D01*
X157987157Y-104922843D01*
X158090633Y-105007763D01*
X158208687Y-105070865D01*
X158336784Y-105109722D01*
X158470000Y-105122843D01*
X161570000Y-105122843D01*
X161703216Y-105109722D01*
X161831313Y-105070865D01*
X161949367Y-105007763D01*
X162052843Y-104922843D01*
X162137763Y-104819367D01*
X162200865Y-104701313D01*
X162217644Y-104646000D01*
X164440154Y-104646000D01*
X164465000Y-104648447D01*
X164489846Y-104646000D01*
X164489854Y-104646000D01*
X164564193Y-104638678D01*
X164659575Y-104609745D01*
X164747479Y-104562759D01*
X164824527Y-104499527D01*
X164840376Y-104480215D01*
X166075220Y-103245372D01*
X166094527Y-103229527D01*
X166157759Y-103152479D01*
X166204745Y-103064575D01*
X166233678Y-102969193D01*
X166241000Y-102894854D01*
X166241000Y-102894847D01*
X166243000Y-102874540D01*
X166243000Y-110395783D01*
X166240831Y-110399862D01*
X165977845Y-110722315D01*
X165657226Y-110987554D01*
X165637906Y-110998000D01*
X136619217Y-110998000D01*
X136615138Y-110995831D01*
X136292685Y-110732845D01*
X136027446Y-110412226D01*
X136017000Y-110392906D01*
X136017000Y-109820000D01*
X139691928Y-109820000D01*
X139704188Y-109944482D01*
X139740498Y-110064180D01*
X139799463Y-110174494D01*
X139878815Y-110271185D01*
X139975506Y-110350537D01*
X140085820Y-110409502D01*
X140205518Y-110445812D01*
X140330000Y-110458072D01*
X141894250Y-110455000D01*
X142053000Y-110296250D01*
X142053000Y-109347000D01*
X142307000Y-109347000D01*
X142307000Y-110296250D01*
X142465750Y-110455000D01*
X144030000Y-110458072D01*
X144154482Y-110445812D01*
X144274180Y-110409502D01*
X144384494Y-110350537D01*
X144481185Y-110271185D01*
X144560537Y-110174494D01*
X144619502Y-110064180D01*
X144655812Y-109944482D01*
X144668072Y-109820000D01*
X144665000Y-109505750D01*
X144506250Y-109347000D01*
X142307000Y-109347000D01*
X142053000Y-109347000D01*
X139853750Y-109347000D01*
X139695000Y-109505750D01*
X139691928Y-109820000D01*
X136017000Y-109820000D01*
X136017000Y-108620000D01*
X139691928Y-108620000D01*
X139695000Y-108934250D01*
X139853750Y-109093000D01*
X142053000Y-109093000D01*
X142053000Y-108143750D01*
X142307000Y-108143750D01*
X142307000Y-109093000D01*
X144506250Y-109093000D01*
X144665000Y-108934250D01*
X144665139Y-108920000D01*
X157787157Y-108920000D01*
X157787157Y-109520000D01*
X157800278Y-109653216D01*
X157839135Y-109781313D01*
X157902237Y-109899367D01*
X157987157Y-110002843D01*
X158090633Y-110087763D01*
X158208687Y-110150865D01*
X158336784Y-110189722D01*
X158470000Y-110202843D01*
X161570000Y-110202843D01*
X161703216Y-110189722D01*
X161831313Y-110150865D01*
X161949367Y-110087763D01*
X162052843Y-110002843D01*
X162137763Y-109899367D01*
X162146505Y-109883012D01*
X162190058Y-109912113D01*
X162332191Y-109970987D01*
X162483078Y-110001000D01*
X162636922Y-110001000D01*
X162787809Y-109970987D01*
X162929942Y-109912113D01*
X163057859Y-109826642D01*
X163166642Y-109717859D01*
X163252113Y-109589942D01*
X163310987Y-109447809D01*
X163341000Y-109296922D01*
X163341000Y-109143078D01*
X163310987Y-108992191D01*
X163252113Y-108850058D01*
X163166642Y-108722141D01*
X163057859Y-108613358D01*
X162929942Y-108527887D01*
X162787809Y-108469013D01*
X162636922Y-108439000D01*
X162483078Y-108439000D01*
X162332191Y-108469013D01*
X162190058Y-108527887D01*
X162146505Y-108556988D01*
X162137763Y-108540633D01*
X162052843Y-108437157D01*
X161949367Y-108352237D01*
X161831313Y-108289135D01*
X161703216Y-108250278D01*
X161570000Y-108237157D01*
X158470000Y-108237157D01*
X158336784Y-108250278D01*
X158208687Y-108289135D01*
X158090633Y-108352237D01*
X157987157Y-108437157D01*
X157902237Y-108540633D01*
X157839135Y-108658687D01*
X157800278Y-108786784D01*
X157787157Y-108920000D01*
X144665139Y-108920000D01*
X144668072Y-108620000D01*
X144655812Y-108495518D01*
X144619502Y-108375820D01*
X144560537Y-108265506D01*
X144481185Y-108168815D01*
X144384494Y-108089463D01*
X144274180Y-108030498D01*
X144154482Y-107994188D01*
X144030000Y-107981928D01*
X142465750Y-107985000D01*
X142307000Y-108143750D01*
X142053000Y-108143750D01*
X141894250Y-107985000D01*
X140330000Y-107981928D01*
X140205518Y-107994188D01*
X140085820Y-108030498D01*
X139975506Y-108089463D01*
X139878815Y-108168815D01*
X139799463Y-108265506D01*
X139740498Y-108375820D01*
X139704188Y-108495518D01*
X139691928Y-108620000D01*
X136017000Y-108620000D01*
X136017000Y-75024217D01*
X136019170Y-75020136D01*
X136282157Y-74697683D01*
X136602773Y-74432447D01*
X136622094Y-74422000D01*
X165640783Y-74422000D01*
X165644864Y-74424170D01*
%TA.AperFunction,Conductor*%
D13*
G36*
X165644864Y-74424170D02*
G01*
X165967317Y-74687157D01*
X166232553Y-75007773D01*
X166243000Y-75027094D01*
X166243000Y-89530452D01*
X166233678Y-89435807D01*
X166204745Y-89340425D01*
X166195302Y-89322758D01*
X166157759Y-89252521D01*
X166094527Y-89175473D01*
X166075220Y-89159628D01*
X165475376Y-88559785D01*
X165459527Y-88540473D01*
X165382479Y-88477241D01*
X165294575Y-88430255D01*
X165199193Y-88401322D01*
X165124854Y-88394000D01*
X165124846Y-88394000D01*
X165100000Y-88391553D01*
X165075154Y-88394000D01*
X163158501Y-88394000D01*
X163057859Y-88293358D01*
X162929942Y-88207887D01*
X162787809Y-88149013D01*
X162636922Y-88119000D01*
X162483078Y-88119000D01*
X162332191Y-88149013D01*
X162190058Y-88207887D01*
X162146505Y-88236988D01*
X162137763Y-88220633D01*
X162052843Y-88117157D01*
X161949367Y-88032237D01*
X161831313Y-87969135D01*
X161703216Y-87930278D01*
X161570000Y-87917157D01*
X158470000Y-87917157D01*
X158336784Y-87930278D01*
X158208687Y-87969135D01*
X158090633Y-88032237D01*
X157987157Y-88117157D01*
X157902237Y-88220633D01*
X157839135Y-88338687D01*
X157822356Y-88394000D01*
X153059854Y-88394000D01*
X153035000Y-88391552D01*
X153010146Y-88394000D01*
X152935807Y-88401322D01*
X152840425Y-88430255D01*
X152752521Y-88477241D01*
X152675473Y-88540473D01*
X152659629Y-88559779D01*
X152059785Y-89159624D01*
X152040473Y-89175473D01*
X151977241Y-89252521D01*
X151930255Y-89340426D01*
X151901322Y-89435808D01*
X151894000Y-89510147D01*
X151894000Y-89510154D01*
X151891553Y-89535000D01*
X151894000Y-89559846D01*
X151894001Y-94651498D01*
X151793358Y-94752141D01*
X151707887Y-94880058D01*
X151649013Y-95022191D01*
X151636000Y-95087612D01*
X151636000Y-85934591D01*
X151974592Y-85596000D01*
X154142612Y-85596000D01*
X154077191Y-85609013D01*
X153935058Y-85667887D01*
X153807141Y-85753358D01*
X153698358Y-85862141D01*
X153612887Y-85990058D01*
X153554013Y-86132191D01*
X153524000Y-86283078D01*
X153524000Y-86436922D01*
X153554013Y-86587809D01*
X153612887Y-86729942D01*
X153698358Y-86857859D01*
X153807141Y-86966642D01*
X153935058Y-87052113D01*
X154077191Y-87110987D01*
X154228078Y-87141000D01*
X154381922Y-87141000D01*
X154532809Y-87110987D01*
X154674942Y-87052113D01*
X154802859Y-86966642D01*
X154903501Y-86866000D01*
X157822356Y-86866000D01*
X157839135Y-86921313D01*
X157902237Y-87039367D01*
X157987157Y-87142843D01*
X158090633Y-87227763D01*
X158208687Y-87290865D01*
X158336784Y-87329722D01*
X158470000Y-87342843D01*
X161570000Y-87342843D01*
X161703216Y-87329722D01*
X161831313Y-87290865D01*
X161949367Y-87227763D01*
X162052843Y-87142843D01*
X162137763Y-87039367D01*
X162200865Y-86921313D01*
X162239722Y-86793216D01*
X162252843Y-86660000D01*
X162252843Y-86060000D01*
X162239722Y-85926784D01*
X162200865Y-85798687D01*
X162192560Y-85783149D01*
X162332191Y-85840987D01*
X162483078Y-85871000D01*
X162636922Y-85871000D01*
X162787809Y-85840987D01*
X162929942Y-85782113D01*
X163057859Y-85696642D01*
X163166642Y-85587859D01*
X163252113Y-85459942D01*
X163310987Y-85317809D01*
X163341000Y-85166922D01*
X163341000Y-85013078D01*
X163310987Y-84862191D01*
X163252113Y-84720058D01*
X163166642Y-84592141D01*
X163057859Y-84483358D01*
X163015418Y-84455000D01*
X163057859Y-84426642D01*
X163166642Y-84317859D01*
X163252113Y-84189942D01*
X163310987Y-84047809D01*
X163341000Y-83896922D01*
X163341000Y-83743078D01*
X163310987Y-83592191D01*
X163252113Y-83450058D01*
X163166642Y-83322141D01*
X163057859Y-83213358D01*
X163015418Y-83185000D01*
X163057859Y-83156642D01*
X163166642Y-83047859D01*
X163252113Y-82919942D01*
X163310987Y-82777809D01*
X163341000Y-82626922D01*
X163341000Y-82473078D01*
X163310987Y-82322191D01*
X163252113Y-82180058D01*
X163166642Y-82052141D01*
X163057859Y-81943358D01*
X162929942Y-81857887D01*
X162787809Y-81799013D01*
X162636922Y-81769000D01*
X162483078Y-81769000D01*
X162332191Y-81799013D01*
X162192560Y-81856851D01*
X162200865Y-81841313D01*
X162239722Y-81713216D01*
X162252843Y-81580000D01*
X162252843Y-80980000D01*
X162239722Y-80846784D01*
X162206900Y-80738582D01*
X162294942Y-80702113D01*
X162422859Y-80616642D01*
X162531642Y-80507859D01*
X162617113Y-80379942D01*
X162675987Y-80237809D01*
X162706000Y-80086922D01*
X162706000Y-79933078D01*
X162675987Y-79782191D01*
X162617113Y-79640058D01*
X162531642Y-79512141D01*
X162422859Y-79403358D01*
X162294942Y-79317887D01*
X162206900Y-79281418D01*
X162239722Y-79173216D01*
X162252843Y-79040000D01*
X162252843Y-78440000D01*
X162239722Y-78306784D01*
X162200865Y-78178687D01*
X162137763Y-78060633D01*
X162052843Y-77957157D01*
X161949367Y-77872237D01*
X161831313Y-77809135D01*
X161703216Y-77770278D01*
X161570000Y-77757157D01*
X160746404Y-77757157D01*
X160770987Y-77697809D01*
X160801000Y-77546922D01*
X160801000Y-77393078D01*
X160770987Y-77242191D01*
X160746404Y-77182843D01*
X161570000Y-77182843D01*
X161703216Y-77169722D01*
X161831313Y-77130865D01*
X161949367Y-77067763D01*
X162052843Y-76982843D01*
X162137763Y-76879367D01*
X162200865Y-76761313D01*
X162239722Y-76633216D01*
X162252843Y-76500000D01*
X162252843Y-75900000D01*
X162239722Y-75766784D01*
X162200865Y-75638687D01*
X162137763Y-75520633D01*
X162052843Y-75417157D01*
X161949367Y-75332237D01*
X161831313Y-75269135D01*
X161703216Y-75230278D01*
X161570000Y-75217157D01*
X158470000Y-75217157D01*
X158336784Y-75230278D01*
X158208687Y-75269135D01*
X158090633Y-75332237D01*
X157987157Y-75417157D01*
X157902237Y-75520633D01*
X157839135Y-75638687D01*
X157800278Y-75766784D01*
X157787157Y-75900000D01*
X157787157Y-76500000D01*
X157800278Y-76633216D01*
X157839135Y-76761313D01*
X157902237Y-76879367D01*
X157987157Y-76982843D01*
X158090633Y-77067763D01*
X158208687Y-77130865D01*
X158336784Y-77169722D01*
X158470000Y-77182843D01*
X159293596Y-77182843D01*
X159269013Y-77242191D01*
X159239000Y-77393078D01*
X159239000Y-77546922D01*
X159269013Y-77697809D01*
X159293596Y-77757157D01*
X158470000Y-77757157D01*
X158336784Y-77770278D01*
X158208687Y-77809135D01*
X158090633Y-77872237D01*
X157987157Y-77957157D01*
X157902237Y-78060633D01*
X157839135Y-78178687D01*
X157800278Y-78306784D01*
X157787157Y-78440000D01*
X157787157Y-79040000D01*
X157800278Y-79173216D01*
X157839135Y-79301313D01*
X157902237Y-79419367D01*
X157987157Y-79522843D01*
X158090633Y-79607763D01*
X158208687Y-79670865D01*
X158336784Y-79709722D01*
X158470000Y-79722843D01*
X159650885Y-79722843D01*
X159660474Y-79734527D01*
X159679779Y-79750370D01*
X160226565Y-80297157D01*
X158470000Y-80297157D01*
X158336784Y-80310278D01*
X158208687Y-80349135D01*
X158090633Y-80412237D01*
X157987157Y-80497157D01*
X157902237Y-80600633D01*
X157893495Y-80616988D01*
X157849942Y-80587887D01*
X157707809Y-80529013D01*
X157556922Y-80499000D01*
X157403078Y-80499000D01*
X157252191Y-80529013D01*
X157110058Y-80587887D01*
X156982141Y-80673358D01*
X156873358Y-80782141D01*
X156787887Y-80910058D01*
X156729013Y-81052191D01*
X156699000Y-81203078D01*
X156699000Y-81356922D01*
X156729013Y-81507809D01*
X156787887Y-81649942D01*
X156873358Y-81777859D01*
X156982141Y-81886642D01*
X157060471Y-81938980D01*
X150624865Y-81938980D01*
X150600019Y-81936533D01*
X150575173Y-81938980D01*
X150575166Y-81938980D01*
X150510714Y-81945328D01*
X150500826Y-81946302D01*
X150478627Y-81953036D01*
X150405445Y-81975235D01*
X150317541Y-82022221D01*
X150240493Y-82085453D01*
X150224648Y-82104760D01*
X149519785Y-82809624D01*
X149500473Y-82825473D01*
X149437241Y-82902521D01*
X149390255Y-82990426D01*
X149361322Y-83085808D01*
X149354000Y-83160147D01*
X149354000Y-83160154D01*
X149351553Y-83185000D01*
X149354000Y-83209846D01*
X149354001Y-95560407D01*
X147987238Y-96927170D01*
X148012113Y-96889942D01*
X148070987Y-96747809D01*
X148101000Y-96596922D01*
X148101000Y-96443078D01*
X148070987Y-96292191D01*
X148012113Y-96150058D01*
X147926642Y-96022141D01*
X147826000Y-95921499D01*
X147826000Y-79514854D01*
X147828448Y-79490000D01*
X147818678Y-79390807D01*
X147789745Y-79295425D01*
X147770282Y-79259013D01*
X147742759Y-79207521D01*
X147679527Y-79130473D01*
X147660220Y-79114628D01*
X144409265Y-75863674D01*
X144399722Y-75766784D01*
X144360865Y-75638687D01*
X144297763Y-75520633D01*
X144212843Y-75417157D01*
X144109367Y-75332237D01*
X143991313Y-75269135D01*
X143863216Y-75230278D01*
X143730000Y-75217157D01*
X140630000Y-75217157D01*
X140496784Y-75230278D01*
X140368687Y-75269135D01*
X140250633Y-75332237D01*
X140147157Y-75417157D01*
X140062237Y-75520633D01*
X139999135Y-75638687D01*
X139960278Y-75766784D01*
X139947157Y-75900000D01*
X139947157Y-76500000D01*
X139960278Y-76633216D01*
X139999135Y-76761313D01*
X140062237Y-76879367D01*
X140147157Y-76982843D01*
X140250633Y-77067763D01*
X140368687Y-77130865D01*
X140496784Y-77169722D01*
X140630000Y-77182843D01*
X143730000Y-77182843D01*
X143863216Y-77169722D01*
X143991313Y-77130865D01*
X144109367Y-77067763D01*
X144149355Y-77034946D01*
X146814000Y-79699592D01*
X146814000Y-83233408D01*
X145790376Y-82209785D01*
X145774527Y-82190473D01*
X145697479Y-82127241D01*
X145609575Y-82080255D01*
X145524642Y-82054492D01*
X145642809Y-82030987D01*
X145784942Y-81972113D01*
X145912859Y-81886642D01*
X146021642Y-81777859D01*
X146107113Y-81649942D01*
X146165987Y-81507809D01*
X146196000Y-81356922D01*
X146196000Y-81203078D01*
X146165987Y-81052191D01*
X146107113Y-80910058D01*
X146021642Y-80782141D01*
X145912859Y-80673358D01*
X145784942Y-80587887D01*
X145642809Y-80529013D01*
X145491922Y-80499000D01*
X145338078Y-80499000D01*
X145187191Y-80529013D01*
X145045058Y-80587887D01*
X144917141Y-80673358D01*
X144816499Y-80774000D01*
X144377644Y-80774000D01*
X144360865Y-80718687D01*
X144297763Y-80600633D01*
X144212843Y-80497157D01*
X144109367Y-80412237D01*
X143991313Y-80349135D01*
X143863216Y-80310278D01*
X143730000Y-80297157D01*
X140630000Y-80297157D01*
X140496784Y-80310278D01*
X140368687Y-80349135D01*
X140250633Y-80412237D01*
X140147157Y-80497157D01*
X140071722Y-80589076D01*
X140069942Y-80587887D01*
X139927809Y-80529013D01*
X139776922Y-80499000D01*
X139623078Y-80499000D01*
X139472191Y-80529013D01*
X139330058Y-80587887D01*
X139202141Y-80673358D01*
X139093358Y-80782141D01*
X139007887Y-80910058D01*
X138949013Y-81052191D01*
X138919000Y-81203078D01*
X138919000Y-81345408D01*
X138089780Y-82174629D01*
X138070474Y-82190473D01*
X138007242Y-82267521D01*
X137982127Y-82314508D01*
X137960255Y-82355426D01*
X137931322Y-82450808D01*
X137921553Y-82550000D01*
X137924001Y-82574856D01*
X137924000Y-96357613D01*
X137910987Y-96292191D01*
X137852113Y-96150058D01*
X137766642Y-96022141D01*
X137666000Y-95921499D01*
X137666000Y-79584591D01*
X138004592Y-79246000D01*
X139982356Y-79246000D01*
X139999135Y-79301313D01*
X140062237Y-79419367D01*
X140147157Y-79522843D01*
X140250633Y-79607763D01*
X140368687Y-79670865D01*
X140496784Y-79709722D01*
X140630000Y-79722843D01*
X143730000Y-79722843D01*
X143863216Y-79709722D01*
X143991313Y-79670865D01*
X144109367Y-79607763D01*
X144212843Y-79522843D01*
X144297763Y-79419367D01*
X144360865Y-79301313D01*
X144399722Y-79173216D01*
X144412843Y-79040000D01*
X144412843Y-78440000D01*
X144399722Y-78306784D01*
X144360865Y-78178687D01*
X144297763Y-78060633D01*
X144212843Y-77957157D01*
X144109367Y-77872237D01*
X143991313Y-77809135D01*
X143863216Y-77770278D01*
X143730000Y-77757157D01*
X140630000Y-77757157D01*
X140496784Y-77770278D01*
X140368687Y-77809135D01*
X140250633Y-77872237D01*
X140147157Y-77957157D01*
X140062237Y-78060633D01*
X139999135Y-78178687D01*
X139982356Y-78234000D01*
X137819854Y-78234000D01*
X137795000Y-78231552D01*
X137770146Y-78234000D01*
X137695807Y-78241322D01*
X137600425Y-78270255D01*
X137512521Y-78317241D01*
X137435473Y-78380473D01*
X137419628Y-78399780D01*
X136819785Y-78999624D01*
X136800473Y-79015473D01*
X136737241Y-79092521D01*
X136690255Y-79180426D01*
X136661322Y-79275808D01*
X136654000Y-79350147D01*
X136654000Y-79350154D01*
X136651553Y-79375000D01*
X136654000Y-79399846D01*
X136654001Y-95921498D01*
X136553358Y-96022141D01*
X136467887Y-96150058D01*
X136409013Y-96292191D01*
X136379000Y-96443078D01*
X136379000Y-96596922D01*
X136409013Y-96747809D01*
X136467887Y-96889942D01*
X136553358Y-97017859D01*
X136662141Y-97126642D01*
X136790058Y-97212113D01*
X136932191Y-97270987D01*
X137083078Y-97301000D01*
X137236922Y-97301000D01*
X137387809Y-97270987D01*
X137529942Y-97212113D01*
X137657859Y-97126642D01*
X137766642Y-97017859D01*
X137852113Y-96889942D01*
X137910987Y-96747809D01*
X137924000Y-96682387D01*
X137924000Y-98400154D01*
X137921553Y-98425000D01*
X137924000Y-98449846D01*
X137924000Y-98449853D01*
X137931322Y-98524192D01*
X137960255Y-98619574D01*
X138007241Y-98707479D01*
X138070473Y-98784527D01*
X138089785Y-98800376D01*
X138689628Y-99400220D01*
X138705473Y-99419527D01*
X138782521Y-99482759D01*
X138870425Y-99529745D01*
X138965807Y-99558678D01*
X139065000Y-99568448D01*
X139089854Y-99566000D01*
X139982356Y-99566000D01*
X139999135Y-99621313D01*
X140062237Y-99739367D01*
X140147157Y-99842843D01*
X140250633Y-99927763D01*
X140368687Y-99990865D01*
X140496784Y-100029722D01*
X140630000Y-100042843D01*
X143730000Y-100042843D01*
X143863216Y-100029722D01*
X143991313Y-99990865D01*
X144109367Y-99927763D01*
X144212843Y-99842843D01*
X144297763Y-99739367D01*
X144360865Y-99621313D01*
X144399722Y-99493216D01*
X144412843Y-99360000D01*
X144412843Y-98760000D01*
X144399722Y-98626784D01*
X144360865Y-98498687D01*
X144297763Y-98380633D01*
X144212843Y-98277157D01*
X144109367Y-98192237D01*
X143991313Y-98129135D01*
X143863216Y-98090278D01*
X143730000Y-98077157D01*
X140630000Y-98077157D01*
X140496784Y-98090278D01*
X140368687Y-98129135D01*
X140250633Y-98192237D01*
X140147157Y-98277157D01*
X140062237Y-98380633D01*
X139999135Y-98498687D01*
X139982356Y-98554000D01*
X139274592Y-98554000D01*
X138936000Y-98215409D01*
X138936000Y-89062388D01*
X138949013Y-89127809D01*
X139007887Y-89269942D01*
X139093358Y-89397859D01*
X139202141Y-89506642D01*
X139330058Y-89592113D01*
X139472191Y-89650987D01*
X139623078Y-89681000D01*
X139776922Y-89681000D01*
X139927809Y-89650987D01*
X140069942Y-89592113D01*
X140071722Y-89590924D01*
X140147157Y-89682843D01*
X140250633Y-89767763D01*
X140368687Y-89830865D01*
X140496784Y-89869722D01*
X140630000Y-89882843D01*
X143730000Y-89882843D01*
X143863216Y-89869722D01*
X143991313Y-89830865D01*
X144109367Y-89767763D01*
X144212843Y-89682843D01*
X144274000Y-89608322D01*
X144274000Y-90595408D01*
X144212518Y-90656890D01*
X144109367Y-90572237D01*
X143991313Y-90509135D01*
X143863216Y-90470278D01*
X143730000Y-90457157D01*
X140630000Y-90457157D01*
X140496784Y-90470278D01*
X140368687Y-90509135D01*
X140250633Y-90572237D01*
X140147157Y-90657157D01*
X140062237Y-90760633D01*
X139999135Y-90878687D01*
X139960278Y-91006784D01*
X139947157Y-91140000D01*
X139947157Y-91740000D01*
X139960278Y-91873216D01*
X139999135Y-92001313D01*
X140062237Y-92119367D01*
X140147157Y-92222843D01*
X140250633Y-92307763D01*
X140368687Y-92370865D01*
X140496784Y-92409722D01*
X140630000Y-92422843D01*
X143730000Y-92422843D01*
X143863216Y-92409722D01*
X143991313Y-92370865D01*
X144109367Y-92307763D01*
X144212843Y-92222843D01*
X144297763Y-92119367D01*
X144360865Y-92001313D01*
X144398136Y-91878443D01*
X144427479Y-91862759D01*
X144504527Y-91799527D01*
X144520376Y-91780215D01*
X144909000Y-91391591D01*
X144909000Y-93135408D01*
X144570409Y-93474000D01*
X144377644Y-93474000D01*
X144360865Y-93418687D01*
X144297763Y-93300633D01*
X144212843Y-93197157D01*
X144109367Y-93112237D01*
X143991313Y-93049135D01*
X143863216Y-93010278D01*
X143730000Y-92997157D01*
X140630000Y-92997157D01*
X140496784Y-93010278D01*
X140368687Y-93049135D01*
X140250633Y-93112237D01*
X140147157Y-93197157D01*
X140062237Y-93300633D01*
X139999135Y-93418687D01*
X139960278Y-93546784D01*
X139947157Y-93680000D01*
X139947157Y-94280000D01*
X139960278Y-94413216D01*
X139999135Y-94541313D01*
X140062237Y-94659367D01*
X140147157Y-94762843D01*
X140250633Y-94847763D01*
X140368687Y-94910865D01*
X140496784Y-94949722D01*
X140630000Y-94962843D01*
X143730000Y-94962843D01*
X143863216Y-94949722D01*
X143991313Y-94910865D01*
X144109367Y-94847763D01*
X144212843Y-94762843D01*
X144297763Y-94659367D01*
X144360865Y-94541313D01*
X144377644Y-94486000D01*
X144755154Y-94486000D01*
X144780000Y-94488447D01*
X144804846Y-94486000D01*
X144804854Y-94486000D01*
X144879193Y-94478678D01*
X144974575Y-94449745D01*
X145062479Y-94402759D01*
X145139527Y-94339527D01*
X145155376Y-94320215D01*
X145755220Y-93720372D01*
X145774527Y-93704527D01*
X145837759Y-93627479D01*
X145884745Y-93539575D01*
X145913678Y-93444193D01*
X145921000Y-93369854D01*
X145921000Y-93369853D01*
X145923448Y-93345000D01*
X145921000Y-93320146D01*
X145921000Y-84418501D01*
X146021642Y-84317859D01*
X146107113Y-84189942D01*
X146165987Y-84047809D01*
X146171168Y-84021760D01*
X146179000Y-84029592D01*
X146179001Y-94405407D01*
X144570409Y-96014000D01*
X144377644Y-96014000D01*
X144360865Y-95958687D01*
X144297763Y-95840633D01*
X144212843Y-95737157D01*
X144109367Y-95652237D01*
X143991313Y-95589135D01*
X143863216Y-95550278D01*
X143730000Y-95537157D01*
X140630000Y-95537157D01*
X140496784Y-95550278D01*
X140368687Y-95589135D01*
X140250633Y-95652237D01*
X140147157Y-95737157D01*
X140062237Y-95840633D01*
X139999135Y-95958687D01*
X139960278Y-96086784D01*
X139947157Y-96220000D01*
X139947157Y-96820000D01*
X139960278Y-96953216D01*
X139999135Y-97081313D01*
X140062237Y-97199367D01*
X140147157Y-97302843D01*
X140250633Y-97387763D01*
X140368687Y-97450865D01*
X140496784Y-97489722D01*
X140630000Y-97502843D01*
X143730000Y-97502843D01*
X143863216Y-97489722D01*
X143991313Y-97450865D01*
X144109367Y-97387763D01*
X144212843Y-97302843D01*
X144297763Y-97199367D01*
X144360865Y-97081313D01*
X144377644Y-97026000D01*
X144755154Y-97026000D01*
X144780000Y-97028447D01*
X144804846Y-97026000D01*
X144804854Y-97026000D01*
X144879193Y-97018678D01*
X144974575Y-96989745D01*
X145062479Y-96942759D01*
X145139527Y-96879527D01*
X145155376Y-96860215D01*
X146814001Y-95201591D01*
X146814001Y-95921498D01*
X146713358Y-96022141D01*
X146627887Y-96150058D01*
X146569013Y-96292191D01*
X146539000Y-96443078D01*
X146539000Y-96596922D01*
X146569013Y-96747809D01*
X146627887Y-96889942D01*
X146713358Y-97017859D01*
X146822141Y-97126642D01*
X146950058Y-97212113D01*
X147092191Y-97270987D01*
X147243078Y-97301000D01*
X147396922Y-97301000D01*
X147547809Y-97270987D01*
X147689942Y-97212113D01*
X147727170Y-97187238D01*
X144149355Y-100765054D01*
X144109367Y-100732237D01*
X143991313Y-100669135D01*
X143863216Y-100630278D01*
X143730000Y-100617157D01*
X140630000Y-100617157D01*
X140496784Y-100630278D01*
X140368687Y-100669135D01*
X140250633Y-100732237D01*
X140147157Y-100817157D01*
X140062237Y-100920633D01*
X139999135Y-101038687D01*
X139960278Y-101166784D01*
X139947157Y-101300000D01*
X139947157Y-101900000D01*
X139960278Y-102033216D01*
X139999135Y-102161313D01*
X140062237Y-102279367D01*
X140147157Y-102382843D01*
X140250633Y-102467763D01*
X140368687Y-102530865D01*
X140496784Y-102569722D01*
X140630000Y-102582843D01*
X143730000Y-102582843D01*
X143863216Y-102569722D01*
X143991313Y-102530865D01*
X144109367Y-102467763D01*
X144212843Y-102382843D01*
X144297763Y-102279367D01*
X144360865Y-102161313D01*
X144399722Y-102033216D01*
X144409265Y-101936326D01*
X149989001Y-96356591D01*
X149989001Y-97580407D01*
X144212518Y-103356891D01*
X144109367Y-103272237D01*
X143991313Y-103209135D01*
X143863216Y-103170278D01*
X143730000Y-103157157D01*
X140630000Y-103157157D01*
X140496784Y-103170278D01*
X140368687Y-103209135D01*
X140250633Y-103272237D01*
X140147157Y-103357157D01*
X140062237Y-103460633D01*
X139999135Y-103578687D01*
X139960278Y-103706784D01*
X139947157Y-103840000D01*
X139947157Y-104440000D01*
X139960278Y-104573216D01*
X139999135Y-104701313D01*
X140062237Y-104819367D01*
X140147157Y-104922843D01*
X140250633Y-105007763D01*
X140368687Y-105070865D01*
X140496784Y-105109722D01*
X140630000Y-105122843D01*
X143730000Y-105122843D01*
X143863216Y-105109722D01*
X143991313Y-105070865D01*
X144109367Y-105007763D01*
X144212843Y-104922843D01*
X144297763Y-104819367D01*
X144360865Y-104701313D01*
X144398136Y-104578443D01*
X144427479Y-104562759D01*
X144504527Y-104499527D01*
X144520376Y-104480215D01*
X150624001Y-98376591D01*
X150624001Y-99682405D01*
X144300553Y-106005853D01*
X144297763Y-106000633D01*
X144212843Y-105897157D01*
X144109367Y-105812237D01*
X143991313Y-105749135D01*
X143863216Y-105710278D01*
X143730000Y-105697157D01*
X140630000Y-105697157D01*
X140496784Y-105710278D01*
X140368687Y-105749135D01*
X140250633Y-105812237D01*
X140147157Y-105897157D01*
X140062237Y-106000633D01*
X139999135Y-106118687D01*
X139960278Y-106246784D01*
X139947157Y-106380000D01*
X139947157Y-106980000D01*
X139960278Y-107113216D01*
X139999135Y-107241313D01*
X140062237Y-107359367D01*
X140147157Y-107462843D01*
X140250633Y-107547763D01*
X140368687Y-107610865D01*
X140496784Y-107649722D01*
X140630000Y-107662843D01*
X143730000Y-107662843D01*
X143863216Y-107649722D01*
X143991313Y-107610865D01*
X144109367Y-107547763D01*
X144212843Y-107462843D01*
X144297763Y-107359367D01*
X144360865Y-107241313D01*
X144377976Y-107184904D01*
X144441191Y-107178678D01*
X144536573Y-107149745D01*
X144624477Y-107102759D01*
X144701525Y-107039527D01*
X144717374Y-107020215D01*
X145357589Y-106380000D01*
X157787157Y-106380000D01*
X157787157Y-106980000D01*
X157800278Y-107113216D01*
X157839135Y-107241313D01*
X157902237Y-107359367D01*
X157987157Y-107462843D01*
X158090633Y-107547763D01*
X158208687Y-107610865D01*
X158336784Y-107649722D01*
X158470000Y-107662843D01*
X161570000Y-107662843D01*
X161703216Y-107649722D01*
X161831313Y-107610865D01*
X161949367Y-107547763D01*
X162052843Y-107462843D01*
X162137763Y-107359367D01*
X162146505Y-107343012D01*
X162190058Y-107372113D01*
X162332191Y-107430987D01*
X162483078Y-107461000D01*
X162636922Y-107461000D01*
X162787809Y-107430987D01*
X162929942Y-107372113D01*
X163057859Y-107286642D01*
X163166642Y-107177859D01*
X163252113Y-107049942D01*
X163310987Y-106907809D01*
X163341000Y-106756922D01*
X163341000Y-106603078D01*
X163310987Y-106452191D01*
X163252113Y-106310058D01*
X163166642Y-106182141D01*
X163057859Y-106073358D01*
X162929942Y-105987887D01*
X162787809Y-105929013D01*
X162636922Y-105899000D01*
X162483078Y-105899000D01*
X162332191Y-105929013D01*
X162190058Y-105987887D01*
X162146505Y-106016988D01*
X162137763Y-106000633D01*
X162052843Y-105897157D01*
X161949367Y-105812237D01*
X161831313Y-105749135D01*
X161703216Y-105710278D01*
X161570000Y-105697157D01*
X158470000Y-105697157D01*
X158336784Y-105710278D01*
X158208687Y-105749135D01*
X158090633Y-105812237D01*
X157987157Y-105897157D01*
X157902237Y-106000633D01*
X157839135Y-106118687D01*
X157800278Y-106246784D01*
X157787157Y-106380000D01*
X145357589Y-106380000D01*
X151470220Y-100267370D01*
X151487634Y-100253078D01*
X153524000Y-100253078D01*
X153524000Y-100406922D01*
X153554013Y-100557809D01*
X153612887Y-100699942D01*
X153698358Y-100827859D01*
X153807141Y-100936642D01*
X153935058Y-101022113D01*
X154077191Y-101080987D01*
X154228078Y-101111000D01*
X154381922Y-101111000D01*
X154532809Y-101080987D01*
X154674942Y-101022113D01*
X154802859Y-100936642D01*
X154903501Y-100836000D01*
X156246499Y-100836000D01*
X156347141Y-100936642D01*
X156475058Y-101022113D01*
X156617191Y-101080987D01*
X156768078Y-101111000D01*
X156921922Y-101111000D01*
X157072809Y-101080987D01*
X157214942Y-101022113D01*
X157342859Y-100936642D01*
X157451642Y-100827859D01*
X157537113Y-100699942D01*
X157595987Y-100557809D01*
X157626000Y-100406922D01*
X157626000Y-100253078D01*
X157595987Y-100102191D01*
X157537113Y-99960058D01*
X157451642Y-99832141D01*
X157342859Y-99723358D01*
X157214942Y-99637887D01*
X157072809Y-99579013D01*
X156921922Y-99549000D01*
X156768078Y-99549000D01*
X156617191Y-99579013D01*
X156475058Y-99637887D01*
X156347141Y-99723358D01*
X156246499Y-99824000D01*
X154903501Y-99824000D01*
X154802859Y-99723358D01*
X154674942Y-99637887D01*
X154532809Y-99579013D01*
X154381922Y-99549000D01*
X154228078Y-99549000D01*
X154077191Y-99579013D01*
X153935058Y-99637887D01*
X153807141Y-99723358D01*
X153698358Y-99832141D01*
X153612887Y-99960058D01*
X153554013Y-100102191D01*
X153524000Y-100253078D01*
X151487634Y-100253078D01*
X151489527Y-100251525D01*
X151552759Y-100174477D01*
X151599745Y-100086573D01*
X151628678Y-99991191D01*
X151636000Y-99916852D01*
X151636000Y-99916845D01*
X151638447Y-99891999D01*
X151636000Y-99867153D01*
X151636000Y-95412388D01*
X151649013Y-95477809D01*
X151707887Y-95619942D01*
X151793358Y-95747859D01*
X151902141Y-95856642D01*
X152030058Y-95942113D01*
X152172191Y-96000987D01*
X152323078Y-96031000D01*
X152476922Y-96031000D01*
X152627809Y-96000987D01*
X152769942Y-95942113D01*
X152897859Y-95856642D01*
X153006642Y-95747859D01*
X153092113Y-95619942D01*
X153150987Y-95477809D01*
X153181000Y-95326922D01*
X153181000Y-95173078D01*
X153150987Y-95022191D01*
X153092113Y-94880058D01*
X153006642Y-94752141D01*
X152906000Y-94651499D01*
X152906000Y-89744591D01*
X153244592Y-89406000D01*
X157822356Y-89406000D01*
X157839135Y-89461313D01*
X157902237Y-89579367D01*
X157987157Y-89682843D01*
X158090633Y-89767763D01*
X158208687Y-89830865D01*
X158336784Y-89869722D01*
X158470000Y-89882843D01*
X161570000Y-89882843D01*
X161703216Y-89869722D01*
X161831313Y-89830865D01*
X161861898Y-89814517D01*
X161809013Y-89942191D01*
X161779000Y-90093078D01*
X161779000Y-90246922D01*
X161809013Y-90397809D01*
X161861898Y-90525483D01*
X161831313Y-90509135D01*
X161703216Y-90470278D01*
X161570000Y-90457157D01*
X158470000Y-90457157D01*
X158336784Y-90470278D01*
X158208687Y-90509135D01*
X158090633Y-90572237D01*
X157987157Y-90657157D01*
X157902237Y-90760633D01*
X157839135Y-90878687D01*
X157800278Y-91006784D01*
X157787157Y-91140000D01*
X157787157Y-91740000D01*
X157800278Y-91873216D01*
X157839135Y-92001313D01*
X157902237Y-92119367D01*
X157987157Y-92222843D01*
X158090633Y-92307763D01*
X158208687Y-92370865D01*
X158336784Y-92409722D01*
X158470000Y-92422843D01*
X159293596Y-92422843D01*
X159269013Y-92482191D01*
X159239000Y-92633078D01*
X159239000Y-92786922D01*
X159269013Y-92937809D01*
X159293596Y-92997157D01*
X158470000Y-92997157D01*
X158336784Y-93010278D01*
X158208687Y-93049135D01*
X158090633Y-93112237D01*
X157987157Y-93197157D01*
X157902237Y-93300633D01*
X157839135Y-93418687D01*
X157822356Y-93474000D01*
X154903501Y-93474000D01*
X154802859Y-93373358D01*
X154674942Y-93287887D01*
X154532809Y-93229013D01*
X154381922Y-93199000D01*
X154228078Y-93199000D01*
X154077191Y-93229013D01*
X153935058Y-93287887D01*
X153807141Y-93373358D01*
X153698358Y-93482141D01*
X153612887Y-93610058D01*
X153554013Y-93752191D01*
X153524000Y-93903078D01*
X153524000Y-94056922D01*
X153554013Y-94207809D01*
X153612887Y-94349942D01*
X153698358Y-94477859D01*
X153807141Y-94586642D01*
X153935058Y-94672113D01*
X154077191Y-94730987D01*
X154228078Y-94761000D01*
X154381922Y-94761000D01*
X154532809Y-94730987D01*
X154674942Y-94672113D01*
X154802859Y-94586642D01*
X154903501Y-94486000D01*
X157822356Y-94486000D01*
X157839135Y-94541313D01*
X157902237Y-94659367D01*
X157987157Y-94762843D01*
X158090633Y-94847763D01*
X158208687Y-94910865D01*
X158336784Y-94949722D01*
X158470000Y-94962843D01*
X161570000Y-94962843D01*
X161703216Y-94949722D01*
X161831313Y-94910865D01*
X161949367Y-94847763D01*
X162052843Y-94762843D01*
X162054000Y-94761433D01*
X162054000Y-95620408D01*
X161989355Y-95685054D01*
X161949367Y-95652237D01*
X161831313Y-95589135D01*
X161703216Y-95550278D01*
X161570000Y-95537157D01*
X158470000Y-95537157D01*
X158336784Y-95550278D01*
X158208687Y-95589135D01*
X158090633Y-95652237D01*
X157987157Y-95737157D01*
X157902237Y-95840633D01*
X157839135Y-95958687D01*
X157800278Y-96086784D01*
X157787157Y-96220000D01*
X157787157Y-96820000D01*
X157800278Y-96953216D01*
X157839135Y-97081313D01*
X157902237Y-97199367D01*
X157971693Y-97284000D01*
X154903501Y-97284000D01*
X154802859Y-97183358D01*
X154674942Y-97097887D01*
X154532809Y-97039013D01*
X154381922Y-97009000D01*
X154228078Y-97009000D01*
X154077191Y-97039013D01*
X153935058Y-97097887D01*
X153807141Y-97183358D01*
X153698358Y-97292141D01*
X153612887Y-97420058D01*
X153554013Y-97562191D01*
X153524000Y-97713078D01*
X153524000Y-97866922D01*
X153554013Y-98017809D01*
X153612887Y-98159942D01*
X153698358Y-98287859D01*
X153807141Y-98396642D01*
X153935058Y-98482113D01*
X154077191Y-98540987D01*
X154228078Y-98571000D01*
X154381922Y-98571000D01*
X154532809Y-98540987D01*
X154674942Y-98482113D01*
X154802859Y-98396642D01*
X154903501Y-98296000D01*
X157971693Y-98296000D01*
X157902237Y-98380633D01*
X157839135Y-98498687D01*
X157800278Y-98626784D01*
X157787157Y-98760000D01*
X157787157Y-99360000D01*
X157800278Y-99493216D01*
X157839135Y-99621313D01*
X157902237Y-99739367D01*
X157987157Y-99842843D01*
X158090633Y-99927763D01*
X158208687Y-99990865D01*
X158336784Y-100029722D01*
X158470000Y-100042843D01*
X161570000Y-100042843D01*
X161703216Y-100029722D01*
X161831313Y-99990865D01*
X161949367Y-99927763D01*
X162052843Y-99842843D01*
X162137763Y-99739367D01*
X162200865Y-99621313D01*
X162217644Y-99566000D01*
X163805154Y-99566000D01*
X163830000Y-99568447D01*
X163854846Y-99566000D01*
X163854854Y-99566000D01*
X163929193Y-99558678D01*
X164024575Y-99529745D01*
X164112479Y-99482759D01*
X164189527Y-99419527D01*
X164205376Y-99400215D01*
X164594000Y-99011591D01*
X164594000Y-100755408D01*
X164255409Y-101094000D01*
X162217644Y-101094000D01*
X162200865Y-101038687D01*
X162137763Y-100920633D01*
X162052843Y-100817157D01*
X161949367Y-100732237D01*
X161831313Y-100669135D01*
X161703216Y-100630278D01*
X161570000Y-100617157D01*
X158470000Y-100617157D01*
X158336784Y-100630278D01*
X158208687Y-100669135D01*
X158090633Y-100732237D01*
X157987157Y-100817157D01*
X157902237Y-100920633D01*
X157839135Y-101038687D01*
X157800278Y-101166784D01*
X157787157Y-101300000D01*
X157787157Y-101900000D01*
X157800278Y-102033216D01*
X157839135Y-102161313D01*
X157902237Y-102279367D01*
X157987157Y-102382843D01*
X158090633Y-102467763D01*
X158208687Y-102530865D01*
X158336784Y-102569722D01*
X158470000Y-102582843D01*
X161570000Y-102582843D01*
X161703216Y-102569722D01*
X161831313Y-102530865D01*
X161949367Y-102467763D01*
X162052843Y-102382843D01*
X162137763Y-102279367D01*
X162200865Y-102161313D01*
X162217644Y-102106000D01*
X164440154Y-102106000D01*
X164465000Y-102108447D01*
X164489846Y-102106000D01*
X164489854Y-102106000D01*
X164564193Y-102098678D01*
X164659575Y-102069745D01*
X164747479Y-102022759D01*
X164824527Y-101959527D01*
X164840376Y-101940215D01*
X165229000Y-101551592D01*
X165229000Y-102660408D01*
X164255409Y-103634000D01*
X162217644Y-103634000D01*
X162200865Y-103578687D01*
X162137763Y-103460633D01*
X162052843Y-103357157D01*
X161949367Y-103272237D01*
X161831313Y-103209135D01*
X161703216Y-103170278D01*
X161570000Y-103157157D01*
X158470000Y-103157157D01*
X158336784Y-103170278D01*
X158208687Y-103209135D01*
X158090633Y-103272237D01*
X157987157Y-103357157D01*
X157902237Y-103460633D01*
X157839135Y-103578687D01*
X157800278Y-103706784D01*
X157787157Y-103840000D01*
X157787157Y-104440000D01*
X157800278Y-104573216D01*
X157839135Y-104701313D01*
X157902237Y-104819367D01*
X157987157Y-104922843D01*
X158090633Y-105007763D01*
X158208687Y-105070865D01*
X158336784Y-105109722D01*
X158470000Y-105122843D01*
X161570000Y-105122843D01*
X161703216Y-105109722D01*
X161831313Y-105070865D01*
X161949367Y-105007763D01*
X162052843Y-104922843D01*
X162137763Y-104819367D01*
X162200865Y-104701313D01*
X162217644Y-104646000D01*
X164440154Y-104646000D01*
X164465000Y-104648447D01*
X164489846Y-104646000D01*
X164489854Y-104646000D01*
X164564193Y-104638678D01*
X164659575Y-104609745D01*
X164747479Y-104562759D01*
X164824527Y-104499527D01*
X164840376Y-104480215D01*
X166075220Y-103245372D01*
X166094527Y-103229527D01*
X166157759Y-103152479D01*
X166204745Y-103064575D01*
X166233678Y-102969193D01*
X166241000Y-102894854D01*
X166241000Y-102894847D01*
X166243000Y-102874540D01*
X166243000Y-110395783D01*
X166240831Y-110399862D01*
X165977845Y-110722315D01*
X165657226Y-110987554D01*
X165637906Y-110998000D01*
X136619217Y-110998000D01*
X136615138Y-110995831D01*
X136292685Y-110732845D01*
X136027446Y-110412226D01*
X136017000Y-110392906D01*
X136017000Y-109820000D01*
X139691928Y-109820000D01*
X139704188Y-109944482D01*
X139740498Y-110064180D01*
X139799463Y-110174494D01*
X139878815Y-110271185D01*
X139975506Y-110350537D01*
X140085820Y-110409502D01*
X140205518Y-110445812D01*
X140330000Y-110458072D01*
X141894250Y-110455000D01*
X142053000Y-110296250D01*
X142053000Y-109347000D01*
X142307000Y-109347000D01*
X142307000Y-110296250D01*
X142465750Y-110455000D01*
X144030000Y-110458072D01*
X144154482Y-110445812D01*
X144274180Y-110409502D01*
X144384494Y-110350537D01*
X144481185Y-110271185D01*
X144560537Y-110174494D01*
X144619502Y-110064180D01*
X144655812Y-109944482D01*
X144668072Y-109820000D01*
X144665000Y-109505750D01*
X144506250Y-109347000D01*
X142307000Y-109347000D01*
X142053000Y-109347000D01*
X139853750Y-109347000D01*
X139695000Y-109505750D01*
X139691928Y-109820000D01*
X136017000Y-109820000D01*
X136017000Y-108620000D01*
X139691928Y-108620000D01*
X139695000Y-108934250D01*
X139853750Y-109093000D01*
X142053000Y-109093000D01*
X142053000Y-108143750D01*
X142307000Y-108143750D01*
X142307000Y-109093000D01*
X144506250Y-109093000D01*
X144665000Y-108934250D01*
X144665139Y-108920000D01*
X157787157Y-108920000D01*
X157787157Y-109520000D01*
X157800278Y-109653216D01*
X157839135Y-109781313D01*
X157902237Y-109899367D01*
X157987157Y-110002843D01*
X158090633Y-110087763D01*
X158208687Y-110150865D01*
X158336784Y-110189722D01*
X158470000Y-110202843D01*
X161570000Y-110202843D01*
X161703216Y-110189722D01*
X161831313Y-110150865D01*
X161949367Y-110087763D01*
X162052843Y-110002843D01*
X162137763Y-109899367D01*
X162146505Y-109883012D01*
X162190058Y-109912113D01*
X162332191Y-109970987D01*
X162483078Y-110001000D01*
X162636922Y-110001000D01*
X162787809Y-109970987D01*
X162929942Y-109912113D01*
X163057859Y-109826642D01*
X163166642Y-109717859D01*
X163252113Y-109589942D01*
X163310987Y-109447809D01*
X163341000Y-109296922D01*
X163341000Y-109143078D01*
X163310987Y-108992191D01*
X163252113Y-108850058D01*
X163166642Y-108722141D01*
X163057859Y-108613358D01*
X162929942Y-108527887D01*
X162787809Y-108469013D01*
X162636922Y-108439000D01*
X162483078Y-108439000D01*
X162332191Y-108469013D01*
X162190058Y-108527887D01*
X162146505Y-108556988D01*
X162137763Y-108540633D01*
X162052843Y-108437157D01*
X161949367Y-108352237D01*
X161831313Y-108289135D01*
X161703216Y-108250278D01*
X161570000Y-108237157D01*
X158470000Y-108237157D01*
X158336784Y-108250278D01*
X158208687Y-108289135D01*
X158090633Y-108352237D01*
X157987157Y-108437157D01*
X157902237Y-108540633D01*
X157839135Y-108658687D01*
X157800278Y-108786784D01*
X157787157Y-108920000D01*
X144665139Y-108920000D01*
X144668072Y-108620000D01*
X144655812Y-108495518D01*
X144619502Y-108375820D01*
X144560537Y-108265506D01*
X144481185Y-108168815D01*
X144384494Y-108089463D01*
X144274180Y-108030498D01*
X144154482Y-107994188D01*
X144030000Y-107981928D01*
X142465750Y-107985000D01*
X142307000Y-108143750D01*
X142053000Y-108143750D01*
X141894250Y-107985000D01*
X140330000Y-107981928D01*
X140205518Y-107994188D01*
X140085820Y-108030498D01*
X139975506Y-108089463D01*
X139878815Y-108168815D01*
X139799463Y-108265506D01*
X139740498Y-108375820D01*
X139704188Y-108495518D01*
X139691928Y-108620000D01*
X136017000Y-108620000D01*
X136017000Y-75024217D01*
X136019170Y-75020136D01*
X136282157Y-74697683D01*
X136602773Y-74432447D01*
X136622094Y-74422000D01*
X165640783Y-74422000D01*
X165644864Y-74424170D01*
G37*
%TD.AperFunction*%
%TD*%
M02*
