M48
; DRILL file {KiCad (5.1.8)-1} date 05/04/21 01:41:51
; FORMAT={-:-/ absolute / metric / decimal}
; #@! TF.CreationDate,2021-05-04T01:41:51-06:00
; #@! TF.GenerationSoftware,Kicad,Pcbnew,(5.1.8)-1
; #@! TF.FileFunction,Plated,1,2,PTH
FMAT,2
METRIC
T1C0.400
%
G90
G05
T1
X136.525Y-76.2
X136.525Y-101.6
X136.525Y-107.95
X137.16Y-96.52
X139.7Y-74.93
X139.7Y-81.28
X139.7Y-82.55
X139.7Y-88.9
X139.7Y-96.52
X139.7Y-109.22
X140.97Y-87.63
X142.24Y-110.49
X143.51Y-87.63
X144.145Y-85.09
X144.78Y-109.22
X145.415Y-81.28
X145.415Y-83.82
X146.05Y-74.93
X146.05Y-110.49
X147.32Y-96.52
X152.4Y-74.93
X152.4Y-95.25
X152.4Y-110.49
X153.035Y-103.505
X153.035Y-108.585
X154.305Y-83.82
X154.305Y-86.36
X154.305Y-92.075
X154.305Y-93.98
X154.305Y-95.885
X154.305Y-97.79
X154.305Y-100.33
X156.845Y-100.33
X157.48Y-74.93
X157.48Y-81.28
X158.115Y-87.63
X158.115Y-95.25
X158.75Y-110.49
X160.02Y-77.47
X160.02Y-92.71
X161.925Y-80.01
X162.56Y-82.55
X162.56Y-83.82
X162.56Y-85.09
X162.56Y-86.995
X162.56Y-88.9
X162.56Y-90.17
X162.56Y-91.44
X162.56Y-92.71
X162.56Y-97.79
X162.56Y-100.33
X162.56Y-106.68
X162.56Y-109.22
X165.1Y-110.49
X165.735Y-76.2
X165.735Y-82.55
T0
M30
