%TF.GenerationSoftware,KiCad,Pcbnew,(5.1.10)-1*%
%TF.CreationDate,2021-09-09T19:00:59-06:00*%
%TF.ProjectId,NVRTC,4e565254-432e-46b6-9963-61645f706362,3*%
%TF.SameCoordinates,Original*%
%TF.FileFunction,Legend,Bot*%
%TF.FilePolarity,Positive*%
%FSLAX46Y46*%
G04 Gerber Fmt 4.6, Leading zero omitted, Abs format (unit mm)*
G04 Created by KiCad (PCBNEW (5.1.10)-1) date 2021-09-09 19:00:59*
%MOMM*%
%LPD*%
G01*
G04 APERTURE LIST*
%ADD10C,0.150000*%
%ADD11C,0.120000*%
%ADD12C,0.100000*%
G04 APERTURE END LIST*
D10*
X140250000Y-75107380D02*
X140250000Y-75345476D01*
X140488095Y-75250238D02*
X140250000Y-75345476D01*
X140011904Y-75250238D01*
X140392857Y-75535952D02*
X140250000Y-75345476D01*
X140107142Y-75535952D01*
D11*
%TO.C,H1*%
X143510000Y-74930000D02*
X147320000Y-74930000D01*
X154940000Y-74930000D02*
X158750000Y-74930000D01*
X143510000Y-74930000D02*
X139700000Y-74930000D01*
X139700000Y-74930000D02*
X139700000Y-111125000D01*
X158750000Y-74930000D02*
X162560000Y-74930000D01*
X162560000Y-74930000D02*
X162560000Y-111125000D01*
X162560000Y-111125000D02*
X139700000Y-111125000D01*
X147320000Y-74930000D02*
G75*
G03*
X154940000Y-74930000I3810000J0D01*
G01*
D10*
X151891904Y-84272380D02*
X151891904Y-83272380D01*
X151891904Y-83748571D02*
X151320476Y-83748571D01*
X151320476Y-84272380D02*
X151320476Y-83272380D01*
X150320476Y-84272380D02*
X150891904Y-84272380D01*
X150606190Y-84272380D02*
X150606190Y-83272380D01*
X150701428Y-83415238D01*
X150796666Y-83510476D01*
X150891904Y-83558095D01*
X153272857Y-105227380D02*
X153272857Y-104227380D01*
X152891904Y-104227380D01*
X152796666Y-104275000D01*
X152749047Y-104322619D01*
X152701428Y-104417857D01*
X152701428Y-104560714D01*
X152749047Y-104655952D01*
X152796666Y-104703571D01*
X152891904Y-104751190D01*
X153272857Y-104751190D01*
X152272857Y-105227380D02*
X152272857Y-104560714D01*
X152272857Y-104227380D02*
X152320476Y-104275000D01*
X152272857Y-104322619D01*
X152225238Y-104275000D01*
X152272857Y-104227380D01*
X152272857Y-104322619D01*
X151796666Y-104560714D02*
X151796666Y-105227380D01*
X151796666Y-104655952D02*
X151749047Y-104608333D01*
X151653809Y-104560714D01*
X151510952Y-104560714D01*
X151415714Y-104608333D01*
X151368095Y-104703571D01*
X151368095Y-105227380D01*
X150749047Y-105227380D02*
X150844285Y-105179761D01*
X150891904Y-105132142D01*
X150939523Y-105036904D01*
X150939523Y-104751190D01*
X150891904Y-104655952D01*
X150844285Y-104608333D01*
X150749047Y-104560714D01*
X150606190Y-104560714D01*
X150510952Y-104608333D01*
X150463333Y-104655952D01*
X150415714Y-104751190D01*
X150415714Y-105036904D01*
X150463333Y-105132142D01*
X150510952Y-105179761D01*
X150606190Y-105227380D01*
X150749047Y-105227380D01*
X149558571Y-104560714D02*
X149558571Y-105227380D01*
X149987142Y-104560714D02*
X149987142Y-105084523D01*
X149939523Y-105179761D01*
X149844285Y-105227380D01*
X149701428Y-105227380D01*
X149606190Y-105179761D01*
X149558571Y-105132142D01*
X149225238Y-104560714D02*
X148844285Y-104560714D01*
X149082380Y-104227380D02*
X149082380Y-105084523D01*
X149034761Y-105179761D01*
X148939523Y-105227380D01*
X148844285Y-105227380D01*
X154177619Y-103322380D02*
X154177619Y-102322380D01*
X153844285Y-103036666D01*
X153510952Y-102322380D01*
X153510952Y-103322380D01*
X152606190Y-102655714D02*
X152606190Y-103322380D01*
X152844285Y-102274761D02*
X153082380Y-102989047D01*
X152463333Y-102989047D01*
X151939523Y-102750952D02*
X152034761Y-102703333D01*
X152082380Y-102655714D01*
X152130000Y-102560476D01*
X152130000Y-102512857D01*
X152082380Y-102417619D01*
X152034761Y-102370000D01*
X151939523Y-102322380D01*
X151749047Y-102322380D01*
X151653809Y-102370000D01*
X151606190Y-102417619D01*
X151558571Y-102512857D01*
X151558571Y-102560476D01*
X151606190Y-102655714D01*
X151653809Y-102703333D01*
X151749047Y-102750952D01*
X151939523Y-102750952D01*
X152034761Y-102798571D01*
X152082380Y-102846190D01*
X152130000Y-102941428D01*
X152130000Y-103131904D01*
X152082380Y-103227142D01*
X152034761Y-103274761D01*
X151939523Y-103322380D01*
X151749047Y-103322380D01*
X151653809Y-103274761D01*
X151606190Y-103227142D01*
X151558571Y-103131904D01*
X151558571Y-102941428D01*
X151606190Y-102846190D01*
X151653809Y-102798571D01*
X151749047Y-102750952D01*
X151272857Y-102322380D02*
X150701428Y-102322380D01*
X150987142Y-103322380D02*
X150987142Y-102322380D01*
X149891904Y-102322380D02*
X150368095Y-102322380D01*
X150415714Y-102798571D01*
X150368095Y-102750952D01*
X150272857Y-102703333D01*
X150034761Y-102703333D01*
X149939523Y-102750952D01*
X149891904Y-102798571D01*
X149844285Y-102893809D01*
X149844285Y-103131904D01*
X149891904Y-103227142D01*
X149939523Y-103274761D01*
X150034761Y-103322380D01*
X150272857Y-103322380D01*
X150368095Y-103274761D01*
X150415714Y-103227142D01*
X149368095Y-103322380D02*
X149177619Y-103322380D01*
X149082380Y-103274761D01*
X149034761Y-103227142D01*
X148939523Y-103084285D01*
X148891904Y-102893809D01*
X148891904Y-102512857D01*
X148939523Y-102417619D01*
X148987142Y-102370000D01*
X149082380Y-102322380D01*
X149272857Y-102322380D01*
X149368095Y-102370000D01*
X149415714Y-102417619D01*
X149463333Y-102512857D01*
X149463333Y-102750952D01*
X149415714Y-102846190D01*
X149368095Y-102893809D01*
X149272857Y-102941428D01*
X149082380Y-102941428D01*
X148987142Y-102893809D01*
X148939523Y-102846190D01*
X148891904Y-102750952D01*
X148272857Y-102846190D02*
X148272857Y-103322380D01*
X148606190Y-102322380D02*
X148272857Y-102846190D01*
X147939523Y-102322380D01*
D12*
X161240476Y-76922380D02*
X160907142Y-77922380D01*
X160573809Y-76922380D01*
X159811904Y-77874761D02*
X159907142Y-77922380D01*
X160097619Y-77922380D01*
X160192857Y-77874761D01*
X160240476Y-77827142D01*
X160288095Y-77731904D01*
X160288095Y-77446190D01*
X160240476Y-77350952D01*
X160192857Y-77303333D01*
X160097619Y-77255714D01*
X159907142Y-77255714D01*
X159811904Y-77303333D01*
X158954761Y-77874761D02*
X159050000Y-77922380D01*
X159240476Y-77922380D01*
X159335714Y-77874761D01*
X159383333Y-77827142D01*
X159430952Y-77731904D01*
X159430952Y-77446190D01*
X159383333Y-77350952D01*
X159335714Y-77303333D01*
X159240476Y-77255714D01*
X159050000Y-77255714D01*
X158954761Y-77303333D01*
X160478571Y-79462380D02*
X160240476Y-80462380D01*
X160050000Y-79748095D01*
X159859523Y-80462380D01*
X159621428Y-79462380D01*
X161073809Y-83002380D02*
X161073809Y-82002380D01*
X160026190Y-83002380D02*
X160359523Y-82526190D01*
X160597619Y-83002380D02*
X160597619Y-82002380D01*
X160216666Y-82002380D01*
X160121428Y-82050000D01*
X160073809Y-82097619D01*
X160026190Y-82192857D01*
X160026190Y-82335714D01*
X160073809Y-82430952D01*
X160121428Y-82478571D01*
X160216666Y-82526190D01*
X160597619Y-82526190D01*
X158930952Y-83097619D02*
X159026190Y-83050000D01*
X159121428Y-82954761D01*
X159264285Y-82811904D01*
X159359523Y-82764285D01*
X159454761Y-82764285D01*
X159407142Y-83002380D02*
X159502380Y-82954761D01*
X159597619Y-82859523D01*
X159645238Y-82669047D01*
X159645238Y-82335714D01*
X159597619Y-82145238D01*
X159502380Y-82050000D01*
X159407142Y-82002380D01*
X159216666Y-82002380D01*
X159121428Y-82050000D01*
X159026190Y-82145238D01*
X158978571Y-82335714D01*
X158978571Y-82669047D01*
X159026190Y-82859523D01*
X159121428Y-82954761D01*
X159216666Y-83002380D01*
X159407142Y-83002380D01*
X160764285Y-85256666D02*
X160288095Y-85256666D01*
X160859523Y-85542380D02*
X160526190Y-84542380D01*
X160192857Y-85542380D01*
X159716666Y-84970952D02*
X159811904Y-84923333D01*
X159859523Y-84875714D01*
X159907142Y-84780476D01*
X159907142Y-84732857D01*
X159859523Y-84637619D01*
X159811904Y-84590000D01*
X159716666Y-84542380D01*
X159526190Y-84542380D01*
X159430952Y-84590000D01*
X159383333Y-84637619D01*
X159335714Y-84732857D01*
X159335714Y-84780476D01*
X159383333Y-84875714D01*
X159430952Y-84923333D01*
X159526190Y-84970952D01*
X159716666Y-84970952D01*
X159811904Y-85018571D01*
X159859523Y-85066190D01*
X159907142Y-85161428D01*
X159907142Y-85351904D01*
X159859523Y-85447142D01*
X159811904Y-85494761D01*
X159716666Y-85542380D01*
X159526190Y-85542380D01*
X159430952Y-85494761D01*
X159383333Y-85447142D01*
X159335714Y-85351904D01*
X159335714Y-85161428D01*
X159383333Y-85066190D01*
X159430952Y-85018571D01*
X159526190Y-84970952D01*
X160764285Y-87796666D02*
X160288095Y-87796666D01*
X160859523Y-88082380D02*
X160526190Y-87082380D01*
X160192857Y-88082380D01*
X159811904Y-88082380D02*
X159621428Y-88082380D01*
X159526190Y-88034761D01*
X159478571Y-87987142D01*
X159383333Y-87844285D01*
X159335714Y-87653809D01*
X159335714Y-87272857D01*
X159383333Y-87177619D01*
X159430952Y-87130000D01*
X159526190Y-87082380D01*
X159716666Y-87082380D01*
X159811904Y-87130000D01*
X159859523Y-87177619D01*
X159907142Y-87272857D01*
X159907142Y-87510952D01*
X159859523Y-87606190D01*
X159811904Y-87653809D01*
X159716666Y-87701428D01*
X159526190Y-87701428D01*
X159430952Y-87653809D01*
X159383333Y-87606190D01*
X159335714Y-87510952D01*
X161240476Y-90336666D02*
X160764285Y-90336666D01*
X161335714Y-90622380D02*
X161002380Y-89622380D01*
X160669047Y-90622380D01*
X159811904Y-90622380D02*
X160383333Y-90622380D01*
X160097619Y-90622380D02*
X160097619Y-89622380D01*
X160192857Y-89765238D01*
X160288095Y-89860476D01*
X160383333Y-89908095D01*
X158859523Y-90622380D02*
X159430952Y-90622380D01*
X159145238Y-90622380D02*
X159145238Y-89622380D01*
X159240476Y-89765238D01*
X159335714Y-89860476D01*
X159430952Y-89908095D01*
X159788095Y-92210000D02*
X159883333Y-92162380D01*
X160026190Y-92162380D01*
X160169047Y-92210000D01*
X160264285Y-92305238D01*
X160311904Y-92400476D01*
X160359523Y-92590952D01*
X160359523Y-92733809D01*
X160311904Y-92924285D01*
X160264285Y-93019523D01*
X160169047Y-93114761D01*
X160026190Y-93162380D01*
X159930952Y-93162380D01*
X159788095Y-93114761D01*
X159740476Y-93067142D01*
X159740476Y-92733809D01*
X159930952Y-92733809D01*
X161240476Y-95416666D02*
X160764285Y-95416666D01*
X161335714Y-95702380D02*
X161002380Y-94702380D01*
X160669047Y-95702380D01*
X159811904Y-95702380D02*
X160383333Y-95702380D01*
X160097619Y-95702380D02*
X160097619Y-94702380D01*
X160192857Y-94845238D01*
X160288095Y-94940476D01*
X160383333Y-94988095D01*
X159192857Y-94702380D02*
X159097619Y-94702380D01*
X159002380Y-94750000D01*
X158954761Y-94797619D01*
X158907142Y-94892857D01*
X158859523Y-95083333D01*
X158859523Y-95321428D01*
X158907142Y-95511904D01*
X158954761Y-95607142D01*
X159002380Y-95654761D01*
X159097619Y-95702380D01*
X159192857Y-95702380D01*
X159288095Y-95654761D01*
X159335714Y-95607142D01*
X159383333Y-95511904D01*
X159430952Y-95321428D01*
X159430952Y-95083333D01*
X159383333Y-94892857D01*
X159335714Y-94797619D01*
X159288095Y-94750000D01*
X159192857Y-94702380D01*
X160264285Y-97718571D02*
X159930952Y-97718571D01*
X159788095Y-98242380D02*
X160264285Y-98242380D01*
X160264285Y-97242380D01*
X159788095Y-97242380D01*
X161311904Y-100782380D02*
X161311904Y-99782380D01*
X161073809Y-99782380D01*
X160930952Y-99830000D01*
X160835714Y-99925238D01*
X160788095Y-100020476D01*
X160740476Y-100210952D01*
X160740476Y-100353809D01*
X160788095Y-100544285D01*
X160835714Y-100639523D01*
X160930952Y-100734761D01*
X161073809Y-100782380D01*
X161311904Y-100782380D01*
X159645238Y-100877619D02*
X159740476Y-100830000D01*
X159835714Y-100734761D01*
X159978571Y-100591904D01*
X160073809Y-100544285D01*
X160169047Y-100544285D01*
X160121428Y-100782380D02*
X160216666Y-100734761D01*
X160311904Y-100639523D01*
X160359523Y-100449047D01*
X160359523Y-100115714D01*
X160311904Y-99925238D01*
X160216666Y-99830000D01*
X160121428Y-99782380D01*
X159930952Y-99782380D01*
X159835714Y-99830000D01*
X159740476Y-99925238D01*
X159692857Y-100115714D01*
X159692857Y-100449047D01*
X159740476Y-100639523D01*
X159835714Y-100734761D01*
X159930952Y-100782380D01*
X160121428Y-100782380D01*
X159359523Y-99782380D02*
X158692857Y-99782380D01*
X159121428Y-100782380D01*
X161311904Y-103322380D02*
X161311904Y-102322380D01*
X161073809Y-102322380D01*
X160930952Y-102370000D01*
X160835714Y-102465238D01*
X160788095Y-102560476D01*
X160740476Y-102750952D01*
X160740476Y-102893809D01*
X160788095Y-103084285D01*
X160835714Y-103179523D01*
X160930952Y-103274761D01*
X161073809Y-103322380D01*
X161311904Y-103322380D01*
X159645238Y-103417619D02*
X159740476Y-103370000D01*
X159835714Y-103274761D01*
X159978571Y-103131904D01*
X160073809Y-103084285D01*
X160169047Y-103084285D01*
X160121428Y-103322380D02*
X160216666Y-103274761D01*
X160311904Y-103179523D01*
X160359523Y-102989047D01*
X160359523Y-102655714D01*
X160311904Y-102465238D01*
X160216666Y-102370000D01*
X160121428Y-102322380D01*
X159930952Y-102322380D01*
X159835714Y-102370000D01*
X159740476Y-102465238D01*
X159692857Y-102655714D01*
X159692857Y-102989047D01*
X159740476Y-103179523D01*
X159835714Y-103274761D01*
X159930952Y-103322380D01*
X160121428Y-103322380D01*
X158835714Y-102322380D02*
X159026190Y-102322380D01*
X159121428Y-102370000D01*
X159169047Y-102417619D01*
X159264285Y-102560476D01*
X159311904Y-102750952D01*
X159311904Y-103131904D01*
X159264285Y-103227142D01*
X159216666Y-103274761D01*
X159121428Y-103322380D01*
X158930952Y-103322380D01*
X158835714Y-103274761D01*
X158788095Y-103227142D01*
X158740476Y-103131904D01*
X158740476Y-102893809D01*
X158788095Y-102798571D01*
X158835714Y-102750952D01*
X158930952Y-102703333D01*
X159121428Y-102703333D01*
X159216666Y-102750952D01*
X159264285Y-102798571D01*
X159311904Y-102893809D01*
X161311904Y-105862380D02*
X161311904Y-104862380D01*
X161073809Y-104862380D01*
X160930952Y-104910000D01*
X160835714Y-105005238D01*
X160788095Y-105100476D01*
X160740476Y-105290952D01*
X160740476Y-105433809D01*
X160788095Y-105624285D01*
X160835714Y-105719523D01*
X160930952Y-105814761D01*
X161073809Y-105862380D01*
X161311904Y-105862380D01*
X159645238Y-105957619D02*
X159740476Y-105910000D01*
X159835714Y-105814761D01*
X159978571Y-105671904D01*
X160073809Y-105624285D01*
X160169047Y-105624285D01*
X160121428Y-105862380D02*
X160216666Y-105814761D01*
X160311904Y-105719523D01*
X160359523Y-105529047D01*
X160359523Y-105195714D01*
X160311904Y-105005238D01*
X160216666Y-104910000D01*
X160121428Y-104862380D01*
X159930952Y-104862380D01*
X159835714Y-104910000D01*
X159740476Y-105005238D01*
X159692857Y-105195714D01*
X159692857Y-105529047D01*
X159740476Y-105719523D01*
X159835714Y-105814761D01*
X159930952Y-105862380D01*
X160121428Y-105862380D01*
X158788095Y-104862380D02*
X159264285Y-104862380D01*
X159311904Y-105338571D01*
X159264285Y-105290952D01*
X159169047Y-105243333D01*
X158930952Y-105243333D01*
X158835714Y-105290952D01*
X158788095Y-105338571D01*
X158740476Y-105433809D01*
X158740476Y-105671904D01*
X158788095Y-105767142D01*
X158835714Y-105814761D01*
X158930952Y-105862380D01*
X159169047Y-105862380D01*
X159264285Y-105814761D01*
X159311904Y-105767142D01*
X161311904Y-108402380D02*
X161311904Y-107402380D01*
X161073809Y-107402380D01*
X160930952Y-107450000D01*
X160835714Y-107545238D01*
X160788095Y-107640476D01*
X160740476Y-107830952D01*
X160740476Y-107973809D01*
X160788095Y-108164285D01*
X160835714Y-108259523D01*
X160930952Y-108354761D01*
X161073809Y-108402380D01*
X161311904Y-108402380D01*
X159645238Y-108497619D02*
X159740476Y-108450000D01*
X159835714Y-108354761D01*
X159978571Y-108211904D01*
X160073809Y-108164285D01*
X160169047Y-108164285D01*
X160121428Y-108402380D02*
X160216666Y-108354761D01*
X160311904Y-108259523D01*
X160359523Y-108069047D01*
X160359523Y-107735714D01*
X160311904Y-107545238D01*
X160216666Y-107450000D01*
X160121428Y-107402380D01*
X159930952Y-107402380D01*
X159835714Y-107450000D01*
X159740476Y-107545238D01*
X159692857Y-107735714D01*
X159692857Y-108069047D01*
X159740476Y-108259523D01*
X159835714Y-108354761D01*
X159930952Y-108402380D01*
X160121428Y-108402380D01*
X158835714Y-107735714D02*
X158835714Y-108402380D01*
X159073809Y-107354761D02*
X159311904Y-108069047D01*
X158692857Y-108069047D01*
X161311904Y-110942380D02*
X161311904Y-109942380D01*
X161073809Y-109942380D01*
X160930952Y-109990000D01*
X160835714Y-110085238D01*
X160788095Y-110180476D01*
X160740476Y-110370952D01*
X160740476Y-110513809D01*
X160788095Y-110704285D01*
X160835714Y-110799523D01*
X160930952Y-110894761D01*
X161073809Y-110942380D01*
X161311904Y-110942380D01*
X159645238Y-111037619D02*
X159740476Y-110990000D01*
X159835714Y-110894761D01*
X159978571Y-110751904D01*
X160073809Y-110704285D01*
X160169047Y-110704285D01*
X160121428Y-110942380D02*
X160216666Y-110894761D01*
X160311904Y-110799523D01*
X160359523Y-110609047D01*
X160359523Y-110275714D01*
X160311904Y-110085238D01*
X160216666Y-109990000D01*
X160121428Y-109942380D01*
X159930952Y-109942380D01*
X159835714Y-109990000D01*
X159740476Y-110085238D01*
X159692857Y-110275714D01*
X159692857Y-110609047D01*
X159740476Y-110799523D01*
X159835714Y-110894761D01*
X159930952Y-110942380D01*
X160121428Y-110942380D01*
X159359523Y-109942380D02*
X158740476Y-109942380D01*
X159073809Y-110323333D01*
X158930952Y-110323333D01*
X158835714Y-110370952D01*
X158788095Y-110418571D01*
X158740476Y-110513809D01*
X158740476Y-110751904D01*
X158788095Y-110847142D01*
X158835714Y-110894761D01*
X158930952Y-110942380D01*
X159216666Y-110942380D01*
X159311904Y-110894761D01*
X159359523Y-110847142D01*
X143352857Y-109942380D02*
X143019523Y-110942380D01*
X142686190Y-109942380D01*
X142400476Y-110894761D02*
X142305238Y-110942380D01*
X142114761Y-110942380D01*
X142019523Y-110894761D01*
X141971904Y-110799523D01*
X141971904Y-110751904D01*
X142019523Y-110656666D01*
X142114761Y-110609047D01*
X142257619Y-110609047D01*
X142352857Y-110561428D01*
X142400476Y-110466190D01*
X142400476Y-110418571D01*
X142352857Y-110323333D01*
X142257619Y-110275714D01*
X142114761Y-110275714D01*
X142019523Y-110323333D01*
X141590952Y-110894761D02*
X141495714Y-110942380D01*
X141305238Y-110942380D01*
X141210000Y-110894761D01*
X141162380Y-110799523D01*
X141162380Y-110751904D01*
X141210000Y-110656666D01*
X141305238Y-110609047D01*
X141448095Y-110609047D01*
X141543333Y-110561428D01*
X141590952Y-110466190D01*
X141590952Y-110418571D01*
X141543333Y-110323333D01*
X141448095Y-110275714D01*
X141305238Y-110275714D01*
X141210000Y-110323333D01*
X143471904Y-108402380D02*
X143471904Y-107402380D01*
X143233809Y-107402380D01*
X143090952Y-107450000D01*
X142995714Y-107545238D01*
X142948095Y-107640476D01*
X142900476Y-107830952D01*
X142900476Y-107973809D01*
X142948095Y-108164285D01*
X142995714Y-108259523D01*
X143090952Y-108354761D01*
X143233809Y-108402380D01*
X143471904Y-108402380D01*
X141805238Y-108497619D02*
X141900476Y-108450000D01*
X141995714Y-108354761D01*
X142138571Y-108211904D01*
X142233809Y-108164285D01*
X142329047Y-108164285D01*
X142281428Y-108402380D02*
X142376666Y-108354761D01*
X142471904Y-108259523D01*
X142519523Y-108069047D01*
X142519523Y-107735714D01*
X142471904Y-107545238D01*
X142376666Y-107450000D01*
X142281428Y-107402380D01*
X142090952Y-107402380D01*
X141995714Y-107450000D01*
X141900476Y-107545238D01*
X141852857Y-107735714D01*
X141852857Y-108069047D01*
X141900476Y-108259523D01*
X141995714Y-108354761D01*
X142090952Y-108402380D01*
X142281428Y-108402380D01*
X141471904Y-107497619D02*
X141424285Y-107450000D01*
X141329047Y-107402380D01*
X141090952Y-107402380D01*
X140995714Y-107450000D01*
X140948095Y-107497619D01*
X140900476Y-107592857D01*
X140900476Y-107688095D01*
X140948095Y-107830952D01*
X141519523Y-108402380D01*
X140900476Y-108402380D01*
X143471904Y-105862380D02*
X143471904Y-104862380D01*
X143233809Y-104862380D01*
X143090952Y-104910000D01*
X142995714Y-105005238D01*
X142948095Y-105100476D01*
X142900476Y-105290952D01*
X142900476Y-105433809D01*
X142948095Y-105624285D01*
X142995714Y-105719523D01*
X143090952Y-105814761D01*
X143233809Y-105862380D01*
X143471904Y-105862380D01*
X141805238Y-105957619D02*
X141900476Y-105910000D01*
X141995714Y-105814761D01*
X142138571Y-105671904D01*
X142233809Y-105624285D01*
X142329047Y-105624285D01*
X142281428Y-105862380D02*
X142376666Y-105814761D01*
X142471904Y-105719523D01*
X142519523Y-105529047D01*
X142519523Y-105195714D01*
X142471904Y-105005238D01*
X142376666Y-104910000D01*
X142281428Y-104862380D01*
X142090952Y-104862380D01*
X141995714Y-104910000D01*
X141900476Y-105005238D01*
X141852857Y-105195714D01*
X141852857Y-105529047D01*
X141900476Y-105719523D01*
X141995714Y-105814761D01*
X142090952Y-105862380D01*
X142281428Y-105862380D01*
X140900476Y-105862380D02*
X141471904Y-105862380D01*
X141186190Y-105862380D02*
X141186190Y-104862380D01*
X141281428Y-105005238D01*
X141376666Y-105100476D01*
X141471904Y-105148095D01*
X143471904Y-103322380D02*
X143471904Y-102322380D01*
X143233809Y-102322380D01*
X143090952Y-102370000D01*
X142995714Y-102465238D01*
X142948095Y-102560476D01*
X142900476Y-102750952D01*
X142900476Y-102893809D01*
X142948095Y-103084285D01*
X142995714Y-103179523D01*
X143090952Y-103274761D01*
X143233809Y-103322380D01*
X143471904Y-103322380D01*
X141805238Y-103417619D02*
X141900476Y-103370000D01*
X141995714Y-103274761D01*
X142138571Y-103131904D01*
X142233809Y-103084285D01*
X142329047Y-103084285D01*
X142281428Y-103322380D02*
X142376666Y-103274761D01*
X142471904Y-103179523D01*
X142519523Y-102989047D01*
X142519523Y-102655714D01*
X142471904Y-102465238D01*
X142376666Y-102370000D01*
X142281428Y-102322380D01*
X142090952Y-102322380D01*
X141995714Y-102370000D01*
X141900476Y-102465238D01*
X141852857Y-102655714D01*
X141852857Y-102989047D01*
X141900476Y-103179523D01*
X141995714Y-103274761D01*
X142090952Y-103322380D01*
X142281428Y-103322380D01*
X141233809Y-102322380D02*
X141138571Y-102322380D01*
X141043333Y-102370000D01*
X140995714Y-102417619D01*
X140948095Y-102512857D01*
X140900476Y-102703333D01*
X140900476Y-102941428D01*
X140948095Y-103131904D01*
X140995714Y-103227142D01*
X141043333Y-103274761D01*
X141138571Y-103322380D01*
X141233809Y-103322380D01*
X141329047Y-103274761D01*
X141376666Y-103227142D01*
X141424285Y-103131904D01*
X141471904Y-102941428D01*
X141471904Y-102703333D01*
X141424285Y-102512857D01*
X141376666Y-102417619D01*
X141329047Y-102370000D01*
X141233809Y-102322380D01*
X142924285Y-100496666D02*
X142448095Y-100496666D01*
X143019523Y-100782380D02*
X142686190Y-99782380D01*
X142352857Y-100782380D01*
X141829047Y-99782380D02*
X141733809Y-99782380D01*
X141638571Y-99830000D01*
X141590952Y-99877619D01*
X141543333Y-99972857D01*
X141495714Y-100163333D01*
X141495714Y-100401428D01*
X141543333Y-100591904D01*
X141590952Y-100687142D01*
X141638571Y-100734761D01*
X141733809Y-100782380D01*
X141829047Y-100782380D01*
X141924285Y-100734761D01*
X141971904Y-100687142D01*
X142019523Y-100591904D01*
X142067142Y-100401428D01*
X142067142Y-100163333D01*
X142019523Y-99972857D01*
X141971904Y-99877619D01*
X141924285Y-99830000D01*
X141829047Y-99782380D01*
X142924285Y-97956666D02*
X142448095Y-97956666D01*
X143019523Y-98242380D02*
X142686190Y-97242380D01*
X142352857Y-98242380D01*
X141495714Y-98242380D02*
X142067142Y-98242380D01*
X141781428Y-98242380D02*
X141781428Y-97242380D01*
X141876666Y-97385238D01*
X141971904Y-97480476D01*
X142067142Y-97528095D01*
X142924285Y-95416666D02*
X142448095Y-95416666D01*
X143019523Y-95702380D02*
X142686190Y-94702380D01*
X142352857Y-95702380D01*
X142067142Y-94797619D02*
X142019523Y-94750000D01*
X141924285Y-94702380D01*
X141686190Y-94702380D01*
X141590952Y-94750000D01*
X141543333Y-94797619D01*
X141495714Y-94892857D01*
X141495714Y-94988095D01*
X141543333Y-95130952D01*
X142114761Y-95702380D01*
X141495714Y-95702380D01*
X142924285Y-92876666D02*
X142448095Y-92876666D01*
X143019523Y-93162380D02*
X142686190Y-92162380D01*
X142352857Y-93162380D01*
X142114761Y-92162380D02*
X141495714Y-92162380D01*
X141829047Y-92543333D01*
X141686190Y-92543333D01*
X141590952Y-92590952D01*
X141543333Y-92638571D01*
X141495714Y-92733809D01*
X141495714Y-92971904D01*
X141543333Y-93067142D01*
X141590952Y-93114761D01*
X141686190Y-93162380D01*
X141971904Y-93162380D01*
X142067142Y-93114761D01*
X142114761Y-93067142D01*
X142924285Y-90336666D02*
X142448095Y-90336666D01*
X143019523Y-90622380D02*
X142686190Y-89622380D01*
X142352857Y-90622380D01*
X141590952Y-89955714D02*
X141590952Y-90622380D01*
X141829047Y-89574761D02*
X142067142Y-90289047D01*
X141448095Y-90289047D01*
X142924285Y-87796666D02*
X142448095Y-87796666D01*
X143019523Y-88082380D02*
X142686190Y-87082380D01*
X142352857Y-88082380D01*
X141543333Y-87082380D02*
X142019523Y-87082380D01*
X142067142Y-87558571D01*
X142019523Y-87510952D01*
X141924285Y-87463333D01*
X141686190Y-87463333D01*
X141590952Y-87510952D01*
X141543333Y-87558571D01*
X141495714Y-87653809D01*
X141495714Y-87891904D01*
X141543333Y-87987142D01*
X141590952Y-88034761D01*
X141686190Y-88082380D01*
X141924285Y-88082380D01*
X142019523Y-88034761D01*
X142067142Y-87987142D01*
X142924285Y-85256666D02*
X142448095Y-85256666D01*
X143019523Y-85542380D02*
X142686190Y-84542380D01*
X142352857Y-85542380D01*
X141590952Y-84542380D02*
X141781428Y-84542380D01*
X141876666Y-84590000D01*
X141924285Y-84637619D01*
X142019523Y-84780476D01*
X142067142Y-84970952D01*
X142067142Y-85351904D01*
X142019523Y-85447142D01*
X141971904Y-85494761D01*
X141876666Y-85542380D01*
X141686190Y-85542380D01*
X141590952Y-85494761D01*
X141543333Y-85447142D01*
X141495714Y-85351904D01*
X141495714Y-85113809D01*
X141543333Y-85018571D01*
X141590952Y-84970952D01*
X141686190Y-84923333D01*
X141876666Y-84923333D01*
X141971904Y-84970952D01*
X142019523Y-85018571D01*
X142067142Y-85113809D01*
X142924285Y-82716666D02*
X142448095Y-82716666D01*
X143019523Y-83002380D02*
X142686190Y-82002380D01*
X142352857Y-83002380D01*
X142114761Y-82002380D02*
X141448095Y-82002380D01*
X141876666Y-83002380D01*
X143400476Y-80176666D02*
X142924285Y-80176666D01*
X143495714Y-80462380D02*
X143162380Y-79462380D01*
X142829047Y-80462380D01*
X141971904Y-80462380D02*
X142543333Y-80462380D01*
X142257619Y-80462380D02*
X142257619Y-79462380D01*
X142352857Y-79605238D01*
X142448095Y-79700476D01*
X142543333Y-79748095D01*
X141590952Y-79557619D02*
X141543333Y-79510000D01*
X141448095Y-79462380D01*
X141210000Y-79462380D01*
X141114761Y-79510000D01*
X141067142Y-79557619D01*
X141019523Y-79652857D01*
X141019523Y-79748095D01*
X141067142Y-79890952D01*
X141638571Y-80462380D01*
X141019523Y-80462380D01*
X142757619Y-77922380D02*
X143090952Y-77446190D01*
X143329047Y-77922380D02*
X143329047Y-76922380D01*
X142948095Y-76922380D01*
X142852857Y-76970000D01*
X142805238Y-77017619D01*
X142757619Y-77112857D01*
X142757619Y-77255714D01*
X142805238Y-77350952D01*
X142852857Y-77398571D01*
X142948095Y-77446190D01*
X143329047Y-77446190D01*
X142376666Y-77874761D02*
X142233809Y-77922380D01*
X141995714Y-77922380D01*
X141900476Y-77874761D01*
X141852857Y-77827142D01*
X141805238Y-77731904D01*
X141805238Y-77636666D01*
X141852857Y-77541428D01*
X141900476Y-77493809D01*
X141995714Y-77446190D01*
X142186190Y-77398571D01*
X142281428Y-77350952D01*
X142329047Y-77303333D01*
X142376666Y-77208095D01*
X142376666Y-77112857D01*
X142329047Y-77017619D01*
X142281428Y-76970000D01*
X142186190Y-76922380D01*
X141948095Y-76922380D01*
X141805238Y-76970000D01*
X141519523Y-76922380D02*
X140948095Y-76922380D01*
X141233809Y-77922380D02*
X141233809Y-76922380D01*
%TD*%
M02*
