%TF.GenerationSoftware,KiCad,Pcbnew,(5.1.10)-1*%
%TF.CreationDate,2021-09-09T19:00:58-06:00*%
%TF.ProjectId,NVRTC,4e565254-432e-46b6-9963-61645f706362,3*%
%TF.SameCoordinates,Original*%
%TF.FileFunction,Copper,L1,Top*%
%TF.FilePolarity,Positive*%
%FSLAX46Y46*%
G04 Gerber Fmt 4.6, Leading zero omitted, Abs format (unit mm)*
G04 Created by KiCad (PCBNEW (5.1.10)-1) date 2021-09-09 19:00:58*
%MOMM*%
%LPD*%
G01*
G04 APERTURE LIST*
%TA.AperFunction,SMDPad,CuDef*%
%ADD10O,2.000000X0.550000*%
%TD*%
%TA.AperFunction,ViaPad*%
%ADD11C,0.800000*%
%TD*%
%TA.AperFunction,Conductor*%
%ADD12C,0.200000*%
%TD*%
%TA.AperFunction,Conductor*%
%ADD13C,0.400000*%
%TD*%
%TA.AperFunction,Conductor*%
%ADD14C,0.152400*%
%TD*%
%TA.AperFunction,Conductor*%
%ADD15C,0.100000*%
%TD*%
G04 APERTURE END LIST*
%TO.P,U1,44*%
%TO.N,+5V*%
%TA.AperFunction,SMDPad,CuDef*%
G36*
G01*
X156000000Y-83972500D02*
X156000000Y-83697500D01*
G75*
G02*
X156137500Y-83560000I137500J0D01*
G01*
X157862500Y-83560000D01*
G75*
G02*
X158000000Y-83697500I0J-137500D01*
G01*
X158000000Y-83972500D01*
G75*
G02*
X157862500Y-84110000I-137500J0D01*
G01*
X156137500Y-84110000D01*
G75*
G02*
X156000000Y-83972500I0J137500D01*
G01*
G37*
%TD.AperFunction*%
%TO.P,U1,43*%
%TO.N,Net-(U1-Pad43)*%
%TA.AperFunction,SMDPad,CuDef*%
G36*
G01*
X156000000Y-84782500D02*
X156000000Y-84507500D01*
G75*
G02*
X156137500Y-84370000I137500J0D01*
G01*
X157862500Y-84370000D01*
G75*
G02*
X158000000Y-84507500I0J-137500D01*
G01*
X158000000Y-84782500D01*
G75*
G02*
X157862500Y-84920000I-137500J0D01*
G01*
X156137500Y-84920000D01*
G75*
G02*
X156000000Y-84782500I0J137500D01*
G01*
G37*
%TD.AperFunction*%
%TO.P,U1,42*%
%TO.N,Net-(U1-Pad42)*%
%TA.AperFunction,SMDPad,CuDef*%
G36*
G01*
X156000000Y-85592500D02*
X156000000Y-85317500D01*
G75*
G02*
X156137500Y-85180000I137500J0D01*
G01*
X157862500Y-85180000D01*
G75*
G02*
X158000000Y-85317500I0J-137500D01*
G01*
X158000000Y-85592500D01*
G75*
G02*
X157862500Y-85730000I-137500J0D01*
G01*
X156137500Y-85730000D01*
G75*
G02*
X156000000Y-85592500I0J137500D01*
G01*
G37*
%TD.AperFunction*%
%TO.P,U1,41*%
%TO.N,Net-(U1-Pad41)*%
%TA.AperFunction,SMDPad,CuDef*%
G36*
G01*
X156000000Y-86402500D02*
X156000000Y-86127500D01*
G75*
G02*
X156137500Y-85990000I137500J0D01*
G01*
X157862500Y-85990000D01*
G75*
G02*
X158000000Y-86127500I0J-137500D01*
G01*
X158000000Y-86402500D01*
G75*
G02*
X157862500Y-86540000I-137500J0D01*
G01*
X156137500Y-86540000D01*
G75*
G02*
X156000000Y-86402500I0J137500D01*
G01*
G37*
%TD.AperFunction*%
%TO.P,U1,40*%
%TO.N,/IRQ*%
%TA.AperFunction,SMDPad,CuDef*%
G36*
G01*
X156000000Y-87212500D02*
X156000000Y-86937500D01*
G75*
G02*
X156137500Y-86800000I137500J0D01*
G01*
X157862500Y-86800000D01*
G75*
G02*
X158000000Y-86937500I0J-137500D01*
G01*
X158000000Y-87212500D01*
G75*
G02*
X157862500Y-87350000I-137500J0D01*
G01*
X156137500Y-87350000D01*
G75*
G02*
X156000000Y-87212500I0J137500D01*
G01*
G37*
%TD.AperFunction*%
%TO.P,U1,39*%
%TO.N,/WriteEnable*%
%TA.AperFunction,SMDPad,CuDef*%
G36*
G01*
X156000000Y-88022500D02*
X156000000Y-87747500D01*
G75*
G02*
X156137500Y-87610000I137500J0D01*
G01*
X157862500Y-87610000D01*
G75*
G02*
X158000000Y-87747500I0J-137500D01*
G01*
X158000000Y-88022500D01*
G75*
G02*
X157862500Y-88160000I-137500J0D01*
G01*
X156137500Y-88160000D01*
G75*
G02*
X156000000Y-88022500I0J137500D01*
G01*
G37*
%TD.AperFunction*%
%TO.P,U1,38*%
%TO.N,+5V*%
%TA.AperFunction,SMDPad,CuDef*%
G36*
G01*
X156000000Y-88832500D02*
X156000000Y-88557500D01*
G75*
G02*
X156137500Y-88420000I137500J0D01*
G01*
X157862500Y-88420000D01*
G75*
G02*
X158000000Y-88557500I0J-137500D01*
G01*
X158000000Y-88832500D01*
G75*
G02*
X157862500Y-88970000I-137500J0D01*
G01*
X156137500Y-88970000D01*
G75*
G02*
X156000000Y-88832500I0J137500D01*
G01*
G37*
%TD.AperFunction*%
%TO.P,U1,37*%
%TO.N,/A8*%
%TA.AperFunction,SMDPad,CuDef*%
G36*
G01*
X156000000Y-89642500D02*
X156000000Y-89367500D01*
G75*
G02*
X156137500Y-89230000I137500J0D01*
G01*
X157862500Y-89230000D01*
G75*
G02*
X158000000Y-89367500I0J-137500D01*
G01*
X158000000Y-89642500D01*
G75*
G02*
X157862500Y-89780000I-137500J0D01*
G01*
X156137500Y-89780000D01*
G75*
G02*
X156000000Y-89642500I0J137500D01*
G01*
G37*
%TD.AperFunction*%
%TO.P,U1,36*%
%TO.N,/A9*%
%TA.AperFunction,SMDPad,CuDef*%
G36*
G01*
X156000000Y-90452500D02*
X156000000Y-90177500D01*
G75*
G02*
X156137500Y-90040000I137500J0D01*
G01*
X157862500Y-90040000D01*
G75*
G02*
X158000000Y-90177500I0J-137500D01*
G01*
X158000000Y-90452500D01*
G75*
G02*
X157862500Y-90590000I-137500J0D01*
G01*
X156137500Y-90590000D01*
G75*
G02*
X156000000Y-90452500I0J137500D01*
G01*
G37*
%TD.AperFunction*%
%TO.P,U1,35*%
%TO.N,/A11*%
%TA.AperFunction,SMDPad,CuDef*%
G36*
G01*
X156000000Y-91262500D02*
X156000000Y-90987500D01*
G75*
G02*
X156137500Y-90850000I137500J0D01*
G01*
X157862500Y-90850000D01*
G75*
G02*
X158000000Y-90987500I0J-137500D01*
G01*
X158000000Y-91262500D01*
G75*
G02*
X157862500Y-91400000I-137500J0D01*
G01*
X156137500Y-91400000D01*
G75*
G02*
X156000000Y-91262500I0J137500D01*
G01*
G37*
%TD.AperFunction*%
%TO.P,U1,34*%
%TO.N,/OutputEnable*%
%TA.AperFunction,SMDPad,CuDef*%
G36*
G01*
X156000000Y-92072500D02*
X156000000Y-91797500D01*
G75*
G02*
X156137500Y-91660000I137500J0D01*
G01*
X157862500Y-91660000D01*
G75*
G02*
X158000000Y-91797500I0J-137500D01*
G01*
X158000000Y-92072500D01*
G75*
G02*
X157862500Y-92210000I-137500J0D01*
G01*
X156137500Y-92210000D01*
G75*
G02*
X156000000Y-92072500I0J137500D01*
G01*
G37*
%TD.AperFunction*%
%TO.P,U1,33*%
%TO.N,Net-(U1-Pad33)*%
%TA.AperFunction,SMDPad,CuDef*%
G36*
G01*
X156000000Y-92882500D02*
X156000000Y-92607500D01*
G75*
G02*
X156137500Y-92470000I137500J0D01*
G01*
X157862500Y-92470000D01*
G75*
G02*
X158000000Y-92607500I0J-137500D01*
G01*
X158000000Y-92882500D01*
G75*
G02*
X157862500Y-93020000I-137500J0D01*
G01*
X156137500Y-93020000D01*
G75*
G02*
X156000000Y-92882500I0J137500D01*
G01*
G37*
%TD.AperFunction*%
%TO.P,U1,32*%
%TO.N,Net-(U1-Pad32)*%
%TA.AperFunction,SMDPad,CuDef*%
G36*
G01*
X156000000Y-93692500D02*
X156000000Y-93417500D01*
G75*
G02*
X156137500Y-93280000I137500J0D01*
G01*
X157862500Y-93280000D01*
G75*
G02*
X158000000Y-93417500I0J-137500D01*
G01*
X158000000Y-93692500D01*
G75*
G02*
X157862500Y-93830000I-137500J0D01*
G01*
X156137500Y-93830000D01*
G75*
G02*
X156000000Y-93692500I0J137500D01*
G01*
G37*
%TD.AperFunction*%
%TO.P,U1,31*%
%TO.N,/A10*%
%TA.AperFunction,SMDPad,CuDef*%
G36*
G01*
X156000000Y-94502500D02*
X156000000Y-94227500D01*
G75*
G02*
X156137500Y-94090000I137500J0D01*
G01*
X157862500Y-94090000D01*
G75*
G02*
X158000000Y-94227500I0J-137500D01*
G01*
X158000000Y-94502500D01*
G75*
G02*
X157862500Y-94640000I-137500J0D01*
G01*
X156137500Y-94640000D01*
G75*
G02*
X156000000Y-94502500I0J137500D01*
G01*
G37*
%TD.AperFunction*%
%TO.P,U1,30*%
%TO.N,/ChipEnable*%
%TA.AperFunction,SMDPad,CuDef*%
G36*
G01*
X156000000Y-95312500D02*
X156000000Y-95037500D01*
G75*
G02*
X156137500Y-94900000I137500J0D01*
G01*
X157862500Y-94900000D01*
G75*
G02*
X158000000Y-95037500I0J-137500D01*
G01*
X158000000Y-95312500D01*
G75*
G02*
X157862500Y-95450000I-137500J0D01*
G01*
X156137500Y-95450000D01*
G75*
G02*
X156000000Y-95312500I0J137500D01*
G01*
G37*
%TD.AperFunction*%
%TO.P,U1,29*%
%TO.N,Net-(U1-Pad29)*%
%TA.AperFunction,SMDPad,CuDef*%
G36*
G01*
X156000000Y-96122500D02*
X156000000Y-95847500D01*
G75*
G02*
X156137500Y-95710000I137500J0D01*
G01*
X157862500Y-95710000D01*
G75*
G02*
X158000000Y-95847500I0J-137500D01*
G01*
X158000000Y-96122500D01*
G75*
G02*
X157862500Y-96260000I-137500J0D01*
G01*
X156137500Y-96260000D01*
G75*
G02*
X156000000Y-96122500I0J137500D01*
G01*
G37*
%TD.AperFunction*%
%TO.P,U1,28*%
%TO.N,/D7*%
%TA.AperFunction,SMDPad,CuDef*%
G36*
G01*
X156000000Y-96932500D02*
X156000000Y-96657500D01*
G75*
G02*
X156137500Y-96520000I137500J0D01*
G01*
X157862500Y-96520000D01*
G75*
G02*
X158000000Y-96657500I0J-137500D01*
G01*
X158000000Y-96932500D01*
G75*
G02*
X157862500Y-97070000I-137500J0D01*
G01*
X156137500Y-97070000D01*
G75*
G02*
X156000000Y-96932500I0J137500D01*
G01*
G37*
%TD.AperFunction*%
%TO.P,U1,27*%
%TO.N,/D6*%
%TA.AperFunction,SMDPad,CuDef*%
G36*
G01*
X156000000Y-97742500D02*
X156000000Y-97467500D01*
G75*
G02*
X156137500Y-97330000I137500J0D01*
G01*
X157862500Y-97330000D01*
G75*
G02*
X158000000Y-97467500I0J-137500D01*
G01*
X158000000Y-97742500D01*
G75*
G02*
X157862500Y-97880000I-137500J0D01*
G01*
X156137500Y-97880000D01*
G75*
G02*
X156000000Y-97742500I0J137500D01*
G01*
G37*
%TD.AperFunction*%
%TO.P,U1,26*%
%TO.N,/D5*%
%TA.AperFunction,SMDPad,CuDef*%
G36*
G01*
X156000000Y-98552500D02*
X156000000Y-98277500D01*
G75*
G02*
X156137500Y-98140000I137500J0D01*
G01*
X157862500Y-98140000D01*
G75*
G02*
X158000000Y-98277500I0J-137500D01*
G01*
X158000000Y-98552500D01*
G75*
G02*
X157862500Y-98690000I-137500J0D01*
G01*
X156137500Y-98690000D01*
G75*
G02*
X156000000Y-98552500I0J137500D01*
G01*
G37*
%TD.AperFunction*%
%TO.P,U1,25*%
%TO.N,/D4*%
%TA.AperFunction,SMDPad,CuDef*%
G36*
G01*
X156000000Y-99362500D02*
X156000000Y-99087500D01*
G75*
G02*
X156137500Y-98950000I137500J0D01*
G01*
X157862500Y-98950000D01*
G75*
G02*
X158000000Y-99087500I0J-137500D01*
G01*
X158000000Y-99362500D01*
G75*
G02*
X157862500Y-99500000I-137500J0D01*
G01*
X156137500Y-99500000D01*
G75*
G02*
X156000000Y-99362500I0J137500D01*
G01*
G37*
%TD.AperFunction*%
%TO.P,U1,24*%
%TO.N,/D3*%
%TA.AperFunction,SMDPad,CuDef*%
G36*
G01*
X156000000Y-100172500D02*
X156000000Y-99897500D01*
G75*
G02*
X156137500Y-99760000I137500J0D01*
G01*
X157862500Y-99760000D01*
G75*
G02*
X158000000Y-99897500I0J-137500D01*
G01*
X158000000Y-100172500D01*
G75*
G02*
X157862500Y-100310000I-137500J0D01*
G01*
X156137500Y-100310000D01*
G75*
G02*
X156000000Y-100172500I0J137500D01*
G01*
G37*
%TD.AperFunction*%
%TO.P,U1,23*%
%TO.N,Net-(U1-Pad23)*%
%TA.AperFunction,SMDPad,CuDef*%
G36*
G01*
X156000000Y-100982500D02*
X156000000Y-100707500D01*
G75*
G02*
X156137500Y-100570000I137500J0D01*
G01*
X157862500Y-100570000D01*
G75*
G02*
X158000000Y-100707500I0J-137500D01*
G01*
X158000000Y-100982500D01*
G75*
G02*
X157862500Y-101120000I-137500J0D01*
G01*
X156137500Y-101120000D01*
G75*
G02*
X156000000Y-100982500I0J137500D01*
G01*
G37*
%TD.AperFunction*%
%TO.P,U1,22*%
%TO.N,GND*%
%TA.AperFunction,SMDPad,CuDef*%
G36*
G01*
X144000000Y-100982500D02*
X144000000Y-100707500D01*
G75*
G02*
X144137500Y-100570000I137500J0D01*
G01*
X145862500Y-100570000D01*
G75*
G02*
X146000000Y-100707500I0J-137500D01*
G01*
X146000000Y-100982500D01*
G75*
G02*
X145862500Y-101120000I-137500J0D01*
G01*
X144137500Y-101120000D01*
G75*
G02*
X144000000Y-100982500I0J137500D01*
G01*
G37*
%TD.AperFunction*%
%TO.P,U1,21*%
%TO.N,Net-(U1-Pad21)*%
%TA.AperFunction,SMDPad,CuDef*%
G36*
G01*
X144000000Y-100172500D02*
X144000000Y-99897500D01*
G75*
G02*
X144137500Y-99760000I137500J0D01*
G01*
X145862500Y-99760000D01*
G75*
G02*
X146000000Y-99897500I0J-137500D01*
G01*
X146000000Y-100172500D01*
G75*
G02*
X145862500Y-100310000I-137500J0D01*
G01*
X144137500Y-100310000D01*
G75*
G02*
X144000000Y-100172500I0J137500D01*
G01*
G37*
%TD.AperFunction*%
%TO.P,U1,20*%
%TO.N,/D2*%
%TA.AperFunction,SMDPad,CuDef*%
G36*
G01*
X144000000Y-99362500D02*
X144000000Y-99087500D01*
G75*
G02*
X144137500Y-98950000I137500J0D01*
G01*
X145862500Y-98950000D01*
G75*
G02*
X146000000Y-99087500I0J-137500D01*
G01*
X146000000Y-99362500D01*
G75*
G02*
X145862500Y-99500000I-137500J0D01*
G01*
X144137500Y-99500000D01*
G75*
G02*
X144000000Y-99362500I0J137500D01*
G01*
G37*
%TD.AperFunction*%
%TO.P,U1,19*%
%TO.N,/D1*%
%TA.AperFunction,SMDPad,CuDef*%
G36*
G01*
X144000000Y-98552500D02*
X144000000Y-98277500D01*
G75*
G02*
X144137500Y-98140000I137500J0D01*
G01*
X145862500Y-98140000D01*
G75*
G02*
X146000000Y-98277500I0J-137500D01*
G01*
X146000000Y-98552500D01*
G75*
G02*
X145862500Y-98690000I-137500J0D01*
G01*
X144137500Y-98690000D01*
G75*
G02*
X144000000Y-98552500I0J137500D01*
G01*
G37*
%TD.AperFunction*%
%TO.P,U1,18*%
%TO.N,/D0*%
%TA.AperFunction,SMDPad,CuDef*%
G36*
G01*
X144000000Y-97742500D02*
X144000000Y-97467500D01*
G75*
G02*
X144137500Y-97330000I137500J0D01*
G01*
X145862500Y-97330000D01*
G75*
G02*
X146000000Y-97467500I0J-137500D01*
G01*
X146000000Y-97742500D01*
G75*
G02*
X145862500Y-97880000I-137500J0D01*
G01*
X144137500Y-97880000D01*
G75*
G02*
X144000000Y-97742500I0J137500D01*
G01*
G37*
%TD.AperFunction*%
%TO.P,U1,17*%
%TO.N,/A0*%
%TA.AperFunction,SMDPad,CuDef*%
G36*
G01*
X144000000Y-96932500D02*
X144000000Y-96657500D01*
G75*
G02*
X144137500Y-96520000I137500J0D01*
G01*
X145862500Y-96520000D01*
G75*
G02*
X146000000Y-96657500I0J-137500D01*
G01*
X146000000Y-96932500D01*
G75*
G02*
X145862500Y-97070000I-137500J0D01*
G01*
X144137500Y-97070000D01*
G75*
G02*
X144000000Y-96932500I0J137500D01*
G01*
G37*
%TD.AperFunction*%
%TO.P,U1,16*%
%TO.N,/A1*%
%TA.AperFunction,SMDPad,CuDef*%
G36*
G01*
X144000000Y-96122500D02*
X144000000Y-95847500D01*
G75*
G02*
X144137500Y-95710000I137500J0D01*
G01*
X145862500Y-95710000D01*
G75*
G02*
X146000000Y-95847500I0J-137500D01*
G01*
X146000000Y-96122500D01*
G75*
G02*
X145862500Y-96260000I-137500J0D01*
G01*
X144137500Y-96260000D01*
G75*
G02*
X144000000Y-96122500I0J137500D01*
G01*
G37*
%TD.AperFunction*%
%TO.P,U1,15*%
%TO.N,/A2*%
%TA.AperFunction,SMDPad,CuDef*%
G36*
G01*
X144000000Y-95312500D02*
X144000000Y-95037500D01*
G75*
G02*
X144137500Y-94900000I137500J0D01*
G01*
X145862500Y-94900000D01*
G75*
G02*
X146000000Y-95037500I0J-137500D01*
G01*
X146000000Y-95312500D01*
G75*
G02*
X145862500Y-95450000I-137500J0D01*
G01*
X144137500Y-95450000D01*
G75*
G02*
X144000000Y-95312500I0J137500D01*
G01*
G37*
%TD.AperFunction*%
%TO.P,U1,14*%
%TO.N,Net-(U1-Pad14)*%
%TA.AperFunction,SMDPad,CuDef*%
G36*
G01*
X144000000Y-94502500D02*
X144000000Y-94227500D01*
G75*
G02*
X144137500Y-94090000I137500J0D01*
G01*
X145862500Y-94090000D01*
G75*
G02*
X146000000Y-94227500I0J-137500D01*
G01*
X146000000Y-94502500D01*
G75*
G02*
X145862500Y-94640000I-137500J0D01*
G01*
X144137500Y-94640000D01*
G75*
G02*
X144000000Y-94502500I0J137500D01*
G01*
G37*
%TD.AperFunction*%
%TO.P,U1,13*%
%TO.N,Net-(U1-Pad13)*%
%TA.AperFunction,SMDPad,CuDef*%
G36*
G01*
X144000000Y-93692500D02*
X144000000Y-93417500D01*
G75*
G02*
X144137500Y-93280000I137500J0D01*
G01*
X145862500Y-93280000D01*
G75*
G02*
X146000000Y-93417500I0J-137500D01*
G01*
X146000000Y-93692500D01*
G75*
G02*
X145862500Y-93830000I-137500J0D01*
G01*
X144137500Y-93830000D01*
G75*
G02*
X144000000Y-93692500I0J137500D01*
G01*
G37*
%TD.AperFunction*%
%TO.P,U1,12*%
%TO.N,Net-(U1-Pad12)*%
%TA.AperFunction,SMDPad,CuDef*%
G36*
G01*
X144000000Y-92882500D02*
X144000000Y-92607500D01*
G75*
G02*
X144137500Y-92470000I137500J0D01*
G01*
X145862500Y-92470000D01*
G75*
G02*
X146000000Y-92607500I0J-137500D01*
G01*
X146000000Y-92882500D01*
G75*
G02*
X145862500Y-93020000I-137500J0D01*
G01*
X144137500Y-93020000D01*
G75*
G02*
X144000000Y-92882500I0J137500D01*
G01*
G37*
%TD.AperFunction*%
%TO.P,U1,11*%
%TO.N,/A3*%
%TA.AperFunction,SMDPad,CuDef*%
G36*
G01*
X144000000Y-92072500D02*
X144000000Y-91797500D01*
G75*
G02*
X144137500Y-91660000I137500J0D01*
G01*
X145862500Y-91660000D01*
G75*
G02*
X146000000Y-91797500I0J-137500D01*
G01*
X146000000Y-92072500D01*
G75*
G02*
X145862500Y-92210000I-137500J0D01*
G01*
X144137500Y-92210000D01*
G75*
G02*
X144000000Y-92072500I0J137500D01*
G01*
G37*
%TD.AperFunction*%
%TO.P,U1,10*%
%TO.N,/A4*%
%TA.AperFunction,SMDPad,CuDef*%
G36*
G01*
X144000000Y-91262500D02*
X144000000Y-90987500D01*
G75*
G02*
X144137500Y-90850000I137500J0D01*
G01*
X145862500Y-90850000D01*
G75*
G02*
X146000000Y-90987500I0J-137500D01*
G01*
X146000000Y-91262500D01*
G75*
G02*
X145862500Y-91400000I-137500J0D01*
G01*
X144137500Y-91400000D01*
G75*
G02*
X144000000Y-91262500I0J137500D01*
G01*
G37*
%TD.AperFunction*%
%TO.P,U1,9*%
%TO.N,/A5*%
%TA.AperFunction,SMDPad,CuDef*%
G36*
G01*
X144000000Y-90452500D02*
X144000000Y-90177500D01*
G75*
G02*
X144137500Y-90040000I137500J0D01*
G01*
X145862500Y-90040000D01*
G75*
G02*
X146000000Y-90177500I0J-137500D01*
G01*
X146000000Y-90452500D01*
G75*
G02*
X145862500Y-90590000I-137500J0D01*
G01*
X144137500Y-90590000D01*
G75*
G02*
X144000000Y-90452500I0J137500D01*
G01*
G37*
%TD.AperFunction*%
%TO.P,U1,8*%
%TO.N,/A6*%
%TA.AperFunction,SMDPad,CuDef*%
G36*
G01*
X144000000Y-89642500D02*
X144000000Y-89367500D01*
G75*
G02*
X144137500Y-89230000I137500J0D01*
G01*
X145862500Y-89230000D01*
G75*
G02*
X146000000Y-89367500I0J-137500D01*
G01*
X146000000Y-89642500D01*
G75*
G02*
X145862500Y-89780000I-137500J0D01*
G01*
X144137500Y-89780000D01*
G75*
G02*
X144000000Y-89642500I0J137500D01*
G01*
G37*
%TD.AperFunction*%
%TO.P,U1,7*%
%TO.N,/A7*%
%TA.AperFunction,SMDPad,CuDef*%
G36*
G01*
X144000000Y-88832500D02*
X144000000Y-88557500D01*
G75*
G02*
X144137500Y-88420000I137500J0D01*
G01*
X145862500Y-88420000D01*
G75*
G02*
X146000000Y-88557500I0J-137500D01*
G01*
X146000000Y-88832500D01*
G75*
G02*
X145862500Y-88970000I-137500J0D01*
G01*
X144137500Y-88970000D01*
G75*
G02*
X144000000Y-88832500I0J137500D01*
G01*
G37*
%TD.AperFunction*%
%TO.P,U1,6*%
%TO.N,/A12*%
%TA.AperFunction,SMDPad,CuDef*%
G36*
G01*
X144000000Y-88022500D02*
X144000000Y-87747500D01*
G75*
G02*
X144137500Y-87610000I137500J0D01*
G01*
X145862500Y-87610000D01*
G75*
G02*
X146000000Y-87747500I0J-137500D01*
G01*
X146000000Y-88022500D01*
G75*
G02*
X145862500Y-88160000I-137500J0D01*
G01*
X144137500Y-88160000D01*
G75*
G02*
X144000000Y-88022500I0J137500D01*
G01*
G37*
%TD.AperFunction*%
%TO.P,U1,5*%
%TO.N,+5V*%
%TA.AperFunction,SMDPad,CuDef*%
G36*
G01*
X144000000Y-87212500D02*
X144000000Y-86937500D01*
G75*
G02*
X144137500Y-86800000I137500J0D01*
G01*
X145862500Y-86800000D01*
G75*
G02*
X146000000Y-86937500I0J-137500D01*
G01*
X146000000Y-87212500D01*
G75*
G02*
X145862500Y-87350000I-137500J0D01*
G01*
X144137500Y-87350000D01*
G75*
G02*
X144000000Y-87212500I0J137500D01*
G01*
G37*
%TD.AperFunction*%
%TO.P,U1,4*%
%TO.N,Net-(U1-Pad4)*%
%TA.AperFunction,SMDPad,CuDef*%
G36*
G01*
X144000000Y-86402500D02*
X144000000Y-86127500D01*
G75*
G02*
X144137500Y-85990000I137500J0D01*
G01*
X145862500Y-85990000D01*
G75*
G02*
X146000000Y-86127500I0J-137500D01*
G01*
X146000000Y-86402500D01*
G75*
G02*
X145862500Y-86540000I-137500J0D01*
G01*
X144137500Y-86540000D01*
G75*
G02*
X144000000Y-86402500I0J137500D01*
G01*
G37*
%TD.AperFunction*%
%TO.P,U1,3*%
%TO.N,Net-(U1-Pad3)*%
%TA.AperFunction,SMDPad,CuDef*%
G36*
G01*
X144000000Y-85592500D02*
X144000000Y-85317500D01*
G75*
G02*
X144137500Y-85180000I137500J0D01*
G01*
X145862500Y-85180000D01*
G75*
G02*
X146000000Y-85317500I0J-137500D01*
G01*
X146000000Y-85592500D01*
G75*
G02*
X145862500Y-85730000I-137500J0D01*
G01*
X144137500Y-85730000D01*
G75*
G02*
X144000000Y-85592500I0J137500D01*
G01*
G37*
%TD.AperFunction*%
%TO.P,U1,2*%
%TO.N,/RST*%
%TA.AperFunction,SMDPad,CuDef*%
G36*
G01*
X144000000Y-84782500D02*
X144000000Y-84507500D01*
G75*
G02*
X144137500Y-84370000I137500J0D01*
G01*
X145862500Y-84370000D01*
G75*
G02*
X146000000Y-84507500I0J-137500D01*
G01*
X146000000Y-84782500D01*
G75*
G02*
X145862500Y-84920000I-137500J0D01*
G01*
X144137500Y-84920000D01*
G75*
G02*
X144000000Y-84782500I0J137500D01*
G01*
G37*
%TD.AperFunction*%
D10*
%TO.P,U1,1*%
%TO.N,Net-(U1-Pad1)*%
X145000000Y-83835000D03*
%TD*%
%TO.P,C2,2*%
%TO.N,GND*%
%TA.AperFunction,SMDPad,CuDef*%
G36*
G01*
X148750000Y-79846500D02*
X149700000Y-79846500D01*
G75*
G02*
X149950000Y-80096500I0J-250000D01*
G01*
X149950000Y-80771500D01*
G75*
G02*
X149700000Y-81021500I-250000J0D01*
G01*
X148750000Y-81021500D01*
G75*
G02*
X148500000Y-80771500I0J250000D01*
G01*
X148500000Y-80096500D01*
G75*
G02*
X148750000Y-79846500I250000J0D01*
G01*
G37*
%TD.AperFunction*%
%TO.P,C2,1*%
%TO.N,+5V*%
%TA.AperFunction,SMDPad,CuDef*%
G36*
G01*
X148750000Y-77771500D02*
X149700000Y-77771500D01*
G75*
G02*
X149950000Y-78021500I0J-250000D01*
G01*
X149950000Y-78696500D01*
G75*
G02*
X149700000Y-78946500I-250000J0D01*
G01*
X148750000Y-78946500D01*
G75*
G02*
X148500000Y-78696500I0J250000D01*
G01*
X148500000Y-78021500D01*
G75*
G02*
X148750000Y-77771500I250000J0D01*
G01*
G37*
%TD.AperFunction*%
%TD*%
%TO.P,C1,2*%
%TO.N,GND*%
%TA.AperFunction,SMDPad,CuDef*%
G36*
G01*
X152560000Y-79846500D02*
X153510000Y-79846500D01*
G75*
G02*
X153760000Y-80096500I0J-250000D01*
G01*
X153760000Y-80771500D01*
G75*
G02*
X153510000Y-81021500I-250000J0D01*
G01*
X152560000Y-81021500D01*
G75*
G02*
X152310000Y-80771500I0J250000D01*
G01*
X152310000Y-80096500D01*
G75*
G02*
X152560000Y-79846500I250000J0D01*
G01*
G37*
%TD.AperFunction*%
%TO.P,C1,1*%
%TO.N,+5V*%
%TA.AperFunction,SMDPad,CuDef*%
G36*
G01*
X152560000Y-77771500D02*
X153510000Y-77771500D01*
G75*
G02*
X153760000Y-78021500I0J-250000D01*
G01*
X153760000Y-78696500D01*
G75*
G02*
X153510000Y-78946500I-250000J0D01*
G01*
X152560000Y-78946500D01*
G75*
G02*
X152310000Y-78696500I0J250000D01*
G01*
X152310000Y-78021500D01*
G75*
G02*
X152560000Y-77771500I250000J0D01*
G01*
G37*
%TD.AperFunction*%
%TD*%
D11*
%TO.N,GND*%
X153035000Y-82169000D03*
X149225000Y-82169000D03*
X140000000Y-100330000D03*
X140000000Y-102870000D03*
X140000000Y-105410000D03*
X140000000Y-107950000D03*
X162500000Y-107950000D03*
X162500000Y-105410000D03*
X162500000Y-102870000D03*
X162500000Y-100330000D03*
X162500000Y-97790000D03*
X162500000Y-95250000D03*
X162500000Y-92710000D03*
X162500000Y-90170000D03*
X162500000Y-87630000D03*
X162500000Y-85090000D03*
X162500000Y-82550000D03*
X162500000Y-80010000D03*
X162500000Y-77470000D03*
X147701000Y-100330000D03*
X140000000Y-97790000D03*
X140000000Y-95250000D03*
X140000000Y-92710000D03*
X140000000Y-90170000D03*
X140000000Y-87630000D03*
X140000000Y-85090000D03*
X140000000Y-82550000D03*
X140000000Y-80010000D03*
X140000000Y-77470000D03*
X145500000Y-80010000D03*
X150500000Y-105410000D03*
X150500000Y-100330000D03*
X150500000Y-97790000D03*
X150500000Y-95250000D03*
X150500000Y-92710000D03*
X150500000Y-90170000D03*
X150500000Y-110490000D03*
X140000000Y-110490000D03*
X155000000Y-85090000D03*
X157750000Y-82500000D03*
%TO.N,+5V*%
X151130000Y-78359000D03*
X150276998Y-87075000D03*
%TO.N,/A5*%
X148500000Y-90315000D03*
%TO.N,/A6*%
X147000000Y-89505000D03*
%TO.N,/A7*%
X148500000Y-88695000D03*
%TO.N,/A12*%
X147000000Y-87885000D03*
%TO.N,/RST*%
X147000000Y-84645000D03*
%TO.N,/A4*%
X147000000Y-91125000D03*
%TO.N,/A3*%
X148500000Y-91935000D03*
%TO.N,/A2*%
X148000000Y-95175000D03*
%TO.N,/A1*%
X147000000Y-95985000D03*
%TO.N,/A0*%
X148000000Y-96795000D03*
%TO.N,/D0*%
X147000000Y-97605000D03*
%TO.N,/D1*%
X148000000Y-98415000D03*
%TO.N,/D2*%
X149000000Y-99225000D03*
%TO.N,/D3*%
X152500000Y-100035000D03*
%TO.N,/D4*%
X153500000Y-99225000D03*
%TO.N,/D5*%
X155000000Y-98415000D03*
%TO.N,/D6*%
X153500000Y-97605000D03*
%TO.N,/D7*%
X155000000Y-96795000D03*
%TO.N,/ChipEnable*%
X153500000Y-95175000D03*
%TO.N,/A10*%
X155000000Y-94365000D03*
%TO.N,/OutputEnable*%
X155000000Y-91935000D03*
%TO.N,/A11*%
X154000000Y-91125000D03*
%TO.N,/A9*%
X155000000Y-90315000D03*
%TO.N,/A8*%
X154000000Y-89505000D03*
%TO.N,/IRQ*%
X154000000Y-87075000D03*
%TO.N,/WriteEnable*%
X153000000Y-87885000D03*
%TD*%
D12*
%TO.N,+5V*%
X153035000Y-78843666D02*
X153035000Y-78359000D01*
D13*
X153035000Y-78359000D02*
X151130000Y-78359000D01*
X149225000Y-78359000D02*
X151130000Y-78359000D01*
X150276998Y-87075000D02*
X145000000Y-87075000D01*
X153516998Y-83835000D02*
X150276998Y-87075000D01*
X157000000Y-83835000D02*
X153516998Y-83835000D01*
X151896998Y-88695000D02*
X150276998Y-87075000D01*
X157000000Y-88695000D02*
X151896998Y-88695000D01*
D12*
%TO.N,/A5*%
X145000000Y-90315000D02*
X148500000Y-90315000D01*
%TO.N,/A6*%
X145000000Y-89505000D02*
X147000000Y-89505000D01*
%TO.N,/A7*%
X145000000Y-88695000D02*
X148500000Y-88695000D01*
%TO.N,/A12*%
X145000000Y-87885000D02*
X147000000Y-87885000D01*
%TO.N,/RST*%
X145000000Y-84645000D02*
X147000000Y-84645000D01*
%TO.N,/A4*%
X145000000Y-91125000D02*
X147000000Y-91125000D01*
%TO.N,/A3*%
X145000000Y-91935000D02*
X148500000Y-91935000D01*
%TO.N,/A2*%
X145000000Y-95175000D02*
X148000000Y-95175000D01*
%TO.N,/A1*%
X145000000Y-95985000D02*
X147000000Y-95985000D01*
%TO.N,/A0*%
X145000000Y-96795000D02*
X148000000Y-96795000D01*
%TO.N,/D0*%
X145000000Y-97605000D02*
X147000000Y-97605000D01*
%TO.N,/D1*%
X145000000Y-98415000D02*
X148000000Y-98415000D01*
%TO.N,/D2*%
X145000000Y-99225000D02*
X149000000Y-99225000D01*
%TO.N,/D3*%
X157000000Y-100035000D02*
X152500000Y-100035000D01*
%TO.N,/D4*%
X157000000Y-99225000D02*
X153500000Y-99225000D01*
%TO.N,/D5*%
X157000000Y-98415000D02*
X155000000Y-98415000D01*
%TO.N,/D6*%
X157000000Y-97605000D02*
X153500000Y-97605000D01*
%TO.N,/D7*%
X157000000Y-96795000D02*
X155000000Y-96795000D01*
%TO.N,/ChipEnable*%
X157000000Y-95175000D02*
X153500000Y-95175000D01*
%TO.N,/A10*%
X157000000Y-94365000D02*
X155000000Y-94365000D01*
%TO.N,/OutputEnable*%
X157000000Y-91935000D02*
X155000000Y-91935000D01*
%TO.N,/A11*%
X157000000Y-91125000D02*
X154000000Y-91125000D01*
%TO.N,/A9*%
X157000000Y-90315000D02*
X155000000Y-90315000D01*
%TO.N,/A8*%
X157000000Y-89505000D02*
X154000000Y-89505000D01*
%TO.N,/IRQ*%
X157000000Y-87075000D02*
X154000000Y-87075000D01*
%TO.N,/WriteEnable*%
X157000000Y-87885000D02*
X153000000Y-87885000D01*
%TD*%
D14*
%TO.N,GND*%
X162551570Y-74894570D02*
X162601169Y-74909544D01*
X162646918Y-74933869D01*
X162687072Y-74966618D01*
X162720099Y-75006541D01*
X162744741Y-75052116D01*
X162760066Y-75101621D01*
X162767800Y-75175206D01*
X162767801Y-110881401D01*
X162760430Y-110956571D01*
X162745456Y-111006169D01*
X162721130Y-111051920D01*
X162688382Y-111092072D01*
X162648462Y-111125097D01*
X162602879Y-111149743D01*
X162553380Y-111165065D01*
X162479794Y-111172800D01*
X139773589Y-111172800D01*
X139698429Y-111165430D01*
X139648831Y-111150456D01*
X139603080Y-111126130D01*
X139562928Y-111093382D01*
X139529903Y-111053462D01*
X139505257Y-111007879D01*
X139489935Y-110958380D01*
X139482200Y-110884794D01*
X139482200Y-101168850D01*
X143415800Y-101168850D01*
X143426520Y-101245384D01*
X143462000Y-101354856D01*
X143518156Y-101455301D01*
X143592829Y-101542862D01*
X143683149Y-101614172D01*
X143785645Y-101666491D01*
X143896379Y-101697809D01*
X144011095Y-101706922D01*
X144676150Y-101704200D01*
X144822200Y-101558150D01*
X144822200Y-101022800D01*
X145177800Y-101022800D01*
X145177800Y-101558150D01*
X145323850Y-101704200D01*
X145988905Y-101706922D01*
X146103621Y-101697809D01*
X146214355Y-101666491D01*
X146316851Y-101614172D01*
X146407171Y-101542862D01*
X146481844Y-101455301D01*
X146538000Y-101354856D01*
X146573480Y-101245384D01*
X146584200Y-101168850D01*
X146438150Y-101022800D01*
X145177800Y-101022800D01*
X144822200Y-101022800D01*
X143561850Y-101022800D01*
X143415800Y-101168850D01*
X139482200Y-101168850D01*
X139482200Y-100521150D01*
X143415800Y-100521150D01*
X143561850Y-100667200D01*
X143803906Y-100667200D01*
X143805873Y-100668814D01*
X143909072Y-100723975D01*
X144021048Y-100757943D01*
X144137500Y-100769412D01*
X145862500Y-100769412D01*
X145978952Y-100757943D01*
X146090928Y-100723975D01*
X146194127Y-100668814D01*
X146196094Y-100667200D01*
X146438150Y-100667200D01*
X146584200Y-100521150D01*
X146573480Y-100444616D01*
X146538000Y-100335144D01*
X146481844Y-100234699D01*
X146456243Y-100204679D01*
X146459412Y-100172500D01*
X146459412Y-99897500D01*
X146448056Y-99782200D01*
X148344936Y-99782200D01*
X148453567Y-99890831D01*
X148593963Y-99984641D01*
X148749964Y-100049259D01*
X148915573Y-100082200D01*
X149084427Y-100082200D01*
X149250036Y-100049259D01*
X149406037Y-99984641D01*
X149546433Y-99890831D01*
X149665831Y-99771433D01*
X149759641Y-99631037D01*
X149824259Y-99475036D01*
X149857200Y-99309427D01*
X149857200Y-99140573D01*
X149824259Y-98974964D01*
X149759641Y-98818963D01*
X149665831Y-98678567D01*
X149546433Y-98559169D01*
X149406037Y-98465359D01*
X149250036Y-98400741D01*
X149084427Y-98367800D01*
X148915573Y-98367800D01*
X148857200Y-98379411D01*
X148857200Y-98330573D01*
X148824259Y-98164964D01*
X148759641Y-98008963D01*
X148665831Y-97868567D01*
X148546433Y-97749169D01*
X148406037Y-97655359D01*
X148284460Y-97605000D01*
X148406037Y-97554641D01*
X148546433Y-97460831D01*
X148665831Y-97341433D01*
X148759641Y-97201037D01*
X148824259Y-97045036D01*
X148857200Y-96879427D01*
X148857200Y-96710573D01*
X148824259Y-96544964D01*
X148759641Y-96388963D01*
X148665831Y-96248567D01*
X148546433Y-96129169D01*
X148406037Y-96035359D01*
X148284460Y-95985000D01*
X148406037Y-95934641D01*
X148546433Y-95840831D01*
X148665831Y-95721433D01*
X148759641Y-95581037D01*
X148824259Y-95425036D01*
X148857200Y-95259427D01*
X148857200Y-95090573D01*
X148824259Y-94924964D01*
X148759641Y-94768963D01*
X148665831Y-94628567D01*
X148546433Y-94509169D01*
X148406037Y-94415359D01*
X148250036Y-94350741D01*
X148084427Y-94317800D01*
X147915573Y-94317800D01*
X147749964Y-94350741D01*
X147593963Y-94415359D01*
X147453567Y-94509169D01*
X147344936Y-94617800D01*
X146448056Y-94617800D01*
X146459412Y-94502500D01*
X146459412Y-94227500D01*
X146447943Y-94111048D01*
X146413975Y-93999072D01*
X146393091Y-93960000D01*
X146413975Y-93920928D01*
X146447943Y-93808952D01*
X146459412Y-93692500D01*
X146459412Y-93417500D01*
X146447943Y-93301048D01*
X146413975Y-93189072D01*
X146393091Y-93150000D01*
X146413975Y-93110928D01*
X146447943Y-92998952D01*
X146459412Y-92882500D01*
X146459412Y-92607500D01*
X146448056Y-92492200D01*
X147844936Y-92492200D01*
X147953567Y-92600831D01*
X148093963Y-92694641D01*
X148249964Y-92759259D01*
X148415573Y-92792200D01*
X148584427Y-92792200D01*
X148750036Y-92759259D01*
X148906037Y-92694641D01*
X149046433Y-92600831D01*
X149165831Y-92481433D01*
X149259641Y-92341037D01*
X149324259Y-92185036D01*
X149357200Y-92019427D01*
X149357200Y-91850573D01*
X149324259Y-91684964D01*
X149259641Y-91528963D01*
X149165831Y-91388567D01*
X149046433Y-91269169D01*
X148906037Y-91175359D01*
X148784460Y-91125000D01*
X148906037Y-91074641D01*
X149046433Y-90980831D01*
X149165831Y-90861433D01*
X149259641Y-90721037D01*
X149324259Y-90565036D01*
X149357200Y-90399427D01*
X149357200Y-90230573D01*
X149324259Y-90064964D01*
X149259641Y-89908963D01*
X149165831Y-89768567D01*
X149046433Y-89649169D01*
X148906037Y-89555359D01*
X148784460Y-89505000D01*
X148906037Y-89454641D01*
X149046433Y-89360831D01*
X149165831Y-89241433D01*
X149259641Y-89101037D01*
X149324259Y-88945036D01*
X149357200Y-88779427D01*
X149357200Y-88610573D01*
X149324259Y-88444964D01*
X149259641Y-88288963D01*
X149165831Y-88148567D01*
X149046433Y-88029169D01*
X148906037Y-87935359D01*
X148750036Y-87870741D01*
X148584427Y-87837800D01*
X148415573Y-87837800D01*
X148249964Y-87870741D01*
X148093963Y-87935359D01*
X147953567Y-88029169D01*
X147844936Y-88137800D01*
X147823114Y-88137800D01*
X147824259Y-88135036D01*
X147857200Y-87969427D01*
X147857200Y-87800573D01*
X147843600Y-87732200D01*
X149721934Y-87732200D01*
X149730565Y-87740831D01*
X149870961Y-87834641D01*
X150026962Y-87899259D01*
X150192571Y-87932200D01*
X150204778Y-87932200D01*
X151409467Y-89136890D01*
X151430040Y-89161958D01*
X151530111Y-89244085D01*
X151644282Y-89305111D01*
X151768164Y-89342690D01*
X151864721Y-89352200D01*
X151864729Y-89352200D01*
X151896998Y-89355378D01*
X151929267Y-89352200D01*
X153156400Y-89352200D01*
X153142800Y-89420573D01*
X153142800Y-89589427D01*
X153175741Y-89755036D01*
X153240359Y-89911037D01*
X153334169Y-90051433D01*
X153453567Y-90170831D01*
X153593963Y-90264641D01*
X153715540Y-90315000D01*
X153593963Y-90365359D01*
X153453567Y-90459169D01*
X153334169Y-90578567D01*
X153240359Y-90718963D01*
X153175741Y-90874964D01*
X153142800Y-91040573D01*
X153142800Y-91209427D01*
X153175741Y-91375036D01*
X153240359Y-91531037D01*
X153334169Y-91671433D01*
X153453567Y-91790831D01*
X153593963Y-91884641D01*
X153749964Y-91949259D01*
X153915573Y-91982200D01*
X154084427Y-91982200D01*
X154142800Y-91970589D01*
X154142800Y-92019427D01*
X154175741Y-92185036D01*
X154240359Y-92341037D01*
X154334169Y-92481433D01*
X154453567Y-92600831D01*
X154593963Y-92694641D01*
X154749964Y-92759259D01*
X154915573Y-92792200D01*
X155084427Y-92792200D01*
X155250036Y-92759259D01*
X155406037Y-92694641D01*
X155540879Y-92604542D01*
X155540588Y-92607500D01*
X155540588Y-92882500D01*
X155552057Y-92998952D01*
X155586025Y-93110928D01*
X155606909Y-93150000D01*
X155586025Y-93189072D01*
X155552057Y-93301048D01*
X155540588Y-93417500D01*
X155540588Y-93692500D01*
X155540879Y-93695458D01*
X155406037Y-93605359D01*
X155250036Y-93540741D01*
X155084427Y-93507800D01*
X154915573Y-93507800D01*
X154749964Y-93540741D01*
X154593963Y-93605359D01*
X154453567Y-93699169D01*
X154334169Y-93818567D01*
X154240359Y-93958963D01*
X154175741Y-94114964D01*
X154142800Y-94280573D01*
X154142800Y-94449427D01*
X154175741Y-94615036D01*
X154176886Y-94617800D01*
X154155064Y-94617800D01*
X154046433Y-94509169D01*
X153906037Y-94415359D01*
X153750036Y-94350741D01*
X153584427Y-94317800D01*
X153415573Y-94317800D01*
X153249964Y-94350741D01*
X153093963Y-94415359D01*
X152953567Y-94509169D01*
X152834169Y-94628567D01*
X152740359Y-94768963D01*
X152675741Y-94924964D01*
X152642800Y-95090573D01*
X152642800Y-95259427D01*
X152675741Y-95425036D01*
X152740359Y-95581037D01*
X152834169Y-95721433D01*
X152953567Y-95840831D01*
X153093963Y-95934641D01*
X153249964Y-95999259D01*
X153415573Y-96032200D01*
X153584427Y-96032200D01*
X153750036Y-95999259D01*
X153906037Y-95934641D01*
X154046433Y-95840831D01*
X154155064Y-95732200D01*
X155551944Y-95732200D01*
X155540588Y-95847500D01*
X155540588Y-96122500D01*
X155540879Y-96125458D01*
X155406037Y-96035359D01*
X155250036Y-95970741D01*
X155084427Y-95937800D01*
X154915573Y-95937800D01*
X154749964Y-95970741D01*
X154593963Y-96035359D01*
X154453567Y-96129169D01*
X154334169Y-96248567D01*
X154240359Y-96388963D01*
X154175741Y-96544964D01*
X154142800Y-96710573D01*
X154142800Y-96879427D01*
X154175741Y-97045036D01*
X154176886Y-97047800D01*
X154155064Y-97047800D01*
X154046433Y-96939169D01*
X153906037Y-96845359D01*
X153750036Y-96780741D01*
X153584427Y-96747800D01*
X153415573Y-96747800D01*
X153249964Y-96780741D01*
X153093963Y-96845359D01*
X152953567Y-96939169D01*
X152834169Y-97058567D01*
X152740359Y-97198963D01*
X152675741Y-97354964D01*
X152642800Y-97520573D01*
X152642800Y-97689427D01*
X152675741Y-97855036D01*
X152740359Y-98011037D01*
X152834169Y-98151433D01*
X152953567Y-98270831D01*
X153093963Y-98364641D01*
X153215540Y-98415000D01*
X153093963Y-98465359D01*
X152953567Y-98559169D01*
X152834169Y-98678567D01*
X152740359Y-98818963D01*
X152675741Y-98974964D01*
X152642800Y-99140573D01*
X152642800Y-99189411D01*
X152584427Y-99177800D01*
X152415573Y-99177800D01*
X152249964Y-99210741D01*
X152093963Y-99275359D01*
X151953567Y-99369169D01*
X151834169Y-99488567D01*
X151740359Y-99628963D01*
X151675741Y-99784964D01*
X151642800Y-99950573D01*
X151642800Y-100119427D01*
X151675741Y-100285036D01*
X151740359Y-100441037D01*
X151834169Y-100581433D01*
X151953567Y-100700831D01*
X152093963Y-100794641D01*
X152249964Y-100859259D01*
X152415573Y-100892200D01*
X152584427Y-100892200D01*
X152750036Y-100859259D01*
X152906037Y-100794641D01*
X153046433Y-100700831D01*
X153155064Y-100592200D01*
X155551944Y-100592200D01*
X155540588Y-100707500D01*
X155540588Y-100982500D01*
X155552057Y-101098952D01*
X155586025Y-101210928D01*
X155641186Y-101314127D01*
X155715419Y-101404581D01*
X155805873Y-101478814D01*
X155909072Y-101533975D01*
X156021048Y-101567943D01*
X156137500Y-101579412D01*
X157862500Y-101579412D01*
X157978952Y-101567943D01*
X158090928Y-101533975D01*
X158194127Y-101478814D01*
X158284581Y-101404581D01*
X158358814Y-101314127D01*
X158413975Y-101210928D01*
X158447943Y-101098952D01*
X158459412Y-100982500D01*
X158459412Y-100707500D01*
X158447943Y-100591048D01*
X158413975Y-100479072D01*
X158393091Y-100440000D01*
X158413975Y-100400928D01*
X158447943Y-100288952D01*
X158459412Y-100172500D01*
X158459412Y-99897500D01*
X158447943Y-99781048D01*
X158413975Y-99669072D01*
X158393091Y-99630000D01*
X158413975Y-99590928D01*
X158447943Y-99478952D01*
X158459412Y-99362500D01*
X158459412Y-99087500D01*
X158447943Y-98971048D01*
X158413975Y-98859072D01*
X158393091Y-98820000D01*
X158413975Y-98780928D01*
X158447943Y-98668952D01*
X158459412Y-98552500D01*
X158459412Y-98277500D01*
X158447943Y-98161048D01*
X158413975Y-98049072D01*
X158393091Y-98010000D01*
X158413975Y-97970928D01*
X158447943Y-97858952D01*
X158459412Y-97742500D01*
X158459412Y-97467500D01*
X158447943Y-97351048D01*
X158413975Y-97239072D01*
X158393091Y-97200000D01*
X158413975Y-97160928D01*
X158447943Y-97048952D01*
X158459412Y-96932500D01*
X158459412Y-96657500D01*
X158447943Y-96541048D01*
X158413975Y-96429072D01*
X158393091Y-96390000D01*
X158413975Y-96350928D01*
X158447943Y-96238952D01*
X158459412Y-96122500D01*
X158459412Y-95847500D01*
X158447943Y-95731048D01*
X158413975Y-95619072D01*
X158393091Y-95580000D01*
X158413975Y-95540928D01*
X158447943Y-95428952D01*
X158459412Y-95312500D01*
X158459412Y-95037500D01*
X158447943Y-94921048D01*
X158413975Y-94809072D01*
X158393091Y-94770000D01*
X158413975Y-94730928D01*
X158447943Y-94618952D01*
X158459412Y-94502500D01*
X158459412Y-94227500D01*
X158447943Y-94111048D01*
X158413975Y-93999072D01*
X158393091Y-93960000D01*
X158413975Y-93920928D01*
X158447943Y-93808952D01*
X158459412Y-93692500D01*
X158459412Y-93417500D01*
X158447943Y-93301048D01*
X158413975Y-93189072D01*
X158393091Y-93150000D01*
X158413975Y-93110928D01*
X158447943Y-92998952D01*
X158459412Y-92882500D01*
X158459412Y-92607500D01*
X158447943Y-92491048D01*
X158413975Y-92379072D01*
X158393091Y-92340000D01*
X158413975Y-92300928D01*
X158447943Y-92188952D01*
X158459412Y-92072500D01*
X158459412Y-91797500D01*
X158447943Y-91681048D01*
X158413975Y-91569072D01*
X158393091Y-91530000D01*
X158413975Y-91490928D01*
X158447943Y-91378952D01*
X158459412Y-91262500D01*
X158459412Y-90987500D01*
X158447943Y-90871048D01*
X158413975Y-90759072D01*
X158393091Y-90720000D01*
X158413975Y-90680928D01*
X158447943Y-90568952D01*
X158459412Y-90452500D01*
X158459412Y-90177500D01*
X158447943Y-90061048D01*
X158413975Y-89949072D01*
X158393091Y-89910000D01*
X158413975Y-89870928D01*
X158447943Y-89758952D01*
X158459412Y-89642500D01*
X158459412Y-89367500D01*
X158447943Y-89251048D01*
X158413975Y-89139072D01*
X158393091Y-89100000D01*
X158413975Y-89060928D01*
X158447943Y-88948952D01*
X158459412Y-88832500D01*
X158459412Y-88557500D01*
X158447943Y-88441048D01*
X158413975Y-88329072D01*
X158393091Y-88290000D01*
X158413975Y-88250928D01*
X158447943Y-88138952D01*
X158459412Y-88022500D01*
X158459412Y-87747500D01*
X158447943Y-87631048D01*
X158413975Y-87519072D01*
X158393091Y-87480000D01*
X158413975Y-87440928D01*
X158447943Y-87328952D01*
X158459412Y-87212500D01*
X158459412Y-86937500D01*
X158447943Y-86821048D01*
X158413975Y-86709072D01*
X158393091Y-86670000D01*
X158413975Y-86630928D01*
X158447943Y-86518952D01*
X158459412Y-86402500D01*
X158459412Y-86127500D01*
X158447943Y-86011048D01*
X158413975Y-85899072D01*
X158393091Y-85860000D01*
X158413975Y-85820928D01*
X158447943Y-85708952D01*
X158459412Y-85592500D01*
X158459412Y-85317500D01*
X158447943Y-85201048D01*
X158413975Y-85089072D01*
X158393091Y-85050000D01*
X158413975Y-85010928D01*
X158447943Y-84898952D01*
X158459412Y-84782500D01*
X158459412Y-84507500D01*
X158447943Y-84391048D01*
X158413975Y-84279072D01*
X158393091Y-84240000D01*
X158413975Y-84200928D01*
X158447943Y-84088952D01*
X158459412Y-83972500D01*
X158459412Y-83697500D01*
X158447943Y-83581048D01*
X158413975Y-83469072D01*
X158358814Y-83365873D01*
X158284581Y-83275419D01*
X158194127Y-83201186D01*
X158090928Y-83146025D01*
X157978952Y-83112057D01*
X157862500Y-83100588D01*
X156137500Y-83100588D01*
X156021048Y-83112057D01*
X155909072Y-83146025D01*
X155849625Y-83177800D01*
X153549267Y-83177800D01*
X153516998Y-83174622D01*
X153484729Y-83177800D01*
X153484721Y-83177800D01*
X153388164Y-83187310D01*
X153264282Y-83224889D01*
X153150111Y-83285915D01*
X153050040Y-83368042D01*
X153029467Y-83393110D01*
X150204778Y-86217800D01*
X150192571Y-86217800D01*
X150026962Y-86250741D01*
X149870961Y-86315359D01*
X149730565Y-86409169D01*
X149721934Y-86417800D01*
X146457905Y-86417800D01*
X146459412Y-86402500D01*
X146459412Y-86127500D01*
X146447943Y-86011048D01*
X146413975Y-85899072D01*
X146393091Y-85860000D01*
X146413975Y-85820928D01*
X146447943Y-85708952D01*
X146459412Y-85592500D01*
X146459412Y-85317500D01*
X146459121Y-85314542D01*
X146593963Y-85404641D01*
X146749964Y-85469259D01*
X146915573Y-85502200D01*
X147084427Y-85502200D01*
X147250036Y-85469259D01*
X147406037Y-85404641D01*
X147546433Y-85310831D01*
X147665831Y-85191433D01*
X147759641Y-85051037D01*
X147824259Y-84895036D01*
X147857200Y-84729427D01*
X147857200Y-84560573D01*
X147824259Y-84394964D01*
X147759641Y-84238963D01*
X147665831Y-84098567D01*
X147546433Y-83979169D01*
X147406037Y-83885359D01*
X147250036Y-83820741D01*
X147084427Y-83787800D01*
X146915573Y-83787800D01*
X146749964Y-83820741D01*
X146593963Y-83885359D01*
X146453567Y-83979169D01*
X146443298Y-83989438D01*
X146446605Y-83978536D01*
X146460742Y-83835000D01*
X146446605Y-83691464D01*
X146404737Y-83553444D01*
X146336747Y-83426244D01*
X146245248Y-83314752D01*
X146133756Y-83223253D01*
X146006556Y-83155263D01*
X145868536Y-83113395D01*
X145760963Y-83102800D01*
X144239037Y-83102800D01*
X144131464Y-83113395D01*
X143993444Y-83155263D01*
X143866244Y-83223253D01*
X143754752Y-83314752D01*
X143663253Y-83426244D01*
X143595263Y-83553444D01*
X143553395Y-83691464D01*
X143539258Y-83835000D01*
X143553395Y-83978536D01*
X143595263Y-84116556D01*
X143634077Y-84189172D01*
X143586025Y-84279072D01*
X143552057Y-84391048D01*
X143540588Y-84507500D01*
X143540588Y-84782500D01*
X143552057Y-84898952D01*
X143586025Y-85010928D01*
X143606909Y-85050000D01*
X143586025Y-85089072D01*
X143552057Y-85201048D01*
X143540588Y-85317500D01*
X143540588Y-85592500D01*
X143552057Y-85708952D01*
X143586025Y-85820928D01*
X143606909Y-85860000D01*
X143586025Y-85899072D01*
X143552057Y-86011048D01*
X143540588Y-86127500D01*
X143540588Y-86402500D01*
X143552057Y-86518952D01*
X143586025Y-86630928D01*
X143606909Y-86670000D01*
X143586025Y-86709072D01*
X143552057Y-86821048D01*
X143540588Y-86937500D01*
X143540588Y-87212500D01*
X143552057Y-87328952D01*
X143586025Y-87440928D01*
X143606909Y-87480000D01*
X143586025Y-87519072D01*
X143552057Y-87631048D01*
X143540588Y-87747500D01*
X143540588Y-88022500D01*
X143552057Y-88138952D01*
X143586025Y-88250928D01*
X143606909Y-88290000D01*
X143586025Y-88329072D01*
X143552057Y-88441048D01*
X143540588Y-88557500D01*
X143540588Y-88832500D01*
X143552057Y-88948952D01*
X143586025Y-89060928D01*
X143606909Y-89100000D01*
X143586025Y-89139072D01*
X143552057Y-89251048D01*
X143540588Y-89367500D01*
X143540588Y-89642500D01*
X143552057Y-89758952D01*
X143586025Y-89870928D01*
X143606909Y-89910000D01*
X143586025Y-89949072D01*
X143552057Y-90061048D01*
X143540588Y-90177500D01*
X143540588Y-90452500D01*
X143552057Y-90568952D01*
X143586025Y-90680928D01*
X143606909Y-90720000D01*
X143586025Y-90759072D01*
X143552057Y-90871048D01*
X143540588Y-90987500D01*
X143540588Y-91262500D01*
X143552057Y-91378952D01*
X143586025Y-91490928D01*
X143606909Y-91530000D01*
X143586025Y-91569072D01*
X143552057Y-91681048D01*
X143540588Y-91797500D01*
X143540588Y-92072500D01*
X143552057Y-92188952D01*
X143586025Y-92300928D01*
X143606909Y-92340000D01*
X143586025Y-92379072D01*
X143552057Y-92491048D01*
X143540588Y-92607500D01*
X143540588Y-92882500D01*
X143552057Y-92998952D01*
X143586025Y-93110928D01*
X143606909Y-93150000D01*
X143586025Y-93189072D01*
X143552057Y-93301048D01*
X143540588Y-93417500D01*
X143540588Y-93692500D01*
X143552057Y-93808952D01*
X143586025Y-93920928D01*
X143606909Y-93960000D01*
X143586025Y-93999072D01*
X143552057Y-94111048D01*
X143540588Y-94227500D01*
X143540588Y-94502500D01*
X143552057Y-94618952D01*
X143586025Y-94730928D01*
X143606909Y-94770000D01*
X143586025Y-94809072D01*
X143552057Y-94921048D01*
X143540588Y-95037500D01*
X143540588Y-95312500D01*
X143552057Y-95428952D01*
X143586025Y-95540928D01*
X143606909Y-95580000D01*
X143586025Y-95619072D01*
X143552057Y-95731048D01*
X143540588Y-95847500D01*
X143540588Y-96122500D01*
X143552057Y-96238952D01*
X143586025Y-96350928D01*
X143606909Y-96390000D01*
X143586025Y-96429072D01*
X143552057Y-96541048D01*
X143540588Y-96657500D01*
X143540588Y-96932500D01*
X143552057Y-97048952D01*
X143586025Y-97160928D01*
X143606909Y-97200000D01*
X143586025Y-97239072D01*
X143552057Y-97351048D01*
X143540588Y-97467500D01*
X143540588Y-97742500D01*
X143552057Y-97858952D01*
X143586025Y-97970928D01*
X143606909Y-98010000D01*
X143586025Y-98049072D01*
X143552057Y-98161048D01*
X143540588Y-98277500D01*
X143540588Y-98552500D01*
X143552057Y-98668952D01*
X143586025Y-98780928D01*
X143606909Y-98820000D01*
X143586025Y-98859072D01*
X143552057Y-98971048D01*
X143540588Y-99087500D01*
X143540588Y-99362500D01*
X143552057Y-99478952D01*
X143586025Y-99590928D01*
X143606909Y-99630000D01*
X143586025Y-99669072D01*
X143552057Y-99781048D01*
X143540588Y-99897500D01*
X143540588Y-100172500D01*
X143543757Y-100204679D01*
X143518156Y-100234699D01*
X143462000Y-100335144D01*
X143426520Y-100444616D01*
X143415800Y-100521150D01*
X139482200Y-100521150D01*
X139482200Y-81021500D01*
X147912973Y-81021500D01*
X147924253Y-81136023D01*
X147957658Y-81246146D01*
X148011905Y-81347635D01*
X148084909Y-81436591D01*
X148173865Y-81509595D01*
X148275354Y-81563842D01*
X148385477Y-81597247D01*
X148500000Y-81608527D01*
X148901150Y-81605700D01*
X149047200Y-81459650D01*
X149047200Y-80611800D01*
X149402800Y-80611800D01*
X149402800Y-81459650D01*
X149548850Y-81605700D01*
X149950000Y-81608527D01*
X150064523Y-81597247D01*
X150174646Y-81563842D01*
X150276135Y-81509595D01*
X150365091Y-81436591D01*
X150438095Y-81347635D01*
X150492342Y-81246146D01*
X150525747Y-81136023D01*
X150537027Y-81021500D01*
X151722973Y-81021500D01*
X151734253Y-81136023D01*
X151767658Y-81246146D01*
X151821905Y-81347635D01*
X151894909Y-81436591D01*
X151983865Y-81509595D01*
X152085354Y-81563842D01*
X152195477Y-81597247D01*
X152310000Y-81608527D01*
X152711150Y-81605700D01*
X152857200Y-81459650D01*
X152857200Y-80611800D01*
X153212800Y-80611800D01*
X153212800Y-81459650D01*
X153358850Y-81605700D01*
X153760000Y-81608527D01*
X153874523Y-81597247D01*
X153984646Y-81563842D01*
X154086135Y-81509595D01*
X154175091Y-81436591D01*
X154248095Y-81347635D01*
X154302342Y-81246146D01*
X154335747Y-81136023D01*
X154347027Y-81021500D01*
X154344200Y-80757850D01*
X154198150Y-80611800D01*
X153212800Y-80611800D01*
X152857200Y-80611800D01*
X151871850Y-80611800D01*
X151725800Y-80757850D01*
X151722973Y-81021500D01*
X150537027Y-81021500D01*
X150534200Y-80757850D01*
X150388150Y-80611800D01*
X149402800Y-80611800D01*
X149047200Y-80611800D01*
X148061850Y-80611800D01*
X147915800Y-80757850D01*
X147912973Y-81021500D01*
X139482200Y-81021500D01*
X139482200Y-79846500D01*
X147912973Y-79846500D01*
X147915800Y-80110150D01*
X148061850Y-80256200D01*
X149047200Y-80256200D01*
X149047200Y-80236200D01*
X149402800Y-80236200D01*
X149402800Y-80256200D01*
X150388150Y-80256200D01*
X150534200Y-80110150D01*
X150537027Y-79846500D01*
X150525747Y-79731977D01*
X150492342Y-79621854D01*
X150438095Y-79520365D01*
X150365091Y-79431409D01*
X150276135Y-79358405D01*
X150174646Y-79304158D01*
X150100019Y-79281520D01*
X150201630Y-79198130D01*
X150289855Y-79090628D01*
X150329637Y-79016200D01*
X150574936Y-79016200D01*
X150583567Y-79024831D01*
X150723963Y-79118641D01*
X150879964Y-79183259D01*
X151045573Y-79216200D01*
X151214427Y-79216200D01*
X151380036Y-79183259D01*
X151536037Y-79118641D01*
X151676433Y-79024831D01*
X151685064Y-79016200D01*
X151930363Y-79016200D01*
X151970145Y-79090628D01*
X152058370Y-79198130D01*
X152159981Y-79281520D01*
X152085354Y-79304158D01*
X151983865Y-79358405D01*
X151894909Y-79431409D01*
X151821905Y-79520365D01*
X151767658Y-79621854D01*
X151734253Y-79731977D01*
X151722973Y-79846500D01*
X151725800Y-80110150D01*
X151871850Y-80256200D01*
X152857200Y-80256200D01*
X152857200Y-80236200D01*
X153212800Y-80236200D01*
X153212800Y-80256200D01*
X154198150Y-80256200D01*
X154344200Y-80110150D01*
X154347027Y-79846500D01*
X154335747Y-79731977D01*
X154302342Y-79621854D01*
X154248095Y-79520365D01*
X154175091Y-79431409D01*
X154086135Y-79358405D01*
X153984646Y-79304158D01*
X153910019Y-79281520D01*
X154011630Y-79198130D01*
X154099855Y-79090628D01*
X154165411Y-78967980D01*
X154205781Y-78834899D01*
X154219412Y-78696500D01*
X154219412Y-78021500D01*
X154205781Y-77883101D01*
X154165411Y-77750020D01*
X154099855Y-77627372D01*
X154011630Y-77519870D01*
X153904128Y-77431645D01*
X153781480Y-77366089D01*
X153648399Y-77325719D01*
X153510000Y-77312088D01*
X152560000Y-77312088D01*
X152421601Y-77325719D01*
X152288520Y-77366089D01*
X152165872Y-77431645D01*
X152058370Y-77519870D01*
X151970145Y-77627372D01*
X151930363Y-77701800D01*
X151685064Y-77701800D01*
X151676433Y-77693169D01*
X151536037Y-77599359D01*
X151380036Y-77534741D01*
X151214427Y-77501800D01*
X151045573Y-77501800D01*
X150879964Y-77534741D01*
X150723963Y-77599359D01*
X150583567Y-77693169D01*
X150574936Y-77701800D01*
X150329637Y-77701800D01*
X150289855Y-77627372D01*
X150201630Y-77519870D01*
X150094128Y-77431645D01*
X149971480Y-77366089D01*
X149838399Y-77325719D01*
X149700000Y-77312088D01*
X148750000Y-77312088D01*
X148611601Y-77325719D01*
X148478520Y-77366089D01*
X148355872Y-77431645D01*
X148248370Y-77519870D01*
X148160145Y-77627372D01*
X148094589Y-77750020D01*
X148054219Y-77883101D01*
X148040588Y-78021500D01*
X148040588Y-78696500D01*
X148054219Y-78834899D01*
X148094589Y-78967980D01*
X148160145Y-79090628D01*
X148248370Y-79198130D01*
X148349981Y-79281520D01*
X148275354Y-79304158D01*
X148173865Y-79358405D01*
X148084909Y-79431409D01*
X148011905Y-79520365D01*
X147957658Y-79621854D01*
X147924253Y-79731977D01*
X147912973Y-79846500D01*
X139482200Y-79846500D01*
X139482200Y-75178589D01*
X139489570Y-75103430D01*
X139504544Y-75053831D01*
X139528869Y-75008082D01*
X139561618Y-74967928D01*
X139601541Y-74934901D01*
X139647116Y-74910259D01*
X139696621Y-74894934D01*
X139770206Y-74887200D01*
X162476411Y-74887200D01*
X162551570Y-74894570D01*
%TA.AperFunction,Conductor*%
D15*
G36*
X162551570Y-74894570D02*
G01*
X162601169Y-74909544D01*
X162646918Y-74933869D01*
X162687072Y-74966618D01*
X162720099Y-75006541D01*
X162744741Y-75052116D01*
X162760066Y-75101621D01*
X162767800Y-75175206D01*
X162767801Y-110881401D01*
X162760430Y-110956571D01*
X162745456Y-111006169D01*
X162721130Y-111051920D01*
X162688382Y-111092072D01*
X162648462Y-111125097D01*
X162602879Y-111149743D01*
X162553380Y-111165065D01*
X162479794Y-111172800D01*
X139773589Y-111172800D01*
X139698429Y-111165430D01*
X139648831Y-111150456D01*
X139603080Y-111126130D01*
X139562928Y-111093382D01*
X139529903Y-111053462D01*
X139505257Y-111007879D01*
X139489935Y-110958380D01*
X139482200Y-110884794D01*
X139482200Y-101168850D01*
X143415800Y-101168850D01*
X143426520Y-101245384D01*
X143462000Y-101354856D01*
X143518156Y-101455301D01*
X143592829Y-101542862D01*
X143683149Y-101614172D01*
X143785645Y-101666491D01*
X143896379Y-101697809D01*
X144011095Y-101706922D01*
X144676150Y-101704200D01*
X144822200Y-101558150D01*
X144822200Y-101022800D01*
X145177800Y-101022800D01*
X145177800Y-101558150D01*
X145323850Y-101704200D01*
X145988905Y-101706922D01*
X146103621Y-101697809D01*
X146214355Y-101666491D01*
X146316851Y-101614172D01*
X146407171Y-101542862D01*
X146481844Y-101455301D01*
X146538000Y-101354856D01*
X146573480Y-101245384D01*
X146584200Y-101168850D01*
X146438150Y-101022800D01*
X145177800Y-101022800D01*
X144822200Y-101022800D01*
X143561850Y-101022800D01*
X143415800Y-101168850D01*
X139482200Y-101168850D01*
X139482200Y-100521150D01*
X143415800Y-100521150D01*
X143561850Y-100667200D01*
X143803906Y-100667200D01*
X143805873Y-100668814D01*
X143909072Y-100723975D01*
X144021048Y-100757943D01*
X144137500Y-100769412D01*
X145862500Y-100769412D01*
X145978952Y-100757943D01*
X146090928Y-100723975D01*
X146194127Y-100668814D01*
X146196094Y-100667200D01*
X146438150Y-100667200D01*
X146584200Y-100521150D01*
X146573480Y-100444616D01*
X146538000Y-100335144D01*
X146481844Y-100234699D01*
X146456243Y-100204679D01*
X146459412Y-100172500D01*
X146459412Y-99897500D01*
X146448056Y-99782200D01*
X148344936Y-99782200D01*
X148453567Y-99890831D01*
X148593963Y-99984641D01*
X148749964Y-100049259D01*
X148915573Y-100082200D01*
X149084427Y-100082200D01*
X149250036Y-100049259D01*
X149406037Y-99984641D01*
X149546433Y-99890831D01*
X149665831Y-99771433D01*
X149759641Y-99631037D01*
X149824259Y-99475036D01*
X149857200Y-99309427D01*
X149857200Y-99140573D01*
X149824259Y-98974964D01*
X149759641Y-98818963D01*
X149665831Y-98678567D01*
X149546433Y-98559169D01*
X149406037Y-98465359D01*
X149250036Y-98400741D01*
X149084427Y-98367800D01*
X148915573Y-98367800D01*
X148857200Y-98379411D01*
X148857200Y-98330573D01*
X148824259Y-98164964D01*
X148759641Y-98008963D01*
X148665831Y-97868567D01*
X148546433Y-97749169D01*
X148406037Y-97655359D01*
X148284460Y-97605000D01*
X148406037Y-97554641D01*
X148546433Y-97460831D01*
X148665831Y-97341433D01*
X148759641Y-97201037D01*
X148824259Y-97045036D01*
X148857200Y-96879427D01*
X148857200Y-96710573D01*
X148824259Y-96544964D01*
X148759641Y-96388963D01*
X148665831Y-96248567D01*
X148546433Y-96129169D01*
X148406037Y-96035359D01*
X148284460Y-95985000D01*
X148406037Y-95934641D01*
X148546433Y-95840831D01*
X148665831Y-95721433D01*
X148759641Y-95581037D01*
X148824259Y-95425036D01*
X148857200Y-95259427D01*
X148857200Y-95090573D01*
X148824259Y-94924964D01*
X148759641Y-94768963D01*
X148665831Y-94628567D01*
X148546433Y-94509169D01*
X148406037Y-94415359D01*
X148250036Y-94350741D01*
X148084427Y-94317800D01*
X147915573Y-94317800D01*
X147749964Y-94350741D01*
X147593963Y-94415359D01*
X147453567Y-94509169D01*
X147344936Y-94617800D01*
X146448056Y-94617800D01*
X146459412Y-94502500D01*
X146459412Y-94227500D01*
X146447943Y-94111048D01*
X146413975Y-93999072D01*
X146393091Y-93960000D01*
X146413975Y-93920928D01*
X146447943Y-93808952D01*
X146459412Y-93692500D01*
X146459412Y-93417500D01*
X146447943Y-93301048D01*
X146413975Y-93189072D01*
X146393091Y-93150000D01*
X146413975Y-93110928D01*
X146447943Y-92998952D01*
X146459412Y-92882500D01*
X146459412Y-92607500D01*
X146448056Y-92492200D01*
X147844936Y-92492200D01*
X147953567Y-92600831D01*
X148093963Y-92694641D01*
X148249964Y-92759259D01*
X148415573Y-92792200D01*
X148584427Y-92792200D01*
X148750036Y-92759259D01*
X148906037Y-92694641D01*
X149046433Y-92600831D01*
X149165831Y-92481433D01*
X149259641Y-92341037D01*
X149324259Y-92185036D01*
X149357200Y-92019427D01*
X149357200Y-91850573D01*
X149324259Y-91684964D01*
X149259641Y-91528963D01*
X149165831Y-91388567D01*
X149046433Y-91269169D01*
X148906037Y-91175359D01*
X148784460Y-91125000D01*
X148906037Y-91074641D01*
X149046433Y-90980831D01*
X149165831Y-90861433D01*
X149259641Y-90721037D01*
X149324259Y-90565036D01*
X149357200Y-90399427D01*
X149357200Y-90230573D01*
X149324259Y-90064964D01*
X149259641Y-89908963D01*
X149165831Y-89768567D01*
X149046433Y-89649169D01*
X148906037Y-89555359D01*
X148784460Y-89505000D01*
X148906037Y-89454641D01*
X149046433Y-89360831D01*
X149165831Y-89241433D01*
X149259641Y-89101037D01*
X149324259Y-88945036D01*
X149357200Y-88779427D01*
X149357200Y-88610573D01*
X149324259Y-88444964D01*
X149259641Y-88288963D01*
X149165831Y-88148567D01*
X149046433Y-88029169D01*
X148906037Y-87935359D01*
X148750036Y-87870741D01*
X148584427Y-87837800D01*
X148415573Y-87837800D01*
X148249964Y-87870741D01*
X148093963Y-87935359D01*
X147953567Y-88029169D01*
X147844936Y-88137800D01*
X147823114Y-88137800D01*
X147824259Y-88135036D01*
X147857200Y-87969427D01*
X147857200Y-87800573D01*
X147843600Y-87732200D01*
X149721934Y-87732200D01*
X149730565Y-87740831D01*
X149870961Y-87834641D01*
X150026962Y-87899259D01*
X150192571Y-87932200D01*
X150204778Y-87932200D01*
X151409467Y-89136890D01*
X151430040Y-89161958D01*
X151530111Y-89244085D01*
X151644282Y-89305111D01*
X151768164Y-89342690D01*
X151864721Y-89352200D01*
X151864729Y-89352200D01*
X151896998Y-89355378D01*
X151929267Y-89352200D01*
X153156400Y-89352200D01*
X153142800Y-89420573D01*
X153142800Y-89589427D01*
X153175741Y-89755036D01*
X153240359Y-89911037D01*
X153334169Y-90051433D01*
X153453567Y-90170831D01*
X153593963Y-90264641D01*
X153715540Y-90315000D01*
X153593963Y-90365359D01*
X153453567Y-90459169D01*
X153334169Y-90578567D01*
X153240359Y-90718963D01*
X153175741Y-90874964D01*
X153142800Y-91040573D01*
X153142800Y-91209427D01*
X153175741Y-91375036D01*
X153240359Y-91531037D01*
X153334169Y-91671433D01*
X153453567Y-91790831D01*
X153593963Y-91884641D01*
X153749964Y-91949259D01*
X153915573Y-91982200D01*
X154084427Y-91982200D01*
X154142800Y-91970589D01*
X154142800Y-92019427D01*
X154175741Y-92185036D01*
X154240359Y-92341037D01*
X154334169Y-92481433D01*
X154453567Y-92600831D01*
X154593963Y-92694641D01*
X154749964Y-92759259D01*
X154915573Y-92792200D01*
X155084427Y-92792200D01*
X155250036Y-92759259D01*
X155406037Y-92694641D01*
X155540879Y-92604542D01*
X155540588Y-92607500D01*
X155540588Y-92882500D01*
X155552057Y-92998952D01*
X155586025Y-93110928D01*
X155606909Y-93150000D01*
X155586025Y-93189072D01*
X155552057Y-93301048D01*
X155540588Y-93417500D01*
X155540588Y-93692500D01*
X155540879Y-93695458D01*
X155406037Y-93605359D01*
X155250036Y-93540741D01*
X155084427Y-93507800D01*
X154915573Y-93507800D01*
X154749964Y-93540741D01*
X154593963Y-93605359D01*
X154453567Y-93699169D01*
X154334169Y-93818567D01*
X154240359Y-93958963D01*
X154175741Y-94114964D01*
X154142800Y-94280573D01*
X154142800Y-94449427D01*
X154175741Y-94615036D01*
X154176886Y-94617800D01*
X154155064Y-94617800D01*
X154046433Y-94509169D01*
X153906037Y-94415359D01*
X153750036Y-94350741D01*
X153584427Y-94317800D01*
X153415573Y-94317800D01*
X153249964Y-94350741D01*
X153093963Y-94415359D01*
X152953567Y-94509169D01*
X152834169Y-94628567D01*
X152740359Y-94768963D01*
X152675741Y-94924964D01*
X152642800Y-95090573D01*
X152642800Y-95259427D01*
X152675741Y-95425036D01*
X152740359Y-95581037D01*
X152834169Y-95721433D01*
X152953567Y-95840831D01*
X153093963Y-95934641D01*
X153249964Y-95999259D01*
X153415573Y-96032200D01*
X153584427Y-96032200D01*
X153750036Y-95999259D01*
X153906037Y-95934641D01*
X154046433Y-95840831D01*
X154155064Y-95732200D01*
X155551944Y-95732200D01*
X155540588Y-95847500D01*
X155540588Y-96122500D01*
X155540879Y-96125458D01*
X155406037Y-96035359D01*
X155250036Y-95970741D01*
X155084427Y-95937800D01*
X154915573Y-95937800D01*
X154749964Y-95970741D01*
X154593963Y-96035359D01*
X154453567Y-96129169D01*
X154334169Y-96248567D01*
X154240359Y-96388963D01*
X154175741Y-96544964D01*
X154142800Y-96710573D01*
X154142800Y-96879427D01*
X154175741Y-97045036D01*
X154176886Y-97047800D01*
X154155064Y-97047800D01*
X154046433Y-96939169D01*
X153906037Y-96845359D01*
X153750036Y-96780741D01*
X153584427Y-96747800D01*
X153415573Y-96747800D01*
X153249964Y-96780741D01*
X153093963Y-96845359D01*
X152953567Y-96939169D01*
X152834169Y-97058567D01*
X152740359Y-97198963D01*
X152675741Y-97354964D01*
X152642800Y-97520573D01*
X152642800Y-97689427D01*
X152675741Y-97855036D01*
X152740359Y-98011037D01*
X152834169Y-98151433D01*
X152953567Y-98270831D01*
X153093963Y-98364641D01*
X153215540Y-98415000D01*
X153093963Y-98465359D01*
X152953567Y-98559169D01*
X152834169Y-98678567D01*
X152740359Y-98818963D01*
X152675741Y-98974964D01*
X152642800Y-99140573D01*
X152642800Y-99189411D01*
X152584427Y-99177800D01*
X152415573Y-99177800D01*
X152249964Y-99210741D01*
X152093963Y-99275359D01*
X151953567Y-99369169D01*
X151834169Y-99488567D01*
X151740359Y-99628963D01*
X151675741Y-99784964D01*
X151642800Y-99950573D01*
X151642800Y-100119427D01*
X151675741Y-100285036D01*
X151740359Y-100441037D01*
X151834169Y-100581433D01*
X151953567Y-100700831D01*
X152093963Y-100794641D01*
X152249964Y-100859259D01*
X152415573Y-100892200D01*
X152584427Y-100892200D01*
X152750036Y-100859259D01*
X152906037Y-100794641D01*
X153046433Y-100700831D01*
X153155064Y-100592200D01*
X155551944Y-100592200D01*
X155540588Y-100707500D01*
X155540588Y-100982500D01*
X155552057Y-101098952D01*
X155586025Y-101210928D01*
X155641186Y-101314127D01*
X155715419Y-101404581D01*
X155805873Y-101478814D01*
X155909072Y-101533975D01*
X156021048Y-101567943D01*
X156137500Y-101579412D01*
X157862500Y-101579412D01*
X157978952Y-101567943D01*
X158090928Y-101533975D01*
X158194127Y-101478814D01*
X158284581Y-101404581D01*
X158358814Y-101314127D01*
X158413975Y-101210928D01*
X158447943Y-101098952D01*
X158459412Y-100982500D01*
X158459412Y-100707500D01*
X158447943Y-100591048D01*
X158413975Y-100479072D01*
X158393091Y-100440000D01*
X158413975Y-100400928D01*
X158447943Y-100288952D01*
X158459412Y-100172500D01*
X158459412Y-99897500D01*
X158447943Y-99781048D01*
X158413975Y-99669072D01*
X158393091Y-99630000D01*
X158413975Y-99590928D01*
X158447943Y-99478952D01*
X158459412Y-99362500D01*
X158459412Y-99087500D01*
X158447943Y-98971048D01*
X158413975Y-98859072D01*
X158393091Y-98820000D01*
X158413975Y-98780928D01*
X158447943Y-98668952D01*
X158459412Y-98552500D01*
X158459412Y-98277500D01*
X158447943Y-98161048D01*
X158413975Y-98049072D01*
X158393091Y-98010000D01*
X158413975Y-97970928D01*
X158447943Y-97858952D01*
X158459412Y-97742500D01*
X158459412Y-97467500D01*
X158447943Y-97351048D01*
X158413975Y-97239072D01*
X158393091Y-97200000D01*
X158413975Y-97160928D01*
X158447943Y-97048952D01*
X158459412Y-96932500D01*
X158459412Y-96657500D01*
X158447943Y-96541048D01*
X158413975Y-96429072D01*
X158393091Y-96390000D01*
X158413975Y-96350928D01*
X158447943Y-96238952D01*
X158459412Y-96122500D01*
X158459412Y-95847500D01*
X158447943Y-95731048D01*
X158413975Y-95619072D01*
X158393091Y-95580000D01*
X158413975Y-95540928D01*
X158447943Y-95428952D01*
X158459412Y-95312500D01*
X158459412Y-95037500D01*
X158447943Y-94921048D01*
X158413975Y-94809072D01*
X158393091Y-94770000D01*
X158413975Y-94730928D01*
X158447943Y-94618952D01*
X158459412Y-94502500D01*
X158459412Y-94227500D01*
X158447943Y-94111048D01*
X158413975Y-93999072D01*
X158393091Y-93960000D01*
X158413975Y-93920928D01*
X158447943Y-93808952D01*
X158459412Y-93692500D01*
X158459412Y-93417500D01*
X158447943Y-93301048D01*
X158413975Y-93189072D01*
X158393091Y-93150000D01*
X158413975Y-93110928D01*
X158447943Y-92998952D01*
X158459412Y-92882500D01*
X158459412Y-92607500D01*
X158447943Y-92491048D01*
X158413975Y-92379072D01*
X158393091Y-92340000D01*
X158413975Y-92300928D01*
X158447943Y-92188952D01*
X158459412Y-92072500D01*
X158459412Y-91797500D01*
X158447943Y-91681048D01*
X158413975Y-91569072D01*
X158393091Y-91530000D01*
X158413975Y-91490928D01*
X158447943Y-91378952D01*
X158459412Y-91262500D01*
X158459412Y-90987500D01*
X158447943Y-90871048D01*
X158413975Y-90759072D01*
X158393091Y-90720000D01*
X158413975Y-90680928D01*
X158447943Y-90568952D01*
X158459412Y-90452500D01*
X158459412Y-90177500D01*
X158447943Y-90061048D01*
X158413975Y-89949072D01*
X158393091Y-89910000D01*
X158413975Y-89870928D01*
X158447943Y-89758952D01*
X158459412Y-89642500D01*
X158459412Y-89367500D01*
X158447943Y-89251048D01*
X158413975Y-89139072D01*
X158393091Y-89100000D01*
X158413975Y-89060928D01*
X158447943Y-88948952D01*
X158459412Y-88832500D01*
X158459412Y-88557500D01*
X158447943Y-88441048D01*
X158413975Y-88329072D01*
X158393091Y-88290000D01*
X158413975Y-88250928D01*
X158447943Y-88138952D01*
X158459412Y-88022500D01*
X158459412Y-87747500D01*
X158447943Y-87631048D01*
X158413975Y-87519072D01*
X158393091Y-87480000D01*
X158413975Y-87440928D01*
X158447943Y-87328952D01*
X158459412Y-87212500D01*
X158459412Y-86937500D01*
X158447943Y-86821048D01*
X158413975Y-86709072D01*
X158393091Y-86670000D01*
X158413975Y-86630928D01*
X158447943Y-86518952D01*
X158459412Y-86402500D01*
X158459412Y-86127500D01*
X158447943Y-86011048D01*
X158413975Y-85899072D01*
X158393091Y-85860000D01*
X158413975Y-85820928D01*
X158447943Y-85708952D01*
X158459412Y-85592500D01*
X158459412Y-85317500D01*
X158447943Y-85201048D01*
X158413975Y-85089072D01*
X158393091Y-85050000D01*
X158413975Y-85010928D01*
X158447943Y-84898952D01*
X158459412Y-84782500D01*
X158459412Y-84507500D01*
X158447943Y-84391048D01*
X158413975Y-84279072D01*
X158393091Y-84240000D01*
X158413975Y-84200928D01*
X158447943Y-84088952D01*
X158459412Y-83972500D01*
X158459412Y-83697500D01*
X158447943Y-83581048D01*
X158413975Y-83469072D01*
X158358814Y-83365873D01*
X158284581Y-83275419D01*
X158194127Y-83201186D01*
X158090928Y-83146025D01*
X157978952Y-83112057D01*
X157862500Y-83100588D01*
X156137500Y-83100588D01*
X156021048Y-83112057D01*
X155909072Y-83146025D01*
X155849625Y-83177800D01*
X153549267Y-83177800D01*
X153516998Y-83174622D01*
X153484729Y-83177800D01*
X153484721Y-83177800D01*
X153388164Y-83187310D01*
X153264282Y-83224889D01*
X153150111Y-83285915D01*
X153050040Y-83368042D01*
X153029467Y-83393110D01*
X150204778Y-86217800D01*
X150192571Y-86217800D01*
X150026962Y-86250741D01*
X149870961Y-86315359D01*
X149730565Y-86409169D01*
X149721934Y-86417800D01*
X146457905Y-86417800D01*
X146459412Y-86402500D01*
X146459412Y-86127500D01*
X146447943Y-86011048D01*
X146413975Y-85899072D01*
X146393091Y-85860000D01*
X146413975Y-85820928D01*
X146447943Y-85708952D01*
X146459412Y-85592500D01*
X146459412Y-85317500D01*
X146459121Y-85314542D01*
X146593963Y-85404641D01*
X146749964Y-85469259D01*
X146915573Y-85502200D01*
X147084427Y-85502200D01*
X147250036Y-85469259D01*
X147406037Y-85404641D01*
X147546433Y-85310831D01*
X147665831Y-85191433D01*
X147759641Y-85051037D01*
X147824259Y-84895036D01*
X147857200Y-84729427D01*
X147857200Y-84560573D01*
X147824259Y-84394964D01*
X147759641Y-84238963D01*
X147665831Y-84098567D01*
X147546433Y-83979169D01*
X147406037Y-83885359D01*
X147250036Y-83820741D01*
X147084427Y-83787800D01*
X146915573Y-83787800D01*
X146749964Y-83820741D01*
X146593963Y-83885359D01*
X146453567Y-83979169D01*
X146443298Y-83989438D01*
X146446605Y-83978536D01*
X146460742Y-83835000D01*
X146446605Y-83691464D01*
X146404737Y-83553444D01*
X146336747Y-83426244D01*
X146245248Y-83314752D01*
X146133756Y-83223253D01*
X146006556Y-83155263D01*
X145868536Y-83113395D01*
X145760963Y-83102800D01*
X144239037Y-83102800D01*
X144131464Y-83113395D01*
X143993444Y-83155263D01*
X143866244Y-83223253D01*
X143754752Y-83314752D01*
X143663253Y-83426244D01*
X143595263Y-83553444D01*
X143553395Y-83691464D01*
X143539258Y-83835000D01*
X143553395Y-83978536D01*
X143595263Y-84116556D01*
X143634077Y-84189172D01*
X143586025Y-84279072D01*
X143552057Y-84391048D01*
X143540588Y-84507500D01*
X143540588Y-84782500D01*
X143552057Y-84898952D01*
X143586025Y-85010928D01*
X143606909Y-85050000D01*
X143586025Y-85089072D01*
X143552057Y-85201048D01*
X143540588Y-85317500D01*
X143540588Y-85592500D01*
X143552057Y-85708952D01*
X143586025Y-85820928D01*
X143606909Y-85860000D01*
X143586025Y-85899072D01*
X143552057Y-86011048D01*
X143540588Y-86127500D01*
X143540588Y-86402500D01*
X143552057Y-86518952D01*
X143586025Y-86630928D01*
X143606909Y-86670000D01*
X143586025Y-86709072D01*
X143552057Y-86821048D01*
X143540588Y-86937500D01*
X143540588Y-87212500D01*
X143552057Y-87328952D01*
X143586025Y-87440928D01*
X143606909Y-87480000D01*
X143586025Y-87519072D01*
X143552057Y-87631048D01*
X143540588Y-87747500D01*
X143540588Y-88022500D01*
X143552057Y-88138952D01*
X143586025Y-88250928D01*
X143606909Y-88290000D01*
X143586025Y-88329072D01*
X143552057Y-88441048D01*
X143540588Y-88557500D01*
X143540588Y-88832500D01*
X143552057Y-88948952D01*
X143586025Y-89060928D01*
X143606909Y-89100000D01*
X143586025Y-89139072D01*
X143552057Y-89251048D01*
X143540588Y-89367500D01*
X143540588Y-89642500D01*
X143552057Y-89758952D01*
X143586025Y-89870928D01*
X143606909Y-89910000D01*
X143586025Y-89949072D01*
X143552057Y-90061048D01*
X143540588Y-90177500D01*
X143540588Y-90452500D01*
X143552057Y-90568952D01*
X143586025Y-90680928D01*
X143606909Y-90720000D01*
X143586025Y-90759072D01*
X143552057Y-90871048D01*
X143540588Y-90987500D01*
X143540588Y-91262500D01*
X143552057Y-91378952D01*
X143586025Y-91490928D01*
X143606909Y-91530000D01*
X143586025Y-91569072D01*
X143552057Y-91681048D01*
X143540588Y-91797500D01*
X143540588Y-92072500D01*
X143552057Y-92188952D01*
X143586025Y-92300928D01*
X143606909Y-92340000D01*
X143586025Y-92379072D01*
X143552057Y-92491048D01*
X143540588Y-92607500D01*
X143540588Y-92882500D01*
X143552057Y-92998952D01*
X143586025Y-93110928D01*
X143606909Y-93150000D01*
X143586025Y-93189072D01*
X143552057Y-93301048D01*
X143540588Y-93417500D01*
X143540588Y-93692500D01*
X143552057Y-93808952D01*
X143586025Y-93920928D01*
X143606909Y-93960000D01*
X143586025Y-93999072D01*
X143552057Y-94111048D01*
X143540588Y-94227500D01*
X143540588Y-94502500D01*
X143552057Y-94618952D01*
X143586025Y-94730928D01*
X143606909Y-94770000D01*
X143586025Y-94809072D01*
X143552057Y-94921048D01*
X143540588Y-95037500D01*
X143540588Y-95312500D01*
X143552057Y-95428952D01*
X143586025Y-95540928D01*
X143606909Y-95580000D01*
X143586025Y-95619072D01*
X143552057Y-95731048D01*
X143540588Y-95847500D01*
X143540588Y-96122500D01*
X143552057Y-96238952D01*
X143586025Y-96350928D01*
X143606909Y-96390000D01*
X143586025Y-96429072D01*
X143552057Y-96541048D01*
X143540588Y-96657500D01*
X143540588Y-96932500D01*
X143552057Y-97048952D01*
X143586025Y-97160928D01*
X143606909Y-97200000D01*
X143586025Y-97239072D01*
X143552057Y-97351048D01*
X143540588Y-97467500D01*
X143540588Y-97742500D01*
X143552057Y-97858952D01*
X143586025Y-97970928D01*
X143606909Y-98010000D01*
X143586025Y-98049072D01*
X143552057Y-98161048D01*
X143540588Y-98277500D01*
X143540588Y-98552500D01*
X143552057Y-98668952D01*
X143586025Y-98780928D01*
X143606909Y-98820000D01*
X143586025Y-98859072D01*
X143552057Y-98971048D01*
X143540588Y-99087500D01*
X143540588Y-99362500D01*
X143552057Y-99478952D01*
X143586025Y-99590928D01*
X143606909Y-99630000D01*
X143586025Y-99669072D01*
X143552057Y-99781048D01*
X143540588Y-99897500D01*
X143540588Y-100172500D01*
X143543757Y-100204679D01*
X143518156Y-100234699D01*
X143462000Y-100335144D01*
X143426520Y-100444616D01*
X143415800Y-100521150D01*
X139482200Y-100521150D01*
X139482200Y-81021500D01*
X147912973Y-81021500D01*
X147924253Y-81136023D01*
X147957658Y-81246146D01*
X148011905Y-81347635D01*
X148084909Y-81436591D01*
X148173865Y-81509595D01*
X148275354Y-81563842D01*
X148385477Y-81597247D01*
X148500000Y-81608527D01*
X148901150Y-81605700D01*
X149047200Y-81459650D01*
X149047200Y-80611800D01*
X149402800Y-80611800D01*
X149402800Y-81459650D01*
X149548850Y-81605700D01*
X149950000Y-81608527D01*
X150064523Y-81597247D01*
X150174646Y-81563842D01*
X150276135Y-81509595D01*
X150365091Y-81436591D01*
X150438095Y-81347635D01*
X150492342Y-81246146D01*
X150525747Y-81136023D01*
X150537027Y-81021500D01*
X151722973Y-81021500D01*
X151734253Y-81136023D01*
X151767658Y-81246146D01*
X151821905Y-81347635D01*
X151894909Y-81436591D01*
X151983865Y-81509595D01*
X152085354Y-81563842D01*
X152195477Y-81597247D01*
X152310000Y-81608527D01*
X152711150Y-81605700D01*
X152857200Y-81459650D01*
X152857200Y-80611800D01*
X153212800Y-80611800D01*
X153212800Y-81459650D01*
X153358850Y-81605700D01*
X153760000Y-81608527D01*
X153874523Y-81597247D01*
X153984646Y-81563842D01*
X154086135Y-81509595D01*
X154175091Y-81436591D01*
X154248095Y-81347635D01*
X154302342Y-81246146D01*
X154335747Y-81136023D01*
X154347027Y-81021500D01*
X154344200Y-80757850D01*
X154198150Y-80611800D01*
X153212800Y-80611800D01*
X152857200Y-80611800D01*
X151871850Y-80611800D01*
X151725800Y-80757850D01*
X151722973Y-81021500D01*
X150537027Y-81021500D01*
X150534200Y-80757850D01*
X150388150Y-80611800D01*
X149402800Y-80611800D01*
X149047200Y-80611800D01*
X148061850Y-80611800D01*
X147915800Y-80757850D01*
X147912973Y-81021500D01*
X139482200Y-81021500D01*
X139482200Y-79846500D01*
X147912973Y-79846500D01*
X147915800Y-80110150D01*
X148061850Y-80256200D01*
X149047200Y-80256200D01*
X149047200Y-80236200D01*
X149402800Y-80236200D01*
X149402800Y-80256200D01*
X150388150Y-80256200D01*
X150534200Y-80110150D01*
X150537027Y-79846500D01*
X150525747Y-79731977D01*
X150492342Y-79621854D01*
X150438095Y-79520365D01*
X150365091Y-79431409D01*
X150276135Y-79358405D01*
X150174646Y-79304158D01*
X150100019Y-79281520D01*
X150201630Y-79198130D01*
X150289855Y-79090628D01*
X150329637Y-79016200D01*
X150574936Y-79016200D01*
X150583567Y-79024831D01*
X150723963Y-79118641D01*
X150879964Y-79183259D01*
X151045573Y-79216200D01*
X151214427Y-79216200D01*
X151380036Y-79183259D01*
X151536037Y-79118641D01*
X151676433Y-79024831D01*
X151685064Y-79016200D01*
X151930363Y-79016200D01*
X151970145Y-79090628D01*
X152058370Y-79198130D01*
X152159981Y-79281520D01*
X152085354Y-79304158D01*
X151983865Y-79358405D01*
X151894909Y-79431409D01*
X151821905Y-79520365D01*
X151767658Y-79621854D01*
X151734253Y-79731977D01*
X151722973Y-79846500D01*
X151725800Y-80110150D01*
X151871850Y-80256200D01*
X152857200Y-80256200D01*
X152857200Y-80236200D01*
X153212800Y-80236200D01*
X153212800Y-80256200D01*
X154198150Y-80256200D01*
X154344200Y-80110150D01*
X154347027Y-79846500D01*
X154335747Y-79731977D01*
X154302342Y-79621854D01*
X154248095Y-79520365D01*
X154175091Y-79431409D01*
X154086135Y-79358405D01*
X153984646Y-79304158D01*
X153910019Y-79281520D01*
X154011630Y-79198130D01*
X154099855Y-79090628D01*
X154165411Y-78967980D01*
X154205781Y-78834899D01*
X154219412Y-78696500D01*
X154219412Y-78021500D01*
X154205781Y-77883101D01*
X154165411Y-77750020D01*
X154099855Y-77627372D01*
X154011630Y-77519870D01*
X153904128Y-77431645D01*
X153781480Y-77366089D01*
X153648399Y-77325719D01*
X153510000Y-77312088D01*
X152560000Y-77312088D01*
X152421601Y-77325719D01*
X152288520Y-77366089D01*
X152165872Y-77431645D01*
X152058370Y-77519870D01*
X151970145Y-77627372D01*
X151930363Y-77701800D01*
X151685064Y-77701800D01*
X151676433Y-77693169D01*
X151536037Y-77599359D01*
X151380036Y-77534741D01*
X151214427Y-77501800D01*
X151045573Y-77501800D01*
X150879964Y-77534741D01*
X150723963Y-77599359D01*
X150583567Y-77693169D01*
X150574936Y-77701800D01*
X150329637Y-77701800D01*
X150289855Y-77627372D01*
X150201630Y-77519870D01*
X150094128Y-77431645D01*
X149971480Y-77366089D01*
X149838399Y-77325719D01*
X149700000Y-77312088D01*
X148750000Y-77312088D01*
X148611601Y-77325719D01*
X148478520Y-77366089D01*
X148355872Y-77431645D01*
X148248370Y-77519870D01*
X148160145Y-77627372D01*
X148094589Y-77750020D01*
X148054219Y-77883101D01*
X148040588Y-78021500D01*
X148040588Y-78696500D01*
X148054219Y-78834899D01*
X148094589Y-78967980D01*
X148160145Y-79090628D01*
X148248370Y-79198130D01*
X148349981Y-79281520D01*
X148275354Y-79304158D01*
X148173865Y-79358405D01*
X148084909Y-79431409D01*
X148011905Y-79520365D01*
X147957658Y-79621854D01*
X147924253Y-79731977D01*
X147912973Y-79846500D01*
X139482200Y-79846500D01*
X139482200Y-75178589D01*
X139489570Y-75103430D01*
X139504544Y-75053831D01*
X139528869Y-75008082D01*
X139561618Y-74967928D01*
X139601541Y-74934901D01*
X139647116Y-74910259D01*
X139696621Y-74894934D01*
X139770206Y-74887200D01*
X162476411Y-74887200D01*
X162551570Y-74894570D01*
G37*
%TD.AperFunction*%
D14*
X155540588Y-84507500D02*
X155540588Y-84782500D01*
X155552057Y-84898952D01*
X155586025Y-85010928D01*
X155606909Y-85050000D01*
X155586025Y-85089072D01*
X155552057Y-85201048D01*
X155540588Y-85317500D01*
X155540588Y-85592500D01*
X155552057Y-85708952D01*
X155586025Y-85820928D01*
X155606909Y-85860000D01*
X155586025Y-85899072D01*
X155552057Y-86011048D01*
X155540588Y-86127500D01*
X155540588Y-86402500D01*
X155551944Y-86517800D01*
X154655064Y-86517800D01*
X154546433Y-86409169D01*
X154406037Y-86315359D01*
X154250036Y-86250741D01*
X154084427Y-86217800D01*
X153915573Y-86217800D01*
X153749964Y-86250741D01*
X153593963Y-86315359D01*
X153453567Y-86409169D01*
X153334169Y-86528567D01*
X153240359Y-86668963D01*
X153175741Y-86824964D01*
X153142800Y-86990573D01*
X153142800Y-87039411D01*
X153084427Y-87027800D01*
X152915573Y-87027800D01*
X152749964Y-87060741D01*
X152593963Y-87125359D01*
X152453567Y-87219169D01*
X152334169Y-87338567D01*
X152240359Y-87478963D01*
X152175741Y-87634964D01*
X152142800Y-87800573D01*
X152142800Y-87969427D01*
X152153217Y-88021798D01*
X151206418Y-87075000D01*
X153789219Y-84492200D01*
X155542095Y-84492200D01*
X155540588Y-84507500D01*
%TA.AperFunction,Conductor*%
D15*
G36*
X155540588Y-84507500D02*
G01*
X155540588Y-84782500D01*
X155552057Y-84898952D01*
X155586025Y-85010928D01*
X155606909Y-85050000D01*
X155586025Y-85089072D01*
X155552057Y-85201048D01*
X155540588Y-85317500D01*
X155540588Y-85592500D01*
X155552057Y-85708952D01*
X155586025Y-85820928D01*
X155606909Y-85860000D01*
X155586025Y-85899072D01*
X155552057Y-86011048D01*
X155540588Y-86127500D01*
X155540588Y-86402500D01*
X155551944Y-86517800D01*
X154655064Y-86517800D01*
X154546433Y-86409169D01*
X154406037Y-86315359D01*
X154250036Y-86250741D01*
X154084427Y-86217800D01*
X153915573Y-86217800D01*
X153749964Y-86250741D01*
X153593963Y-86315359D01*
X153453567Y-86409169D01*
X153334169Y-86528567D01*
X153240359Y-86668963D01*
X153175741Y-86824964D01*
X153142800Y-86990573D01*
X153142800Y-87039411D01*
X153084427Y-87027800D01*
X152915573Y-87027800D01*
X152749964Y-87060741D01*
X152593963Y-87125359D01*
X152453567Y-87219169D01*
X152334169Y-87338567D01*
X152240359Y-87478963D01*
X152175741Y-87634964D01*
X152142800Y-87800573D01*
X152142800Y-87969427D01*
X152153217Y-88021798D01*
X151206418Y-87075000D01*
X153789219Y-84492200D01*
X155542095Y-84492200D01*
X155540588Y-84507500D01*
G37*
%TD.AperFunction*%
%TD*%
M02*
