M48
; DRILL file {KiCad (5.1.10)-1} date 09/09/21 18:50:40
; FORMAT={-:-/ absolute / metric / decimal}
; #@! TF.CreationDate,2021-09-09T18:50:40-06:00
; #@! TF.GenerationSoftware,Kicad,Pcbnew,(5.1.10)-1
; #@! TF.FileFunction,Plated,1,2,PTH
FMAT,2
METRIC
T1C0.400
%
G90
G05
T1
X140.0Y-77.47
X140.0Y-80.01
X140.0Y-82.55
X140.0Y-85.09
X140.0Y-87.63
X140.0Y-90.17
X140.0Y-92.71
X140.0Y-95.25
X140.0Y-97.79
X140.0Y-100.33
X140.0Y-102.87
X140.0Y-105.41
X140.0Y-107.95
X140.0Y-110.49
X145.5Y-80.01
X147.0Y-84.645
X147.0Y-87.885
X147.0Y-89.505
X147.0Y-91.125
X147.0Y-95.985
X147.0Y-97.605
X147.701Y-100.33
X148.0Y-95.175
X148.0Y-96.795
X148.0Y-98.415
X148.5Y-88.695
X148.5Y-90.315
X148.5Y-91.935
X149.0Y-99.225
X149.225Y-82.169
X150.277Y-87.075
X150.5Y-90.17
X150.5Y-92.71
X150.5Y-95.25
X150.5Y-97.79
X150.5Y-100.33
X150.5Y-105.41
X150.5Y-110.49
X151.13Y-78.359
X152.5Y-100.035
X153.0Y-87.885
X153.035Y-82.169
X153.5Y-95.175
X153.5Y-97.605
X153.5Y-99.225
X154.0Y-87.075
X154.0Y-89.505
X154.0Y-91.125
X155.0Y-85.09
X155.0Y-90.315
X155.0Y-91.935
X155.0Y-94.365
X155.0Y-96.795
X155.0Y-98.415
X157.75Y-82.5
X162.5Y-77.47
X162.5Y-80.01
X162.5Y-82.55
X162.5Y-85.09
X162.5Y-87.63
X162.5Y-90.17
X162.5Y-92.71
X162.5Y-95.25
X162.5Y-97.79
X162.5Y-100.33
X162.5Y-102.87
X162.5Y-105.41
X162.5Y-107.95
T0
M30
