%TF.GenerationSoftware,KiCad,Pcbnew,(5.1.8)-1*%
%TF.CreationDate,2021-05-04T01:41:37-06:00*%
%TF.ProjectId,NVRTC,4e565254-432e-46b6-9963-61645f706362,rev?*%
%TF.SameCoordinates,Original*%
%TF.FileFunction,Legend,Bot*%
%TF.FilePolarity,Positive*%
%FSLAX46Y46*%
G04 Gerber Fmt 4.6, Leading zero omitted, Abs format (unit mm)*
G04 Created by KiCad (PCBNEW (5.1.8)-1) date 2021-05-04 01:41:37*
%MOMM*%
%LPD*%
G01*
G04 APERTURE LIST*
%ADD10C,0.150000*%
%ADD11C,0.120000*%
%ADD12C,0.100000*%
G04 APERTURE END LIST*
D10*
X139065000Y-75017380D02*
X139065000Y-75255476D01*
X139303095Y-75160238D02*
X139065000Y-75255476D01*
X138826904Y-75160238D01*
X139207857Y-75445952D02*
X139065000Y-75255476D01*
X138922142Y-75445952D01*
D11*
%TO.C,H1*%
X143480000Y-74930000D02*
X147290000Y-74930000D01*
X154910000Y-74930000D02*
X158720000Y-74930000D01*
X143480000Y-74930000D02*
X139670000Y-74930000D01*
X139670000Y-74930000D02*
X139670000Y-111125000D01*
X158720000Y-74930000D02*
X162530000Y-74930000D01*
X162530000Y-74930000D02*
X162530000Y-111125000D01*
X162530000Y-111125000D02*
X139670000Y-111125000D01*
X147290000Y-74930000D02*
G75*
G03*
X154910000Y-74930000I3810000J0D01*
G01*
D10*
X151861904Y-84272380D02*
X151861904Y-83272380D01*
X151861904Y-83748571D02*
X151290476Y-83748571D01*
X151290476Y-84272380D02*
X151290476Y-83272380D01*
X150290476Y-84272380D02*
X150861904Y-84272380D01*
X150576190Y-84272380D02*
X150576190Y-83272380D01*
X150671428Y-83415238D01*
X150766666Y-83510476D01*
X150861904Y-83558095D01*
D12*
X142727619Y-77922380D02*
X143060952Y-77446190D01*
X143299047Y-77922380D02*
X143299047Y-76922380D01*
X142918095Y-76922380D01*
X142822857Y-76970000D01*
X142775238Y-77017619D01*
X142727619Y-77112857D01*
X142727619Y-77255714D01*
X142775238Y-77350952D01*
X142822857Y-77398571D01*
X142918095Y-77446190D01*
X143299047Y-77446190D01*
X142346666Y-77874761D02*
X142203809Y-77922380D01*
X141965714Y-77922380D01*
X141870476Y-77874761D01*
X141822857Y-77827142D01*
X141775238Y-77731904D01*
X141775238Y-77636666D01*
X141822857Y-77541428D01*
X141870476Y-77493809D01*
X141965714Y-77446190D01*
X142156190Y-77398571D01*
X142251428Y-77350952D01*
X142299047Y-77303333D01*
X142346666Y-77208095D01*
X142346666Y-77112857D01*
X142299047Y-77017619D01*
X142251428Y-76970000D01*
X142156190Y-76922380D01*
X141918095Y-76922380D01*
X141775238Y-76970000D01*
X141489523Y-76922380D02*
X140918095Y-76922380D01*
X141203809Y-77922380D02*
X141203809Y-76922380D01*
X143370476Y-80176666D02*
X142894285Y-80176666D01*
X143465714Y-80462380D02*
X143132380Y-79462380D01*
X142799047Y-80462380D01*
X141941904Y-80462380D02*
X142513333Y-80462380D01*
X142227619Y-80462380D02*
X142227619Y-79462380D01*
X142322857Y-79605238D01*
X142418095Y-79700476D01*
X142513333Y-79748095D01*
X141560952Y-79557619D02*
X141513333Y-79510000D01*
X141418095Y-79462380D01*
X141180000Y-79462380D01*
X141084761Y-79510000D01*
X141037142Y-79557619D01*
X140989523Y-79652857D01*
X140989523Y-79748095D01*
X141037142Y-79890952D01*
X141608571Y-80462380D01*
X140989523Y-80462380D01*
X142894285Y-82716666D02*
X142418095Y-82716666D01*
X142989523Y-83002380D02*
X142656190Y-82002380D01*
X142322857Y-83002380D01*
X142084761Y-82002380D02*
X141418095Y-82002380D01*
X141846666Y-83002380D01*
X142894285Y-85256666D02*
X142418095Y-85256666D01*
X142989523Y-85542380D02*
X142656190Y-84542380D01*
X142322857Y-85542380D01*
X141560952Y-84542380D02*
X141751428Y-84542380D01*
X141846666Y-84590000D01*
X141894285Y-84637619D01*
X141989523Y-84780476D01*
X142037142Y-84970952D01*
X142037142Y-85351904D01*
X141989523Y-85447142D01*
X141941904Y-85494761D01*
X141846666Y-85542380D01*
X141656190Y-85542380D01*
X141560952Y-85494761D01*
X141513333Y-85447142D01*
X141465714Y-85351904D01*
X141465714Y-85113809D01*
X141513333Y-85018571D01*
X141560952Y-84970952D01*
X141656190Y-84923333D01*
X141846666Y-84923333D01*
X141941904Y-84970952D01*
X141989523Y-85018571D01*
X142037142Y-85113809D01*
X142894285Y-87796666D02*
X142418095Y-87796666D01*
X142989523Y-88082380D02*
X142656190Y-87082380D01*
X142322857Y-88082380D01*
X141513333Y-87082380D02*
X141989523Y-87082380D01*
X142037142Y-87558571D01*
X141989523Y-87510952D01*
X141894285Y-87463333D01*
X141656190Y-87463333D01*
X141560952Y-87510952D01*
X141513333Y-87558571D01*
X141465714Y-87653809D01*
X141465714Y-87891904D01*
X141513333Y-87987142D01*
X141560952Y-88034761D01*
X141656190Y-88082380D01*
X141894285Y-88082380D01*
X141989523Y-88034761D01*
X142037142Y-87987142D01*
X142894285Y-90336666D02*
X142418095Y-90336666D01*
X142989523Y-90622380D02*
X142656190Y-89622380D01*
X142322857Y-90622380D01*
X141560952Y-89955714D02*
X141560952Y-90622380D01*
X141799047Y-89574761D02*
X142037142Y-90289047D01*
X141418095Y-90289047D01*
X142894285Y-92876666D02*
X142418095Y-92876666D01*
X142989523Y-93162380D02*
X142656190Y-92162380D01*
X142322857Y-93162380D01*
X142084761Y-92162380D02*
X141465714Y-92162380D01*
X141799047Y-92543333D01*
X141656190Y-92543333D01*
X141560952Y-92590952D01*
X141513333Y-92638571D01*
X141465714Y-92733809D01*
X141465714Y-92971904D01*
X141513333Y-93067142D01*
X141560952Y-93114761D01*
X141656190Y-93162380D01*
X141941904Y-93162380D01*
X142037142Y-93114761D01*
X142084761Y-93067142D01*
X142894285Y-95416666D02*
X142418095Y-95416666D01*
X142989523Y-95702380D02*
X142656190Y-94702380D01*
X142322857Y-95702380D01*
X142037142Y-94797619D02*
X141989523Y-94750000D01*
X141894285Y-94702380D01*
X141656190Y-94702380D01*
X141560952Y-94750000D01*
X141513333Y-94797619D01*
X141465714Y-94892857D01*
X141465714Y-94988095D01*
X141513333Y-95130952D01*
X142084761Y-95702380D01*
X141465714Y-95702380D01*
X142894285Y-97956666D02*
X142418095Y-97956666D01*
X142989523Y-98242380D02*
X142656190Y-97242380D01*
X142322857Y-98242380D01*
X141465714Y-98242380D02*
X142037142Y-98242380D01*
X141751428Y-98242380D02*
X141751428Y-97242380D01*
X141846666Y-97385238D01*
X141941904Y-97480476D01*
X142037142Y-97528095D01*
X142894285Y-100496666D02*
X142418095Y-100496666D01*
X142989523Y-100782380D02*
X142656190Y-99782380D01*
X142322857Y-100782380D01*
X141799047Y-99782380D02*
X141703809Y-99782380D01*
X141608571Y-99830000D01*
X141560952Y-99877619D01*
X141513333Y-99972857D01*
X141465714Y-100163333D01*
X141465714Y-100401428D01*
X141513333Y-100591904D01*
X141560952Y-100687142D01*
X141608571Y-100734761D01*
X141703809Y-100782380D01*
X141799047Y-100782380D01*
X141894285Y-100734761D01*
X141941904Y-100687142D01*
X141989523Y-100591904D01*
X142037142Y-100401428D01*
X142037142Y-100163333D01*
X141989523Y-99972857D01*
X141941904Y-99877619D01*
X141894285Y-99830000D01*
X141799047Y-99782380D01*
X143441904Y-103322380D02*
X143441904Y-102322380D01*
X143203809Y-102322380D01*
X143060952Y-102370000D01*
X142965714Y-102465238D01*
X142918095Y-102560476D01*
X142870476Y-102750952D01*
X142870476Y-102893809D01*
X142918095Y-103084285D01*
X142965714Y-103179523D01*
X143060952Y-103274761D01*
X143203809Y-103322380D01*
X143441904Y-103322380D01*
X141775238Y-103417619D02*
X141870476Y-103370000D01*
X141965714Y-103274761D01*
X142108571Y-103131904D01*
X142203809Y-103084285D01*
X142299047Y-103084285D01*
X142251428Y-103322380D02*
X142346666Y-103274761D01*
X142441904Y-103179523D01*
X142489523Y-102989047D01*
X142489523Y-102655714D01*
X142441904Y-102465238D01*
X142346666Y-102370000D01*
X142251428Y-102322380D01*
X142060952Y-102322380D01*
X141965714Y-102370000D01*
X141870476Y-102465238D01*
X141822857Y-102655714D01*
X141822857Y-102989047D01*
X141870476Y-103179523D01*
X141965714Y-103274761D01*
X142060952Y-103322380D01*
X142251428Y-103322380D01*
X141203809Y-102322380D02*
X141108571Y-102322380D01*
X141013333Y-102370000D01*
X140965714Y-102417619D01*
X140918095Y-102512857D01*
X140870476Y-102703333D01*
X140870476Y-102941428D01*
X140918095Y-103131904D01*
X140965714Y-103227142D01*
X141013333Y-103274761D01*
X141108571Y-103322380D01*
X141203809Y-103322380D01*
X141299047Y-103274761D01*
X141346666Y-103227142D01*
X141394285Y-103131904D01*
X141441904Y-102941428D01*
X141441904Y-102703333D01*
X141394285Y-102512857D01*
X141346666Y-102417619D01*
X141299047Y-102370000D01*
X141203809Y-102322380D01*
X143441904Y-105862380D02*
X143441904Y-104862380D01*
X143203809Y-104862380D01*
X143060952Y-104910000D01*
X142965714Y-105005238D01*
X142918095Y-105100476D01*
X142870476Y-105290952D01*
X142870476Y-105433809D01*
X142918095Y-105624285D01*
X142965714Y-105719523D01*
X143060952Y-105814761D01*
X143203809Y-105862380D01*
X143441904Y-105862380D01*
X141775238Y-105957619D02*
X141870476Y-105910000D01*
X141965714Y-105814761D01*
X142108571Y-105671904D01*
X142203809Y-105624285D01*
X142299047Y-105624285D01*
X142251428Y-105862380D02*
X142346666Y-105814761D01*
X142441904Y-105719523D01*
X142489523Y-105529047D01*
X142489523Y-105195714D01*
X142441904Y-105005238D01*
X142346666Y-104910000D01*
X142251428Y-104862380D01*
X142060952Y-104862380D01*
X141965714Y-104910000D01*
X141870476Y-105005238D01*
X141822857Y-105195714D01*
X141822857Y-105529047D01*
X141870476Y-105719523D01*
X141965714Y-105814761D01*
X142060952Y-105862380D01*
X142251428Y-105862380D01*
X140870476Y-105862380D02*
X141441904Y-105862380D01*
X141156190Y-105862380D02*
X141156190Y-104862380D01*
X141251428Y-105005238D01*
X141346666Y-105100476D01*
X141441904Y-105148095D01*
X143441904Y-108402380D02*
X143441904Y-107402380D01*
X143203809Y-107402380D01*
X143060952Y-107450000D01*
X142965714Y-107545238D01*
X142918095Y-107640476D01*
X142870476Y-107830952D01*
X142870476Y-107973809D01*
X142918095Y-108164285D01*
X142965714Y-108259523D01*
X143060952Y-108354761D01*
X143203809Y-108402380D01*
X143441904Y-108402380D01*
X141775238Y-108497619D02*
X141870476Y-108450000D01*
X141965714Y-108354761D01*
X142108571Y-108211904D01*
X142203809Y-108164285D01*
X142299047Y-108164285D01*
X142251428Y-108402380D02*
X142346666Y-108354761D01*
X142441904Y-108259523D01*
X142489523Y-108069047D01*
X142489523Y-107735714D01*
X142441904Y-107545238D01*
X142346666Y-107450000D01*
X142251428Y-107402380D01*
X142060952Y-107402380D01*
X141965714Y-107450000D01*
X141870476Y-107545238D01*
X141822857Y-107735714D01*
X141822857Y-108069047D01*
X141870476Y-108259523D01*
X141965714Y-108354761D01*
X142060952Y-108402380D01*
X142251428Y-108402380D01*
X141441904Y-107497619D02*
X141394285Y-107450000D01*
X141299047Y-107402380D01*
X141060952Y-107402380D01*
X140965714Y-107450000D01*
X140918095Y-107497619D01*
X140870476Y-107592857D01*
X140870476Y-107688095D01*
X140918095Y-107830952D01*
X141489523Y-108402380D01*
X140870476Y-108402380D01*
X143322857Y-109942380D02*
X142989523Y-110942380D01*
X142656190Y-109942380D01*
X142370476Y-110894761D02*
X142275238Y-110942380D01*
X142084761Y-110942380D01*
X141989523Y-110894761D01*
X141941904Y-110799523D01*
X141941904Y-110751904D01*
X141989523Y-110656666D01*
X142084761Y-110609047D01*
X142227619Y-110609047D01*
X142322857Y-110561428D01*
X142370476Y-110466190D01*
X142370476Y-110418571D01*
X142322857Y-110323333D01*
X142227619Y-110275714D01*
X142084761Y-110275714D01*
X141989523Y-110323333D01*
X141560952Y-110894761D02*
X141465714Y-110942380D01*
X141275238Y-110942380D01*
X141180000Y-110894761D01*
X141132380Y-110799523D01*
X141132380Y-110751904D01*
X141180000Y-110656666D01*
X141275238Y-110609047D01*
X141418095Y-110609047D01*
X141513333Y-110561428D01*
X141560952Y-110466190D01*
X141560952Y-110418571D01*
X141513333Y-110323333D01*
X141418095Y-110275714D01*
X141275238Y-110275714D01*
X141180000Y-110323333D01*
X161281904Y-110942380D02*
X161281904Y-109942380D01*
X161043809Y-109942380D01*
X160900952Y-109990000D01*
X160805714Y-110085238D01*
X160758095Y-110180476D01*
X160710476Y-110370952D01*
X160710476Y-110513809D01*
X160758095Y-110704285D01*
X160805714Y-110799523D01*
X160900952Y-110894761D01*
X161043809Y-110942380D01*
X161281904Y-110942380D01*
X159615238Y-111037619D02*
X159710476Y-110990000D01*
X159805714Y-110894761D01*
X159948571Y-110751904D01*
X160043809Y-110704285D01*
X160139047Y-110704285D01*
X160091428Y-110942380D02*
X160186666Y-110894761D01*
X160281904Y-110799523D01*
X160329523Y-110609047D01*
X160329523Y-110275714D01*
X160281904Y-110085238D01*
X160186666Y-109990000D01*
X160091428Y-109942380D01*
X159900952Y-109942380D01*
X159805714Y-109990000D01*
X159710476Y-110085238D01*
X159662857Y-110275714D01*
X159662857Y-110609047D01*
X159710476Y-110799523D01*
X159805714Y-110894761D01*
X159900952Y-110942380D01*
X160091428Y-110942380D01*
X159329523Y-109942380D02*
X158710476Y-109942380D01*
X159043809Y-110323333D01*
X158900952Y-110323333D01*
X158805714Y-110370952D01*
X158758095Y-110418571D01*
X158710476Y-110513809D01*
X158710476Y-110751904D01*
X158758095Y-110847142D01*
X158805714Y-110894761D01*
X158900952Y-110942380D01*
X159186666Y-110942380D01*
X159281904Y-110894761D01*
X159329523Y-110847142D01*
X161281904Y-108402380D02*
X161281904Y-107402380D01*
X161043809Y-107402380D01*
X160900952Y-107450000D01*
X160805714Y-107545238D01*
X160758095Y-107640476D01*
X160710476Y-107830952D01*
X160710476Y-107973809D01*
X160758095Y-108164285D01*
X160805714Y-108259523D01*
X160900952Y-108354761D01*
X161043809Y-108402380D01*
X161281904Y-108402380D01*
X159615238Y-108497619D02*
X159710476Y-108450000D01*
X159805714Y-108354761D01*
X159948571Y-108211904D01*
X160043809Y-108164285D01*
X160139047Y-108164285D01*
X160091428Y-108402380D02*
X160186666Y-108354761D01*
X160281904Y-108259523D01*
X160329523Y-108069047D01*
X160329523Y-107735714D01*
X160281904Y-107545238D01*
X160186666Y-107450000D01*
X160091428Y-107402380D01*
X159900952Y-107402380D01*
X159805714Y-107450000D01*
X159710476Y-107545238D01*
X159662857Y-107735714D01*
X159662857Y-108069047D01*
X159710476Y-108259523D01*
X159805714Y-108354761D01*
X159900952Y-108402380D01*
X160091428Y-108402380D01*
X158805714Y-107735714D02*
X158805714Y-108402380D01*
X159043809Y-107354761D02*
X159281904Y-108069047D01*
X158662857Y-108069047D01*
X161281904Y-105862380D02*
X161281904Y-104862380D01*
X161043809Y-104862380D01*
X160900952Y-104910000D01*
X160805714Y-105005238D01*
X160758095Y-105100476D01*
X160710476Y-105290952D01*
X160710476Y-105433809D01*
X160758095Y-105624285D01*
X160805714Y-105719523D01*
X160900952Y-105814761D01*
X161043809Y-105862380D01*
X161281904Y-105862380D01*
X159615238Y-105957619D02*
X159710476Y-105910000D01*
X159805714Y-105814761D01*
X159948571Y-105671904D01*
X160043809Y-105624285D01*
X160139047Y-105624285D01*
X160091428Y-105862380D02*
X160186666Y-105814761D01*
X160281904Y-105719523D01*
X160329523Y-105529047D01*
X160329523Y-105195714D01*
X160281904Y-105005238D01*
X160186666Y-104910000D01*
X160091428Y-104862380D01*
X159900952Y-104862380D01*
X159805714Y-104910000D01*
X159710476Y-105005238D01*
X159662857Y-105195714D01*
X159662857Y-105529047D01*
X159710476Y-105719523D01*
X159805714Y-105814761D01*
X159900952Y-105862380D01*
X160091428Y-105862380D01*
X158758095Y-104862380D02*
X159234285Y-104862380D01*
X159281904Y-105338571D01*
X159234285Y-105290952D01*
X159139047Y-105243333D01*
X158900952Y-105243333D01*
X158805714Y-105290952D01*
X158758095Y-105338571D01*
X158710476Y-105433809D01*
X158710476Y-105671904D01*
X158758095Y-105767142D01*
X158805714Y-105814761D01*
X158900952Y-105862380D01*
X159139047Y-105862380D01*
X159234285Y-105814761D01*
X159281904Y-105767142D01*
X161281904Y-103322380D02*
X161281904Y-102322380D01*
X161043809Y-102322380D01*
X160900952Y-102370000D01*
X160805714Y-102465238D01*
X160758095Y-102560476D01*
X160710476Y-102750952D01*
X160710476Y-102893809D01*
X160758095Y-103084285D01*
X160805714Y-103179523D01*
X160900952Y-103274761D01*
X161043809Y-103322380D01*
X161281904Y-103322380D01*
X159615238Y-103417619D02*
X159710476Y-103370000D01*
X159805714Y-103274761D01*
X159948571Y-103131904D01*
X160043809Y-103084285D01*
X160139047Y-103084285D01*
X160091428Y-103322380D02*
X160186666Y-103274761D01*
X160281904Y-103179523D01*
X160329523Y-102989047D01*
X160329523Y-102655714D01*
X160281904Y-102465238D01*
X160186666Y-102370000D01*
X160091428Y-102322380D01*
X159900952Y-102322380D01*
X159805714Y-102370000D01*
X159710476Y-102465238D01*
X159662857Y-102655714D01*
X159662857Y-102989047D01*
X159710476Y-103179523D01*
X159805714Y-103274761D01*
X159900952Y-103322380D01*
X160091428Y-103322380D01*
X158805714Y-102322380D02*
X158996190Y-102322380D01*
X159091428Y-102370000D01*
X159139047Y-102417619D01*
X159234285Y-102560476D01*
X159281904Y-102750952D01*
X159281904Y-103131904D01*
X159234285Y-103227142D01*
X159186666Y-103274761D01*
X159091428Y-103322380D01*
X158900952Y-103322380D01*
X158805714Y-103274761D01*
X158758095Y-103227142D01*
X158710476Y-103131904D01*
X158710476Y-102893809D01*
X158758095Y-102798571D01*
X158805714Y-102750952D01*
X158900952Y-102703333D01*
X159091428Y-102703333D01*
X159186666Y-102750952D01*
X159234285Y-102798571D01*
X159281904Y-102893809D01*
X161281904Y-100782380D02*
X161281904Y-99782380D01*
X161043809Y-99782380D01*
X160900952Y-99830000D01*
X160805714Y-99925238D01*
X160758095Y-100020476D01*
X160710476Y-100210952D01*
X160710476Y-100353809D01*
X160758095Y-100544285D01*
X160805714Y-100639523D01*
X160900952Y-100734761D01*
X161043809Y-100782380D01*
X161281904Y-100782380D01*
X159615238Y-100877619D02*
X159710476Y-100830000D01*
X159805714Y-100734761D01*
X159948571Y-100591904D01*
X160043809Y-100544285D01*
X160139047Y-100544285D01*
X160091428Y-100782380D02*
X160186666Y-100734761D01*
X160281904Y-100639523D01*
X160329523Y-100449047D01*
X160329523Y-100115714D01*
X160281904Y-99925238D01*
X160186666Y-99830000D01*
X160091428Y-99782380D01*
X159900952Y-99782380D01*
X159805714Y-99830000D01*
X159710476Y-99925238D01*
X159662857Y-100115714D01*
X159662857Y-100449047D01*
X159710476Y-100639523D01*
X159805714Y-100734761D01*
X159900952Y-100782380D01*
X160091428Y-100782380D01*
X159329523Y-99782380D02*
X158662857Y-99782380D01*
X159091428Y-100782380D01*
X160234285Y-97718571D02*
X159900952Y-97718571D01*
X159758095Y-98242380D02*
X160234285Y-98242380D01*
X160234285Y-97242380D01*
X159758095Y-97242380D01*
X161210476Y-95416666D02*
X160734285Y-95416666D01*
X161305714Y-95702380D02*
X160972380Y-94702380D01*
X160639047Y-95702380D01*
X159781904Y-95702380D02*
X160353333Y-95702380D01*
X160067619Y-95702380D02*
X160067619Y-94702380D01*
X160162857Y-94845238D01*
X160258095Y-94940476D01*
X160353333Y-94988095D01*
X159162857Y-94702380D02*
X159067619Y-94702380D01*
X158972380Y-94750000D01*
X158924761Y-94797619D01*
X158877142Y-94892857D01*
X158829523Y-95083333D01*
X158829523Y-95321428D01*
X158877142Y-95511904D01*
X158924761Y-95607142D01*
X158972380Y-95654761D01*
X159067619Y-95702380D01*
X159162857Y-95702380D01*
X159258095Y-95654761D01*
X159305714Y-95607142D01*
X159353333Y-95511904D01*
X159400952Y-95321428D01*
X159400952Y-95083333D01*
X159353333Y-94892857D01*
X159305714Y-94797619D01*
X159258095Y-94750000D01*
X159162857Y-94702380D01*
X159758095Y-92210000D02*
X159853333Y-92162380D01*
X159996190Y-92162380D01*
X160139047Y-92210000D01*
X160234285Y-92305238D01*
X160281904Y-92400476D01*
X160329523Y-92590952D01*
X160329523Y-92733809D01*
X160281904Y-92924285D01*
X160234285Y-93019523D01*
X160139047Y-93114761D01*
X159996190Y-93162380D01*
X159900952Y-93162380D01*
X159758095Y-93114761D01*
X159710476Y-93067142D01*
X159710476Y-92733809D01*
X159900952Y-92733809D01*
X161210476Y-90336666D02*
X160734285Y-90336666D01*
X161305714Y-90622380D02*
X160972380Y-89622380D01*
X160639047Y-90622380D01*
X159781904Y-90622380D02*
X160353333Y-90622380D01*
X160067619Y-90622380D02*
X160067619Y-89622380D01*
X160162857Y-89765238D01*
X160258095Y-89860476D01*
X160353333Y-89908095D01*
X158829523Y-90622380D02*
X159400952Y-90622380D01*
X159115238Y-90622380D02*
X159115238Y-89622380D01*
X159210476Y-89765238D01*
X159305714Y-89860476D01*
X159400952Y-89908095D01*
X160734285Y-87796666D02*
X160258095Y-87796666D01*
X160829523Y-88082380D02*
X160496190Y-87082380D01*
X160162857Y-88082380D01*
X159781904Y-88082380D02*
X159591428Y-88082380D01*
X159496190Y-88034761D01*
X159448571Y-87987142D01*
X159353333Y-87844285D01*
X159305714Y-87653809D01*
X159305714Y-87272857D01*
X159353333Y-87177619D01*
X159400952Y-87130000D01*
X159496190Y-87082380D01*
X159686666Y-87082380D01*
X159781904Y-87130000D01*
X159829523Y-87177619D01*
X159877142Y-87272857D01*
X159877142Y-87510952D01*
X159829523Y-87606190D01*
X159781904Y-87653809D01*
X159686666Y-87701428D01*
X159496190Y-87701428D01*
X159400952Y-87653809D01*
X159353333Y-87606190D01*
X159305714Y-87510952D01*
X160734285Y-85256666D02*
X160258095Y-85256666D01*
X160829523Y-85542380D02*
X160496190Y-84542380D01*
X160162857Y-85542380D01*
X159686666Y-84970952D02*
X159781904Y-84923333D01*
X159829523Y-84875714D01*
X159877142Y-84780476D01*
X159877142Y-84732857D01*
X159829523Y-84637619D01*
X159781904Y-84590000D01*
X159686666Y-84542380D01*
X159496190Y-84542380D01*
X159400952Y-84590000D01*
X159353333Y-84637619D01*
X159305714Y-84732857D01*
X159305714Y-84780476D01*
X159353333Y-84875714D01*
X159400952Y-84923333D01*
X159496190Y-84970952D01*
X159686666Y-84970952D01*
X159781904Y-85018571D01*
X159829523Y-85066190D01*
X159877142Y-85161428D01*
X159877142Y-85351904D01*
X159829523Y-85447142D01*
X159781904Y-85494761D01*
X159686666Y-85542380D01*
X159496190Y-85542380D01*
X159400952Y-85494761D01*
X159353333Y-85447142D01*
X159305714Y-85351904D01*
X159305714Y-85161428D01*
X159353333Y-85066190D01*
X159400952Y-85018571D01*
X159496190Y-84970952D01*
X161043809Y-83002380D02*
X161043809Y-82002380D01*
X159996190Y-83002380D02*
X160329523Y-82526190D01*
X160567619Y-83002380D02*
X160567619Y-82002380D01*
X160186666Y-82002380D01*
X160091428Y-82050000D01*
X160043809Y-82097619D01*
X159996190Y-82192857D01*
X159996190Y-82335714D01*
X160043809Y-82430952D01*
X160091428Y-82478571D01*
X160186666Y-82526190D01*
X160567619Y-82526190D01*
X158900952Y-83097619D02*
X158996190Y-83050000D01*
X159091428Y-82954761D01*
X159234285Y-82811904D01*
X159329523Y-82764285D01*
X159424761Y-82764285D01*
X159377142Y-83002380D02*
X159472380Y-82954761D01*
X159567619Y-82859523D01*
X159615238Y-82669047D01*
X159615238Y-82335714D01*
X159567619Y-82145238D01*
X159472380Y-82050000D01*
X159377142Y-82002380D01*
X159186666Y-82002380D01*
X159091428Y-82050000D01*
X158996190Y-82145238D01*
X158948571Y-82335714D01*
X158948571Y-82669047D01*
X158996190Y-82859523D01*
X159091428Y-82954761D01*
X159186666Y-83002380D01*
X159377142Y-83002380D01*
X160448571Y-79462380D02*
X160210476Y-80462380D01*
X160020000Y-79748095D01*
X159829523Y-80462380D01*
X159591428Y-79462380D01*
X161210476Y-76922380D02*
X160877142Y-77922380D01*
X160543809Y-76922380D01*
X159781904Y-77874761D02*
X159877142Y-77922380D01*
X160067619Y-77922380D01*
X160162857Y-77874761D01*
X160210476Y-77827142D01*
X160258095Y-77731904D01*
X160258095Y-77446190D01*
X160210476Y-77350952D01*
X160162857Y-77303333D01*
X160067619Y-77255714D01*
X159877142Y-77255714D01*
X159781904Y-77303333D01*
X158924761Y-77874761D02*
X159020000Y-77922380D01*
X159210476Y-77922380D01*
X159305714Y-77874761D01*
X159353333Y-77827142D01*
X159400952Y-77731904D01*
X159400952Y-77446190D01*
X159353333Y-77350952D01*
X159305714Y-77303333D01*
X159210476Y-77255714D01*
X159020000Y-77255714D01*
X158924761Y-77303333D01*
D10*
X154147619Y-103322380D02*
X154147619Y-102322380D01*
X153814285Y-103036666D01*
X153480952Y-102322380D01*
X153480952Y-103322380D01*
X152576190Y-102655714D02*
X152576190Y-103322380D01*
X152814285Y-102274761D02*
X153052380Y-102989047D01*
X152433333Y-102989047D01*
X151909523Y-102750952D02*
X152004761Y-102703333D01*
X152052380Y-102655714D01*
X152100000Y-102560476D01*
X152100000Y-102512857D01*
X152052380Y-102417619D01*
X152004761Y-102370000D01*
X151909523Y-102322380D01*
X151719047Y-102322380D01*
X151623809Y-102370000D01*
X151576190Y-102417619D01*
X151528571Y-102512857D01*
X151528571Y-102560476D01*
X151576190Y-102655714D01*
X151623809Y-102703333D01*
X151719047Y-102750952D01*
X151909523Y-102750952D01*
X152004761Y-102798571D01*
X152052380Y-102846190D01*
X152100000Y-102941428D01*
X152100000Y-103131904D01*
X152052380Y-103227142D01*
X152004761Y-103274761D01*
X151909523Y-103322380D01*
X151719047Y-103322380D01*
X151623809Y-103274761D01*
X151576190Y-103227142D01*
X151528571Y-103131904D01*
X151528571Y-102941428D01*
X151576190Y-102846190D01*
X151623809Y-102798571D01*
X151719047Y-102750952D01*
X151242857Y-102322380D02*
X150671428Y-102322380D01*
X150957142Y-103322380D02*
X150957142Y-102322380D01*
X149861904Y-102322380D02*
X150338095Y-102322380D01*
X150385714Y-102798571D01*
X150338095Y-102750952D01*
X150242857Y-102703333D01*
X150004761Y-102703333D01*
X149909523Y-102750952D01*
X149861904Y-102798571D01*
X149814285Y-102893809D01*
X149814285Y-103131904D01*
X149861904Y-103227142D01*
X149909523Y-103274761D01*
X150004761Y-103322380D01*
X150242857Y-103322380D01*
X150338095Y-103274761D01*
X150385714Y-103227142D01*
X149338095Y-103322380D02*
X149147619Y-103322380D01*
X149052380Y-103274761D01*
X149004761Y-103227142D01*
X148909523Y-103084285D01*
X148861904Y-102893809D01*
X148861904Y-102512857D01*
X148909523Y-102417619D01*
X148957142Y-102370000D01*
X149052380Y-102322380D01*
X149242857Y-102322380D01*
X149338095Y-102370000D01*
X149385714Y-102417619D01*
X149433333Y-102512857D01*
X149433333Y-102750952D01*
X149385714Y-102846190D01*
X149338095Y-102893809D01*
X149242857Y-102941428D01*
X149052380Y-102941428D01*
X148957142Y-102893809D01*
X148909523Y-102846190D01*
X148861904Y-102750952D01*
X148242857Y-102846190D02*
X148242857Y-103322380D01*
X148576190Y-102322380D02*
X148242857Y-102846190D01*
X147909523Y-102322380D01*
X153242857Y-105227380D02*
X153242857Y-104227380D01*
X152861904Y-104227380D01*
X152766666Y-104275000D01*
X152719047Y-104322619D01*
X152671428Y-104417857D01*
X152671428Y-104560714D01*
X152719047Y-104655952D01*
X152766666Y-104703571D01*
X152861904Y-104751190D01*
X153242857Y-104751190D01*
X152242857Y-105227380D02*
X152242857Y-104560714D01*
X152242857Y-104227380D02*
X152290476Y-104275000D01*
X152242857Y-104322619D01*
X152195238Y-104275000D01*
X152242857Y-104227380D01*
X152242857Y-104322619D01*
X151766666Y-104560714D02*
X151766666Y-105227380D01*
X151766666Y-104655952D02*
X151719047Y-104608333D01*
X151623809Y-104560714D01*
X151480952Y-104560714D01*
X151385714Y-104608333D01*
X151338095Y-104703571D01*
X151338095Y-105227380D01*
X150719047Y-105227380D02*
X150814285Y-105179761D01*
X150861904Y-105132142D01*
X150909523Y-105036904D01*
X150909523Y-104751190D01*
X150861904Y-104655952D01*
X150814285Y-104608333D01*
X150719047Y-104560714D01*
X150576190Y-104560714D01*
X150480952Y-104608333D01*
X150433333Y-104655952D01*
X150385714Y-104751190D01*
X150385714Y-105036904D01*
X150433333Y-105132142D01*
X150480952Y-105179761D01*
X150576190Y-105227380D01*
X150719047Y-105227380D01*
X149528571Y-104560714D02*
X149528571Y-105227380D01*
X149957142Y-104560714D02*
X149957142Y-105084523D01*
X149909523Y-105179761D01*
X149814285Y-105227380D01*
X149671428Y-105227380D01*
X149576190Y-105179761D01*
X149528571Y-105132142D01*
X149195238Y-104560714D02*
X148814285Y-104560714D01*
X149052380Y-104227380D02*
X149052380Y-105084523D01*
X149004761Y-105179761D01*
X148909523Y-105227380D01*
X148814285Y-105227380D01*
%TD*%
M02*
