%TF.GenerationSoftware,KiCad,Pcbnew,(5.1.8)-1*%
%TF.CreationDate,2021-05-04T01:41:37-06:00*%
%TF.ProjectId,NVRTC,4e565254-432e-46b6-9963-61645f706362,rev?*%
%TF.SameCoordinates,Original*%
%TF.FileFunction,Legend,Top*%
%TF.FilePolarity,Positive*%
%FSLAX46Y46*%
G04 Gerber Fmt 4.6, Leading zero omitted, Abs format (unit mm)*
G04 Created by KiCad (PCBNEW (5.1.8)-1) date 2021-05-04 01:41:37*
%MOMM*%
%LPD*%
G01*
G04 APERTURE LIST*
%ADD10C,0.150000*%
%ADD11C,0.100000*%
%ADD12C,0.152400*%
%ADD13C,0.120000*%
%ADD14C,0.080000*%
G04 APERTURE END LIST*
D10*
X149154047Y-109672380D02*
X149154047Y-108672380D01*
X149392142Y-108672380D01*
X149535000Y-108720000D01*
X149630238Y-108815238D01*
X149677857Y-108910476D01*
X149725476Y-109100952D01*
X149725476Y-109243809D01*
X149677857Y-109434285D01*
X149630238Y-109529523D01*
X149535000Y-109624761D01*
X149392142Y-109672380D01*
X149154047Y-109672380D01*
X150535000Y-109624761D02*
X150439761Y-109672380D01*
X150249285Y-109672380D01*
X150154047Y-109624761D01*
X150106428Y-109529523D01*
X150106428Y-109148571D01*
X150154047Y-109053333D01*
X150249285Y-109005714D01*
X150439761Y-109005714D01*
X150535000Y-109053333D01*
X150582619Y-109148571D01*
X150582619Y-109243809D01*
X150106428Y-109339047D01*
X151439761Y-109624761D02*
X151344523Y-109672380D01*
X151154047Y-109672380D01*
X151058809Y-109624761D01*
X151011190Y-109577142D01*
X150963571Y-109481904D01*
X150963571Y-109196190D01*
X151011190Y-109100952D01*
X151058809Y-109053333D01*
X151154047Y-109005714D01*
X151344523Y-109005714D01*
X151439761Y-109053333D01*
X152011190Y-109672380D02*
X151915952Y-109624761D01*
X151868333Y-109577142D01*
X151820714Y-109481904D01*
X151820714Y-109196190D01*
X151868333Y-109100952D01*
X151915952Y-109053333D01*
X152011190Y-109005714D01*
X152154047Y-109005714D01*
X152249285Y-109053333D01*
X152296904Y-109100952D01*
X152344523Y-109196190D01*
X152344523Y-109481904D01*
X152296904Y-109577142D01*
X152249285Y-109624761D01*
X152154047Y-109672380D01*
X152011190Y-109672380D01*
X153201666Y-109005714D02*
X153201666Y-109672380D01*
X152773095Y-109005714D02*
X152773095Y-109529523D01*
X152820714Y-109624761D01*
X152915952Y-109672380D01*
X153058809Y-109672380D01*
X153154047Y-109624761D01*
X153201666Y-109577142D01*
X153677857Y-109005714D02*
X153677857Y-110005714D01*
X153677857Y-109053333D02*
X153773095Y-109005714D01*
X153963571Y-109005714D01*
X154058809Y-109053333D01*
X154106428Y-109100952D01*
X154154047Y-109196190D01*
X154154047Y-109481904D01*
X154106428Y-109577142D01*
X154058809Y-109624761D01*
X153963571Y-109672380D01*
X153773095Y-109672380D01*
X153677857Y-109624761D01*
X154725476Y-109672380D02*
X154630238Y-109624761D01*
X154582619Y-109529523D01*
X154582619Y-108672380D01*
X155106428Y-109672380D02*
X155106428Y-109005714D01*
X155106428Y-108672380D02*
X155058809Y-108720000D01*
X155106428Y-108767619D01*
X155154047Y-108720000D01*
X155106428Y-108672380D01*
X155106428Y-108767619D01*
X155582619Y-109005714D02*
X155582619Y-109672380D01*
X155582619Y-109100952D02*
X155630238Y-109053333D01*
X155725476Y-109005714D01*
X155868333Y-109005714D01*
X155963571Y-109053333D01*
X156011190Y-109148571D01*
X156011190Y-109672380D01*
X156915952Y-109005714D02*
X156915952Y-109815238D01*
X156868333Y-109910476D01*
X156820714Y-109958095D01*
X156725476Y-110005714D01*
X156582619Y-110005714D01*
X156487380Y-109958095D01*
X156915952Y-109624761D02*
X156820714Y-109672380D01*
X156630238Y-109672380D01*
X156535000Y-109624761D01*
X156487380Y-109577142D01*
X156439761Y-109481904D01*
X156439761Y-109196190D01*
X156487380Y-109100952D01*
X156535000Y-109053333D01*
X156630238Y-109005714D01*
X156820714Y-109005714D01*
X156915952Y-109053333D01*
D11*
X145348571Y-75291785D02*
X145098571Y-74934642D01*
X144920000Y-75291785D02*
X144920000Y-74541785D01*
X145205714Y-74541785D01*
X145277142Y-74577500D01*
X145312857Y-74613214D01*
X145348571Y-74684642D01*
X145348571Y-74791785D01*
X145312857Y-74863214D01*
X145277142Y-74898928D01*
X145205714Y-74934642D01*
X144920000Y-74934642D01*
X145955714Y-75256071D02*
X145884285Y-75291785D01*
X145741428Y-75291785D01*
X145670000Y-75256071D01*
X145634285Y-75184642D01*
X145634285Y-74898928D01*
X145670000Y-74827500D01*
X145741428Y-74791785D01*
X145884285Y-74791785D01*
X145955714Y-74827500D01*
X145991428Y-74898928D01*
X145991428Y-74970357D01*
X145634285Y-75041785D01*
X146634285Y-75291785D02*
X146634285Y-74898928D01*
X146598571Y-74827500D01*
X146527142Y-74791785D01*
X146384285Y-74791785D01*
X146312857Y-74827500D01*
X146634285Y-75256071D02*
X146562857Y-75291785D01*
X146384285Y-75291785D01*
X146312857Y-75256071D01*
X146277142Y-75184642D01*
X146277142Y-75113214D01*
X146312857Y-75041785D01*
X146384285Y-75006071D01*
X146562857Y-75006071D01*
X146634285Y-74970357D01*
X147098571Y-75291785D02*
X147027142Y-75256071D01*
X146991428Y-75184642D01*
X146991428Y-74541785D01*
X147848571Y-74541785D02*
X148277142Y-74541785D01*
X148062857Y-75291785D02*
X148062857Y-74541785D01*
X148527142Y-75291785D02*
X148527142Y-74791785D01*
X148527142Y-74541785D02*
X148491428Y-74577500D01*
X148527142Y-74613214D01*
X148562857Y-74577500D01*
X148527142Y-74541785D01*
X148527142Y-74613214D01*
X148884285Y-75291785D02*
X148884285Y-74791785D01*
X148884285Y-74863214D02*
X148920000Y-74827500D01*
X148991428Y-74791785D01*
X149098571Y-74791785D01*
X149170000Y-74827500D01*
X149205714Y-74898928D01*
X149205714Y-75291785D01*
X149205714Y-74898928D02*
X149241428Y-74827500D01*
X149312857Y-74791785D01*
X149420000Y-74791785D01*
X149491428Y-74827500D01*
X149527142Y-74898928D01*
X149527142Y-75291785D01*
X150170000Y-75256071D02*
X150098571Y-75291785D01*
X149955714Y-75291785D01*
X149884285Y-75256071D01*
X149848571Y-75184642D01*
X149848571Y-74898928D01*
X149884285Y-74827500D01*
X149955714Y-74791785D01*
X150098571Y-74791785D01*
X150170000Y-74827500D01*
X150205714Y-74898928D01*
X150205714Y-74970357D01*
X149848571Y-75041785D01*
X151527142Y-75220357D02*
X151491428Y-75256071D01*
X151384285Y-75291785D01*
X151312857Y-75291785D01*
X151205714Y-75256071D01*
X151134285Y-75184642D01*
X151098571Y-75113214D01*
X151062857Y-74970357D01*
X151062857Y-74863214D01*
X151098571Y-74720357D01*
X151134285Y-74648928D01*
X151205714Y-74577500D01*
X151312857Y-74541785D01*
X151384285Y-74541785D01*
X151491428Y-74577500D01*
X151527142Y-74613214D01*
X151955714Y-75291785D02*
X151884285Y-75256071D01*
X151848571Y-75184642D01*
X151848571Y-74541785D01*
X152348571Y-75291785D02*
X152277142Y-75256071D01*
X152241428Y-75220357D01*
X152205714Y-75148928D01*
X152205714Y-74934642D01*
X152241428Y-74863214D01*
X152277142Y-74827500D01*
X152348571Y-74791785D01*
X152455714Y-74791785D01*
X152527142Y-74827500D01*
X152562857Y-74863214D01*
X152598571Y-74934642D01*
X152598571Y-75148928D01*
X152562857Y-75220357D01*
X152527142Y-75256071D01*
X152455714Y-75291785D01*
X152348571Y-75291785D01*
X153241428Y-75256071D02*
X153170000Y-75291785D01*
X153027142Y-75291785D01*
X152955714Y-75256071D01*
X152920000Y-75220357D01*
X152884285Y-75148928D01*
X152884285Y-74934642D01*
X152920000Y-74863214D01*
X152955714Y-74827500D01*
X153027142Y-74791785D01*
X153170000Y-74791785D01*
X153241428Y-74827500D01*
X153562857Y-75291785D02*
X153562857Y-74541785D01*
X153634285Y-75006071D02*
X153848571Y-75291785D01*
X153848571Y-74791785D02*
X153562857Y-75077500D01*
X154634285Y-74791785D02*
X154920000Y-74791785D01*
X154741428Y-75291785D02*
X154741428Y-74648928D01*
X154777142Y-74577500D01*
X154848571Y-74541785D01*
X154920000Y-74541785D01*
X155277142Y-75291785D02*
X155205714Y-75256071D01*
X155170000Y-75220357D01*
X155134285Y-75148928D01*
X155134285Y-74934642D01*
X155170000Y-74863214D01*
X155205714Y-74827500D01*
X155277142Y-74791785D01*
X155384285Y-74791785D01*
X155455714Y-74827500D01*
X155491428Y-74863214D01*
X155527142Y-74934642D01*
X155527142Y-75148928D01*
X155491428Y-75220357D01*
X155455714Y-75256071D01*
X155384285Y-75291785D01*
X155277142Y-75291785D01*
X155848571Y-75291785D02*
X155848571Y-74791785D01*
X155848571Y-74934642D02*
X155884285Y-74863214D01*
X155920000Y-74827500D01*
X155991428Y-74791785D01*
X156062857Y-74791785D01*
X157241428Y-75291785D02*
X156884285Y-75291785D01*
X156884285Y-74541785D01*
X157777142Y-75256071D02*
X157705714Y-75291785D01*
X157562857Y-75291785D01*
X157491428Y-75256071D01*
X157455714Y-75184642D01*
X157455714Y-74898928D01*
X157491428Y-74827500D01*
X157562857Y-74791785D01*
X157705714Y-74791785D01*
X157777142Y-74827500D01*
X157812857Y-74898928D01*
X157812857Y-74970357D01*
X157455714Y-75041785D01*
X158455714Y-74791785D02*
X158455714Y-75398928D01*
X158420000Y-75470357D01*
X158384285Y-75506071D01*
X158312857Y-75541785D01*
X158205714Y-75541785D01*
X158134285Y-75506071D01*
X158455714Y-75256071D02*
X158384285Y-75291785D01*
X158241428Y-75291785D01*
X158170000Y-75256071D01*
X158134285Y-75220357D01*
X158098571Y-75148928D01*
X158098571Y-74934642D01*
X158134285Y-74863214D01*
X158170000Y-74827500D01*
X158241428Y-74791785D01*
X158384285Y-74791785D01*
X158455714Y-74827500D01*
X159134285Y-75291785D02*
X159134285Y-74898928D01*
X159098571Y-74827500D01*
X159027142Y-74791785D01*
X158884285Y-74791785D01*
X158812857Y-74827500D01*
X159134285Y-75256071D02*
X159062857Y-75291785D01*
X158884285Y-75291785D01*
X158812857Y-75256071D01*
X158777142Y-75184642D01*
X158777142Y-75113214D01*
X158812857Y-75041785D01*
X158884285Y-75006071D01*
X159062857Y-75006071D01*
X159134285Y-74970357D01*
X159812857Y-75256071D02*
X159741428Y-75291785D01*
X159598571Y-75291785D01*
X159527142Y-75256071D01*
X159491428Y-75220357D01*
X159455714Y-75148928D01*
X159455714Y-74934642D01*
X159491428Y-74863214D01*
X159527142Y-74827500D01*
X159598571Y-74791785D01*
X159741428Y-74791785D01*
X159812857Y-74827500D01*
X160062857Y-74791785D02*
X160241428Y-75291785D01*
X160420000Y-74791785D02*
X160241428Y-75291785D01*
X160170000Y-75470357D01*
X160134285Y-75506071D01*
X160062857Y-75541785D01*
X161241428Y-75256071D02*
X161348571Y-75291785D01*
X161527142Y-75291785D01*
X161598571Y-75256071D01*
X161634285Y-75220357D01*
X161670000Y-75148928D01*
X161670000Y-75077500D01*
X161634285Y-75006071D01*
X161598571Y-74970357D01*
X161527142Y-74934642D01*
X161384285Y-74898928D01*
X161312857Y-74863214D01*
X161277142Y-74827500D01*
X161241428Y-74756071D01*
X161241428Y-74684642D01*
X161277142Y-74613214D01*
X161312857Y-74577500D01*
X161384285Y-74541785D01*
X161562857Y-74541785D01*
X161670000Y-74577500D01*
X161920000Y-74791785D02*
X162098571Y-75291785D01*
X162277142Y-74791785D02*
X162098571Y-75291785D01*
X162027142Y-75470357D01*
X161991428Y-75506071D01*
X161920000Y-75541785D01*
X162527142Y-75256071D02*
X162598571Y-75291785D01*
X162741428Y-75291785D01*
X162812857Y-75256071D01*
X162848571Y-75184642D01*
X162848571Y-75148928D01*
X162812857Y-75077500D01*
X162741428Y-75041785D01*
X162634285Y-75041785D01*
X162562857Y-75006071D01*
X162527142Y-74934642D01*
X162527142Y-74898928D01*
X162562857Y-74827500D01*
X162634285Y-74791785D01*
X162741428Y-74791785D01*
X162812857Y-74827500D01*
X163062857Y-74791785D02*
X163348571Y-74791785D01*
X163170000Y-74541785D02*
X163170000Y-75184642D01*
X163205714Y-75256071D01*
X163277142Y-75291785D01*
X163348571Y-75291785D01*
X163884285Y-75256071D02*
X163812857Y-75291785D01*
X163670000Y-75291785D01*
X163598571Y-75256071D01*
X163562857Y-75184642D01*
X163562857Y-74898928D01*
X163598571Y-74827500D01*
X163670000Y-74791785D01*
X163812857Y-74791785D01*
X163884285Y-74827500D01*
X163920000Y-74898928D01*
X163920000Y-74970357D01*
X163562857Y-75041785D01*
X164241428Y-75291785D02*
X164241428Y-74791785D01*
X164241428Y-74863214D02*
X164277142Y-74827500D01*
X164348571Y-74791785D01*
X164455714Y-74791785D01*
X164527142Y-74827500D01*
X164562857Y-74898928D01*
X164562857Y-75291785D01*
X164562857Y-74898928D02*
X164598571Y-74827500D01*
X164670000Y-74791785D01*
X164777142Y-74791785D01*
X164848571Y-74827500D01*
X164884285Y-74898928D01*
X164884285Y-75291785D01*
X165205714Y-75256071D02*
X165277142Y-75291785D01*
X165420000Y-75291785D01*
X165491428Y-75256071D01*
X165527142Y-75184642D01*
X165527142Y-75148928D01*
X165491428Y-75077500D01*
X165420000Y-75041785D01*
X165312857Y-75041785D01*
X165241428Y-75006071D01*
X165205714Y-74934642D01*
X165205714Y-74898928D01*
X165241428Y-74827500D01*
X165312857Y-74791785D01*
X165420000Y-74791785D01*
X165491428Y-74827500D01*
X147705714Y-76516785D02*
X147705714Y-75766785D01*
X147955714Y-76302500D01*
X148205714Y-75766785D01*
X148205714Y-76516785D01*
X148884285Y-76016785D02*
X148884285Y-76516785D01*
X148705714Y-75731071D02*
X148527142Y-76266785D01*
X148991428Y-76266785D01*
X149384285Y-76088214D02*
X149312857Y-76052500D01*
X149277142Y-76016785D01*
X149241428Y-75945357D01*
X149241428Y-75909642D01*
X149277142Y-75838214D01*
X149312857Y-75802500D01*
X149384285Y-75766785D01*
X149527142Y-75766785D01*
X149598571Y-75802500D01*
X149634285Y-75838214D01*
X149670000Y-75909642D01*
X149670000Y-75945357D01*
X149634285Y-76016785D01*
X149598571Y-76052500D01*
X149527142Y-76088214D01*
X149384285Y-76088214D01*
X149312857Y-76123928D01*
X149277142Y-76159642D01*
X149241428Y-76231071D01*
X149241428Y-76373928D01*
X149277142Y-76445357D01*
X149312857Y-76481071D01*
X149384285Y-76516785D01*
X149527142Y-76516785D01*
X149598571Y-76481071D01*
X149634285Y-76445357D01*
X149670000Y-76373928D01*
X149670000Y-76231071D01*
X149634285Y-76159642D01*
X149598571Y-76123928D01*
X149527142Y-76088214D01*
X149884285Y-75766785D02*
X150312857Y-75766785D01*
X150098571Y-76516785D02*
X150098571Y-75766785D01*
X150920000Y-75766785D02*
X150562857Y-75766785D01*
X150527142Y-76123928D01*
X150562857Y-76088214D01*
X150634285Y-76052500D01*
X150812857Y-76052500D01*
X150884285Y-76088214D01*
X150920000Y-76123928D01*
X150955714Y-76195357D01*
X150955714Y-76373928D01*
X150920000Y-76445357D01*
X150884285Y-76481071D01*
X150812857Y-76516785D01*
X150634285Y-76516785D01*
X150562857Y-76481071D01*
X150527142Y-76445357D01*
X151312857Y-76516785D02*
X151455714Y-76516785D01*
X151527142Y-76481071D01*
X151562857Y-76445357D01*
X151634285Y-76338214D01*
X151670000Y-76195357D01*
X151670000Y-75909642D01*
X151634285Y-75838214D01*
X151598571Y-75802500D01*
X151527142Y-75766785D01*
X151384285Y-75766785D01*
X151312857Y-75802500D01*
X151277142Y-75838214D01*
X151241428Y-75909642D01*
X151241428Y-76088214D01*
X151277142Y-76159642D01*
X151312857Y-76195357D01*
X151384285Y-76231071D01*
X151527142Y-76231071D01*
X151598571Y-76195357D01*
X151634285Y-76159642D01*
X151670000Y-76088214D01*
X152134285Y-76159642D02*
X152134285Y-76516785D01*
X151884285Y-75766785D02*
X152134285Y-76159642D01*
X152384285Y-75766785D01*
X153634285Y-76516785D02*
X153384285Y-76159642D01*
X153205714Y-76516785D02*
X153205714Y-75766785D01*
X153491428Y-75766785D01*
X153562857Y-75802500D01*
X153598571Y-75838214D01*
X153634285Y-75909642D01*
X153634285Y-76016785D01*
X153598571Y-76088214D01*
X153562857Y-76123928D01*
X153491428Y-76159642D01*
X153205714Y-76159642D01*
X154241428Y-76481071D02*
X154170000Y-76516785D01*
X154027142Y-76516785D01*
X153955714Y-76481071D01*
X153920000Y-76409642D01*
X153920000Y-76123928D01*
X153955714Y-76052500D01*
X154027142Y-76016785D01*
X154170000Y-76016785D01*
X154241428Y-76052500D01*
X154277142Y-76123928D01*
X154277142Y-76195357D01*
X153920000Y-76266785D01*
X154598571Y-76016785D02*
X154598571Y-76766785D01*
X154598571Y-76052500D02*
X154670000Y-76016785D01*
X154812857Y-76016785D01*
X154884285Y-76052500D01*
X154920000Y-76088214D01*
X154955714Y-76159642D01*
X154955714Y-76373928D01*
X154920000Y-76445357D01*
X154884285Y-76481071D01*
X154812857Y-76516785D01*
X154670000Y-76516785D01*
X154598571Y-76481071D01*
X155384285Y-76516785D02*
X155312857Y-76481071D01*
X155277142Y-76409642D01*
X155277142Y-75766785D01*
X155991428Y-76516785D02*
X155991428Y-76123928D01*
X155955714Y-76052500D01*
X155884285Y-76016785D01*
X155741428Y-76016785D01*
X155670000Y-76052500D01*
X155991428Y-76481071D02*
X155920000Y-76516785D01*
X155741428Y-76516785D01*
X155670000Y-76481071D01*
X155634285Y-76409642D01*
X155634285Y-76338214D01*
X155670000Y-76266785D01*
X155741428Y-76231071D01*
X155920000Y-76231071D01*
X155991428Y-76195357D01*
X156670000Y-76481071D02*
X156598571Y-76516785D01*
X156455714Y-76516785D01*
X156384285Y-76481071D01*
X156348571Y-76445357D01*
X156312857Y-76373928D01*
X156312857Y-76159642D01*
X156348571Y-76088214D01*
X156384285Y-76052500D01*
X156455714Y-76016785D01*
X156598571Y-76016785D01*
X156670000Y-76052500D01*
X157277142Y-76481071D02*
X157205714Y-76516785D01*
X157062857Y-76516785D01*
X156991428Y-76481071D01*
X156955714Y-76409642D01*
X156955714Y-76123928D01*
X156991428Y-76052500D01*
X157062857Y-76016785D01*
X157205714Y-76016785D01*
X157277142Y-76052500D01*
X157312857Y-76123928D01*
X157312857Y-76195357D01*
X156955714Y-76266785D01*
X157634285Y-76516785D02*
X157634285Y-76016785D01*
X157634285Y-76088214D02*
X157670000Y-76052500D01*
X157741428Y-76016785D01*
X157848571Y-76016785D01*
X157920000Y-76052500D01*
X157955714Y-76123928D01*
X157955714Y-76516785D01*
X157955714Y-76123928D02*
X157991428Y-76052500D01*
X158062857Y-76016785D01*
X158170000Y-76016785D01*
X158241428Y-76052500D01*
X158277142Y-76123928D01*
X158277142Y-76516785D01*
X158920000Y-76481071D02*
X158848571Y-76516785D01*
X158705714Y-76516785D01*
X158634285Y-76481071D01*
X158598571Y-76409642D01*
X158598571Y-76123928D01*
X158634285Y-76052500D01*
X158705714Y-76016785D01*
X158848571Y-76016785D01*
X158920000Y-76052500D01*
X158955714Y-76123928D01*
X158955714Y-76195357D01*
X158598571Y-76266785D01*
X159277142Y-76016785D02*
X159277142Y-76516785D01*
X159277142Y-76088214D02*
X159312857Y-76052500D01*
X159384285Y-76016785D01*
X159491428Y-76016785D01*
X159562857Y-76052500D01*
X159598571Y-76123928D01*
X159598571Y-76516785D01*
X159848571Y-76016785D02*
X160134285Y-76016785D01*
X159955714Y-75766785D02*
X159955714Y-76409642D01*
X159991428Y-76481071D01*
X160062857Y-76516785D01*
X160134285Y-76516785D01*
X160955714Y-76231071D02*
X161527142Y-76231071D01*
X162884285Y-76516785D02*
X162634285Y-76159642D01*
X162455714Y-76516785D02*
X162455714Y-75766785D01*
X162741428Y-75766785D01*
X162812857Y-75802500D01*
X162848571Y-75838214D01*
X162884285Y-75909642D01*
X162884285Y-76016785D01*
X162848571Y-76088214D01*
X162812857Y-76123928D01*
X162741428Y-76159642D01*
X162455714Y-76159642D01*
X163491428Y-76481071D02*
X163420000Y-76516785D01*
X163277142Y-76516785D01*
X163205714Y-76481071D01*
X163170000Y-76409642D01*
X163170000Y-76123928D01*
X163205714Y-76052500D01*
X163277142Y-76016785D01*
X163420000Y-76016785D01*
X163491428Y-76052500D01*
X163527142Y-76123928D01*
X163527142Y-76195357D01*
X163170000Y-76266785D01*
X163777142Y-76016785D02*
X163955714Y-76516785D01*
X164134285Y-76016785D01*
X164562857Y-75766785D02*
X164634285Y-75766785D01*
X164705714Y-75802500D01*
X164741428Y-75838214D01*
X164777142Y-75909642D01*
X164812857Y-76052500D01*
X164812857Y-76231071D01*
X164777142Y-76373928D01*
X164741428Y-76445357D01*
X164705714Y-76481071D01*
X164634285Y-76516785D01*
X164562857Y-76516785D01*
X164491428Y-76481071D01*
X164455714Y-76445357D01*
X164420000Y-76373928D01*
X164384285Y-76231071D01*
X164384285Y-76052500D01*
X164420000Y-75909642D01*
X164455714Y-75838214D01*
X164491428Y-75802500D01*
X164562857Y-75766785D01*
X165098571Y-75838214D02*
X165134285Y-75802500D01*
X165205714Y-75766785D01*
X165384285Y-75766785D01*
X165455714Y-75802500D01*
X165491428Y-75838214D01*
X165527142Y-75909642D01*
X165527142Y-75981071D01*
X165491428Y-76088214D01*
X165062857Y-76516785D01*
X165527142Y-76516785D01*
D12*
%TO.C,RTC1*%
X137883900Y-96710500D02*
X137629900Y-96710500D01*
X137883900Y-96329500D02*
X137883900Y-96710500D01*
X137629900Y-96329500D02*
X137883900Y-96329500D01*
X137629900Y-96710500D02*
X137629900Y-96329500D01*
X137883900Y-84010500D02*
X137629900Y-84010500D01*
X137883900Y-83629500D02*
X137883900Y-84010500D01*
X137629900Y-83629500D02*
X137883900Y-83629500D01*
X137629900Y-84010500D02*
X137629900Y-83629500D01*
X164376100Y-90360500D02*
X164630100Y-90360500D01*
X164376100Y-89979500D02*
X164376100Y-90360500D01*
X164630100Y-89979500D02*
X164376100Y-89979500D01*
X164630100Y-90360500D02*
X164630100Y-89979500D01*
X138684000Y-102275640D02*
X138684000Y-103886000D01*
X163576000Y-80604360D02*
X163576000Y-78994000D01*
X163576000Y-103886000D02*
X163576000Y-102275640D01*
X138684000Y-103886000D02*
X163576000Y-103886000D01*
X138684000Y-78994000D02*
X138684000Y-80604360D01*
X163576000Y-78994000D02*
X138684000Y-78994000D01*
D13*
%TO.C,C2*%
X152500000Y-106016248D02*
X152500000Y-106538752D01*
X151030000Y-106016248D02*
X151030000Y-106538752D01*
%TO.C,C1*%
X155040000Y-106016248D02*
X155040000Y-106538752D01*
X153570000Y-106016248D02*
X153570000Y-106538752D01*
%TO.C,RTC1*%
D10*
X150082380Y-78557380D02*
X149749047Y-78081190D01*
X149510952Y-78557380D02*
X149510952Y-77557380D01*
X149891904Y-77557380D01*
X149987142Y-77605000D01*
X150034761Y-77652619D01*
X150082380Y-77747857D01*
X150082380Y-77890714D01*
X150034761Y-77985952D01*
X149987142Y-78033571D01*
X149891904Y-78081190D01*
X149510952Y-78081190D01*
X150368095Y-77557380D02*
X150939523Y-77557380D01*
X150653809Y-78557380D02*
X150653809Y-77557380D01*
X151844285Y-78462142D02*
X151796666Y-78509761D01*
X151653809Y-78557380D01*
X151558571Y-78557380D01*
X151415714Y-78509761D01*
X151320476Y-78414523D01*
X151272857Y-78319285D01*
X151225238Y-78128809D01*
X151225238Y-77985952D01*
X151272857Y-77795476D01*
X151320476Y-77700238D01*
X151415714Y-77605000D01*
X151558571Y-77557380D01*
X151653809Y-77557380D01*
X151796666Y-77605000D01*
X151844285Y-77652619D01*
X152796666Y-78557380D02*
X152225238Y-78557380D01*
X152510952Y-78557380D02*
X152510952Y-77557380D01*
X152415714Y-77700238D01*
X152320476Y-77795476D01*
X152225238Y-77843095D01*
X146391904Y-81097380D02*
X146391904Y-80097380D01*
X146391904Y-81049761D02*
X146296666Y-81097380D01*
X146106190Y-81097380D01*
X146010952Y-81049761D01*
X145963333Y-81002142D01*
X145915714Y-80906904D01*
X145915714Y-80621190D01*
X145963333Y-80525952D01*
X146010952Y-80478333D01*
X146106190Y-80430714D01*
X146296666Y-80430714D01*
X146391904Y-80478333D01*
X146820476Y-81049761D02*
X146915714Y-81097380D01*
X147106190Y-81097380D01*
X147201428Y-81049761D01*
X147249047Y-80954523D01*
X147249047Y-80906904D01*
X147201428Y-80811666D01*
X147106190Y-80764047D01*
X146963333Y-80764047D01*
X146868095Y-80716428D01*
X146820476Y-80621190D01*
X146820476Y-80573571D01*
X146868095Y-80478333D01*
X146963333Y-80430714D01*
X147106190Y-80430714D01*
X147201428Y-80478333D01*
X148201428Y-81097380D02*
X147630000Y-81097380D01*
X147915714Y-81097380D02*
X147915714Y-80097380D01*
X147820476Y-80240238D01*
X147725238Y-80335476D01*
X147630000Y-80383095D01*
X149106190Y-80097380D02*
X148630000Y-80097380D01*
X148582380Y-80573571D01*
X148630000Y-80525952D01*
X148725238Y-80478333D01*
X148963333Y-80478333D01*
X149058571Y-80525952D01*
X149106190Y-80573571D01*
X149153809Y-80668809D01*
X149153809Y-80906904D01*
X149106190Y-81002142D01*
X149058571Y-81049761D01*
X148963333Y-81097380D01*
X148725238Y-81097380D01*
X148630000Y-81049761D01*
X148582380Y-81002142D01*
X150058571Y-80097380D02*
X149582380Y-80097380D01*
X149534761Y-80573571D01*
X149582380Y-80525952D01*
X149677619Y-80478333D01*
X149915714Y-80478333D01*
X150010952Y-80525952D01*
X150058571Y-80573571D01*
X150106190Y-80668809D01*
X150106190Y-80906904D01*
X150058571Y-81002142D01*
X150010952Y-81049761D01*
X149915714Y-81097380D01*
X149677619Y-81097380D01*
X149582380Y-81049761D01*
X149534761Y-81002142D01*
X150963333Y-80430714D02*
X150963333Y-81097380D01*
X150725238Y-80049761D02*
X150487142Y-80764047D01*
X151106190Y-80764047D01*
X151487142Y-80430714D02*
X151487142Y-81430714D01*
X151487142Y-80478333D02*
X151582380Y-80430714D01*
X151772857Y-80430714D01*
X151868095Y-80478333D01*
X151915714Y-80525952D01*
X151963333Y-80621190D01*
X151963333Y-80906904D01*
X151915714Y-81002142D01*
X151868095Y-81049761D01*
X151772857Y-81097380D01*
X151582380Y-81097380D01*
X151487142Y-81049761D01*
X152391904Y-80716428D02*
X153153809Y-80716428D01*
X153534761Y-80097380D02*
X154201428Y-80097380D01*
X153772857Y-81097380D01*
X154772857Y-80097380D02*
X154868095Y-80097380D01*
X154963333Y-80145000D01*
X155010952Y-80192619D01*
X155058571Y-80287857D01*
X155106190Y-80478333D01*
X155106190Y-80716428D01*
X155058571Y-80906904D01*
X155010952Y-81002142D01*
X154963333Y-81049761D01*
X154868095Y-81097380D01*
X154772857Y-81097380D01*
X154677619Y-81049761D01*
X154630000Y-81002142D01*
X154582380Y-80906904D01*
X154534761Y-80716428D01*
X154534761Y-80478333D01*
X154582380Y-80287857D01*
X154630000Y-80192619D01*
X154677619Y-80145000D01*
X154772857Y-80097380D01*
X155534761Y-80716428D02*
X156296666Y-80716428D01*
X155915714Y-81097380D02*
X155915714Y-80335476D01*
X164039550Y-102881180D02*
X164039550Y-103119276D01*
X163801454Y-103024038D02*
X164039550Y-103119276D01*
X164277645Y-103024038D01*
X163896692Y-103309752D02*
X164039550Y-103119276D01*
X164182407Y-103309752D01*
X164039550Y-102881180D02*
X164039550Y-103119276D01*
X163801454Y-103024038D02*
X164039550Y-103119276D01*
X164277645Y-103024038D01*
X163896692Y-103309752D02*
X164039550Y-103119276D01*
X164182407Y-103309752D01*
%TO.C,C2*%
X148947142Y-106444166D02*
X148994761Y-106491785D01*
X149042380Y-106634642D01*
X149042380Y-106729880D01*
X148994761Y-106872738D01*
X148899523Y-106967976D01*
X148804285Y-107015595D01*
X148613809Y-107063214D01*
X148470952Y-107063214D01*
X148280476Y-107015595D01*
X148185238Y-106967976D01*
X148090000Y-106872738D01*
X148042380Y-106729880D01*
X148042380Y-106634642D01*
X148090000Y-106491785D01*
X148137619Y-106444166D01*
X148137619Y-106063214D02*
X148090000Y-106015595D01*
X148042380Y-105920357D01*
X148042380Y-105682261D01*
X148090000Y-105587023D01*
X148137619Y-105539404D01*
X148232857Y-105491785D01*
X148328095Y-105491785D01*
X148470952Y-105539404D01*
X149042380Y-106110833D01*
X149042380Y-105491785D01*
D14*
X150446904Y-107134642D02*
X150446904Y-107591785D01*
X150446904Y-107363214D02*
X149646904Y-107363214D01*
X149761190Y-107439404D01*
X149837380Y-107515595D01*
X149875476Y-107591785D01*
X149646904Y-106639404D02*
X149646904Y-106563214D01*
X149685000Y-106487023D01*
X149723095Y-106448928D01*
X149799285Y-106410833D01*
X149951666Y-106372738D01*
X150142142Y-106372738D01*
X150294523Y-106410833D01*
X150370714Y-106448928D01*
X150408809Y-106487023D01*
X150446904Y-106563214D01*
X150446904Y-106639404D01*
X150408809Y-106715595D01*
X150370714Y-106753690D01*
X150294523Y-106791785D01*
X150142142Y-106829880D01*
X149951666Y-106829880D01*
X149799285Y-106791785D01*
X149723095Y-106753690D01*
X149685000Y-106715595D01*
X149646904Y-106639404D01*
X149913571Y-105687023D02*
X150446904Y-105687023D01*
X149913571Y-106029880D02*
X150332619Y-106029880D01*
X150408809Y-105991785D01*
X150446904Y-105915595D01*
X150446904Y-105801309D01*
X150408809Y-105725119D01*
X150370714Y-105687023D01*
X150027857Y-105039404D02*
X150027857Y-105306071D01*
X150446904Y-105306071D02*
X149646904Y-105306071D01*
X149646904Y-104925119D01*
%TO.C,C1*%
D10*
X157837142Y-106444166D02*
X157884761Y-106491785D01*
X157932380Y-106634642D01*
X157932380Y-106729880D01*
X157884761Y-106872738D01*
X157789523Y-106967976D01*
X157694285Y-107015595D01*
X157503809Y-107063214D01*
X157360952Y-107063214D01*
X157170476Y-107015595D01*
X157075238Y-106967976D01*
X156980000Y-106872738D01*
X156932380Y-106729880D01*
X156932380Y-106634642D01*
X156980000Y-106491785D01*
X157027619Y-106444166D01*
X157932380Y-105491785D02*
X157932380Y-106063214D01*
X157932380Y-105777500D02*
X156932380Y-105777500D01*
X157075238Y-105872738D01*
X157170476Y-105967976D01*
X157218095Y-106063214D01*
D14*
X155771904Y-107591785D02*
X155771904Y-107515595D01*
X155810000Y-107439404D01*
X155848095Y-107401309D01*
X155924285Y-107363214D01*
X156076666Y-107325119D01*
X156267142Y-107325119D01*
X156419523Y-107363214D01*
X156495714Y-107401309D01*
X156533809Y-107439404D01*
X156571904Y-107515595D01*
X156571904Y-107591785D01*
X156533809Y-107667976D01*
X156495714Y-107706071D01*
X156419523Y-107744166D01*
X156267142Y-107782261D01*
X156076666Y-107782261D01*
X155924285Y-107744166D01*
X155848095Y-107706071D01*
X155810000Y-107667976D01*
X155771904Y-107591785D01*
X156495714Y-106982261D02*
X156533809Y-106944166D01*
X156571904Y-106982261D01*
X156533809Y-107020357D01*
X156495714Y-106982261D01*
X156571904Y-106982261D01*
X156571904Y-106182261D02*
X156571904Y-106639404D01*
X156571904Y-106410833D02*
X155771904Y-106410833D01*
X155886190Y-106487023D01*
X155962380Y-106563214D01*
X156000476Y-106639404D01*
X156038571Y-105496547D02*
X156571904Y-105496547D01*
X156038571Y-105839404D02*
X156457619Y-105839404D01*
X156533809Y-105801309D01*
X156571904Y-105725119D01*
X156571904Y-105610833D01*
X156533809Y-105534642D01*
X156495714Y-105496547D01*
X156152857Y-104848928D02*
X156152857Y-105115595D01*
X156571904Y-105115595D02*
X155771904Y-105115595D01*
X155771904Y-104734642D01*
%TD*%
M02*
