%TF.GenerationSoftware,KiCad,Pcbnew,(5.1.10)-1*%
%TF.CreationDate,2021-09-09T19:00:59-06:00*%
%TF.ProjectId,NVRTC,4e565254-432e-46b6-9963-61645f706362,3*%
%TF.SameCoordinates,Original*%
%TF.FileFunction,Copper,L2,Bot*%
%TF.FilePolarity,Positive*%
%FSLAX46Y46*%
G04 Gerber Fmt 4.6, Leading zero omitted, Abs format (unit mm)*
G04 Created by KiCad (PCBNEW (5.1.10)-1) date 2021-09-09 19:00:59*
%MOMM*%
%LPD*%
G01*
G04 APERTURE LIST*
%TA.AperFunction,ViaPad*%
%ADD10C,0.800000*%
%TD*%
%TA.AperFunction,Conductor*%
%ADD11C,0.400000*%
%TD*%
%TA.AperFunction,Conductor*%
%ADD12C,0.200000*%
%TD*%
%TA.AperFunction,Conductor*%
%ADD13C,0.152400*%
%TD*%
%TA.AperFunction,Conductor*%
%ADD14C,0.100000*%
%TD*%
G04 APERTURE END LIST*
%TO.P,H1,28*%
%TO.N,+5V*%
%TA.AperFunction,SMDPad,CuDef*%
G36*
G01*
X161900000Y-75900000D02*
X161900000Y-76500000D01*
G75*
G02*
X161600000Y-76800000I-300000J0D01*
G01*
X158500000Y-76800000D01*
G75*
G02*
X158200000Y-76500000I0J300000D01*
G01*
X158200000Y-75900000D01*
G75*
G02*
X158500000Y-75600000I300000J0D01*
G01*
X161600000Y-75600000D01*
G75*
G02*
X161900000Y-75900000I0J-300000D01*
G01*
G37*
%TD.AperFunction*%
%TO.P,H1,27*%
%TO.N,/WriteEnable*%
%TA.AperFunction,SMDPad,CuDef*%
G36*
G01*
X161900000Y-78440000D02*
X161900000Y-79040000D01*
G75*
G02*
X161600000Y-79340000I-300000J0D01*
G01*
X158500000Y-79340000D01*
G75*
G02*
X158200000Y-79040000I0J300000D01*
G01*
X158200000Y-78440000D01*
G75*
G02*
X158500000Y-78140000I300000J0D01*
G01*
X161600000Y-78140000D01*
G75*
G02*
X161900000Y-78440000I0J-300000D01*
G01*
G37*
%TD.AperFunction*%
%TO.P,H1,26*%
%TO.N,/IRQ*%
%TA.AperFunction,SMDPad,CuDef*%
G36*
G01*
X161900000Y-80980000D02*
X161900000Y-81580000D01*
G75*
G02*
X161600000Y-81880000I-300000J0D01*
G01*
X158500000Y-81880000D01*
G75*
G02*
X158200000Y-81580000I0J300000D01*
G01*
X158200000Y-80980000D01*
G75*
G02*
X158500000Y-80680000I300000J0D01*
G01*
X161600000Y-80680000D01*
G75*
G02*
X161900000Y-80980000I0J-300000D01*
G01*
G37*
%TD.AperFunction*%
%TO.P,H1,25*%
%TO.N,/A8*%
%TA.AperFunction,SMDPad,CuDef*%
G36*
G01*
X161900000Y-83520000D02*
X161900000Y-84120000D01*
G75*
G02*
X161600000Y-84420000I-300000J0D01*
G01*
X158500000Y-84420000D01*
G75*
G02*
X158200000Y-84120000I0J300000D01*
G01*
X158200000Y-83520000D01*
G75*
G02*
X158500000Y-83220000I300000J0D01*
G01*
X161600000Y-83220000D01*
G75*
G02*
X161900000Y-83520000I0J-300000D01*
G01*
G37*
%TD.AperFunction*%
%TO.P,H1,24*%
%TO.N,/A9*%
%TA.AperFunction,SMDPad,CuDef*%
G36*
G01*
X161900000Y-86060000D02*
X161900000Y-86660000D01*
G75*
G02*
X161600000Y-86960000I-300000J0D01*
G01*
X158500000Y-86960000D01*
G75*
G02*
X158200000Y-86660000I0J300000D01*
G01*
X158200000Y-86060000D01*
G75*
G02*
X158500000Y-85760000I300000J0D01*
G01*
X161600000Y-85760000D01*
G75*
G02*
X161900000Y-86060000I0J-300000D01*
G01*
G37*
%TD.AperFunction*%
%TO.P,H1,23*%
%TO.N,/A11*%
%TA.AperFunction,SMDPad,CuDef*%
G36*
G01*
X161900000Y-88600000D02*
X161900000Y-89200000D01*
G75*
G02*
X161600000Y-89500000I-300000J0D01*
G01*
X158500000Y-89500000D01*
G75*
G02*
X158200000Y-89200000I0J300000D01*
G01*
X158200000Y-88600000D01*
G75*
G02*
X158500000Y-88300000I300000J0D01*
G01*
X161600000Y-88300000D01*
G75*
G02*
X161900000Y-88600000I0J-300000D01*
G01*
G37*
%TD.AperFunction*%
%TO.P,H1,22*%
%TO.N,/OutputEnable*%
%TA.AperFunction,SMDPad,CuDef*%
G36*
G01*
X161900000Y-91140000D02*
X161900000Y-91740000D01*
G75*
G02*
X161600000Y-92040000I-300000J0D01*
G01*
X158500000Y-92040000D01*
G75*
G02*
X158200000Y-91740000I0J300000D01*
G01*
X158200000Y-91140000D01*
G75*
G02*
X158500000Y-90840000I300000J0D01*
G01*
X161600000Y-90840000D01*
G75*
G02*
X161900000Y-91140000I0J-300000D01*
G01*
G37*
%TD.AperFunction*%
%TO.P,H1,21*%
%TO.N,/A10*%
%TA.AperFunction,SMDPad,CuDef*%
G36*
G01*
X161900000Y-93680000D02*
X161900000Y-94280000D01*
G75*
G02*
X161600000Y-94580000I-300000J0D01*
G01*
X158500000Y-94580000D01*
G75*
G02*
X158200000Y-94280000I0J300000D01*
G01*
X158200000Y-93680000D01*
G75*
G02*
X158500000Y-93380000I300000J0D01*
G01*
X161600000Y-93380000D01*
G75*
G02*
X161900000Y-93680000I0J-300000D01*
G01*
G37*
%TD.AperFunction*%
%TO.P,H1,20*%
%TO.N,/ChipEnable*%
%TA.AperFunction,SMDPad,CuDef*%
G36*
G01*
X161900000Y-96220000D02*
X161900000Y-96820000D01*
G75*
G02*
X161600000Y-97120000I-300000J0D01*
G01*
X158500000Y-97120000D01*
G75*
G02*
X158200000Y-96820000I0J300000D01*
G01*
X158200000Y-96220000D01*
G75*
G02*
X158500000Y-95920000I300000J0D01*
G01*
X161600000Y-95920000D01*
G75*
G02*
X161900000Y-96220000I0J-300000D01*
G01*
G37*
%TD.AperFunction*%
%TO.P,H1,19*%
%TO.N,/D7*%
%TA.AperFunction,SMDPad,CuDef*%
G36*
G01*
X161900000Y-98760000D02*
X161900000Y-99360000D01*
G75*
G02*
X161600000Y-99660000I-300000J0D01*
G01*
X158500000Y-99660000D01*
G75*
G02*
X158200000Y-99360000I0J300000D01*
G01*
X158200000Y-98760000D01*
G75*
G02*
X158500000Y-98460000I300000J0D01*
G01*
X161600000Y-98460000D01*
G75*
G02*
X161900000Y-98760000I0J-300000D01*
G01*
G37*
%TD.AperFunction*%
%TO.P,H1,18*%
%TO.N,/D6*%
%TA.AperFunction,SMDPad,CuDef*%
G36*
G01*
X161900000Y-101300000D02*
X161900000Y-101900000D01*
G75*
G02*
X161600000Y-102200000I-300000J0D01*
G01*
X158500000Y-102200000D01*
G75*
G02*
X158200000Y-101900000I0J300000D01*
G01*
X158200000Y-101300000D01*
G75*
G02*
X158500000Y-101000000I300000J0D01*
G01*
X161600000Y-101000000D01*
G75*
G02*
X161900000Y-101300000I0J-300000D01*
G01*
G37*
%TD.AperFunction*%
%TO.P,H1,17*%
%TO.N,/D5*%
%TA.AperFunction,SMDPad,CuDef*%
G36*
G01*
X161900000Y-103840000D02*
X161900000Y-104440000D01*
G75*
G02*
X161600000Y-104740000I-300000J0D01*
G01*
X158500000Y-104740000D01*
G75*
G02*
X158200000Y-104440000I0J300000D01*
G01*
X158200000Y-103840000D01*
G75*
G02*
X158500000Y-103540000I300000J0D01*
G01*
X161600000Y-103540000D01*
G75*
G02*
X161900000Y-103840000I0J-300000D01*
G01*
G37*
%TD.AperFunction*%
%TO.P,H1,16*%
%TO.N,/D4*%
%TA.AperFunction,SMDPad,CuDef*%
G36*
G01*
X161900000Y-106380000D02*
X161900000Y-106980000D01*
G75*
G02*
X161600000Y-107280000I-300000J0D01*
G01*
X158500000Y-107280000D01*
G75*
G02*
X158200000Y-106980000I0J300000D01*
G01*
X158200000Y-106380000D01*
G75*
G02*
X158500000Y-106080000I300000J0D01*
G01*
X161600000Y-106080000D01*
G75*
G02*
X161900000Y-106380000I0J-300000D01*
G01*
G37*
%TD.AperFunction*%
%TO.P,H1,15*%
%TO.N,/D3*%
%TA.AperFunction,SMDPad,CuDef*%
G36*
G01*
X161900000Y-108920000D02*
X161900000Y-109520000D01*
G75*
G02*
X161600000Y-109820000I-300000J0D01*
G01*
X158500000Y-109820000D01*
G75*
G02*
X158200000Y-109520000I0J300000D01*
G01*
X158200000Y-108920000D01*
G75*
G02*
X158500000Y-108620000I300000J0D01*
G01*
X161600000Y-108620000D01*
G75*
G02*
X161900000Y-108920000I0J-300000D01*
G01*
G37*
%TD.AperFunction*%
%TO.P,H1,14*%
%TO.N,GND*%
%TA.AperFunction,SMDPad,CuDef*%
G36*
G01*
X144060000Y-108920000D02*
X144060000Y-109520000D01*
G75*
G02*
X143760000Y-109820000I-300000J0D01*
G01*
X140660000Y-109820000D01*
G75*
G02*
X140360000Y-109520000I0J300000D01*
G01*
X140360000Y-108920000D01*
G75*
G02*
X140660000Y-108620000I300000J0D01*
G01*
X143760000Y-108620000D01*
G75*
G02*
X144060000Y-108920000I0J-300000D01*
G01*
G37*
%TD.AperFunction*%
%TO.P,H1,13*%
%TO.N,/D2*%
%TA.AperFunction,SMDPad,CuDef*%
G36*
G01*
X144060000Y-106380000D02*
X144060000Y-106980000D01*
G75*
G02*
X143760000Y-107280000I-300000J0D01*
G01*
X140660000Y-107280000D01*
G75*
G02*
X140360000Y-106980000I0J300000D01*
G01*
X140360000Y-106380000D01*
G75*
G02*
X140660000Y-106080000I300000J0D01*
G01*
X143760000Y-106080000D01*
G75*
G02*
X144060000Y-106380000I0J-300000D01*
G01*
G37*
%TD.AperFunction*%
%TO.P,H1,12*%
%TO.N,/D1*%
%TA.AperFunction,SMDPad,CuDef*%
G36*
G01*
X144060000Y-103840000D02*
X144060000Y-104440000D01*
G75*
G02*
X143760000Y-104740000I-300000J0D01*
G01*
X140660000Y-104740000D01*
G75*
G02*
X140360000Y-104440000I0J300000D01*
G01*
X140360000Y-103840000D01*
G75*
G02*
X140660000Y-103540000I300000J0D01*
G01*
X143760000Y-103540000D01*
G75*
G02*
X144060000Y-103840000I0J-300000D01*
G01*
G37*
%TD.AperFunction*%
%TO.P,H1,11*%
%TO.N,/D0*%
%TA.AperFunction,SMDPad,CuDef*%
G36*
G01*
X144060000Y-101300000D02*
X144060000Y-101900000D01*
G75*
G02*
X143760000Y-102200000I-300000J0D01*
G01*
X140660000Y-102200000D01*
G75*
G02*
X140360000Y-101900000I0J300000D01*
G01*
X140360000Y-101300000D01*
G75*
G02*
X140660000Y-101000000I300000J0D01*
G01*
X143760000Y-101000000D01*
G75*
G02*
X144060000Y-101300000I0J-300000D01*
G01*
G37*
%TD.AperFunction*%
%TO.P,H1,10*%
%TO.N,/A0*%
%TA.AperFunction,SMDPad,CuDef*%
G36*
G01*
X144060000Y-98760000D02*
X144060000Y-99360000D01*
G75*
G02*
X143760000Y-99660000I-300000J0D01*
G01*
X140660000Y-99660000D01*
G75*
G02*
X140360000Y-99360000I0J300000D01*
G01*
X140360000Y-98760000D01*
G75*
G02*
X140660000Y-98460000I300000J0D01*
G01*
X143760000Y-98460000D01*
G75*
G02*
X144060000Y-98760000I0J-300000D01*
G01*
G37*
%TD.AperFunction*%
%TO.P,H1,9*%
%TO.N,/A1*%
%TA.AperFunction,SMDPad,CuDef*%
G36*
G01*
X144060000Y-96220000D02*
X144060000Y-96820000D01*
G75*
G02*
X143760000Y-97120000I-300000J0D01*
G01*
X140660000Y-97120000D01*
G75*
G02*
X140360000Y-96820000I0J300000D01*
G01*
X140360000Y-96220000D01*
G75*
G02*
X140660000Y-95920000I300000J0D01*
G01*
X143760000Y-95920000D01*
G75*
G02*
X144060000Y-96220000I0J-300000D01*
G01*
G37*
%TD.AperFunction*%
%TO.P,H1,8*%
%TO.N,/A2*%
%TA.AperFunction,SMDPad,CuDef*%
G36*
G01*
X144060000Y-93680000D02*
X144060000Y-94280000D01*
G75*
G02*
X143760000Y-94580000I-300000J0D01*
G01*
X140660000Y-94580000D01*
G75*
G02*
X140360000Y-94280000I0J300000D01*
G01*
X140360000Y-93680000D01*
G75*
G02*
X140660000Y-93380000I300000J0D01*
G01*
X143760000Y-93380000D01*
G75*
G02*
X144060000Y-93680000I0J-300000D01*
G01*
G37*
%TD.AperFunction*%
%TO.P,H1,7*%
%TO.N,/A3*%
%TA.AperFunction,SMDPad,CuDef*%
G36*
G01*
X144060000Y-91140000D02*
X144060000Y-91740000D01*
G75*
G02*
X143760000Y-92040000I-300000J0D01*
G01*
X140660000Y-92040000D01*
G75*
G02*
X140360000Y-91740000I0J300000D01*
G01*
X140360000Y-91140000D01*
G75*
G02*
X140660000Y-90840000I300000J0D01*
G01*
X143760000Y-90840000D01*
G75*
G02*
X144060000Y-91140000I0J-300000D01*
G01*
G37*
%TD.AperFunction*%
%TO.P,H1,6*%
%TO.N,/A4*%
%TA.AperFunction,SMDPad,CuDef*%
G36*
G01*
X144060000Y-88600000D02*
X144060000Y-89200000D01*
G75*
G02*
X143760000Y-89500000I-300000J0D01*
G01*
X140660000Y-89500000D01*
G75*
G02*
X140360000Y-89200000I0J300000D01*
G01*
X140360000Y-88600000D01*
G75*
G02*
X140660000Y-88300000I300000J0D01*
G01*
X143760000Y-88300000D01*
G75*
G02*
X144060000Y-88600000I0J-300000D01*
G01*
G37*
%TD.AperFunction*%
%TO.P,H1,1*%
%TO.N,/RST*%
%TA.AperFunction,SMDPad,CuDef*%
G36*
G01*
X144060000Y-75900000D02*
X144060000Y-76500000D01*
G75*
G02*
X143760000Y-76800000I-300000J0D01*
G01*
X140660000Y-76800000D01*
G75*
G02*
X140360000Y-76500000I0J300000D01*
G01*
X140360000Y-75900000D01*
G75*
G02*
X140660000Y-75600000I300000J0D01*
G01*
X143760000Y-75600000D01*
G75*
G02*
X144060000Y-75900000I0J-300000D01*
G01*
G37*
%TD.AperFunction*%
%TO.P,H1,2*%
%TO.N,/A12*%
%TA.AperFunction,SMDPad,CuDef*%
G36*
G01*
X144060000Y-78440000D02*
X144060000Y-79040000D01*
G75*
G02*
X143760000Y-79340000I-300000J0D01*
G01*
X140660000Y-79340000D01*
G75*
G02*
X140360000Y-79040000I0J300000D01*
G01*
X140360000Y-78440000D01*
G75*
G02*
X140660000Y-78140000I300000J0D01*
G01*
X143760000Y-78140000D01*
G75*
G02*
X144060000Y-78440000I0J-300000D01*
G01*
G37*
%TD.AperFunction*%
%TO.P,H1,3*%
%TO.N,/A7*%
%TA.AperFunction,SMDPad,CuDef*%
G36*
G01*
X144060000Y-80980000D02*
X144060000Y-81580000D01*
G75*
G02*
X143760000Y-81880000I-300000J0D01*
G01*
X140660000Y-81880000D01*
G75*
G02*
X140360000Y-81580000I0J300000D01*
G01*
X140360000Y-80980000D01*
G75*
G02*
X140660000Y-80680000I300000J0D01*
G01*
X143760000Y-80680000D01*
G75*
G02*
X144060000Y-80980000I0J-300000D01*
G01*
G37*
%TD.AperFunction*%
%TO.P,H1,4*%
%TO.N,/A6*%
%TA.AperFunction,SMDPad,CuDef*%
G36*
G01*
X144060000Y-83520000D02*
X144060000Y-84120000D01*
G75*
G02*
X143760000Y-84420000I-300000J0D01*
G01*
X140660000Y-84420000D01*
G75*
G02*
X140360000Y-84120000I0J300000D01*
G01*
X140360000Y-83520000D01*
G75*
G02*
X140660000Y-83220000I300000J0D01*
G01*
X143760000Y-83220000D01*
G75*
G02*
X144060000Y-83520000I0J-300000D01*
G01*
G37*
%TD.AperFunction*%
%TO.P,H1,5*%
%TO.N,/A5*%
%TA.AperFunction,SMDPad,CuDef*%
G36*
G01*
X144060000Y-86060000D02*
X144060000Y-86660000D01*
G75*
G02*
X143760000Y-86960000I-300000J0D01*
G01*
X140660000Y-86960000D01*
G75*
G02*
X140360000Y-86660000I0J300000D01*
G01*
X140360000Y-86060000D01*
G75*
G02*
X140660000Y-85760000I300000J0D01*
G01*
X143760000Y-85760000D01*
G75*
G02*
X144060000Y-86060000I0J-300000D01*
G01*
G37*
%TD.AperFunction*%
%TD*%
D10*
%TO.N,GND*%
X153035000Y-82169000D03*
X149225000Y-82169000D03*
X140000000Y-100330000D03*
X140000000Y-102870000D03*
X140000000Y-105410000D03*
X140000000Y-107950000D03*
X162500000Y-107950000D03*
X162500000Y-105410000D03*
X162500000Y-102870000D03*
X162500000Y-100330000D03*
X162500000Y-97790000D03*
X162500000Y-95250000D03*
X162500000Y-92710000D03*
X162500000Y-90170000D03*
X162500000Y-87630000D03*
X162500000Y-85090000D03*
X162500000Y-82550000D03*
X162500000Y-80010000D03*
X162500000Y-77470000D03*
X147701000Y-100330000D03*
X140000000Y-97790000D03*
X140000000Y-95250000D03*
X140000000Y-92710000D03*
X140000000Y-90170000D03*
X140000000Y-87630000D03*
X140000000Y-85090000D03*
X140000000Y-82550000D03*
X140000000Y-80010000D03*
X140000000Y-77470000D03*
X145500000Y-80010000D03*
X150500000Y-105410000D03*
X150500000Y-100330000D03*
X150500000Y-97790000D03*
X150500000Y-95250000D03*
X150500000Y-92710000D03*
X150500000Y-90170000D03*
X150500000Y-110490000D03*
X140000000Y-110490000D03*
X155000000Y-85090000D03*
X157750000Y-82500000D03*
%TO.N,+5V*%
X151130000Y-78359000D03*
X150276998Y-87075000D03*
%TO.N,/A5*%
X148500000Y-90315000D03*
%TO.N,/A6*%
X147000000Y-89505000D03*
%TO.N,/A7*%
X148500000Y-88695000D03*
%TO.N,/A12*%
X147000000Y-87885000D03*
%TO.N,/RST*%
X147000000Y-84645000D03*
%TO.N,/A4*%
X147000000Y-91125000D03*
%TO.N,/A3*%
X148500000Y-91935000D03*
%TO.N,/A2*%
X148000000Y-95175000D03*
%TO.N,/A1*%
X147000000Y-95985000D03*
%TO.N,/A0*%
X148000000Y-96795000D03*
%TO.N,/D0*%
X147000000Y-97605000D03*
%TO.N,/D1*%
X148000000Y-98415000D03*
%TO.N,/D2*%
X149000000Y-99225000D03*
%TO.N,/D3*%
X152500000Y-100035000D03*
%TO.N,/D4*%
X153500000Y-99225000D03*
%TO.N,/D5*%
X155000000Y-98415000D03*
%TO.N,/D6*%
X153500000Y-97605000D03*
%TO.N,/D7*%
X155000000Y-96795000D03*
%TO.N,/ChipEnable*%
X153500000Y-95175000D03*
%TO.N,/A10*%
X155000000Y-94365000D03*
%TO.N,/OutputEnable*%
X155000000Y-91935000D03*
%TO.N,/A11*%
X154000000Y-91125000D03*
%TO.N,/A9*%
X155000000Y-90315000D03*
%TO.N,/A8*%
X154000000Y-89505000D03*
%TO.N,/IRQ*%
X154000000Y-87075000D03*
%TO.N,/WriteEnable*%
X153000000Y-87885000D03*
%TD*%
D11*
%TO.N,+5V*%
X153289000Y-76200000D02*
X151130000Y-78359000D01*
X160050000Y-76200000D02*
X153289000Y-76200000D01*
X151130000Y-86221998D02*
X150276998Y-87075000D01*
X151130000Y-78359000D02*
X151130000Y-86221998D01*
D12*
%TO.N,/A5*%
X142818998Y-86360000D02*
X142210000Y-86360000D01*
X146773998Y-90315000D02*
X142818998Y-86360000D01*
X148500000Y-90315000D02*
X146773998Y-90315000D01*
%TO.N,/A6*%
X147000000Y-89505000D02*
X145000000Y-87505000D01*
X144060000Y-83820000D02*
X142210000Y-83820000D01*
X145000000Y-84760000D02*
X144060000Y-83820000D01*
X145000000Y-87505000D02*
X145000000Y-84760000D01*
%TO.N,/A7*%
X142368544Y-81280000D02*
X142210000Y-81280000D01*
X146773998Y-88695000D02*
X145500000Y-87421002D01*
X148500000Y-88695000D02*
X146773998Y-88695000D01*
X144060000Y-81280000D02*
X142210000Y-81280000D01*
X145500000Y-82720000D02*
X144060000Y-81280000D01*
X145500000Y-87421002D02*
X145500000Y-82720000D01*
%TO.N,/A12*%
X142368544Y-78740000D02*
X142210000Y-78740000D01*
X146299999Y-87184999D02*
X146299999Y-82671455D01*
X146299999Y-82671455D02*
X142368544Y-78740000D01*
X147000000Y-87885000D02*
X146299999Y-87184999D01*
%TO.N,/RST*%
X144060000Y-76200000D02*
X142210000Y-76200000D01*
X147000000Y-79140000D02*
X144060000Y-76200000D01*
X147000000Y-84645000D02*
X147000000Y-79140000D01*
%TO.N,/A4*%
X144775000Y-88900000D02*
X142210000Y-88900000D01*
X147000000Y-91125000D02*
X144775000Y-88900000D01*
%TO.N,/A3*%
X142705000Y-91935000D02*
X148500000Y-91935000D01*
X142210000Y-91440000D02*
X142705000Y-91935000D01*
%TO.N,/A2*%
X143405000Y-95175000D02*
X142210000Y-93980000D01*
X148000000Y-95175000D02*
X143405000Y-95175000D01*
%TO.N,/A1*%
X141845000Y-96520000D02*
X142210000Y-96520000D01*
X142745000Y-95985000D02*
X147000000Y-95985000D01*
X142210000Y-96520000D02*
X142745000Y-95985000D01*
%TO.N,/A0*%
X142689175Y-98580825D02*
X142210000Y-99060000D01*
X142368544Y-99060000D02*
X142210000Y-99060000D01*
X144633544Y-96795000D02*
X142368544Y-99060000D01*
X148000000Y-96795000D02*
X144633544Y-96795000D01*
%TO.N,/D0*%
X143005000Y-101600000D02*
X142210000Y-101600000D01*
X147000000Y-97605000D02*
X143005000Y-101600000D01*
%TO.N,/D1*%
X142840685Y-104140000D02*
X142210000Y-104140000D01*
X148000000Y-98980685D02*
X142840685Y-104140000D01*
X148000000Y-98415000D02*
X148000000Y-98980685D01*
%TO.N,/D2*%
X142368544Y-106680000D02*
X142210000Y-106680000D01*
X149000000Y-100048544D02*
X142368544Y-106680000D01*
X149000000Y-99225000D02*
X149000000Y-100048544D01*
%TO.N,/D3*%
X158200000Y-109220000D02*
X160050000Y-109220000D01*
X152500000Y-103520000D02*
X158200000Y-109220000D01*
X152500000Y-100035000D02*
X152500000Y-103520000D01*
%TO.N,/D4*%
X158200000Y-106680000D02*
X160050000Y-106680000D01*
X153500000Y-101980000D02*
X158200000Y-106680000D01*
X153500000Y-99225000D02*
X153500000Y-101980000D01*
%TO.N,/D5*%
X158200000Y-104140000D02*
X160050000Y-104140000D01*
X155000000Y-100940000D02*
X158200000Y-104140000D01*
X155000000Y-98415000D02*
X155000000Y-100940000D01*
%TO.N,/D6*%
X158200000Y-101600000D02*
X157500000Y-100900000D01*
X160050000Y-101600000D02*
X158200000Y-101600000D01*
X157500000Y-100900000D02*
X157500000Y-99105000D01*
X157500000Y-99105000D02*
X156000000Y-97605000D01*
X156000000Y-97605000D02*
X153500000Y-97605000D01*
%TO.N,/D7*%
X155000000Y-96795000D02*
X157000000Y-96795000D01*
X159265000Y-99060000D02*
X160050000Y-99060000D01*
X157000000Y-96795000D02*
X159265000Y-99060000D01*
%TO.N,/ChipEnable*%
X158705000Y-95175000D02*
X160050000Y-96520000D01*
X153500000Y-95175000D02*
X158705000Y-95175000D01*
%TO.N,/A10*%
X159665000Y-94365000D02*
X160050000Y-93980000D01*
X155000000Y-94365000D02*
X159665000Y-94365000D01*
%TO.N,/OutputEnable*%
X159555000Y-91935000D02*
X160050000Y-91440000D01*
X155000000Y-91935000D02*
X159555000Y-91935000D01*
%TO.N,/A11*%
X159891456Y-88900000D02*
X160050000Y-88900000D01*
X157666456Y-91125000D02*
X159891456Y-88900000D01*
X154000000Y-91125000D02*
X157666456Y-91125000D01*
%TO.N,/A9*%
X155000000Y-90315000D02*
X157000000Y-90315000D01*
X158200000Y-86360000D02*
X160050000Y-86360000D01*
X157899990Y-86660010D02*
X158200000Y-86360000D01*
X157899990Y-89415010D02*
X157899990Y-86660010D01*
X157000000Y-90315000D02*
X157899990Y-89415010D01*
%TO.N,/A8*%
X154000000Y-89505000D02*
X156190000Y-89505000D01*
X156190000Y-89505000D02*
X157000000Y-88695000D01*
X158200000Y-83820000D02*
X160050000Y-83820000D01*
X157000000Y-85020000D02*
X158200000Y-83820000D01*
X157000000Y-88695000D02*
X157000000Y-85020000D01*
%TO.N,/IRQ*%
X156518998Y-81280000D02*
X160050000Y-81280000D01*
X154000000Y-83798998D02*
X156518998Y-81280000D01*
X154000000Y-87075000D02*
X154000000Y-83798998D01*
%TO.N,/WriteEnable*%
X158493300Y-78740000D02*
X160050000Y-78740000D01*
X153000000Y-84233300D02*
X158493300Y-78740000D01*
X153000000Y-87885000D02*
X153000000Y-84233300D01*
%TD*%
D13*
%TO.N,GND*%
X162551570Y-74894570D02*
X162601169Y-74909544D01*
X162646918Y-74933869D01*
X162687072Y-74966618D01*
X162720099Y-75006541D01*
X162744741Y-75052116D01*
X162760066Y-75101621D01*
X162767800Y-75175206D01*
X162767801Y-110881401D01*
X162760430Y-110956571D01*
X162745456Y-111006169D01*
X162721130Y-111051920D01*
X162688382Y-111092072D01*
X162648462Y-111125097D01*
X162602879Y-111149743D01*
X162553380Y-111165065D01*
X162479794Y-111172800D01*
X139773589Y-111172800D01*
X139698429Y-111165430D01*
X139648831Y-111150456D01*
X139603080Y-111126130D01*
X139562928Y-111093382D01*
X139529903Y-111053462D01*
X139505257Y-111007879D01*
X139489935Y-110958380D01*
X139482200Y-110884794D01*
X139482200Y-109820000D01*
X139772973Y-109820000D01*
X139784253Y-109934523D01*
X139817658Y-110044646D01*
X139871905Y-110146135D01*
X139944909Y-110235091D01*
X140033865Y-110308095D01*
X140135354Y-110362342D01*
X140245477Y-110395747D01*
X140360000Y-110407027D01*
X141886150Y-110404200D01*
X142032200Y-110258150D01*
X142032200Y-109397800D01*
X142387800Y-109397800D01*
X142387800Y-110258150D01*
X142533850Y-110404200D01*
X144060000Y-110407027D01*
X144174523Y-110395747D01*
X144284646Y-110362342D01*
X144386135Y-110308095D01*
X144475091Y-110235091D01*
X144548095Y-110146135D01*
X144602342Y-110044646D01*
X144635747Y-109934523D01*
X144647027Y-109820000D01*
X144644200Y-109543850D01*
X144498150Y-109397800D01*
X142387800Y-109397800D01*
X142032200Y-109397800D01*
X139921850Y-109397800D01*
X139775800Y-109543850D01*
X139772973Y-109820000D01*
X139482200Y-109820000D01*
X139482200Y-108620000D01*
X139772973Y-108620000D01*
X139775800Y-108896150D01*
X139921850Y-109042200D01*
X142032200Y-109042200D01*
X142032200Y-108181850D01*
X142387800Y-108181850D01*
X142387800Y-109042200D01*
X144498150Y-109042200D01*
X144644200Y-108896150D01*
X144647027Y-108620000D01*
X144635747Y-108505477D01*
X144602342Y-108395354D01*
X144548095Y-108293865D01*
X144475091Y-108204909D01*
X144386135Y-108131905D01*
X144284646Y-108077658D01*
X144174523Y-108044253D01*
X144060000Y-108032973D01*
X142533850Y-108035800D01*
X142387800Y-108181850D01*
X142032200Y-108181850D01*
X141886150Y-108035800D01*
X140360000Y-108032973D01*
X140245477Y-108044253D01*
X140135354Y-108077658D01*
X140033865Y-108131905D01*
X139944909Y-108204909D01*
X139871905Y-108293865D01*
X139817658Y-108395354D01*
X139784253Y-108505477D01*
X139772973Y-108620000D01*
X139482200Y-108620000D01*
X139482200Y-93680000D01*
X139900588Y-93680000D01*
X139900588Y-94280000D01*
X139915180Y-94428154D01*
X139958395Y-94570614D01*
X140028572Y-94701907D01*
X140123015Y-94816985D01*
X140238093Y-94911428D01*
X140369386Y-94981605D01*
X140511846Y-95024820D01*
X140660000Y-95039412D01*
X142481412Y-95039412D01*
X142869800Y-95427800D01*
X142772365Y-95427800D01*
X142744999Y-95425105D01*
X142717633Y-95427800D01*
X142717627Y-95427800D01*
X142647279Y-95434729D01*
X142635769Y-95435862D01*
X142554261Y-95460588D01*
X140660000Y-95460588D01*
X140511846Y-95475180D01*
X140369386Y-95518395D01*
X140238093Y-95588572D01*
X140123015Y-95683015D01*
X140028572Y-95798093D01*
X139958395Y-95929386D01*
X139915180Y-96071846D01*
X139900588Y-96220000D01*
X139900588Y-96820000D01*
X139915180Y-96968154D01*
X139958395Y-97110614D01*
X140028572Y-97241907D01*
X140123015Y-97356985D01*
X140238093Y-97451428D01*
X140369386Y-97521605D01*
X140511846Y-97564820D01*
X140660000Y-97579412D01*
X143061133Y-97579412D01*
X142639957Y-98000588D01*
X140660000Y-98000588D01*
X140511846Y-98015180D01*
X140369386Y-98058395D01*
X140238093Y-98128572D01*
X140123015Y-98223015D01*
X140028572Y-98338093D01*
X139958395Y-98469386D01*
X139915180Y-98611846D01*
X139900588Y-98760000D01*
X139900588Y-99360000D01*
X139915180Y-99508154D01*
X139958395Y-99650614D01*
X140028572Y-99781907D01*
X140123015Y-99896985D01*
X140238093Y-99991428D01*
X140369386Y-100061605D01*
X140511846Y-100104820D01*
X140660000Y-100119412D01*
X143697589Y-100119412D01*
X143276413Y-100540588D01*
X140660000Y-100540588D01*
X140511846Y-100555180D01*
X140369386Y-100598395D01*
X140238093Y-100668572D01*
X140123015Y-100763015D01*
X140028572Y-100878093D01*
X139958395Y-101009386D01*
X139915180Y-101151846D01*
X139900588Y-101300000D01*
X139900588Y-101900000D01*
X139915180Y-102048154D01*
X139958395Y-102190614D01*
X140028572Y-102321907D01*
X140123015Y-102436985D01*
X140238093Y-102531428D01*
X140369386Y-102601605D01*
X140511846Y-102644820D01*
X140660000Y-102659412D01*
X143533274Y-102659412D01*
X143112098Y-103080588D01*
X140660000Y-103080588D01*
X140511846Y-103095180D01*
X140369386Y-103138395D01*
X140238093Y-103208572D01*
X140123015Y-103303015D01*
X140028572Y-103418093D01*
X139958395Y-103549386D01*
X139915180Y-103691846D01*
X139900588Y-103840000D01*
X139900588Y-104440000D01*
X139915180Y-104588154D01*
X139958395Y-104730614D01*
X140028572Y-104861907D01*
X140123015Y-104976985D01*
X140238093Y-105071428D01*
X140369386Y-105141605D01*
X140511846Y-105184820D01*
X140660000Y-105199412D01*
X143061133Y-105199412D01*
X142639957Y-105620588D01*
X140660000Y-105620588D01*
X140511846Y-105635180D01*
X140369386Y-105678395D01*
X140238093Y-105748572D01*
X140123015Y-105843015D01*
X140028572Y-105958093D01*
X139958395Y-106089386D01*
X139915180Y-106231846D01*
X139900588Y-106380000D01*
X139900588Y-106980000D01*
X139915180Y-107128154D01*
X139958395Y-107270614D01*
X140028572Y-107401907D01*
X140123015Y-107516985D01*
X140238093Y-107611428D01*
X140369386Y-107681605D01*
X140511846Y-107724820D01*
X140660000Y-107739412D01*
X143760000Y-107739412D01*
X143908154Y-107724820D01*
X144050614Y-107681605D01*
X144181907Y-107611428D01*
X144296985Y-107516985D01*
X144391428Y-107401907D01*
X144461605Y-107270614D01*
X144504820Y-107128154D01*
X144519412Y-106980000D01*
X144519412Y-106380000D01*
X144504820Y-106231846D01*
X144461605Y-106089386D01*
X144391428Y-105958093D01*
X144296985Y-105843015D01*
X144181907Y-105748572D01*
X144120691Y-105715852D01*
X149374646Y-100461898D01*
X149395906Y-100444450D01*
X149413737Y-100422724D01*
X149446564Y-100382724D01*
X149465537Y-100359606D01*
X149517276Y-100262807D01*
X149549138Y-100157774D01*
X149557200Y-100075917D01*
X149557200Y-100075911D01*
X149559895Y-100048545D01*
X149557200Y-100021179D01*
X149557200Y-99950573D01*
X151642800Y-99950573D01*
X151642800Y-100119427D01*
X151675741Y-100285036D01*
X151740359Y-100441037D01*
X151834169Y-100581433D01*
X151942800Y-100690064D01*
X151942801Y-103492624D01*
X151940105Y-103520000D01*
X151950862Y-103629230D01*
X151982724Y-103734262D01*
X151999344Y-103765355D01*
X152034464Y-103831062D01*
X152104095Y-103915906D01*
X152125355Y-103933354D01*
X157743711Y-109551711D01*
X157755180Y-109668154D01*
X157798395Y-109810614D01*
X157868572Y-109941907D01*
X157963015Y-110056985D01*
X158078093Y-110151428D01*
X158209386Y-110221605D01*
X158351846Y-110264820D01*
X158500000Y-110279412D01*
X161600000Y-110279412D01*
X161748154Y-110264820D01*
X161890614Y-110221605D01*
X162021907Y-110151428D01*
X162136985Y-110056985D01*
X162231428Y-109941907D01*
X162301605Y-109810614D01*
X162344820Y-109668154D01*
X162359412Y-109520000D01*
X162359412Y-108920000D01*
X162344820Y-108771846D01*
X162301605Y-108629386D01*
X162231428Y-108498093D01*
X162136985Y-108383015D01*
X162021907Y-108288572D01*
X161890614Y-108218395D01*
X161748154Y-108175180D01*
X161600000Y-108160588D01*
X158500000Y-108160588D01*
X158351846Y-108175180D01*
X158209386Y-108218395D01*
X158078093Y-108288572D01*
X158066273Y-108298273D01*
X153057200Y-103289201D01*
X153057200Y-102318765D01*
X153104095Y-102375906D01*
X153125355Y-102393354D01*
X157743711Y-107011711D01*
X157755180Y-107128154D01*
X157798395Y-107270614D01*
X157868572Y-107401907D01*
X157963015Y-107516985D01*
X158078093Y-107611428D01*
X158209386Y-107681605D01*
X158351846Y-107724820D01*
X158500000Y-107739412D01*
X161600000Y-107739412D01*
X161748154Y-107724820D01*
X161890614Y-107681605D01*
X162021907Y-107611428D01*
X162136985Y-107516985D01*
X162231428Y-107401907D01*
X162301605Y-107270614D01*
X162344820Y-107128154D01*
X162359412Y-106980000D01*
X162359412Y-106380000D01*
X162344820Y-106231846D01*
X162301605Y-106089386D01*
X162231428Y-105958093D01*
X162136985Y-105843015D01*
X162021907Y-105748572D01*
X161890614Y-105678395D01*
X161748154Y-105635180D01*
X161600000Y-105620588D01*
X158500000Y-105620588D01*
X158351846Y-105635180D01*
X158209386Y-105678395D01*
X158078093Y-105748572D01*
X158066273Y-105758273D01*
X154057200Y-101749201D01*
X154057200Y-99880064D01*
X154165831Y-99771433D01*
X154259641Y-99631037D01*
X154324259Y-99475036D01*
X154357200Y-99309427D01*
X154357200Y-99140573D01*
X154324259Y-98974964D01*
X154293350Y-98900343D01*
X154334169Y-98961433D01*
X154442800Y-99070064D01*
X154442801Y-100912624D01*
X154440105Y-100940000D01*
X154450862Y-101049230D01*
X154482724Y-101154262D01*
X154482725Y-101154263D01*
X154534464Y-101251062D01*
X154604095Y-101335906D01*
X154625355Y-101353354D01*
X157743711Y-104471711D01*
X157755180Y-104588154D01*
X157798395Y-104730614D01*
X157868572Y-104861907D01*
X157963015Y-104976985D01*
X158078093Y-105071428D01*
X158209386Y-105141605D01*
X158351846Y-105184820D01*
X158500000Y-105199412D01*
X161600000Y-105199412D01*
X161748154Y-105184820D01*
X161890614Y-105141605D01*
X162021907Y-105071428D01*
X162136985Y-104976985D01*
X162231428Y-104861907D01*
X162301605Y-104730614D01*
X162344820Y-104588154D01*
X162359412Y-104440000D01*
X162359412Y-103840000D01*
X162344820Y-103691846D01*
X162301605Y-103549386D01*
X162231428Y-103418093D01*
X162136985Y-103303015D01*
X162021907Y-103208572D01*
X161890614Y-103138395D01*
X161748154Y-103095180D01*
X161600000Y-103080588D01*
X158500000Y-103080588D01*
X158351846Y-103095180D01*
X158209386Y-103138395D01*
X158078093Y-103208572D01*
X158066273Y-103218273D01*
X155557200Y-100709201D01*
X155557200Y-99070064D01*
X155665831Y-98961433D01*
X155759641Y-98821037D01*
X155824259Y-98665036D01*
X155857200Y-98499427D01*
X155857200Y-98330573D01*
X155837243Y-98230243D01*
X156942801Y-99335801D01*
X156942800Y-100872634D01*
X156940105Y-100900000D01*
X156942800Y-100927366D01*
X156942800Y-100927372D01*
X156944044Y-100940000D01*
X156950862Y-101009230D01*
X156961046Y-101042800D01*
X156982724Y-101114262D01*
X157034463Y-101211062D01*
X157104094Y-101295906D01*
X157125359Y-101313358D01*
X157743711Y-101931711D01*
X157755180Y-102048154D01*
X157798395Y-102190614D01*
X157868572Y-102321907D01*
X157963015Y-102436985D01*
X158078093Y-102531428D01*
X158209386Y-102601605D01*
X158351846Y-102644820D01*
X158500000Y-102659412D01*
X161600000Y-102659412D01*
X161748154Y-102644820D01*
X161890614Y-102601605D01*
X162021907Y-102531428D01*
X162136985Y-102436985D01*
X162231428Y-102321907D01*
X162301605Y-102190614D01*
X162344820Y-102048154D01*
X162359412Y-101900000D01*
X162359412Y-101300000D01*
X162344820Y-101151846D01*
X162301605Y-101009386D01*
X162231428Y-100878093D01*
X162136985Y-100763015D01*
X162021907Y-100668572D01*
X161890614Y-100598395D01*
X161748154Y-100555180D01*
X161600000Y-100540588D01*
X158500000Y-100540588D01*
X158351846Y-100555180D01*
X158209386Y-100598395D01*
X158078093Y-100668572D01*
X158066272Y-100678273D01*
X158057200Y-100669201D01*
X158057200Y-99974281D01*
X158078093Y-99991428D01*
X158209386Y-100061605D01*
X158351846Y-100104820D01*
X158500000Y-100119412D01*
X161600000Y-100119412D01*
X161748154Y-100104820D01*
X161890614Y-100061605D01*
X162021907Y-99991428D01*
X162136985Y-99896985D01*
X162231428Y-99781907D01*
X162301605Y-99650614D01*
X162344820Y-99508154D01*
X162359412Y-99360000D01*
X162359412Y-98760000D01*
X162344820Y-98611846D01*
X162301605Y-98469386D01*
X162231428Y-98338093D01*
X162136985Y-98223015D01*
X162021907Y-98128572D01*
X161890614Y-98058395D01*
X161748154Y-98015180D01*
X161600000Y-98000588D01*
X158993588Y-98000588D01*
X158572412Y-97579412D01*
X161600000Y-97579412D01*
X161748154Y-97564820D01*
X161890614Y-97521605D01*
X162021907Y-97451428D01*
X162136985Y-97356985D01*
X162231428Y-97241907D01*
X162301605Y-97110614D01*
X162344820Y-96968154D01*
X162359412Y-96820000D01*
X162359412Y-96220000D01*
X162344820Y-96071846D01*
X162301605Y-95929386D01*
X162231428Y-95798093D01*
X162136985Y-95683015D01*
X162021907Y-95588572D01*
X161890614Y-95518395D01*
X161748154Y-95475180D01*
X161600000Y-95460588D01*
X159778588Y-95460588D01*
X159357411Y-95039412D01*
X161600000Y-95039412D01*
X161748154Y-95024820D01*
X161890614Y-94981605D01*
X162021907Y-94911428D01*
X162136985Y-94816985D01*
X162231428Y-94701907D01*
X162301605Y-94570614D01*
X162344820Y-94428154D01*
X162359412Y-94280000D01*
X162359412Y-93680000D01*
X162344820Y-93531846D01*
X162301605Y-93389386D01*
X162231428Y-93258093D01*
X162136985Y-93143015D01*
X162021907Y-93048572D01*
X161890614Y-92978395D01*
X161748154Y-92935180D01*
X161600000Y-92920588D01*
X158500000Y-92920588D01*
X158351846Y-92935180D01*
X158209386Y-92978395D01*
X158078093Y-93048572D01*
X157963015Y-93143015D01*
X157868572Y-93258093D01*
X157798395Y-93389386D01*
X157755180Y-93531846D01*
X157740588Y-93680000D01*
X157740588Y-93807800D01*
X155655064Y-93807800D01*
X155546433Y-93699169D01*
X155406037Y-93605359D01*
X155250036Y-93540741D01*
X155084427Y-93507800D01*
X154915573Y-93507800D01*
X154749964Y-93540741D01*
X154593963Y-93605359D01*
X154453567Y-93699169D01*
X154334169Y-93818567D01*
X154240359Y-93958963D01*
X154175741Y-94114964D01*
X154142800Y-94280573D01*
X154142800Y-94449427D01*
X154175741Y-94615036D01*
X154176886Y-94617800D01*
X154155064Y-94617800D01*
X154046433Y-94509169D01*
X153906037Y-94415359D01*
X153750036Y-94350741D01*
X153584427Y-94317800D01*
X153415573Y-94317800D01*
X153249964Y-94350741D01*
X153093963Y-94415359D01*
X152953567Y-94509169D01*
X152834169Y-94628567D01*
X152740359Y-94768963D01*
X152675741Y-94924964D01*
X152642800Y-95090573D01*
X152642800Y-95259427D01*
X152675741Y-95425036D01*
X152740359Y-95581037D01*
X152834169Y-95721433D01*
X152953567Y-95840831D01*
X153093963Y-95934641D01*
X153249964Y-95999259D01*
X153415573Y-96032200D01*
X153584427Y-96032200D01*
X153750036Y-95999259D01*
X153906037Y-95934641D01*
X154046433Y-95840831D01*
X154155064Y-95732200D01*
X157922650Y-95732200D01*
X157868572Y-95798093D01*
X157798395Y-95929386D01*
X157755180Y-96071846D01*
X157740588Y-96220000D01*
X157740588Y-96747589D01*
X157413358Y-96420359D01*
X157395906Y-96399094D01*
X157311062Y-96329463D01*
X157214263Y-96277724D01*
X157109230Y-96245862D01*
X157027373Y-96237800D01*
X157027366Y-96237800D01*
X157000000Y-96235105D01*
X156972634Y-96237800D01*
X155655064Y-96237800D01*
X155546433Y-96129169D01*
X155406037Y-96035359D01*
X155250036Y-95970741D01*
X155084427Y-95937800D01*
X154915573Y-95937800D01*
X154749964Y-95970741D01*
X154593963Y-96035359D01*
X154453567Y-96129169D01*
X154334169Y-96248567D01*
X154240359Y-96388963D01*
X154175741Y-96544964D01*
X154142800Y-96710573D01*
X154142800Y-96879427D01*
X154175741Y-97045036D01*
X154176886Y-97047800D01*
X154155064Y-97047800D01*
X154046433Y-96939169D01*
X153906037Y-96845359D01*
X153750036Y-96780741D01*
X153584427Y-96747800D01*
X153415573Y-96747800D01*
X153249964Y-96780741D01*
X153093963Y-96845359D01*
X152953567Y-96939169D01*
X152834169Y-97058567D01*
X152740359Y-97198963D01*
X152675741Y-97354964D01*
X152642800Y-97520573D01*
X152642800Y-97689427D01*
X152675741Y-97855036D01*
X152740359Y-98011037D01*
X152834169Y-98151433D01*
X152953567Y-98270831D01*
X153093963Y-98364641D01*
X153215540Y-98415000D01*
X153093963Y-98465359D01*
X152953567Y-98559169D01*
X152834169Y-98678567D01*
X152740359Y-98818963D01*
X152675741Y-98974964D01*
X152642800Y-99140573D01*
X152642800Y-99189411D01*
X152584427Y-99177800D01*
X152415573Y-99177800D01*
X152249964Y-99210741D01*
X152093963Y-99275359D01*
X151953567Y-99369169D01*
X151834169Y-99488567D01*
X151740359Y-99628963D01*
X151675741Y-99784964D01*
X151642800Y-99950573D01*
X149557200Y-99950573D01*
X149557200Y-99880064D01*
X149665831Y-99771433D01*
X149759641Y-99631037D01*
X149824259Y-99475036D01*
X149857200Y-99309427D01*
X149857200Y-99140573D01*
X149824259Y-98974964D01*
X149759641Y-98818963D01*
X149665831Y-98678567D01*
X149546433Y-98559169D01*
X149406037Y-98465359D01*
X149250036Y-98400741D01*
X149084427Y-98367800D01*
X148915573Y-98367800D01*
X148857200Y-98379411D01*
X148857200Y-98330573D01*
X148824259Y-98164964D01*
X148759641Y-98008963D01*
X148665831Y-97868567D01*
X148546433Y-97749169D01*
X148406037Y-97655359D01*
X148284460Y-97605000D01*
X148406037Y-97554641D01*
X148546433Y-97460831D01*
X148665831Y-97341433D01*
X148759641Y-97201037D01*
X148824259Y-97045036D01*
X148857200Y-96879427D01*
X148857200Y-96710573D01*
X148824259Y-96544964D01*
X148759641Y-96388963D01*
X148665831Y-96248567D01*
X148546433Y-96129169D01*
X148406037Y-96035359D01*
X148284460Y-95985000D01*
X148406037Y-95934641D01*
X148546433Y-95840831D01*
X148665831Y-95721433D01*
X148759641Y-95581037D01*
X148824259Y-95425036D01*
X148857200Y-95259427D01*
X148857200Y-95090573D01*
X148824259Y-94924964D01*
X148759641Y-94768963D01*
X148665831Y-94628567D01*
X148546433Y-94509169D01*
X148406037Y-94415359D01*
X148250036Y-94350741D01*
X148084427Y-94317800D01*
X147915573Y-94317800D01*
X147749964Y-94350741D01*
X147593963Y-94415359D01*
X147453567Y-94509169D01*
X147344936Y-94617800D01*
X144436384Y-94617800D01*
X144461605Y-94570614D01*
X144504820Y-94428154D01*
X144519412Y-94280000D01*
X144519412Y-93680000D01*
X144504820Y-93531846D01*
X144461605Y-93389386D01*
X144391428Y-93258093D01*
X144296985Y-93143015D01*
X144181907Y-93048572D01*
X144050614Y-92978395D01*
X143908154Y-92935180D01*
X143760000Y-92920588D01*
X140660000Y-92920588D01*
X140511846Y-92935180D01*
X140369386Y-92978395D01*
X140238093Y-93048572D01*
X140123015Y-93143015D01*
X140028572Y-93258093D01*
X139958395Y-93389386D01*
X139915180Y-93531846D01*
X139900588Y-93680000D01*
X139482200Y-93680000D01*
X139482200Y-75900000D01*
X139900588Y-75900000D01*
X139900588Y-76500000D01*
X139915180Y-76648154D01*
X139958395Y-76790614D01*
X140028572Y-76921907D01*
X140123015Y-77036985D01*
X140238093Y-77131428D01*
X140369386Y-77201605D01*
X140511846Y-77244820D01*
X140660000Y-77259412D01*
X143760000Y-77259412D01*
X143908154Y-77244820D01*
X144050614Y-77201605D01*
X144181907Y-77131428D01*
X144193728Y-77121727D01*
X146442801Y-79370801D01*
X146442800Y-82026257D01*
X144120691Y-79704148D01*
X144181907Y-79671428D01*
X144296985Y-79576985D01*
X144391428Y-79461907D01*
X144461605Y-79330614D01*
X144504820Y-79188154D01*
X144519412Y-79040000D01*
X144519412Y-78440000D01*
X144504820Y-78291846D01*
X144461605Y-78149386D01*
X144391428Y-78018093D01*
X144296985Y-77903015D01*
X144181907Y-77808572D01*
X144050614Y-77738395D01*
X143908154Y-77695180D01*
X143760000Y-77680588D01*
X140660000Y-77680588D01*
X140511846Y-77695180D01*
X140369386Y-77738395D01*
X140238093Y-77808572D01*
X140123015Y-77903015D01*
X140028572Y-78018093D01*
X139958395Y-78149386D01*
X139915180Y-78291846D01*
X139900588Y-78440000D01*
X139900588Y-79040000D01*
X139915180Y-79188154D01*
X139958395Y-79330614D01*
X140028572Y-79461907D01*
X140123015Y-79576985D01*
X140238093Y-79671428D01*
X140369386Y-79741605D01*
X140511846Y-79784820D01*
X140660000Y-79799412D01*
X142639957Y-79799412D01*
X143061133Y-80220588D01*
X140660000Y-80220588D01*
X140511846Y-80235180D01*
X140369386Y-80278395D01*
X140238093Y-80348572D01*
X140123015Y-80443015D01*
X140028572Y-80558093D01*
X139958395Y-80689386D01*
X139915180Y-80831846D01*
X139900588Y-80980000D01*
X139900588Y-81580000D01*
X139915180Y-81728154D01*
X139958395Y-81870614D01*
X140028572Y-82001907D01*
X140123015Y-82116985D01*
X140238093Y-82211428D01*
X140369386Y-82281605D01*
X140511846Y-82324820D01*
X140660000Y-82339412D01*
X143760000Y-82339412D01*
X143908154Y-82324820D01*
X144050614Y-82281605D01*
X144181907Y-82211428D01*
X144193728Y-82201727D01*
X144942801Y-82950800D01*
X144942801Y-83914801D01*
X144516289Y-83488290D01*
X144504820Y-83371846D01*
X144461605Y-83229386D01*
X144391428Y-83098093D01*
X144296985Y-82983015D01*
X144181907Y-82888572D01*
X144050614Y-82818395D01*
X143908154Y-82775180D01*
X143760000Y-82760588D01*
X140660000Y-82760588D01*
X140511846Y-82775180D01*
X140369386Y-82818395D01*
X140238093Y-82888572D01*
X140123015Y-82983015D01*
X140028572Y-83098093D01*
X139958395Y-83229386D01*
X139915180Y-83371846D01*
X139900588Y-83520000D01*
X139900588Y-84120000D01*
X139915180Y-84268154D01*
X139958395Y-84410614D01*
X140028572Y-84541907D01*
X140123015Y-84656985D01*
X140238093Y-84751428D01*
X140369386Y-84821605D01*
X140511846Y-84864820D01*
X140660000Y-84879412D01*
X143760000Y-84879412D01*
X143908154Y-84864820D01*
X144050614Y-84821605D01*
X144181907Y-84751428D01*
X144193728Y-84741727D01*
X144442801Y-84990801D01*
X144442801Y-85734205D01*
X144391428Y-85638093D01*
X144296985Y-85523015D01*
X144181907Y-85428572D01*
X144050614Y-85358395D01*
X143908154Y-85315180D01*
X143760000Y-85300588D01*
X140660000Y-85300588D01*
X140511846Y-85315180D01*
X140369386Y-85358395D01*
X140238093Y-85428572D01*
X140123015Y-85523015D01*
X140028572Y-85638093D01*
X139958395Y-85769386D01*
X139915180Y-85911846D01*
X139900588Y-86060000D01*
X139900588Y-86660000D01*
X139915180Y-86808154D01*
X139958395Y-86950614D01*
X140028572Y-87081907D01*
X140123015Y-87196985D01*
X140238093Y-87291428D01*
X140369386Y-87361605D01*
X140511846Y-87404820D01*
X140660000Y-87419412D01*
X143090411Y-87419412D01*
X143511587Y-87840588D01*
X140660000Y-87840588D01*
X140511846Y-87855180D01*
X140369386Y-87898395D01*
X140238093Y-87968572D01*
X140123015Y-88063015D01*
X140028572Y-88178093D01*
X139958395Y-88309386D01*
X139915180Y-88451846D01*
X139900588Y-88600000D01*
X139900588Y-89200000D01*
X139915180Y-89348154D01*
X139958395Y-89490614D01*
X140028572Y-89621907D01*
X140123015Y-89736985D01*
X140238093Y-89831428D01*
X140369386Y-89901605D01*
X140511846Y-89944820D01*
X140660000Y-89959412D01*
X143760000Y-89959412D01*
X143908154Y-89944820D01*
X144050614Y-89901605D01*
X144181907Y-89831428D01*
X144296985Y-89736985D01*
X144391428Y-89621907D01*
X144461605Y-89490614D01*
X144471741Y-89457200D01*
X144544201Y-89457200D01*
X146142800Y-91055800D01*
X146142800Y-91209427D01*
X146175741Y-91375036D01*
X146176886Y-91377800D01*
X144519412Y-91377800D01*
X144519412Y-91140000D01*
X144504820Y-90991846D01*
X144461605Y-90849386D01*
X144391428Y-90718093D01*
X144296985Y-90603015D01*
X144181907Y-90508572D01*
X144050614Y-90438395D01*
X143908154Y-90395180D01*
X143760000Y-90380588D01*
X140660000Y-90380588D01*
X140511846Y-90395180D01*
X140369386Y-90438395D01*
X140238093Y-90508572D01*
X140123015Y-90603015D01*
X140028572Y-90718093D01*
X139958395Y-90849386D01*
X139915180Y-90991846D01*
X139900588Y-91140000D01*
X139900588Y-91740000D01*
X139915180Y-91888154D01*
X139958395Y-92030614D01*
X140028572Y-92161907D01*
X140123015Y-92276985D01*
X140238093Y-92371428D01*
X140369386Y-92441605D01*
X140511846Y-92484820D01*
X140660000Y-92499412D01*
X143760000Y-92499412D01*
X143833224Y-92492200D01*
X147844936Y-92492200D01*
X147953567Y-92600831D01*
X148093963Y-92694641D01*
X148249964Y-92759259D01*
X148415573Y-92792200D01*
X148584427Y-92792200D01*
X148750036Y-92759259D01*
X148906037Y-92694641D01*
X149046433Y-92600831D01*
X149165831Y-92481433D01*
X149259641Y-92341037D01*
X149324259Y-92185036D01*
X149357200Y-92019427D01*
X149357200Y-91850573D01*
X149324259Y-91684964D01*
X149259641Y-91528963D01*
X149165831Y-91388567D01*
X149046433Y-91269169D01*
X148906037Y-91175359D01*
X148784460Y-91125000D01*
X148906037Y-91074641D01*
X149046433Y-90980831D01*
X149165831Y-90861433D01*
X149259641Y-90721037D01*
X149324259Y-90565036D01*
X149357200Y-90399427D01*
X149357200Y-90230573D01*
X149324259Y-90064964D01*
X149259641Y-89908963D01*
X149165831Y-89768567D01*
X149046433Y-89649169D01*
X148906037Y-89555359D01*
X148784460Y-89505000D01*
X148906037Y-89454641D01*
X148957023Y-89420573D01*
X153142800Y-89420573D01*
X153142800Y-89589427D01*
X153175741Y-89755036D01*
X153240359Y-89911037D01*
X153334169Y-90051433D01*
X153453567Y-90170831D01*
X153593963Y-90264641D01*
X153715540Y-90315000D01*
X153593963Y-90365359D01*
X153453567Y-90459169D01*
X153334169Y-90578567D01*
X153240359Y-90718963D01*
X153175741Y-90874964D01*
X153142800Y-91040573D01*
X153142800Y-91209427D01*
X153175741Y-91375036D01*
X153240359Y-91531037D01*
X153334169Y-91671433D01*
X153453567Y-91790831D01*
X153593963Y-91884641D01*
X153749964Y-91949259D01*
X153915573Y-91982200D01*
X154084427Y-91982200D01*
X154142800Y-91970589D01*
X154142800Y-92019427D01*
X154175741Y-92185036D01*
X154240359Y-92341037D01*
X154334169Y-92481433D01*
X154453567Y-92600831D01*
X154593963Y-92694641D01*
X154749964Y-92759259D01*
X154915573Y-92792200D01*
X155084427Y-92792200D01*
X155250036Y-92759259D01*
X155406037Y-92694641D01*
X155546433Y-92600831D01*
X155655064Y-92492200D01*
X158426776Y-92492200D01*
X158500000Y-92499412D01*
X161600000Y-92499412D01*
X161748154Y-92484820D01*
X161890614Y-92441605D01*
X162021907Y-92371428D01*
X162136985Y-92276985D01*
X162231428Y-92161907D01*
X162301605Y-92030614D01*
X162344820Y-91888154D01*
X162359412Y-91740000D01*
X162359412Y-91140000D01*
X162344820Y-90991846D01*
X162301605Y-90849386D01*
X162231428Y-90718093D01*
X162136985Y-90603015D01*
X162021907Y-90508572D01*
X161890614Y-90438395D01*
X161748154Y-90395180D01*
X161600000Y-90380588D01*
X159198868Y-90380588D01*
X159620044Y-89959412D01*
X161600000Y-89959412D01*
X161748154Y-89944820D01*
X161890614Y-89901605D01*
X162021907Y-89831428D01*
X162136985Y-89736985D01*
X162231428Y-89621907D01*
X162301605Y-89490614D01*
X162344820Y-89348154D01*
X162359412Y-89200000D01*
X162359412Y-88600000D01*
X162344820Y-88451846D01*
X162301605Y-88309386D01*
X162231428Y-88178093D01*
X162136985Y-88063015D01*
X162021907Y-87968572D01*
X161890614Y-87898395D01*
X161748154Y-87855180D01*
X161600000Y-87840588D01*
X158500000Y-87840588D01*
X158457190Y-87844804D01*
X158457190Y-87415196D01*
X158500000Y-87419412D01*
X161600000Y-87419412D01*
X161748154Y-87404820D01*
X161890614Y-87361605D01*
X162021907Y-87291428D01*
X162136985Y-87196985D01*
X162231428Y-87081907D01*
X162301605Y-86950614D01*
X162344820Y-86808154D01*
X162359412Y-86660000D01*
X162359412Y-86060000D01*
X162344820Y-85911846D01*
X162301605Y-85769386D01*
X162231428Y-85638093D01*
X162136985Y-85523015D01*
X162021907Y-85428572D01*
X161890614Y-85358395D01*
X161748154Y-85315180D01*
X161600000Y-85300588D01*
X158500000Y-85300588D01*
X158351846Y-85315180D01*
X158209386Y-85358395D01*
X158078093Y-85428572D01*
X157963015Y-85523015D01*
X157868572Y-85638093D01*
X157798395Y-85769386D01*
X157755180Y-85911846D01*
X157743711Y-86028290D01*
X157557200Y-86214801D01*
X157557200Y-85250799D01*
X158066272Y-84741727D01*
X158078093Y-84751428D01*
X158209386Y-84821605D01*
X158351846Y-84864820D01*
X158500000Y-84879412D01*
X161600000Y-84879412D01*
X161748154Y-84864820D01*
X161890614Y-84821605D01*
X162021907Y-84751428D01*
X162136985Y-84656985D01*
X162231428Y-84541907D01*
X162301605Y-84410614D01*
X162344820Y-84268154D01*
X162359412Y-84120000D01*
X162359412Y-83520000D01*
X162344820Y-83371846D01*
X162301605Y-83229386D01*
X162231428Y-83098093D01*
X162136985Y-82983015D01*
X162021907Y-82888572D01*
X161890614Y-82818395D01*
X161748154Y-82775180D01*
X161600000Y-82760588D01*
X158500000Y-82760588D01*
X158351846Y-82775180D01*
X158209386Y-82818395D01*
X158078093Y-82888572D01*
X157963015Y-82983015D01*
X157868572Y-83098093D01*
X157798395Y-83229386D01*
X157755180Y-83371846D01*
X157743711Y-83488289D01*
X156625355Y-84606646D01*
X156604095Y-84624094D01*
X156586647Y-84645354D01*
X156586645Y-84645356D01*
X156569703Y-84666000D01*
X156534464Y-84708938D01*
X156507171Y-84760000D01*
X156482724Y-84805738D01*
X156450862Y-84910770D01*
X156440105Y-85020000D01*
X156442801Y-85047376D01*
X156442800Y-88464200D01*
X155959201Y-88947800D01*
X154655064Y-88947800D01*
X154546433Y-88839169D01*
X154406037Y-88745359D01*
X154250036Y-88680741D01*
X154084427Y-88647800D01*
X153915573Y-88647800D01*
X153749964Y-88680741D01*
X153593963Y-88745359D01*
X153453567Y-88839169D01*
X153334169Y-88958567D01*
X153240359Y-89098963D01*
X153175741Y-89254964D01*
X153142800Y-89420573D01*
X148957023Y-89420573D01*
X149046433Y-89360831D01*
X149165831Y-89241433D01*
X149259641Y-89101037D01*
X149324259Y-88945036D01*
X149357200Y-88779427D01*
X149357200Y-88610573D01*
X149324259Y-88444964D01*
X149259641Y-88288963D01*
X149165831Y-88148567D01*
X149046433Y-88029169D01*
X148906037Y-87935359D01*
X148750036Y-87870741D01*
X148584427Y-87837800D01*
X148415573Y-87837800D01*
X148249964Y-87870741D01*
X148093963Y-87935359D01*
X147953567Y-88029169D01*
X147844936Y-88137800D01*
X147823114Y-88137800D01*
X147824259Y-88135036D01*
X147857200Y-87969427D01*
X147857200Y-87800573D01*
X147824259Y-87634964D01*
X147759641Y-87478963D01*
X147665831Y-87338567D01*
X147546433Y-87219169D01*
X147406037Y-87125359D01*
X147250036Y-87060741D01*
X147084427Y-87027800D01*
X146930799Y-87027800D01*
X146893572Y-86990573D01*
X149419798Y-86990573D01*
X149419798Y-87159427D01*
X149452739Y-87325036D01*
X149517357Y-87481037D01*
X149611167Y-87621433D01*
X149730565Y-87740831D01*
X149870961Y-87834641D01*
X150026962Y-87899259D01*
X150192571Y-87932200D01*
X150361425Y-87932200D01*
X150527034Y-87899259D01*
X150683035Y-87834641D01*
X150734021Y-87800573D01*
X152142800Y-87800573D01*
X152142800Y-87969427D01*
X152175741Y-88135036D01*
X152240359Y-88291037D01*
X152334169Y-88431433D01*
X152453567Y-88550831D01*
X152593963Y-88644641D01*
X152749964Y-88709259D01*
X152915573Y-88742200D01*
X153084427Y-88742200D01*
X153250036Y-88709259D01*
X153406037Y-88644641D01*
X153546433Y-88550831D01*
X153665831Y-88431433D01*
X153759641Y-88291037D01*
X153824259Y-88135036D01*
X153857200Y-87969427D01*
X153857200Y-87920589D01*
X153915573Y-87932200D01*
X154084427Y-87932200D01*
X154250036Y-87899259D01*
X154406037Y-87834641D01*
X154546433Y-87740831D01*
X154665831Y-87621433D01*
X154759641Y-87481037D01*
X154824259Y-87325036D01*
X154857200Y-87159427D01*
X154857200Y-86990573D01*
X154824259Y-86824964D01*
X154759641Y-86668963D01*
X154665831Y-86528567D01*
X154557200Y-86419936D01*
X154557200Y-84029797D01*
X156749798Y-81837200D01*
X157788259Y-81837200D01*
X157798395Y-81870614D01*
X157868572Y-82001907D01*
X157963015Y-82116985D01*
X158078093Y-82211428D01*
X158209386Y-82281605D01*
X158351846Y-82324820D01*
X158500000Y-82339412D01*
X161600000Y-82339412D01*
X161748154Y-82324820D01*
X161890614Y-82281605D01*
X162021907Y-82211428D01*
X162136985Y-82116985D01*
X162231428Y-82001907D01*
X162301605Y-81870614D01*
X162344820Y-81728154D01*
X162359412Y-81580000D01*
X162359412Y-80980000D01*
X162344820Y-80831846D01*
X162301605Y-80689386D01*
X162231428Y-80558093D01*
X162136985Y-80443015D01*
X162021907Y-80348572D01*
X161890614Y-80278395D01*
X161748154Y-80235180D01*
X161600000Y-80220588D01*
X158500000Y-80220588D01*
X158351846Y-80235180D01*
X158209386Y-80278395D01*
X158078093Y-80348572D01*
X157963015Y-80443015D01*
X157868572Y-80558093D01*
X157798395Y-80689386D01*
X157788259Y-80722800D01*
X157298500Y-80722800D01*
X158263331Y-79757969D01*
X158351846Y-79784820D01*
X158500000Y-79799412D01*
X161600000Y-79799412D01*
X161748154Y-79784820D01*
X161890614Y-79741605D01*
X162021907Y-79671428D01*
X162136985Y-79576985D01*
X162231428Y-79461907D01*
X162301605Y-79330614D01*
X162344820Y-79188154D01*
X162359412Y-79040000D01*
X162359412Y-78440000D01*
X162344820Y-78291846D01*
X162301605Y-78149386D01*
X162231428Y-78018093D01*
X162136985Y-77903015D01*
X162021907Y-77808572D01*
X161890614Y-77738395D01*
X161748154Y-77695180D01*
X161600000Y-77680588D01*
X158500000Y-77680588D01*
X158351846Y-77695180D01*
X158209386Y-77738395D01*
X158078093Y-77808572D01*
X157963015Y-77903015D01*
X157868572Y-78018093D01*
X157798395Y-78149386D01*
X157755180Y-78291846D01*
X157740588Y-78440000D01*
X157740588Y-78704712D01*
X152625355Y-83819946D01*
X152604095Y-83837394D01*
X152534464Y-83922238D01*
X152506809Y-83973978D01*
X152482724Y-84019038D01*
X152450862Y-84124070D01*
X152440105Y-84233300D01*
X152442801Y-84260676D01*
X152442800Y-87229936D01*
X152334169Y-87338567D01*
X152240359Y-87478963D01*
X152175741Y-87634964D01*
X152142800Y-87800573D01*
X150734021Y-87800573D01*
X150823431Y-87740831D01*
X150942829Y-87621433D01*
X151036639Y-87481037D01*
X151101257Y-87325036D01*
X151134198Y-87159427D01*
X151134198Y-87147220D01*
X151571890Y-86709529D01*
X151596958Y-86688956D01*
X151640533Y-86635861D01*
X151679085Y-86588885D01*
X151740110Y-86474715D01*
X151740111Y-86474714D01*
X151777690Y-86350832D01*
X151787200Y-86254275D01*
X151787200Y-86254267D01*
X151790378Y-86221998D01*
X151787200Y-86189729D01*
X151787200Y-78914064D01*
X151795831Y-78905433D01*
X151889641Y-78765037D01*
X151954259Y-78609036D01*
X151987200Y-78443427D01*
X151987200Y-78431220D01*
X153561221Y-76857200D01*
X157833986Y-76857200D01*
X157868572Y-76921907D01*
X157963015Y-77036985D01*
X158078093Y-77131428D01*
X158209386Y-77201605D01*
X158351846Y-77244820D01*
X158500000Y-77259412D01*
X161600000Y-77259412D01*
X161748154Y-77244820D01*
X161890614Y-77201605D01*
X162021907Y-77131428D01*
X162136985Y-77036985D01*
X162231428Y-76921907D01*
X162301605Y-76790614D01*
X162344820Y-76648154D01*
X162359412Y-76500000D01*
X162359412Y-75900000D01*
X162344820Y-75751846D01*
X162301605Y-75609386D01*
X162231428Y-75478093D01*
X162136985Y-75363015D01*
X162021907Y-75268572D01*
X161890614Y-75198395D01*
X161748154Y-75155180D01*
X161600000Y-75140588D01*
X158500000Y-75140588D01*
X158351846Y-75155180D01*
X158209386Y-75198395D01*
X158078093Y-75268572D01*
X157963015Y-75363015D01*
X157868572Y-75478093D01*
X157833986Y-75542800D01*
X153321266Y-75542800D01*
X153288999Y-75539622D01*
X153256732Y-75542800D01*
X153256723Y-75542800D01*
X153160166Y-75552310D01*
X153036284Y-75589889D01*
X152922113Y-75650915D01*
X152822042Y-75733042D01*
X152801469Y-75758110D01*
X151057780Y-77501800D01*
X151045573Y-77501800D01*
X150879964Y-77534741D01*
X150723963Y-77599359D01*
X150583567Y-77693169D01*
X150464169Y-77812567D01*
X150370359Y-77952963D01*
X150305741Y-78108964D01*
X150272800Y-78274573D01*
X150272800Y-78443427D01*
X150305741Y-78609036D01*
X150370359Y-78765037D01*
X150464169Y-78905433D01*
X150472800Y-78914064D01*
X150472801Y-85949776D01*
X150204778Y-86217800D01*
X150192571Y-86217800D01*
X150026962Y-86250741D01*
X149870961Y-86315359D01*
X149730565Y-86409169D01*
X149611167Y-86528567D01*
X149517357Y-86668963D01*
X149452739Y-86824964D01*
X149419798Y-86990573D01*
X146893572Y-86990573D01*
X146857199Y-86954200D01*
X146857199Y-85490589D01*
X146915573Y-85502200D01*
X147084427Y-85502200D01*
X147250036Y-85469259D01*
X147406037Y-85404641D01*
X147546433Y-85310831D01*
X147665831Y-85191433D01*
X147759641Y-85051037D01*
X147824259Y-84895036D01*
X147857200Y-84729427D01*
X147857200Y-84560573D01*
X147824259Y-84394964D01*
X147759641Y-84238963D01*
X147665831Y-84098567D01*
X147557200Y-83989936D01*
X147557200Y-79167366D01*
X147559895Y-79140000D01*
X147557200Y-79112634D01*
X147557200Y-79112627D01*
X147549138Y-79030770D01*
X147547337Y-79024831D01*
X147517276Y-78925737D01*
X147507841Y-78908085D01*
X147465537Y-78828938D01*
X147395906Y-78744094D01*
X147374646Y-78726646D01*
X144516289Y-75868290D01*
X144504820Y-75751846D01*
X144461605Y-75609386D01*
X144391428Y-75478093D01*
X144296985Y-75363015D01*
X144181907Y-75268572D01*
X144050614Y-75198395D01*
X143908154Y-75155180D01*
X143760000Y-75140588D01*
X140660000Y-75140588D01*
X140511846Y-75155180D01*
X140369386Y-75198395D01*
X140238093Y-75268572D01*
X140123015Y-75363015D01*
X140028572Y-75478093D01*
X139958395Y-75609386D01*
X139915180Y-75751846D01*
X139900588Y-75900000D01*
X139482200Y-75900000D01*
X139482200Y-75178589D01*
X139489570Y-75103430D01*
X139504544Y-75053831D01*
X139528869Y-75008082D01*
X139561618Y-74967928D01*
X139601541Y-74934901D01*
X139647116Y-74910259D01*
X139696621Y-74894934D01*
X139770206Y-74887200D01*
X162476411Y-74887200D01*
X162551570Y-74894570D01*
%TA.AperFunction,Conductor*%
D14*
G36*
X162551570Y-74894570D02*
G01*
X162601169Y-74909544D01*
X162646918Y-74933869D01*
X162687072Y-74966618D01*
X162720099Y-75006541D01*
X162744741Y-75052116D01*
X162760066Y-75101621D01*
X162767800Y-75175206D01*
X162767801Y-110881401D01*
X162760430Y-110956571D01*
X162745456Y-111006169D01*
X162721130Y-111051920D01*
X162688382Y-111092072D01*
X162648462Y-111125097D01*
X162602879Y-111149743D01*
X162553380Y-111165065D01*
X162479794Y-111172800D01*
X139773589Y-111172800D01*
X139698429Y-111165430D01*
X139648831Y-111150456D01*
X139603080Y-111126130D01*
X139562928Y-111093382D01*
X139529903Y-111053462D01*
X139505257Y-111007879D01*
X139489935Y-110958380D01*
X139482200Y-110884794D01*
X139482200Y-109820000D01*
X139772973Y-109820000D01*
X139784253Y-109934523D01*
X139817658Y-110044646D01*
X139871905Y-110146135D01*
X139944909Y-110235091D01*
X140033865Y-110308095D01*
X140135354Y-110362342D01*
X140245477Y-110395747D01*
X140360000Y-110407027D01*
X141886150Y-110404200D01*
X142032200Y-110258150D01*
X142032200Y-109397800D01*
X142387800Y-109397800D01*
X142387800Y-110258150D01*
X142533850Y-110404200D01*
X144060000Y-110407027D01*
X144174523Y-110395747D01*
X144284646Y-110362342D01*
X144386135Y-110308095D01*
X144475091Y-110235091D01*
X144548095Y-110146135D01*
X144602342Y-110044646D01*
X144635747Y-109934523D01*
X144647027Y-109820000D01*
X144644200Y-109543850D01*
X144498150Y-109397800D01*
X142387800Y-109397800D01*
X142032200Y-109397800D01*
X139921850Y-109397800D01*
X139775800Y-109543850D01*
X139772973Y-109820000D01*
X139482200Y-109820000D01*
X139482200Y-108620000D01*
X139772973Y-108620000D01*
X139775800Y-108896150D01*
X139921850Y-109042200D01*
X142032200Y-109042200D01*
X142032200Y-108181850D01*
X142387800Y-108181850D01*
X142387800Y-109042200D01*
X144498150Y-109042200D01*
X144644200Y-108896150D01*
X144647027Y-108620000D01*
X144635747Y-108505477D01*
X144602342Y-108395354D01*
X144548095Y-108293865D01*
X144475091Y-108204909D01*
X144386135Y-108131905D01*
X144284646Y-108077658D01*
X144174523Y-108044253D01*
X144060000Y-108032973D01*
X142533850Y-108035800D01*
X142387800Y-108181850D01*
X142032200Y-108181850D01*
X141886150Y-108035800D01*
X140360000Y-108032973D01*
X140245477Y-108044253D01*
X140135354Y-108077658D01*
X140033865Y-108131905D01*
X139944909Y-108204909D01*
X139871905Y-108293865D01*
X139817658Y-108395354D01*
X139784253Y-108505477D01*
X139772973Y-108620000D01*
X139482200Y-108620000D01*
X139482200Y-93680000D01*
X139900588Y-93680000D01*
X139900588Y-94280000D01*
X139915180Y-94428154D01*
X139958395Y-94570614D01*
X140028572Y-94701907D01*
X140123015Y-94816985D01*
X140238093Y-94911428D01*
X140369386Y-94981605D01*
X140511846Y-95024820D01*
X140660000Y-95039412D01*
X142481412Y-95039412D01*
X142869800Y-95427800D01*
X142772365Y-95427800D01*
X142744999Y-95425105D01*
X142717633Y-95427800D01*
X142717627Y-95427800D01*
X142647279Y-95434729D01*
X142635769Y-95435862D01*
X142554261Y-95460588D01*
X140660000Y-95460588D01*
X140511846Y-95475180D01*
X140369386Y-95518395D01*
X140238093Y-95588572D01*
X140123015Y-95683015D01*
X140028572Y-95798093D01*
X139958395Y-95929386D01*
X139915180Y-96071846D01*
X139900588Y-96220000D01*
X139900588Y-96820000D01*
X139915180Y-96968154D01*
X139958395Y-97110614D01*
X140028572Y-97241907D01*
X140123015Y-97356985D01*
X140238093Y-97451428D01*
X140369386Y-97521605D01*
X140511846Y-97564820D01*
X140660000Y-97579412D01*
X143061133Y-97579412D01*
X142639957Y-98000588D01*
X140660000Y-98000588D01*
X140511846Y-98015180D01*
X140369386Y-98058395D01*
X140238093Y-98128572D01*
X140123015Y-98223015D01*
X140028572Y-98338093D01*
X139958395Y-98469386D01*
X139915180Y-98611846D01*
X139900588Y-98760000D01*
X139900588Y-99360000D01*
X139915180Y-99508154D01*
X139958395Y-99650614D01*
X140028572Y-99781907D01*
X140123015Y-99896985D01*
X140238093Y-99991428D01*
X140369386Y-100061605D01*
X140511846Y-100104820D01*
X140660000Y-100119412D01*
X143697589Y-100119412D01*
X143276413Y-100540588D01*
X140660000Y-100540588D01*
X140511846Y-100555180D01*
X140369386Y-100598395D01*
X140238093Y-100668572D01*
X140123015Y-100763015D01*
X140028572Y-100878093D01*
X139958395Y-101009386D01*
X139915180Y-101151846D01*
X139900588Y-101300000D01*
X139900588Y-101900000D01*
X139915180Y-102048154D01*
X139958395Y-102190614D01*
X140028572Y-102321907D01*
X140123015Y-102436985D01*
X140238093Y-102531428D01*
X140369386Y-102601605D01*
X140511846Y-102644820D01*
X140660000Y-102659412D01*
X143533274Y-102659412D01*
X143112098Y-103080588D01*
X140660000Y-103080588D01*
X140511846Y-103095180D01*
X140369386Y-103138395D01*
X140238093Y-103208572D01*
X140123015Y-103303015D01*
X140028572Y-103418093D01*
X139958395Y-103549386D01*
X139915180Y-103691846D01*
X139900588Y-103840000D01*
X139900588Y-104440000D01*
X139915180Y-104588154D01*
X139958395Y-104730614D01*
X140028572Y-104861907D01*
X140123015Y-104976985D01*
X140238093Y-105071428D01*
X140369386Y-105141605D01*
X140511846Y-105184820D01*
X140660000Y-105199412D01*
X143061133Y-105199412D01*
X142639957Y-105620588D01*
X140660000Y-105620588D01*
X140511846Y-105635180D01*
X140369386Y-105678395D01*
X140238093Y-105748572D01*
X140123015Y-105843015D01*
X140028572Y-105958093D01*
X139958395Y-106089386D01*
X139915180Y-106231846D01*
X139900588Y-106380000D01*
X139900588Y-106980000D01*
X139915180Y-107128154D01*
X139958395Y-107270614D01*
X140028572Y-107401907D01*
X140123015Y-107516985D01*
X140238093Y-107611428D01*
X140369386Y-107681605D01*
X140511846Y-107724820D01*
X140660000Y-107739412D01*
X143760000Y-107739412D01*
X143908154Y-107724820D01*
X144050614Y-107681605D01*
X144181907Y-107611428D01*
X144296985Y-107516985D01*
X144391428Y-107401907D01*
X144461605Y-107270614D01*
X144504820Y-107128154D01*
X144519412Y-106980000D01*
X144519412Y-106380000D01*
X144504820Y-106231846D01*
X144461605Y-106089386D01*
X144391428Y-105958093D01*
X144296985Y-105843015D01*
X144181907Y-105748572D01*
X144120691Y-105715852D01*
X149374646Y-100461898D01*
X149395906Y-100444450D01*
X149413737Y-100422724D01*
X149446564Y-100382724D01*
X149465537Y-100359606D01*
X149517276Y-100262807D01*
X149549138Y-100157774D01*
X149557200Y-100075917D01*
X149557200Y-100075911D01*
X149559895Y-100048545D01*
X149557200Y-100021179D01*
X149557200Y-99950573D01*
X151642800Y-99950573D01*
X151642800Y-100119427D01*
X151675741Y-100285036D01*
X151740359Y-100441037D01*
X151834169Y-100581433D01*
X151942800Y-100690064D01*
X151942801Y-103492624D01*
X151940105Y-103520000D01*
X151950862Y-103629230D01*
X151982724Y-103734262D01*
X151999344Y-103765355D01*
X152034464Y-103831062D01*
X152104095Y-103915906D01*
X152125355Y-103933354D01*
X157743711Y-109551711D01*
X157755180Y-109668154D01*
X157798395Y-109810614D01*
X157868572Y-109941907D01*
X157963015Y-110056985D01*
X158078093Y-110151428D01*
X158209386Y-110221605D01*
X158351846Y-110264820D01*
X158500000Y-110279412D01*
X161600000Y-110279412D01*
X161748154Y-110264820D01*
X161890614Y-110221605D01*
X162021907Y-110151428D01*
X162136985Y-110056985D01*
X162231428Y-109941907D01*
X162301605Y-109810614D01*
X162344820Y-109668154D01*
X162359412Y-109520000D01*
X162359412Y-108920000D01*
X162344820Y-108771846D01*
X162301605Y-108629386D01*
X162231428Y-108498093D01*
X162136985Y-108383015D01*
X162021907Y-108288572D01*
X161890614Y-108218395D01*
X161748154Y-108175180D01*
X161600000Y-108160588D01*
X158500000Y-108160588D01*
X158351846Y-108175180D01*
X158209386Y-108218395D01*
X158078093Y-108288572D01*
X158066273Y-108298273D01*
X153057200Y-103289201D01*
X153057200Y-102318765D01*
X153104095Y-102375906D01*
X153125355Y-102393354D01*
X157743711Y-107011711D01*
X157755180Y-107128154D01*
X157798395Y-107270614D01*
X157868572Y-107401907D01*
X157963015Y-107516985D01*
X158078093Y-107611428D01*
X158209386Y-107681605D01*
X158351846Y-107724820D01*
X158500000Y-107739412D01*
X161600000Y-107739412D01*
X161748154Y-107724820D01*
X161890614Y-107681605D01*
X162021907Y-107611428D01*
X162136985Y-107516985D01*
X162231428Y-107401907D01*
X162301605Y-107270614D01*
X162344820Y-107128154D01*
X162359412Y-106980000D01*
X162359412Y-106380000D01*
X162344820Y-106231846D01*
X162301605Y-106089386D01*
X162231428Y-105958093D01*
X162136985Y-105843015D01*
X162021907Y-105748572D01*
X161890614Y-105678395D01*
X161748154Y-105635180D01*
X161600000Y-105620588D01*
X158500000Y-105620588D01*
X158351846Y-105635180D01*
X158209386Y-105678395D01*
X158078093Y-105748572D01*
X158066273Y-105758273D01*
X154057200Y-101749201D01*
X154057200Y-99880064D01*
X154165831Y-99771433D01*
X154259641Y-99631037D01*
X154324259Y-99475036D01*
X154357200Y-99309427D01*
X154357200Y-99140573D01*
X154324259Y-98974964D01*
X154293350Y-98900343D01*
X154334169Y-98961433D01*
X154442800Y-99070064D01*
X154442801Y-100912624D01*
X154440105Y-100940000D01*
X154450862Y-101049230D01*
X154482724Y-101154262D01*
X154482725Y-101154263D01*
X154534464Y-101251062D01*
X154604095Y-101335906D01*
X154625355Y-101353354D01*
X157743711Y-104471711D01*
X157755180Y-104588154D01*
X157798395Y-104730614D01*
X157868572Y-104861907D01*
X157963015Y-104976985D01*
X158078093Y-105071428D01*
X158209386Y-105141605D01*
X158351846Y-105184820D01*
X158500000Y-105199412D01*
X161600000Y-105199412D01*
X161748154Y-105184820D01*
X161890614Y-105141605D01*
X162021907Y-105071428D01*
X162136985Y-104976985D01*
X162231428Y-104861907D01*
X162301605Y-104730614D01*
X162344820Y-104588154D01*
X162359412Y-104440000D01*
X162359412Y-103840000D01*
X162344820Y-103691846D01*
X162301605Y-103549386D01*
X162231428Y-103418093D01*
X162136985Y-103303015D01*
X162021907Y-103208572D01*
X161890614Y-103138395D01*
X161748154Y-103095180D01*
X161600000Y-103080588D01*
X158500000Y-103080588D01*
X158351846Y-103095180D01*
X158209386Y-103138395D01*
X158078093Y-103208572D01*
X158066273Y-103218273D01*
X155557200Y-100709201D01*
X155557200Y-99070064D01*
X155665831Y-98961433D01*
X155759641Y-98821037D01*
X155824259Y-98665036D01*
X155857200Y-98499427D01*
X155857200Y-98330573D01*
X155837243Y-98230243D01*
X156942801Y-99335801D01*
X156942800Y-100872634D01*
X156940105Y-100900000D01*
X156942800Y-100927366D01*
X156942800Y-100927372D01*
X156944044Y-100940000D01*
X156950862Y-101009230D01*
X156961046Y-101042800D01*
X156982724Y-101114262D01*
X157034463Y-101211062D01*
X157104094Y-101295906D01*
X157125359Y-101313358D01*
X157743711Y-101931711D01*
X157755180Y-102048154D01*
X157798395Y-102190614D01*
X157868572Y-102321907D01*
X157963015Y-102436985D01*
X158078093Y-102531428D01*
X158209386Y-102601605D01*
X158351846Y-102644820D01*
X158500000Y-102659412D01*
X161600000Y-102659412D01*
X161748154Y-102644820D01*
X161890614Y-102601605D01*
X162021907Y-102531428D01*
X162136985Y-102436985D01*
X162231428Y-102321907D01*
X162301605Y-102190614D01*
X162344820Y-102048154D01*
X162359412Y-101900000D01*
X162359412Y-101300000D01*
X162344820Y-101151846D01*
X162301605Y-101009386D01*
X162231428Y-100878093D01*
X162136985Y-100763015D01*
X162021907Y-100668572D01*
X161890614Y-100598395D01*
X161748154Y-100555180D01*
X161600000Y-100540588D01*
X158500000Y-100540588D01*
X158351846Y-100555180D01*
X158209386Y-100598395D01*
X158078093Y-100668572D01*
X158066272Y-100678273D01*
X158057200Y-100669201D01*
X158057200Y-99974281D01*
X158078093Y-99991428D01*
X158209386Y-100061605D01*
X158351846Y-100104820D01*
X158500000Y-100119412D01*
X161600000Y-100119412D01*
X161748154Y-100104820D01*
X161890614Y-100061605D01*
X162021907Y-99991428D01*
X162136985Y-99896985D01*
X162231428Y-99781907D01*
X162301605Y-99650614D01*
X162344820Y-99508154D01*
X162359412Y-99360000D01*
X162359412Y-98760000D01*
X162344820Y-98611846D01*
X162301605Y-98469386D01*
X162231428Y-98338093D01*
X162136985Y-98223015D01*
X162021907Y-98128572D01*
X161890614Y-98058395D01*
X161748154Y-98015180D01*
X161600000Y-98000588D01*
X158993588Y-98000588D01*
X158572412Y-97579412D01*
X161600000Y-97579412D01*
X161748154Y-97564820D01*
X161890614Y-97521605D01*
X162021907Y-97451428D01*
X162136985Y-97356985D01*
X162231428Y-97241907D01*
X162301605Y-97110614D01*
X162344820Y-96968154D01*
X162359412Y-96820000D01*
X162359412Y-96220000D01*
X162344820Y-96071846D01*
X162301605Y-95929386D01*
X162231428Y-95798093D01*
X162136985Y-95683015D01*
X162021907Y-95588572D01*
X161890614Y-95518395D01*
X161748154Y-95475180D01*
X161600000Y-95460588D01*
X159778588Y-95460588D01*
X159357411Y-95039412D01*
X161600000Y-95039412D01*
X161748154Y-95024820D01*
X161890614Y-94981605D01*
X162021907Y-94911428D01*
X162136985Y-94816985D01*
X162231428Y-94701907D01*
X162301605Y-94570614D01*
X162344820Y-94428154D01*
X162359412Y-94280000D01*
X162359412Y-93680000D01*
X162344820Y-93531846D01*
X162301605Y-93389386D01*
X162231428Y-93258093D01*
X162136985Y-93143015D01*
X162021907Y-93048572D01*
X161890614Y-92978395D01*
X161748154Y-92935180D01*
X161600000Y-92920588D01*
X158500000Y-92920588D01*
X158351846Y-92935180D01*
X158209386Y-92978395D01*
X158078093Y-93048572D01*
X157963015Y-93143015D01*
X157868572Y-93258093D01*
X157798395Y-93389386D01*
X157755180Y-93531846D01*
X157740588Y-93680000D01*
X157740588Y-93807800D01*
X155655064Y-93807800D01*
X155546433Y-93699169D01*
X155406037Y-93605359D01*
X155250036Y-93540741D01*
X155084427Y-93507800D01*
X154915573Y-93507800D01*
X154749964Y-93540741D01*
X154593963Y-93605359D01*
X154453567Y-93699169D01*
X154334169Y-93818567D01*
X154240359Y-93958963D01*
X154175741Y-94114964D01*
X154142800Y-94280573D01*
X154142800Y-94449427D01*
X154175741Y-94615036D01*
X154176886Y-94617800D01*
X154155064Y-94617800D01*
X154046433Y-94509169D01*
X153906037Y-94415359D01*
X153750036Y-94350741D01*
X153584427Y-94317800D01*
X153415573Y-94317800D01*
X153249964Y-94350741D01*
X153093963Y-94415359D01*
X152953567Y-94509169D01*
X152834169Y-94628567D01*
X152740359Y-94768963D01*
X152675741Y-94924964D01*
X152642800Y-95090573D01*
X152642800Y-95259427D01*
X152675741Y-95425036D01*
X152740359Y-95581037D01*
X152834169Y-95721433D01*
X152953567Y-95840831D01*
X153093963Y-95934641D01*
X153249964Y-95999259D01*
X153415573Y-96032200D01*
X153584427Y-96032200D01*
X153750036Y-95999259D01*
X153906037Y-95934641D01*
X154046433Y-95840831D01*
X154155064Y-95732200D01*
X157922650Y-95732200D01*
X157868572Y-95798093D01*
X157798395Y-95929386D01*
X157755180Y-96071846D01*
X157740588Y-96220000D01*
X157740588Y-96747589D01*
X157413358Y-96420359D01*
X157395906Y-96399094D01*
X157311062Y-96329463D01*
X157214263Y-96277724D01*
X157109230Y-96245862D01*
X157027373Y-96237800D01*
X157027366Y-96237800D01*
X157000000Y-96235105D01*
X156972634Y-96237800D01*
X155655064Y-96237800D01*
X155546433Y-96129169D01*
X155406037Y-96035359D01*
X155250036Y-95970741D01*
X155084427Y-95937800D01*
X154915573Y-95937800D01*
X154749964Y-95970741D01*
X154593963Y-96035359D01*
X154453567Y-96129169D01*
X154334169Y-96248567D01*
X154240359Y-96388963D01*
X154175741Y-96544964D01*
X154142800Y-96710573D01*
X154142800Y-96879427D01*
X154175741Y-97045036D01*
X154176886Y-97047800D01*
X154155064Y-97047800D01*
X154046433Y-96939169D01*
X153906037Y-96845359D01*
X153750036Y-96780741D01*
X153584427Y-96747800D01*
X153415573Y-96747800D01*
X153249964Y-96780741D01*
X153093963Y-96845359D01*
X152953567Y-96939169D01*
X152834169Y-97058567D01*
X152740359Y-97198963D01*
X152675741Y-97354964D01*
X152642800Y-97520573D01*
X152642800Y-97689427D01*
X152675741Y-97855036D01*
X152740359Y-98011037D01*
X152834169Y-98151433D01*
X152953567Y-98270831D01*
X153093963Y-98364641D01*
X153215540Y-98415000D01*
X153093963Y-98465359D01*
X152953567Y-98559169D01*
X152834169Y-98678567D01*
X152740359Y-98818963D01*
X152675741Y-98974964D01*
X152642800Y-99140573D01*
X152642800Y-99189411D01*
X152584427Y-99177800D01*
X152415573Y-99177800D01*
X152249964Y-99210741D01*
X152093963Y-99275359D01*
X151953567Y-99369169D01*
X151834169Y-99488567D01*
X151740359Y-99628963D01*
X151675741Y-99784964D01*
X151642800Y-99950573D01*
X149557200Y-99950573D01*
X149557200Y-99880064D01*
X149665831Y-99771433D01*
X149759641Y-99631037D01*
X149824259Y-99475036D01*
X149857200Y-99309427D01*
X149857200Y-99140573D01*
X149824259Y-98974964D01*
X149759641Y-98818963D01*
X149665831Y-98678567D01*
X149546433Y-98559169D01*
X149406037Y-98465359D01*
X149250036Y-98400741D01*
X149084427Y-98367800D01*
X148915573Y-98367800D01*
X148857200Y-98379411D01*
X148857200Y-98330573D01*
X148824259Y-98164964D01*
X148759641Y-98008963D01*
X148665831Y-97868567D01*
X148546433Y-97749169D01*
X148406037Y-97655359D01*
X148284460Y-97605000D01*
X148406037Y-97554641D01*
X148546433Y-97460831D01*
X148665831Y-97341433D01*
X148759641Y-97201037D01*
X148824259Y-97045036D01*
X148857200Y-96879427D01*
X148857200Y-96710573D01*
X148824259Y-96544964D01*
X148759641Y-96388963D01*
X148665831Y-96248567D01*
X148546433Y-96129169D01*
X148406037Y-96035359D01*
X148284460Y-95985000D01*
X148406037Y-95934641D01*
X148546433Y-95840831D01*
X148665831Y-95721433D01*
X148759641Y-95581037D01*
X148824259Y-95425036D01*
X148857200Y-95259427D01*
X148857200Y-95090573D01*
X148824259Y-94924964D01*
X148759641Y-94768963D01*
X148665831Y-94628567D01*
X148546433Y-94509169D01*
X148406037Y-94415359D01*
X148250036Y-94350741D01*
X148084427Y-94317800D01*
X147915573Y-94317800D01*
X147749964Y-94350741D01*
X147593963Y-94415359D01*
X147453567Y-94509169D01*
X147344936Y-94617800D01*
X144436384Y-94617800D01*
X144461605Y-94570614D01*
X144504820Y-94428154D01*
X144519412Y-94280000D01*
X144519412Y-93680000D01*
X144504820Y-93531846D01*
X144461605Y-93389386D01*
X144391428Y-93258093D01*
X144296985Y-93143015D01*
X144181907Y-93048572D01*
X144050614Y-92978395D01*
X143908154Y-92935180D01*
X143760000Y-92920588D01*
X140660000Y-92920588D01*
X140511846Y-92935180D01*
X140369386Y-92978395D01*
X140238093Y-93048572D01*
X140123015Y-93143015D01*
X140028572Y-93258093D01*
X139958395Y-93389386D01*
X139915180Y-93531846D01*
X139900588Y-93680000D01*
X139482200Y-93680000D01*
X139482200Y-75900000D01*
X139900588Y-75900000D01*
X139900588Y-76500000D01*
X139915180Y-76648154D01*
X139958395Y-76790614D01*
X140028572Y-76921907D01*
X140123015Y-77036985D01*
X140238093Y-77131428D01*
X140369386Y-77201605D01*
X140511846Y-77244820D01*
X140660000Y-77259412D01*
X143760000Y-77259412D01*
X143908154Y-77244820D01*
X144050614Y-77201605D01*
X144181907Y-77131428D01*
X144193728Y-77121727D01*
X146442801Y-79370801D01*
X146442800Y-82026257D01*
X144120691Y-79704148D01*
X144181907Y-79671428D01*
X144296985Y-79576985D01*
X144391428Y-79461907D01*
X144461605Y-79330614D01*
X144504820Y-79188154D01*
X144519412Y-79040000D01*
X144519412Y-78440000D01*
X144504820Y-78291846D01*
X144461605Y-78149386D01*
X144391428Y-78018093D01*
X144296985Y-77903015D01*
X144181907Y-77808572D01*
X144050614Y-77738395D01*
X143908154Y-77695180D01*
X143760000Y-77680588D01*
X140660000Y-77680588D01*
X140511846Y-77695180D01*
X140369386Y-77738395D01*
X140238093Y-77808572D01*
X140123015Y-77903015D01*
X140028572Y-78018093D01*
X139958395Y-78149386D01*
X139915180Y-78291846D01*
X139900588Y-78440000D01*
X139900588Y-79040000D01*
X139915180Y-79188154D01*
X139958395Y-79330614D01*
X140028572Y-79461907D01*
X140123015Y-79576985D01*
X140238093Y-79671428D01*
X140369386Y-79741605D01*
X140511846Y-79784820D01*
X140660000Y-79799412D01*
X142639957Y-79799412D01*
X143061133Y-80220588D01*
X140660000Y-80220588D01*
X140511846Y-80235180D01*
X140369386Y-80278395D01*
X140238093Y-80348572D01*
X140123015Y-80443015D01*
X140028572Y-80558093D01*
X139958395Y-80689386D01*
X139915180Y-80831846D01*
X139900588Y-80980000D01*
X139900588Y-81580000D01*
X139915180Y-81728154D01*
X139958395Y-81870614D01*
X140028572Y-82001907D01*
X140123015Y-82116985D01*
X140238093Y-82211428D01*
X140369386Y-82281605D01*
X140511846Y-82324820D01*
X140660000Y-82339412D01*
X143760000Y-82339412D01*
X143908154Y-82324820D01*
X144050614Y-82281605D01*
X144181907Y-82211428D01*
X144193728Y-82201727D01*
X144942801Y-82950800D01*
X144942801Y-83914801D01*
X144516289Y-83488290D01*
X144504820Y-83371846D01*
X144461605Y-83229386D01*
X144391428Y-83098093D01*
X144296985Y-82983015D01*
X144181907Y-82888572D01*
X144050614Y-82818395D01*
X143908154Y-82775180D01*
X143760000Y-82760588D01*
X140660000Y-82760588D01*
X140511846Y-82775180D01*
X140369386Y-82818395D01*
X140238093Y-82888572D01*
X140123015Y-82983015D01*
X140028572Y-83098093D01*
X139958395Y-83229386D01*
X139915180Y-83371846D01*
X139900588Y-83520000D01*
X139900588Y-84120000D01*
X139915180Y-84268154D01*
X139958395Y-84410614D01*
X140028572Y-84541907D01*
X140123015Y-84656985D01*
X140238093Y-84751428D01*
X140369386Y-84821605D01*
X140511846Y-84864820D01*
X140660000Y-84879412D01*
X143760000Y-84879412D01*
X143908154Y-84864820D01*
X144050614Y-84821605D01*
X144181907Y-84751428D01*
X144193728Y-84741727D01*
X144442801Y-84990801D01*
X144442801Y-85734205D01*
X144391428Y-85638093D01*
X144296985Y-85523015D01*
X144181907Y-85428572D01*
X144050614Y-85358395D01*
X143908154Y-85315180D01*
X143760000Y-85300588D01*
X140660000Y-85300588D01*
X140511846Y-85315180D01*
X140369386Y-85358395D01*
X140238093Y-85428572D01*
X140123015Y-85523015D01*
X140028572Y-85638093D01*
X139958395Y-85769386D01*
X139915180Y-85911846D01*
X139900588Y-86060000D01*
X139900588Y-86660000D01*
X139915180Y-86808154D01*
X139958395Y-86950614D01*
X140028572Y-87081907D01*
X140123015Y-87196985D01*
X140238093Y-87291428D01*
X140369386Y-87361605D01*
X140511846Y-87404820D01*
X140660000Y-87419412D01*
X143090411Y-87419412D01*
X143511587Y-87840588D01*
X140660000Y-87840588D01*
X140511846Y-87855180D01*
X140369386Y-87898395D01*
X140238093Y-87968572D01*
X140123015Y-88063015D01*
X140028572Y-88178093D01*
X139958395Y-88309386D01*
X139915180Y-88451846D01*
X139900588Y-88600000D01*
X139900588Y-89200000D01*
X139915180Y-89348154D01*
X139958395Y-89490614D01*
X140028572Y-89621907D01*
X140123015Y-89736985D01*
X140238093Y-89831428D01*
X140369386Y-89901605D01*
X140511846Y-89944820D01*
X140660000Y-89959412D01*
X143760000Y-89959412D01*
X143908154Y-89944820D01*
X144050614Y-89901605D01*
X144181907Y-89831428D01*
X144296985Y-89736985D01*
X144391428Y-89621907D01*
X144461605Y-89490614D01*
X144471741Y-89457200D01*
X144544201Y-89457200D01*
X146142800Y-91055800D01*
X146142800Y-91209427D01*
X146175741Y-91375036D01*
X146176886Y-91377800D01*
X144519412Y-91377800D01*
X144519412Y-91140000D01*
X144504820Y-90991846D01*
X144461605Y-90849386D01*
X144391428Y-90718093D01*
X144296985Y-90603015D01*
X144181907Y-90508572D01*
X144050614Y-90438395D01*
X143908154Y-90395180D01*
X143760000Y-90380588D01*
X140660000Y-90380588D01*
X140511846Y-90395180D01*
X140369386Y-90438395D01*
X140238093Y-90508572D01*
X140123015Y-90603015D01*
X140028572Y-90718093D01*
X139958395Y-90849386D01*
X139915180Y-90991846D01*
X139900588Y-91140000D01*
X139900588Y-91740000D01*
X139915180Y-91888154D01*
X139958395Y-92030614D01*
X140028572Y-92161907D01*
X140123015Y-92276985D01*
X140238093Y-92371428D01*
X140369386Y-92441605D01*
X140511846Y-92484820D01*
X140660000Y-92499412D01*
X143760000Y-92499412D01*
X143833224Y-92492200D01*
X147844936Y-92492200D01*
X147953567Y-92600831D01*
X148093963Y-92694641D01*
X148249964Y-92759259D01*
X148415573Y-92792200D01*
X148584427Y-92792200D01*
X148750036Y-92759259D01*
X148906037Y-92694641D01*
X149046433Y-92600831D01*
X149165831Y-92481433D01*
X149259641Y-92341037D01*
X149324259Y-92185036D01*
X149357200Y-92019427D01*
X149357200Y-91850573D01*
X149324259Y-91684964D01*
X149259641Y-91528963D01*
X149165831Y-91388567D01*
X149046433Y-91269169D01*
X148906037Y-91175359D01*
X148784460Y-91125000D01*
X148906037Y-91074641D01*
X149046433Y-90980831D01*
X149165831Y-90861433D01*
X149259641Y-90721037D01*
X149324259Y-90565036D01*
X149357200Y-90399427D01*
X149357200Y-90230573D01*
X149324259Y-90064964D01*
X149259641Y-89908963D01*
X149165831Y-89768567D01*
X149046433Y-89649169D01*
X148906037Y-89555359D01*
X148784460Y-89505000D01*
X148906037Y-89454641D01*
X148957023Y-89420573D01*
X153142800Y-89420573D01*
X153142800Y-89589427D01*
X153175741Y-89755036D01*
X153240359Y-89911037D01*
X153334169Y-90051433D01*
X153453567Y-90170831D01*
X153593963Y-90264641D01*
X153715540Y-90315000D01*
X153593963Y-90365359D01*
X153453567Y-90459169D01*
X153334169Y-90578567D01*
X153240359Y-90718963D01*
X153175741Y-90874964D01*
X153142800Y-91040573D01*
X153142800Y-91209427D01*
X153175741Y-91375036D01*
X153240359Y-91531037D01*
X153334169Y-91671433D01*
X153453567Y-91790831D01*
X153593963Y-91884641D01*
X153749964Y-91949259D01*
X153915573Y-91982200D01*
X154084427Y-91982200D01*
X154142800Y-91970589D01*
X154142800Y-92019427D01*
X154175741Y-92185036D01*
X154240359Y-92341037D01*
X154334169Y-92481433D01*
X154453567Y-92600831D01*
X154593963Y-92694641D01*
X154749964Y-92759259D01*
X154915573Y-92792200D01*
X155084427Y-92792200D01*
X155250036Y-92759259D01*
X155406037Y-92694641D01*
X155546433Y-92600831D01*
X155655064Y-92492200D01*
X158426776Y-92492200D01*
X158500000Y-92499412D01*
X161600000Y-92499412D01*
X161748154Y-92484820D01*
X161890614Y-92441605D01*
X162021907Y-92371428D01*
X162136985Y-92276985D01*
X162231428Y-92161907D01*
X162301605Y-92030614D01*
X162344820Y-91888154D01*
X162359412Y-91740000D01*
X162359412Y-91140000D01*
X162344820Y-90991846D01*
X162301605Y-90849386D01*
X162231428Y-90718093D01*
X162136985Y-90603015D01*
X162021907Y-90508572D01*
X161890614Y-90438395D01*
X161748154Y-90395180D01*
X161600000Y-90380588D01*
X159198868Y-90380588D01*
X159620044Y-89959412D01*
X161600000Y-89959412D01*
X161748154Y-89944820D01*
X161890614Y-89901605D01*
X162021907Y-89831428D01*
X162136985Y-89736985D01*
X162231428Y-89621907D01*
X162301605Y-89490614D01*
X162344820Y-89348154D01*
X162359412Y-89200000D01*
X162359412Y-88600000D01*
X162344820Y-88451846D01*
X162301605Y-88309386D01*
X162231428Y-88178093D01*
X162136985Y-88063015D01*
X162021907Y-87968572D01*
X161890614Y-87898395D01*
X161748154Y-87855180D01*
X161600000Y-87840588D01*
X158500000Y-87840588D01*
X158457190Y-87844804D01*
X158457190Y-87415196D01*
X158500000Y-87419412D01*
X161600000Y-87419412D01*
X161748154Y-87404820D01*
X161890614Y-87361605D01*
X162021907Y-87291428D01*
X162136985Y-87196985D01*
X162231428Y-87081907D01*
X162301605Y-86950614D01*
X162344820Y-86808154D01*
X162359412Y-86660000D01*
X162359412Y-86060000D01*
X162344820Y-85911846D01*
X162301605Y-85769386D01*
X162231428Y-85638093D01*
X162136985Y-85523015D01*
X162021907Y-85428572D01*
X161890614Y-85358395D01*
X161748154Y-85315180D01*
X161600000Y-85300588D01*
X158500000Y-85300588D01*
X158351846Y-85315180D01*
X158209386Y-85358395D01*
X158078093Y-85428572D01*
X157963015Y-85523015D01*
X157868572Y-85638093D01*
X157798395Y-85769386D01*
X157755180Y-85911846D01*
X157743711Y-86028290D01*
X157557200Y-86214801D01*
X157557200Y-85250799D01*
X158066272Y-84741727D01*
X158078093Y-84751428D01*
X158209386Y-84821605D01*
X158351846Y-84864820D01*
X158500000Y-84879412D01*
X161600000Y-84879412D01*
X161748154Y-84864820D01*
X161890614Y-84821605D01*
X162021907Y-84751428D01*
X162136985Y-84656985D01*
X162231428Y-84541907D01*
X162301605Y-84410614D01*
X162344820Y-84268154D01*
X162359412Y-84120000D01*
X162359412Y-83520000D01*
X162344820Y-83371846D01*
X162301605Y-83229386D01*
X162231428Y-83098093D01*
X162136985Y-82983015D01*
X162021907Y-82888572D01*
X161890614Y-82818395D01*
X161748154Y-82775180D01*
X161600000Y-82760588D01*
X158500000Y-82760588D01*
X158351846Y-82775180D01*
X158209386Y-82818395D01*
X158078093Y-82888572D01*
X157963015Y-82983015D01*
X157868572Y-83098093D01*
X157798395Y-83229386D01*
X157755180Y-83371846D01*
X157743711Y-83488289D01*
X156625355Y-84606646D01*
X156604095Y-84624094D01*
X156586647Y-84645354D01*
X156586645Y-84645356D01*
X156569703Y-84666000D01*
X156534464Y-84708938D01*
X156507171Y-84760000D01*
X156482724Y-84805738D01*
X156450862Y-84910770D01*
X156440105Y-85020000D01*
X156442801Y-85047376D01*
X156442800Y-88464200D01*
X155959201Y-88947800D01*
X154655064Y-88947800D01*
X154546433Y-88839169D01*
X154406037Y-88745359D01*
X154250036Y-88680741D01*
X154084427Y-88647800D01*
X153915573Y-88647800D01*
X153749964Y-88680741D01*
X153593963Y-88745359D01*
X153453567Y-88839169D01*
X153334169Y-88958567D01*
X153240359Y-89098963D01*
X153175741Y-89254964D01*
X153142800Y-89420573D01*
X148957023Y-89420573D01*
X149046433Y-89360831D01*
X149165831Y-89241433D01*
X149259641Y-89101037D01*
X149324259Y-88945036D01*
X149357200Y-88779427D01*
X149357200Y-88610573D01*
X149324259Y-88444964D01*
X149259641Y-88288963D01*
X149165831Y-88148567D01*
X149046433Y-88029169D01*
X148906037Y-87935359D01*
X148750036Y-87870741D01*
X148584427Y-87837800D01*
X148415573Y-87837800D01*
X148249964Y-87870741D01*
X148093963Y-87935359D01*
X147953567Y-88029169D01*
X147844936Y-88137800D01*
X147823114Y-88137800D01*
X147824259Y-88135036D01*
X147857200Y-87969427D01*
X147857200Y-87800573D01*
X147824259Y-87634964D01*
X147759641Y-87478963D01*
X147665831Y-87338567D01*
X147546433Y-87219169D01*
X147406037Y-87125359D01*
X147250036Y-87060741D01*
X147084427Y-87027800D01*
X146930799Y-87027800D01*
X146893572Y-86990573D01*
X149419798Y-86990573D01*
X149419798Y-87159427D01*
X149452739Y-87325036D01*
X149517357Y-87481037D01*
X149611167Y-87621433D01*
X149730565Y-87740831D01*
X149870961Y-87834641D01*
X150026962Y-87899259D01*
X150192571Y-87932200D01*
X150361425Y-87932200D01*
X150527034Y-87899259D01*
X150683035Y-87834641D01*
X150734021Y-87800573D01*
X152142800Y-87800573D01*
X152142800Y-87969427D01*
X152175741Y-88135036D01*
X152240359Y-88291037D01*
X152334169Y-88431433D01*
X152453567Y-88550831D01*
X152593963Y-88644641D01*
X152749964Y-88709259D01*
X152915573Y-88742200D01*
X153084427Y-88742200D01*
X153250036Y-88709259D01*
X153406037Y-88644641D01*
X153546433Y-88550831D01*
X153665831Y-88431433D01*
X153759641Y-88291037D01*
X153824259Y-88135036D01*
X153857200Y-87969427D01*
X153857200Y-87920589D01*
X153915573Y-87932200D01*
X154084427Y-87932200D01*
X154250036Y-87899259D01*
X154406037Y-87834641D01*
X154546433Y-87740831D01*
X154665831Y-87621433D01*
X154759641Y-87481037D01*
X154824259Y-87325036D01*
X154857200Y-87159427D01*
X154857200Y-86990573D01*
X154824259Y-86824964D01*
X154759641Y-86668963D01*
X154665831Y-86528567D01*
X154557200Y-86419936D01*
X154557200Y-84029797D01*
X156749798Y-81837200D01*
X157788259Y-81837200D01*
X157798395Y-81870614D01*
X157868572Y-82001907D01*
X157963015Y-82116985D01*
X158078093Y-82211428D01*
X158209386Y-82281605D01*
X158351846Y-82324820D01*
X158500000Y-82339412D01*
X161600000Y-82339412D01*
X161748154Y-82324820D01*
X161890614Y-82281605D01*
X162021907Y-82211428D01*
X162136985Y-82116985D01*
X162231428Y-82001907D01*
X162301605Y-81870614D01*
X162344820Y-81728154D01*
X162359412Y-81580000D01*
X162359412Y-80980000D01*
X162344820Y-80831846D01*
X162301605Y-80689386D01*
X162231428Y-80558093D01*
X162136985Y-80443015D01*
X162021907Y-80348572D01*
X161890614Y-80278395D01*
X161748154Y-80235180D01*
X161600000Y-80220588D01*
X158500000Y-80220588D01*
X158351846Y-80235180D01*
X158209386Y-80278395D01*
X158078093Y-80348572D01*
X157963015Y-80443015D01*
X157868572Y-80558093D01*
X157798395Y-80689386D01*
X157788259Y-80722800D01*
X157298500Y-80722800D01*
X158263331Y-79757969D01*
X158351846Y-79784820D01*
X158500000Y-79799412D01*
X161600000Y-79799412D01*
X161748154Y-79784820D01*
X161890614Y-79741605D01*
X162021907Y-79671428D01*
X162136985Y-79576985D01*
X162231428Y-79461907D01*
X162301605Y-79330614D01*
X162344820Y-79188154D01*
X162359412Y-79040000D01*
X162359412Y-78440000D01*
X162344820Y-78291846D01*
X162301605Y-78149386D01*
X162231428Y-78018093D01*
X162136985Y-77903015D01*
X162021907Y-77808572D01*
X161890614Y-77738395D01*
X161748154Y-77695180D01*
X161600000Y-77680588D01*
X158500000Y-77680588D01*
X158351846Y-77695180D01*
X158209386Y-77738395D01*
X158078093Y-77808572D01*
X157963015Y-77903015D01*
X157868572Y-78018093D01*
X157798395Y-78149386D01*
X157755180Y-78291846D01*
X157740588Y-78440000D01*
X157740588Y-78704712D01*
X152625355Y-83819946D01*
X152604095Y-83837394D01*
X152534464Y-83922238D01*
X152506809Y-83973978D01*
X152482724Y-84019038D01*
X152450862Y-84124070D01*
X152440105Y-84233300D01*
X152442801Y-84260676D01*
X152442800Y-87229936D01*
X152334169Y-87338567D01*
X152240359Y-87478963D01*
X152175741Y-87634964D01*
X152142800Y-87800573D01*
X150734021Y-87800573D01*
X150823431Y-87740831D01*
X150942829Y-87621433D01*
X151036639Y-87481037D01*
X151101257Y-87325036D01*
X151134198Y-87159427D01*
X151134198Y-87147220D01*
X151571890Y-86709529D01*
X151596958Y-86688956D01*
X151640533Y-86635861D01*
X151679085Y-86588885D01*
X151740110Y-86474715D01*
X151740111Y-86474714D01*
X151777690Y-86350832D01*
X151787200Y-86254275D01*
X151787200Y-86254267D01*
X151790378Y-86221998D01*
X151787200Y-86189729D01*
X151787200Y-78914064D01*
X151795831Y-78905433D01*
X151889641Y-78765037D01*
X151954259Y-78609036D01*
X151987200Y-78443427D01*
X151987200Y-78431220D01*
X153561221Y-76857200D01*
X157833986Y-76857200D01*
X157868572Y-76921907D01*
X157963015Y-77036985D01*
X158078093Y-77131428D01*
X158209386Y-77201605D01*
X158351846Y-77244820D01*
X158500000Y-77259412D01*
X161600000Y-77259412D01*
X161748154Y-77244820D01*
X161890614Y-77201605D01*
X162021907Y-77131428D01*
X162136985Y-77036985D01*
X162231428Y-76921907D01*
X162301605Y-76790614D01*
X162344820Y-76648154D01*
X162359412Y-76500000D01*
X162359412Y-75900000D01*
X162344820Y-75751846D01*
X162301605Y-75609386D01*
X162231428Y-75478093D01*
X162136985Y-75363015D01*
X162021907Y-75268572D01*
X161890614Y-75198395D01*
X161748154Y-75155180D01*
X161600000Y-75140588D01*
X158500000Y-75140588D01*
X158351846Y-75155180D01*
X158209386Y-75198395D01*
X158078093Y-75268572D01*
X157963015Y-75363015D01*
X157868572Y-75478093D01*
X157833986Y-75542800D01*
X153321266Y-75542800D01*
X153288999Y-75539622D01*
X153256732Y-75542800D01*
X153256723Y-75542800D01*
X153160166Y-75552310D01*
X153036284Y-75589889D01*
X152922113Y-75650915D01*
X152822042Y-75733042D01*
X152801469Y-75758110D01*
X151057780Y-77501800D01*
X151045573Y-77501800D01*
X150879964Y-77534741D01*
X150723963Y-77599359D01*
X150583567Y-77693169D01*
X150464169Y-77812567D01*
X150370359Y-77952963D01*
X150305741Y-78108964D01*
X150272800Y-78274573D01*
X150272800Y-78443427D01*
X150305741Y-78609036D01*
X150370359Y-78765037D01*
X150464169Y-78905433D01*
X150472800Y-78914064D01*
X150472801Y-85949776D01*
X150204778Y-86217800D01*
X150192571Y-86217800D01*
X150026962Y-86250741D01*
X149870961Y-86315359D01*
X149730565Y-86409169D01*
X149611167Y-86528567D01*
X149517357Y-86668963D01*
X149452739Y-86824964D01*
X149419798Y-86990573D01*
X146893572Y-86990573D01*
X146857199Y-86954200D01*
X146857199Y-85490589D01*
X146915573Y-85502200D01*
X147084427Y-85502200D01*
X147250036Y-85469259D01*
X147406037Y-85404641D01*
X147546433Y-85310831D01*
X147665831Y-85191433D01*
X147759641Y-85051037D01*
X147824259Y-84895036D01*
X147857200Y-84729427D01*
X147857200Y-84560573D01*
X147824259Y-84394964D01*
X147759641Y-84238963D01*
X147665831Y-84098567D01*
X147557200Y-83989936D01*
X147557200Y-79167366D01*
X147559895Y-79140000D01*
X147557200Y-79112634D01*
X147557200Y-79112627D01*
X147549138Y-79030770D01*
X147547337Y-79024831D01*
X147517276Y-78925737D01*
X147507841Y-78908085D01*
X147465537Y-78828938D01*
X147395906Y-78744094D01*
X147374646Y-78726646D01*
X144516289Y-75868290D01*
X144504820Y-75751846D01*
X144461605Y-75609386D01*
X144391428Y-75478093D01*
X144296985Y-75363015D01*
X144181907Y-75268572D01*
X144050614Y-75198395D01*
X143908154Y-75155180D01*
X143760000Y-75140588D01*
X140660000Y-75140588D01*
X140511846Y-75155180D01*
X140369386Y-75198395D01*
X140238093Y-75268572D01*
X140123015Y-75363015D01*
X140028572Y-75478093D01*
X139958395Y-75609386D01*
X139915180Y-75751846D01*
X139900588Y-75900000D01*
X139482200Y-75900000D01*
X139482200Y-75178589D01*
X139489570Y-75103430D01*
X139504544Y-75053831D01*
X139528869Y-75008082D01*
X139561618Y-74967928D01*
X139601541Y-74934901D01*
X139647116Y-74910259D01*
X139696621Y-74894934D01*
X139770206Y-74887200D01*
X162476411Y-74887200D01*
X162551570Y-74894570D01*
G37*
%TD.AperFunction*%
D13*
X148240359Y-99631037D02*
X148334169Y-99771433D01*
X148411640Y-99848904D01*
X144510547Y-103749997D01*
X144504820Y-103691846D01*
X144461605Y-103549386D01*
X144391428Y-103418093D01*
X144373021Y-103395664D01*
X148210276Y-99558409D01*
X148240359Y-99631037D01*
%TA.AperFunction,Conductor*%
D14*
G36*
X148240359Y-99631037D02*
G01*
X148334169Y-99771433D01*
X148411640Y-99848904D01*
X144510547Y-103749997D01*
X144504820Y-103691846D01*
X144461605Y-103549386D01*
X144391428Y-103418093D01*
X144373021Y-103395664D01*
X148210276Y-99558409D01*
X148240359Y-99631037D01*
G37*
%TD.AperFunction*%
%TD*%
M02*
