%TF.GenerationSoftware,KiCad,Pcbnew,(5.1.10)-1*%
%TF.CreationDate,2021-09-09T19:00:59-06:00*%
%TF.ProjectId,NVRTC,4e565254-432e-46b6-9963-61645f706362,3*%
%TF.SameCoordinates,Original*%
%TF.FileFunction,Soldermask,Top*%
%TF.FilePolarity,Negative*%
%FSLAX46Y46*%
G04 Gerber Fmt 4.6, Leading zero omitted, Abs format (unit mm)*
G04 Created by KiCad (PCBNEW (5.1.10)-1) date 2021-09-09 19:00:59*
%MOMM*%
%LPD*%
G01*
G04 APERTURE LIST*
%ADD10O,2.000000X0.550000*%
G04 APERTURE END LIST*
%TO.C,U1*%
G36*
G01*
X156000000Y-83972500D02*
X156000000Y-83697500D01*
G75*
G02*
X156137500Y-83560000I137500J0D01*
G01*
X157862500Y-83560000D01*
G75*
G02*
X158000000Y-83697500I0J-137500D01*
G01*
X158000000Y-83972500D01*
G75*
G02*
X157862500Y-84110000I-137500J0D01*
G01*
X156137500Y-84110000D01*
G75*
G02*
X156000000Y-83972500I0J137500D01*
G01*
G37*
G36*
G01*
X156000000Y-84782500D02*
X156000000Y-84507500D01*
G75*
G02*
X156137500Y-84370000I137500J0D01*
G01*
X157862500Y-84370000D01*
G75*
G02*
X158000000Y-84507500I0J-137500D01*
G01*
X158000000Y-84782500D01*
G75*
G02*
X157862500Y-84920000I-137500J0D01*
G01*
X156137500Y-84920000D01*
G75*
G02*
X156000000Y-84782500I0J137500D01*
G01*
G37*
G36*
G01*
X156000000Y-85592500D02*
X156000000Y-85317500D01*
G75*
G02*
X156137500Y-85180000I137500J0D01*
G01*
X157862500Y-85180000D01*
G75*
G02*
X158000000Y-85317500I0J-137500D01*
G01*
X158000000Y-85592500D01*
G75*
G02*
X157862500Y-85730000I-137500J0D01*
G01*
X156137500Y-85730000D01*
G75*
G02*
X156000000Y-85592500I0J137500D01*
G01*
G37*
G36*
G01*
X156000000Y-86402500D02*
X156000000Y-86127500D01*
G75*
G02*
X156137500Y-85990000I137500J0D01*
G01*
X157862500Y-85990000D01*
G75*
G02*
X158000000Y-86127500I0J-137500D01*
G01*
X158000000Y-86402500D01*
G75*
G02*
X157862500Y-86540000I-137500J0D01*
G01*
X156137500Y-86540000D01*
G75*
G02*
X156000000Y-86402500I0J137500D01*
G01*
G37*
G36*
G01*
X156000000Y-87212500D02*
X156000000Y-86937500D01*
G75*
G02*
X156137500Y-86800000I137500J0D01*
G01*
X157862500Y-86800000D01*
G75*
G02*
X158000000Y-86937500I0J-137500D01*
G01*
X158000000Y-87212500D01*
G75*
G02*
X157862500Y-87350000I-137500J0D01*
G01*
X156137500Y-87350000D01*
G75*
G02*
X156000000Y-87212500I0J137500D01*
G01*
G37*
G36*
G01*
X156000000Y-88022500D02*
X156000000Y-87747500D01*
G75*
G02*
X156137500Y-87610000I137500J0D01*
G01*
X157862500Y-87610000D01*
G75*
G02*
X158000000Y-87747500I0J-137500D01*
G01*
X158000000Y-88022500D01*
G75*
G02*
X157862500Y-88160000I-137500J0D01*
G01*
X156137500Y-88160000D01*
G75*
G02*
X156000000Y-88022500I0J137500D01*
G01*
G37*
G36*
G01*
X156000000Y-88832500D02*
X156000000Y-88557500D01*
G75*
G02*
X156137500Y-88420000I137500J0D01*
G01*
X157862500Y-88420000D01*
G75*
G02*
X158000000Y-88557500I0J-137500D01*
G01*
X158000000Y-88832500D01*
G75*
G02*
X157862500Y-88970000I-137500J0D01*
G01*
X156137500Y-88970000D01*
G75*
G02*
X156000000Y-88832500I0J137500D01*
G01*
G37*
G36*
G01*
X156000000Y-89642500D02*
X156000000Y-89367500D01*
G75*
G02*
X156137500Y-89230000I137500J0D01*
G01*
X157862500Y-89230000D01*
G75*
G02*
X158000000Y-89367500I0J-137500D01*
G01*
X158000000Y-89642500D01*
G75*
G02*
X157862500Y-89780000I-137500J0D01*
G01*
X156137500Y-89780000D01*
G75*
G02*
X156000000Y-89642500I0J137500D01*
G01*
G37*
G36*
G01*
X156000000Y-90452500D02*
X156000000Y-90177500D01*
G75*
G02*
X156137500Y-90040000I137500J0D01*
G01*
X157862500Y-90040000D01*
G75*
G02*
X158000000Y-90177500I0J-137500D01*
G01*
X158000000Y-90452500D01*
G75*
G02*
X157862500Y-90590000I-137500J0D01*
G01*
X156137500Y-90590000D01*
G75*
G02*
X156000000Y-90452500I0J137500D01*
G01*
G37*
G36*
G01*
X156000000Y-91262500D02*
X156000000Y-90987500D01*
G75*
G02*
X156137500Y-90850000I137500J0D01*
G01*
X157862500Y-90850000D01*
G75*
G02*
X158000000Y-90987500I0J-137500D01*
G01*
X158000000Y-91262500D01*
G75*
G02*
X157862500Y-91400000I-137500J0D01*
G01*
X156137500Y-91400000D01*
G75*
G02*
X156000000Y-91262500I0J137500D01*
G01*
G37*
G36*
G01*
X156000000Y-92072500D02*
X156000000Y-91797500D01*
G75*
G02*
X156137500Y-91660000I137500J0D01*
G01*
X157862500Y-91660000D01*
G75*
G02*
X158000000Y-91797500I0J-137500D01*
G01*
X158000000Y-92072500D01*
G75*
G02*
X157862500Y-92210000I-137500J0D01*
G01*
X156137500Y-92210000D01*
G75*
G02*
X156000000Y-92072500I0J137500D01*
G01*
G37*
G36*
G01*
X156000000Y-92882500D02*
X156000000Y-92607500D01*
G75*
G02*
X156137500Y-92470000I137500J0D01*
G01*
X157862500Y-92470000D01*
G75*
G02*
X158000000Y-92607500I0J-137500D01*
G01*
X158000000Y-92882500D01*
G75*
G02*
X157862500Y-93020000I-137500J0D01*
G01*
X156137500Y-93020000D01*
G75*
G02*
X156000000Y-92882500I0J137500D01*
G01*
G37*
G36*
G01*
X156000000Y-93692500D02*
X156000000Y-93417500D01*
G75*
G02*
X156137500Y-93280000I137500J0D01*
G01*
X157862500Y-93280000D01*
G75*
G02*
X158000000Y-93417500I0J-137500D01*
G01*
X158000000Y-93692500D01*
G75*
G02*
X157862500Y-93830000I-137500J0D01*
G01*
X156137500Y-93830000D01*
G75*
G02*
X156000000Y-93692500I0J137500D01*
G01*
G37*
G36*
G01*
X156000000Y-94502500D02*
X156000000Y-94227500D01*
G75*
G02*
X156137500Y-94090000I137500J0D01*
G01*
X157862500Y-94090000D01*
G75*
G02*
X158000000Y-94227500I0J-137500D01*
G01*
X158000000Y-94502500D01*
G75*
G02*
X157862500Y-94640000I-137500J0D01*
G01*
X156137500Y-94640000D01*
G75*
G02*
X156000000Y-94502500I0J137500D01*
G01*
G37*
G36*
G01*
X156000000Y-95312500D02*
X156000000Y-95037500D01*
G75*
G02*
X156137500Y-94900000I137500J0D01*
G01*
X157862500Y-94900000D01*
G75*
G02*
X158000000Y-95037500I0J-137500D01*
G01*
X158000000Y-95312500D01*
G75*
G02*
X157862500Y-95450000I-137500J0D01*
G01*
X156137500Y-95450000D01*
G75*
G02*
X156000000Y-95312500I0J137500D01*
G01*
G37*
G36*
G01*
X156000000Y-96122500D02*
X156000000Y-95847500D01*
G75*
G02*
X156137500Y-95710000I137500J0D01*
G01*
X157862500Y-95710000D01*
G75*
G02*
X158000000Y-95847500I0J-137500D01*
G01*
X158000000Y-96122500D01*
G75*
G02*
X157862500Y-96260000I-137500J0D01*
G01*
X156137500Y-96260000D01*
G75*
G02*
X156000000Y-96122500I0J137500D01*
G01*
G37*
G36*
G01*
X156000000Y-96932500D02*
X156000000Y-96657500D01*
G75*
G02*
X156137500Y-96520000I137500J0D01*
G01*
X157862500Y-96520000D01*
G75*
G02*
X158000000Y-96657500I0J-137500D01*
G01*
X158000000Y-96932500D01*
G75*
G02*
X157862500Y-97070000I-137500J0D01*
G01*
X156137500Y-97070000D01*
G75*
G02*
X156000000Y-96932500I0J137500D01*
G01*
G37*
G36*
G01*
X156000000Y-97742500D02*
X156000000Y-97467500D01*
G75*
G02*
X156137500Y-97330000I137500J0D01*
G01*
X157862500Y-97330000D01*
G75*
G02*
X158000000Y-97467500I0J-137500D01*
G01*
X158000000Y-97742500D01*
G75*
G02*
X157862500Y-97880000I-137500J0D01*
G01*
X156137500Y-97880000D01*
G75*
G02*
X156000000Y-97742500I0J137500D01*
G01*
G37*
G36*
G01*
X156000000Y-98552500D02*
X156000000Y-98277500D01*
G75*
G02*
X156137500Y-98140000I137500J0D01*
G01*
X157862500Y-98140000D01*
G75*
G02*
X158000000Y-98277500I0J-137500D01*
G01*
X158000000Y-98552500D01*
G75*
G02*
X157862500Y-98690000I-137500J0D01*
G01*
X156137500Y-98690000D01*
G75*
G02*
X156000000Y-98552500I0J137500D01*
G01*
G37*
G36*
G01*
X156000000Y-99362500D02*
X156000000Y-99087500D01*
G75*
G02*
X156137500Y-98950000I137500J0D01*
G01*
X157862500Y-98950000D01*
G75*
G02*
X158000000Y-99087500I0J-137500D01*
G01*
X158000000Y-99362500D01*
G75*
G02*
X157862500Y-99500000I-137500J0D01*
G01*
X156137500Y-99500000D01*
G75*
G02*
X156000000Y-99362500I0J137500D01*
G01*
G37*
G36*
G01*
X156000000Y-100172500D02*
X156000000Y-99897500D01*
G75*
G02*
X156137500Y-99760000I137500J0D01*
G01*
X157862500Y-99760000D01*
G75*
G02*
X158000000Y-99897500I0J-137500D01*
G01*
X158000000Y-100172500D01*
G75*
G02*
X157862500Y-100310000I-137500J0D01*
G01*
X156137500Y-100310000D01*
G75*
G02*
X156000000Y-100172500I0J137500D01*
G01*
G37*
G36*
G01*
X156000000Y-100982500D02*
X156000000Y-100707500D01*
G75*
G02*
X156137500Y-100570000I137500J0D01*
G01*
X157862500Y-100570000D01*
G75*
G02*
X158000000Y-100707500I0J-137500D01*
G01*
X158000000Y-100982500D01*
G75*
G02*
X157862500Y-101120000I-137500J0D01*
G01*
X156137500Y-101120000D01*
G75*
G02*
X156000000Y-100982500I0J137500D01*
G01*
G37*
G36*
G01*
X144000000Y-100982500D02*
X144000000Y-100707500D01*
G75*
G02*
X144137500Y-100570000I137500J0D01*
G01*
X145862500Y-100570000D01*
G75*
G02*
X146000000Y-100707500I0J-137500D01*
G01*
X146000000Y-100982500D01*
G75*
G02*
X145862500Y-101120000I-137500J0D01*
G01*
X144137500Y-101120000D01*
G75*
G02*
X144000000Y-100982500I0J137500D01*
G01*
G37*
G36*
G01*
X144000000Y-100172500D02*
X144000000Y-99897500D01*
G75*
G02*
X144137500Y-99760000I137500J0D01*
G01*
X145862500Y-99760000D01*
G75*
G02*
X146000000Y-99897500I0J-137500D01*
G01*
X146000000Y-100172500D01*
G75*
G02*
X145862500Y-100310000I-137500J0D01*
G01*
X144137500Y-100310000D01*
G75*
G02*
X144000000Y-100172500I0J137500D01*
G01*
G37*
G36*
G01*
X144000000Y-99362500D02*
X144000000Y-99087500D01*
G75*
G02*
X144137500Y-98950000I137500J0D01*
G01*
X145862500Y-98950000D01*
G75*
G02*
X146000000Y-99087500I0J-137500D01*
G01*
X146000000Y-99362500D01*
G75*
G02*
X145862500Y-99500000I-137500J0D01*
G01*
X144137500Y-99500000D01*
G75*
G02*
X144000000Y-99362500I0J137500D01*
G01*
G37*
G36*
G01*
X144000000Y-98552500D02*
X144000000Y-98277500D01*
G75*
G02*
X144137500Y-98140000I137500J0D01*
G01*
X145862500Y-98140000D01*
G75*
G02*
X146000000Y-98277500I0J-137500D01*
G01*
X146000000Y-98552500D01*
G75*
G02*
X145862500Y-98690000I-137500J0D01*
G01*
X144137500Y-98690000D01*
G75*
G02*
X144000000Y-98552500I0J137500D01*
G01*
G37*
G36*
G01*
X144000000Y-97742500D02*
X144000000Y-97467500D01*
G75*
G02*
X144137500Y-97330000I137500J0D01*
G01*
X145862500Y-97330000D01*
G75*
G02*
X146000000Y-97467500I0J-137500D01*
G01*
X146000000Y-97742500D01*
G75*
G02*
X145862500Y-97880000I-137500J0D01*
G01*
X144137500Y-97880000D01*
G75*
G02*
X144000000Y-97742500I0J137500D01*
G01*
G37*
G36*
G01*
X144000000Y-96932500D02*
X144000000Y-96657500D01*
G75*
G02*
X144137500Y-96520000I137500J0D01*
G01*
X145862500Y-96520000D01*
G75*
G02*
X146000000Y-96657500I0J-137500D01*
G01*
X146000000Y-96932500D01*
G75*
G02*
X145862500Y-97070000I-137500J0D01*
G01*
X144137500Y-97070000D01*
G75*
G02*
X144000000Y-96932500I0J137500D01*
G01*
G37*
G36*
G01*
X144000000Y-96122500D02*
X144000000Y-95847500D01*
G75*
G02*
X144137500Y-95710000I137500J0D01*
G01*
X145862500Y-95710000D01*
G75*
G02*
X146000000Y-95847500I0J-137500D01*
G01*
X146000000Y-96122500D01*
G75*
G02*
X145862500Y-96260000I-137500J0D01*
G01*
X144137500Y-96260000D01*
G75*
G02*
X144000000Y-96122500I0J137500D01*
G01*
G37*
G36*
G01*
X144000000Y-95312500D02*
X144000000Y-95037500D01*
G75*
G02*
X144137500Y-94900000I137500J0D01*
G01*
X145862500Y-94900000D01*
G75*
G02*
X146000000Y-95037500I0J-137500D01*
G01*
X146000000Y-95312500D01*
G75*
G02*
X145862500Y-95450000I-137500J0D01*
G01*
X144137500Y-95450000D01*
G75*
G02*
X144000000Y-95312500I0J137500D01*
G01*
G37*
G36*
G01*
X144000000Y-94502500D02*
X144000000Y-94227500D01*
G75*
G02*
X144137500Y-94090000I137500J0D01*
G01*
X145862500Y-94090000D01*
G75*
G02*
X146000000Y-94227500I0J-137500D01*
G01*
X146000000Y-94502500D01*
G75*
G02*
X145862500Y-94640000I-137500J0D01*
G01*
X144137500Y-94640000D01*
G75*
G02*
X144000000Y-94502500I0J137500D01*
G01*
G37*
G36*
G01*
X144000000Y-93692500D02*
X144000000Y-93417500D01*
G75*
G02*
X144137500Y-93280000I137500J0D01*
G01*
X145862500Y-93280000D01*
G75*
G02*
X146000000Y-93417500I0J-137500D01*
G01*
X146000000Y-93692500D01*
G75*
G02*
X145862500Y-93830000I-137500J0D01*
G01*
X144137500Y-93830000D01*
G75*
G02*
X144000000Y-93692500I0J137500D01*
G01*
G37*
G36*
G01*
X144000000Y-92882500D02*
X144000000Y-92607500D01*
G75*
G02*
X144137500Y-92470000I137500J0D01*
G01*
X145862500Y-92470000D01*
G75*
G02*
X146000000Y-92607500I0J-137500D01*
G01*
X146000000Y-92882500D01*
G75*
G02*
X145862500Y-93020000I-137500J0D01*
G01*
X144137500Y-93020000D01*
G75*
G02*
X144000000Y-92882500I0J137500D01*
G01*
G37*
G36*
G01*
X144000000Y-92072500D02*
X144000000Y-91797500D01*
G75*
G02*
X144137500Y-91660000I137500J0D01*
G01*
X145862500Y-91660000D01*
G75*
G02*
X146000000Y-91797500I0J-137500D01*
G01*
X146000000Y-92072500D01*
G75*
G02*
X145862500Y-92210000I-137500J0D01*
G01*
X144137500Y-92210000D01*
G75*
G02*
X144000000Y-92072500I0J137500D01*
G01*
G37*
G36*
G01*
X144000000Y-91262500D02*
X144000000Y-90987500D01*
G75*
G02*
X144137500Y-90850000I137500J0D01*
G01*
X145862500Y-90850000D01*
G75*
G02*
X146000000Y-90987500I0J-137500D01*
G01*
X146000000Y-91262500D01*
G75*
G02*
X145862500Y-91400000I-137500J0D01*
G01*
X144137500Y-91400000D01*
G75*
G02*
X144000000Y-91262500I0J137500D01*
G01*
G37*
G36*
G01*
X144000000Y-90452500D02*
X144000000Y-90177500D01*
G75*
G02*
X144137500Y-90040000I137500J0D01*
G01*
X145862500Y-90040000D01*
G75*
G02*
X146000000Y-90177500I0J-137500D01*
G01*
X146000000Y-90452500D01*
G75*
G02*
X145862500Y-90590000I-137500J0D01*
G01*
X144137500Y-90590000D01*
G75*
G02*
X144000000Y-90452500I0J137500D01*
G01*
G37*
G36*
G01*
X144000000Y-89642500D02*
X144000000Y-89367500D01*
G75*
G02*
X144137500Y-89230000I137500J0D01*
G01*
X145862500Y-89230000D01*
G75*
G02*
X146000000Y-89367500I0J-137500D01*
G01*
X146000000Y-89642500D01*
G75*
G02*
X145862500Y-89780000I-137500J0D01*
G01*
X144137500Y-89780000D01*
G75*
G02*
X144000000Y-89642500I0J137500D01*
G01*
G37*
G36*
G01*
X144000000Y-88832500D02*
X144000000Y-88557500D01*
G75*
G02*
X144137500Y-88420000I137500J0D01*
G01*
X145862500Y-88420000D01*
G75*
G02*
X146000000Y-88557500I0J-137500D01*
G01*
X146000000Y-88832500D01*
G75*
G02*
X145862500Y-88970000I-137500J0D01*
G01*
X144137500Y-88970000D01*
G75*
G02*
X144000000Y-88832500I0J137500D01*
G01*
G37*
G36*
G01*
X144000000Y-88022500D02*
X144000000Y-87747500D01*
G75*
G02*
X144137500Y-87610000I137500J0D01*
G01*
X145862500Y-87610000D01*
G75*
G02*
X146000000Y-87747500I0J-137500D01*
G01*
X146000000Y-88022500D01*
G75*
G02*
X145862500Y-88160000I-137500J0D01*
G01*
X144137500Y-88160000D01*
G75*
G02*
X144000000Y-88022500I0J137500D01*
G01*
G37*
G36*
G01*
X144000000Y-87212500D02*
X144000000Y-86937500D01*
G75*
G02*
X144137500Y-86800000I137500J0D01*
G01*
X145862500Y-86800000D01*
G75*
G02*
X146000000Y-86937500I0J-137500D01*
G01*
X146000000Y-87212500D01*
G75*
G02*
X145862500Y-87350000I-137500J0D01*
G01*
X144137500Y-87350000D01*
G75*
G02*
X144000000Y-87212500I0J137500D01*
G01*
G37*
G36*
G01*
X144000000Y-86402500D02*
X144000000Y-86127500D01*
G75*
G02*
X144137500Y-85990000I137500J0D01*
G01*
X145862500Y-85990000D01*
G75*
G02*
X146000000Y-86127500I0J-137500D01*
G01*
X146000000Y-86402500D01*
G75*
G02*
X145862500Y-86540000I-137500J0D01*
G01*
X144137500Y-86540000D01*
G75*
G02*
X144000000Y-86402500I0J137500D01*
G01*
G37*
G36*
G01*
X144000000Y-85592500D02*
X144000000Y-85317500D01*
G75*
G02*
X144137500Y-85180000I137500J0D01*
G01*
X145862500Y-85180000D01*
G75*
G02*
X146000000Y-85317500I0J-137500D01*
G01*
X146000000Y-85592500D01*
G75*
G02*
X145862500Y-85730000I-137500J0D01*
G01*
X144137500Y-85730000D01*
G75*
G02*
X144000000Y-85592500I0J137500D01*
G01*
G37*
G36*
G01*
X144000000Y-84782500D02*
X144000000Y-84507500D01*
G75*
G02*
X144137500Y-84370000I137500J0D01*
G01*
X145862500Y-84370000D01*
G75*
G02*
X146000000Y-84507500I0J-137500D01*
G01*
X146000000Y-84782500D01*
G75*
G02*
X145862500Y-84920000I-137500J0D01*
G01*
X144137500Y-84920000D01*
G75*
G02*
X144000000Y-84782500I0J137500D01*
G01*
G37*
D10*
X145000000Y-83835000D03*
%TD*%
%TO.C,C2*%
G36*
G01*
X148750000Y-79846500D02*
X149700000Y-79846500D01*
G75*
G02*
X149950000Y-80096500I0J-250000D01*
G01*
X149950000Y-80771500D01*
G75*
G02*
X149700000Y-81021500I-250000J0D01*
G01*
X148750000Y-81021500D01*
G75*
G02*
X148500000Y-80771500I0J250000D01*
G01*
X148500000Y-80096500D01*
G75*
G02*
X148750000Y-79846500I250000J0D01*
G01*
G37*
G36*
G01*
X148750000Y-77771500D02*
X149700000Y-77771500D01*
G75*
G02*
X149950000Y-78021500I0J-250000D01*
G01*
X149950000Y-78696500D01*
G75*
G02*
X149700000Y-78946500I-250000J0D01*
G01*
X148750000Y-78946500D01*
G75*
G02*
X148500000Y-78696500I0J250000D01*
G01*
X148500000Y-78021500D01*
G75*
G02*
X148750000Y-77771500I250000J0D01*
G01*
G37*
%TD*%
%TO.C,C1*%
G36*
G01*
X152560000Y-79846500D02*
X153510000Y-79846500D01*
G75*
G02*
X153760000Y-80096500I0J-250000D01*
G01*
X153760000Y-80771500D01*
G75*
G02*
X153510000Y-81021500I-250000J0D01*
G01*
X152560000Y-81021500D01*
G75*
G02*
X152310000Y-80771500I0J250000D01*
G01*
X152310000Y-80096500D01*
G75*
G02*
X152560000Y-79846500I250000J0D01*
G01*
G37*
G36*
G01*
X152560000Y-77771500D02*
X153510000Y-77771500D01*
G75*
G02*
X153760000Y-78021500I0J-250000D01*
G01*
X153760000Y-78696500D01*
G75*
G02*
X153510000Y-78946500I-250000J0D01*
G01*
X152560000Y-78946500D01*
G75*
G02*
X152310000Y-78696500I0J250000D01*
G01*
X152310000Y-78021500D01*
G75*
G02*
X152560000Y-77771500I250000J0D01*
G01*
G37*
%TD*%
M02*
