%TF.GenerationSoftware,KiCad,Pcbnew,(5.1.8)-1*%
%TF.CreationDate,2021-05-04T01:41:37-06:00*%
%TF.ProjectId,NVRTC,4e565254-432e-46b6-9963-61645f706362,rev?*%
%TF.SameCoordinates,Original*%
%TF.FileFunction,Soldermask,Bot*%
%TF.FilePolarity,Negative*%
%FSLAX46Y46*%
G04 Gerber Fmt 4.6, Leading zero omitted, Abs format (unit mm)*
G04 Created by KiCad (PCBNEW (5.1.8)-1) date 2021-05-04 01:41:37*
%MOMM*%
%LPD*%
G01*
G04 APERTURE LIST*
G04 APERTURE END LIST*
%TO.C,H1*%
G36*
G01*
X144030000Y-86060000D02*
X144030000Y-86660000D01*
G75*
G02*
X143730000Y-86960000I-300000J0D01*
G01*
X140630000Y-86960000D01*
G75*
G02*
X140330000Y-86660000I0J300000D01*
G01*
X140330000Y-86060000D01*
G75*
G02*
X140630000Y-85760000I300000J0D01*
G01*
X143730000Y-85760000D01*
G75*
G02*
X144030000Y-86060000I0J-300000D01*
G01*
G37*
G36*
G01*
X144030000Y-83520000D02*
X144030000Y-84120000D01*
G75*
G02*
X143730000Y-84420000I-300000J0D01*
G01*
X140630000Y-84420000D01*
G75*
G02*
X140330000Y-84120000I0J300000D01*
G01*
X140330000Y-83520000D01*
G75*
G02*
X140630000Y-83220000I300000J0D01*
G01*
X143730000Y-83220000D01*
G75*
G02*
X144030000Y-83520000I0J-300000D01*
G01*
G37*
G36*
G01*
X144030000Y-80980000D02*
X144030000Y-81580000D01*
G75*
G02*
X143730000Y-81880000I-300000J0D01*
G01*
X140630000Y-81880000D01*
G75*
G02*
X140330000Y-81580000I0J300000D01*
G01*
X140330000Y-80980000D01*
G75*
G02*
X140630000Y-80680000I300000J0D01*
G01*
X143730000Y-80680000D01*
G75*
G02*
X144030000Y-80980000I0J-300000D01*
G01*
G37*
G36*
G01*
X144030000Y-78440000D02*
X144030000Y-79040000D01*
G75*
G02*
X143730000Y-79340000I-300000J0D01*
G01*
X140630000Y-79340000D01*
G75*
G02*
X140330000Y-79040000I0J300000D01*
G01*
X140330000Y-78440000D01*
G75*
G02*
X140630000Y-78140000I300000J0D01*
G01*
X143730000Y-78140000D01*
G75*
G02*
X144030000Y-78440000I0J-300000D01*
G01*
G37*
G36*
G01*
X144030000Y-75900000D02*
X144030000Y-76500000D01*
G75*
G02*
X143730000Y-76800000I-300000J0D01*
G01*
X140630000Y-76800000D01*
G75*
G02*
X140330000Y-76500000I0J300000D01*
G01*
X140330000Y-75900000D01*
G75*
G02*
X140630000Y-75600000I300000J0D01*
G01*
X143730000Y-75600000D01*
G75*
G02*
X144030000Y-75900000I0J-300000D01*
G01*
G37*
G36*
G01*
X144030000Y-88600000D02*
X144030000Y-89200000D01*
G75*
G02*
X143730000Y-89500000I-300000J0D01*
G01*
X140630000Y-89500000D01*
G75*
G02*
X140330000Y-89200000I0J300000D01*
G01*
X140330000Y-88600000D01*
G75*
G02*
X140630000Y-88300000I300000J0D01*
G01*
X143730000Y-88300000D01*
G75*
G02*
X144030000Y-88600000I0J-300000D01*
G01*
G37*
G36*
G01*
X144030000Y-91140000D02*
X144030000Y-91740000D01*
G75*
G02*
X143730000Y-92040000I-300000J0D01*
G01*
X140630000Y-92040000D01*
G75*
G02*
X140330000Y-91740000I0J300000D01*
G01*
X140330000Y-91140000D01*
G75*
G02*
X140630000Y-90840000I300000J0D01*
G01*
X143730000Y-90840000D01*
G75*
G02*
X144030000Y-91140000I0J-300000D01*
G01*
G37*
G36*
G01*
X144030000Y-93680000D02*
X144030000Y-94280000D01*
G75*
G02*
X143730000Y-94580000I-300000J0D01*
G01*
X140630000Y-94580000D01*
G75*
G02*
X140330000Y-94280000I0J300000D01*
G01*
X140330000Y-93680000D01*
G75*
G02*
X140630000Y-93380000I300000J0D01*
G01*
X143730000Y-93380000D01*
G75*
G02*
X144030000Y-93680000I0J-300000D01*
G01*
G37*
G36*
G01*
X144030000Y-96220000D02*
X144030000Y-96820000D01*
G75*
G02*
X143730000Y-97120000I-300000J0D01*
G01*
X140630000Y-97120000D01*
G75*
G02*
X140330000Y-96820000I0J300000D01*
G01*
X140330000Y-96220000D01*
G75*
G02*
X140630000Y-95920000I300000J0D01*
G01*
X143730000Y-95920000D01*
G75*
G02*
X144030000Y-96220000I0J-300000D01*
G01*
G37*
G36*
G01*
X144030000Y-98760000D02*
X144030000Y-99360000D01*
G75*
G02*
X143730000Y-99660000I-300000J0D01*
G01*
X140630000Y-99660000D01*
G75*
G02*
X140330000Y-99360000I0J300000D01*
G01*
X140330000Y-98760000D01*
G75*
G02*
X140630000Y-98460000I300000J0D01*
G01*
X143730000Y-98460000D01*
G75*
G02*
X144030000Y-98760000I0J-300000D01*
G01*
G37*
G36*
G01*
X144030000Y-101300000D02*
X144030000Y-101900000D01*
G75*
G02*
X143730000Y-102200000I-300000J0D01*
G01*
X140630000Y-102200000D01*
G75*
G02*
X140330000Y-101900000I0J300000D01*
G01*
X140330000Y-101300000D01*
G75*
G02*
X140630000Y-101000000I300000J0D01*
G01*
X143730000Y-101000000D01*
G75*
G02*
X144030000Y-101300000I0J-300000D01*
G01*
G37*
G36*
G01*
X144030000Y-103840000D02*
X144030000Y-104440000D01*
G75*
G02*
X143730000Y-104740000I-300000J0D01*
G01*
X140630000Y-104740000D01*
G75*
G02*
X140330000Y-104440000I0J300000D01*
G01*
X140330000Y-103840000D01*
G75*
G02*
X140630000Y-103540000I300000J0D01*
G01*
X143730000Y-103540000D01*
G75*
G02*
X144030000Y-103840000I0J-300000D01*
G01*
G37*
G36*
G01*
X144030000Y-106380000D02*
X144030000Y-106980000D01*
G75*
G02*
X143730000Y-107280000I-300000J0D01*
G01*
X140630000Y-107280000D01*
G75*
G02*
X140330000Y-106980000I0J300000D01*
G01*
X140330000Y-106380000D01*
G75*
G02*
X140630000Y-106080000I300000J0D01*
G01*
X143730000Y-106080000D01*
G75*
G02*
X144030000Y-106380000I0J-300000D01*
G01*
G37*
G36*
G01*
X144030000Y-108920000D02*
X144030000Y-109520000D01*
G75*
G02*
X143730000Y-109820000I-300000J0D01*
G01*
X140630000Y-109820000D01*
G75*
G02*
X140330000Y-109520000I0J300000D01*
G01*
X140330000Y-108920000D01*
G75*
G02*
X140630000Y-108620000I300000J0D01*
G01*
X143730000Y-108620000D01*
G75*
G02*
X144030000Y-108920000I0J-300000D01*
G01*
G37*
G36*
G01*
X161870000Y-108920000D02*
X161870000Y-109520000D01*
G75*
G02*
X161570000Y-109820000I-300000J0D01*
G01*
X158470000Y-109820000D01*
G75*
G02*
X158170000Y-109520000I0J300000D01*
G01*
X158170000Y-108920000D01*
G75*
G02*
X158470000Y-108620000I300000J0D01*
G01*
X161570000Y-108620000D01*
G75*
G02*
X161870000Y-108920000I0J-300000D01*
G01*
G37*
G36*
G01*
X161870000Y-106380000D02*
X161870000Y-106980000D01*
G75*
G02*
X161570000Y-107280000I-300000J0D01*
G01*
X158470000Y-107280000D01*
G75*
G02*
X158170000Y-106980000I0J300000D01*
G01*
X158170000Y-106380000D01*
G75*
G02*
X158470000Y-106080000I300000J0D01*
G01*
X161570000Y-106080000D01*
G75*
G02*
X161870000Y-106380000I0J-300000D01*
G01*
G37*
G36*
G01*
X161870000Y-103840000D02*
X161870000Y-104440000D01*
G75*
G02*
X161570000Y-104740000I-300000J0D01*
G01*
X158470000Y-104740000D01*
G75*
G02*
X158170000Y-104440000I0J300000D01*
G01*
X158170000Y-103840000D01*
G75*
G02*
X158470000Y-103540000I300000J0D01*
G01*
X161570000Y-103540000D01*
G75*
G02*
X161870000Y-103840000I0J-300000D01*
G01*
G37*
G36*
G01*
X161870000Y-101300000D02*
X161870000Y-101900000D01*
G75*
G02*
X161570000Y-102200000I-300000J0D01*
G01*
X158470000Y-102200000D01*
G75*
G02*
X158170000Y-101900000I0J300000D01*
G01*
X158170000Y-101300000D01*
G75*
G02*
X158470000Y-101000000I300000J0D01*
G01*
X161570000Y-101000000D01*
G75*
G02*
X161870000Y-101300000I0J-300000D01*
G01*
G37*
G36*
G01*
X161870000Y-98760000D02*
X161870000Y-99360000D01*
G75*
G02*
X161570000Y-99660000I-300000J0D01*
G01*
X158470000Y-99660000D01*
G75*
G02*
X158170000Y-99360000I0J300000D01*
G01*
X158170000Y-98760000D01*
G75*
G02*
X158470000Y-98460000I300000J0D01*
G01*
X161570000Y-98460000D01*
G75*
G02*
X161870000Y-98760000I0J-300000D01*
G01*
G37*
G36*
G01*
X161870000Y-96220000D02*
X161870000Y-96820000D01*
G75*
G02*
X161570000Y-97120000I-300000J0D01*
G01*
X158470000Y-97120000D01*
G75*
G02*
X158170000Y-96820000I0J300000D01*
G01*
X158170000Y-96220000D01*
G75*
G02*
X158470000Y-95920000I300000J0D01*
G01*
X161570000Y-95920000D01*
G75*
G02*
X161870000Y-96220000I0J-300000D01*
G01*
G37*
G36*
G01*
X161870000Y-93680000D02*
X161870000Y-94280000D01*
G75*
G02*
X161570000Y-94580000I-300000J0D01*
G01*
X158470000Y-94580000D01*
G75*
G02*
X158170000Y-94280000I0J300000D01*
G01*
X158170000Y-93680000D01*
G75*
G02*
X158470000Y-93380000I300000J0D01*
G01*
X161570000Y-93380000D01*
G75*
G02*
X161870000Y-93680000I0J-300000D01*
G01*
G37*
G36*
G01*
X161870000Y-91140000D02*
X161870000Y-91740000D01*
G75*
G02*
X161570000Y-92040000I-300000J0D01*
G01*
X158470000Y-92040000D01*
G75*
G02*
X158170000Y-91740000I0J300000D01*
G01*
X158170000Y-91140000D01*
G75*
G02*
X158470000Y-90840000I300000J0D01*
G01*
X161570000Y-90840000D01*
G75*
G02*
X161870000Y-91140000I0J-300000D01*
G01*
G37*
G36*
G01*
X161870000Y-88600000D02*
X161870000Y-89200000D01*
G75*
G02*
X161570000Y-89500000I-300000J0D01*
G01*
X158470000Y-89500000D01*
G75*
G02*
X158170000Y-89200000I0J300000D01*
G01*
X158170000Y-88600000D01*
G75*
G02*
X158470000Y-88300000I300000J0D01*
G01*
X161570000Y-88300000D01*
G75*
G02*
X161870000Y-88600000I0J-300000D01*
G01*
G37*
G36*
G01*
X161870000Y-86060000D02*
X161870000Y-86660000D01*
G75*
G02*
X161570000Y-86960000I-300000J0D01*
G01*
X158470000Y-86960000D01*
G75*
G02*
X158170000Y-86660000I0J300000D01*
G01*
X158170000Y-86060000D01*
G75*
G02*
X158470000Y-85760000I300000J0D01*
G01*
X161570000Y-85760000D01*
G75*
G02*
X161870000Y-86060000I0J-300000D01*
G01*
G37*
G36*
G01*
X161870000Y-83520000D02*
X161870000Y-84120000D01*
G75*
G02*
X161570000Y-84420000I-300000J0D01*
G01*
X158470000Y-84420000D01*
G75*
G02*
X158170000Y-84120000I0J300000D01*
G01*
X158170000Y-83520000D01*
G75*
G02*
X158470000Y-83220000I300000J0D01*
G01*
X161570000Y-83220000D01*
G75*
G02*
X161870000Y-83520000I0J-300000D01*
G01*
G37*
G36*
G01*
X161870000Y-80980000D02*
X161870000Y-81580000D01*
G75*
G02*
X161570000Y-81880000I-300000J0D01*
G01*
X158470000Y-81880000D01*
G75*
G02*
X158170000Y-81580000I0J300000D01*
G01*
X158170000Y-80980000D01*
G75*
G02*
X158470000Y-80680000I300000J0D01*
G01*
X161570000Y-80680000D01*
G75*
G02*
X161870000Y-80980000I0J-300000D01*
G01*
G37*
G36*
G01*
X161870000Y-78440000D02*
X161870000Y-79040000D01*
G75*
G02*
X161570000Y-79340000I-300000J0D01*
G01*
X158470000Y-79340000D01*
G75*
G02*
X158170000Y-79040000I0J300000D01*
G01*
X158170000Y-78440000D01*
G75*
G02*
X158470000Y-78140000I300000J0D01*
G01*
X161570000Y-78140000D01*
G75*
G02*
X161870000Y-78440000I0J-300000D01*
G01*
G37*
G36*
G01*
X161870000Y-75900000D02*
X161870000Y-76500000D01*
G75*
G02*
X161570000Y-76800000I-300000J0D01*
G01*
X158470000Y-76800000D01*
G75*
G02*
X158170000Y-76500000I0J300000D01*
G01*
X158170000Y-75900000D01*
G75*
G02*
X158470000Y-75600000I300000J0D01*
G01*
X161570000Y-75600000D01*
G75*
G02*
X161870000Y-75900000I0J-300000D01*
G01*
G37*
%TD*%
M02*
